%TF.GenerationSoftware,KiCad,Pcbnew,8.0.8*%
%TF.CreationDate,2025-02-15T23:34:01-05:00*%
%TF.ProjectId,SensorModuleBreakout,53656e73-6f72-44d6-9f64-756c65427265,rev?*%
%TF.SameCoordinates,Original*%
%TF.FileFunction,Legend,Bot*%
%TF.FilePolarity,Positive*%
%FSLAX46Y46*%
G04 Gerber Fmt 4.6, Leading zero omitted, Abs format (unit mm)*
G04 Created by KiCad (PCBNEW 8.0.8) date 2025-02-15 23:34:01*
%MOMM*%
%LPD*%
G01*
G04 APERTURE LIST*
%ADD10C,0.150000*%
G04 APERTURE END LIST*
D10*
X118966666Y-97254819D02*
X118966666Y-96254819D01*
X118966666Y-96254819D02*
X118585714Y-96254819D01*
X118585714Y-96254819D02*
X118490476Y-96302438D01*
X118490476Y-96302438D02*
X118442857Y-96350057D01*
X118442857Y-96350057D02*
X118395238Y-96445295D01*
X118395238Y-96445295D02*
X118395238Y-96588152D01*
X118395238Y-96588152D02*
X118442857Y-96683390D01*
X118442857Y-96683390D02*
X118490476Y-96731009D01*
X118490476Y-96731009D02*
X118585714Y-96778628D01*
X118585714Y-96778628D02*
X118966666Y-96778628D01*
X118014285Y-96969104D02*
X117538095Y-96969104D01*
X118109523Y-97254819D02*
X117776190Y-96254819D01*
X117776190Y-96254819D02*
X117442857Y-97254819D01*
X117204761Y-96254819D02*
X116538095Y-96254819D01*
X116538095Y-96254819D02*
X116966666Y-97254819D01*
X119038094Y-89654819D02*
X119038094Y-88654819D01*
X119038094Y-88654819D02*
X118657142Y-88654819D01*
X118657142Y-88654819D02*
X118561904Y-88702438D01*
X118561904Y-88702438D02*
X118514285Y-88750057D01*
X118514285Y-88750057D02*
X118466666Y-88845295D01*
X118466666Y-88845295D02*
X118466666Y-88988152D01*
X118466666Y-88988152D02*
X118514285Y-89083390D01*
X118514285Y-89083390D02*
X118561904Y-89131009D01*
X118561904Y-89131009D02*
X118657142Y-89178628D01*
X118657142Y-89178628D02*
X119038094Y-89178628D01*
X117704761Y-89131009D02*
X117561904Y-89178628D01*
X117561904Y-89178628D02*
X117514285Y-89226247D01*
X117514285Y-89226247D02*
X117466666Y-89321485D01*
X117466666Y-89321485D02*
X117466666Y-89464342D01*
X117466666Y-89464342D02*
X117514285Y-89559580D01*
X117514285Y-89559580D02*
X117561904Y-89607200D01*
X117561904Y-89607200D02*
X117657142Y-89654819D01*
X117657142Y-89654819D02*
X118038094Y-89654819D01*
X118038094Y-89654819D02*
X118038094Y-88654819D01*
X118038094Y-88654819D02*
X117704761Y-88654819D01*
X117704761Y-88654819D02*
X117609523Y-88702438D01*
X117609523Y-88702438D02*
X117561904Y-88750057D01*
X117561904Y-88750057D02*
X117514285Y-88845295D01*
X117514285Y-88845295D02*
X117514285Y-88940533D01*
X117514285Y-88940533D02*
X117561904Y-89035771D01*
X117561904Y-89035771D02*
X117609523Y-89083390D01*
X117609523Y-89083390D02*
X117704761Y-89131009D01*
X117704761Y-89131009D02*
X118038094Y-89131009D01*
X117085713Y-88750057D02*
X117038094Y-88702438D01*
X117038094Y-88702438D02*
X116942856Y-88654819D01*
X116942856Y-88654819D02*
X116704761Y-88654819D01*
X116704761Y-88654819D02*
X116609523Y-88702438D01*
X116609523Y-88702438D02*
X116561904Y-88750057D01*
X116561904Y-88750057D02*
X116514285Y-88845295D01*
X116514285Y-88845295D02*
X116514285Y-88940533D01*
X116514285Y-88940533D02*
X116561904Y-89083390D01*
X116561904Y-89083390D02*
X117133332Y-89654819D01*
X117133332Y-89654819D02*
X116514285Y-89654819D01*
X90966666Y-87054819D02*
X90966666Y-86054819D01*
X90966666Y-86054819D02*
X90585714Y-86054819D01*
X90585714Y-86054819D02*
X90490476Y-86102438D01*
X90490476Y-86102438D02*
X90442857Y-86150057D01*
X90442857Y-86150057D02*
X90395238Y-86245295D01*
X90395238Y-86245295D02*
X90395238Y-86388152D01*
X90395238Y-86388152D02*
X90442857Y-86483390D01*
X90442857Y-86483390D02*
X90490476Y-86531009D01*
X90490476Y-86531009D02*
X90585714Y-86578628D01*
X90585714Y-86578628D02*
X90966666Y-86578628D01*
X90014285Y-86769104D02*
X89538095Y-86769104D01*
X90109523Y-87054819D02*
X89776190Y-86054819D01*
X89776190Y-86054819D02*
X89442857Y-87054819D01*
X88585714Y-87054819D02*
X89157142Y-87054819D01*
X88871428Y-87054819D02*
X88871428Y-86054819D01*
X88871428Y-86054819D02*
X88966666Y-86197676D01*
X88966666Y-86197676D02*
X89061904Y-86292914D01*
X89061904Y-86292914D02*
X89157142Y-86340533D01*
X119185713Y-69454819D02*
X119185713Y-68454819D01*
X119185713Y-68454819D02*
X118614285Y-69454819D01*
X118614285Y-69454819D02*
X118614285Y-68454819D01*
X117566666Y-69359580D02*
X117614285Y-69407200D01*
X117614285Y-69407200D02*
X117757142Y-69454819D01*
X117757142Y-69454819D02*
X117852380Y-69454819D01*
X117852380Y-69454819D02*
X117995237Y-69407200D01*
X117995237Y-69407200D02*
X118090475Y-69311961D01*
X118090475Y-69311961D02*
X118138094Y-69216723D01*
X118138094Y-69216723D02*
X118185713Y-69026247D01*
X118185713Y-69026247D02*
X118185713Y-68883390D01*
X118185713Y-68883390D02*
X118138094Y-68692914D01*
X118138094Y-68692914D02*
X118090475Y-68597676D01*
X118090475Y-68597676D02*
X117995237Y-68502438D01*
X117995237Y-68502438D02*
X117852380Y-68454819D01*
X117852380Y-68454819D02*
X117757142Y-68454819D01*
X117757142Y-68454819D02*
X117614285Y-68502438D01*
X117614285Y-68502438D02*
X117566666Y-68550057D01*
X92114285Y-79454819D02*
X92114285Y-78454819D01*
X92114285Y-78454819D02*
X91733333Y-78454819D01*
X91733333Y-78454819D02*
X91638095Y-78502438D01*
X91638095Y-78502438D02*
X91590476Y-78550057D01*
X91590476Y-78550057D02*
X91542857Y-78645295D01*
X91542857Y-78645295D02*
X91542857Y-78788152D01*
X91542857Y-78788152D02*
X91590476Y-78883390D01*
X91590476Y-78883390D02*
X91638095Y-78931009D01*
X91638095Y-78931009D02*
X91733333Y-78978628D01*
X91733333Y-78978628D02*
X92114285Y-78978628D01*
X90542857Y-79359580D02*
X90590476Y-79407200D01*
X90590476Y-79407200D02*
X90733333Y-79454819D01*
X90733333Y-79454819D02*
X90828571Y-79454819D01*
X90828571Y-79454819D02*
X90971428Y-79407200D01*
X90971428Y-79407200D02*
X91066666Y-79311961D01*
X91066666Y-79311961D02*
X91114285Y-79216723D01*
X91114285Y-79216723D02*
X91161904Y-79026247D01*
X91161904Y-79026247D02*
X91161904Y-78883390D01*
X91161904Y-78883390D02*
X91114285Y-78692914D01*
X91114285Y-78692914D02*
X91066666Y-78597676D01*
X91066666Y-78597676D02*
X90971428Y-78502438D01*
X90971428Y-78502438D02*
X90828571Y-78454819D01*
X90828571Y-78454819D02*
X90733333Y-78454819D01*
X90733333Y-78454819D02*
X90590476Y-78502438D01*
X90590476Y-78502438D02*
X90542857Y-78550057D01*
X89590476Y-79454819D02*
X90161904Y-79454819D01*
X89876190Y-79454819D02*
X89876190Y-78454819D01*
X89876190Y-78454819D02*
X89971428Y-78597676D01*
X89971428Y-78597676D02*
X90066666Y-78692914D01*
X90066666Y-78692914D02*
X90161904Y-78740533D01*
X88685714Y-78454819D02*
X89161904Y-78454819D01*
X89161904Y-78454819D02*
X89209523Y-78931009D01*
X89209523Y-78931009D02*
X89161904Y-78883390D01*
X89161904Y-78883390D02*
X89066666Y-78835771D01*
X89066666Y-78835771D02*
X88828571Y-78835771D01*
X88828571Y-78835771D02*
X88733333Y-78883390D01*
X88733333Y-78883390D02*
X88685714Y-78931009D01*
X88685714Y-78931009D02*
X88638095Y-79026247D01*
X88638095Y-79026247D02*
X88638095Y-79264342D01*
X88638095Y-79264342D02*
X88685714Y-79359580D01*
X88685714Y-79359580D02*
X88733333Y-79407200D01*
X88733333Y-79407200D02*
X88828571Y-79454819D01*
X88828571Y-79454819D02*
X89066666Y-79454819D01*
X89066666Y-79454819D02*
X89161904Y-79407200D01*
X89161904Y-79407200D02*
X89209523Y-79359580D01*
X119166666Y-71854819D02*
X119166666Y-70854819D01*
X119166666Y-70854819D02*
X118785714Y-70854819D01*
X118785714Y-70854819D02*
X118690476Y-70902438D01*
X118690476Y-70902438D02*
X118642857Y-70950057D01*
X118642857Y-70950057D02*
X118595238Y-71045295D01*
X118595238Y-71045295D02*
X118595238Y-71188152D01*
X118595238Y-71188152D02*
X118642857Y-71283390D01*
X118642857Y-71283390D02*
X118690476Y-71331009D01*
X118690476Y-71331009D02*
X118785714Y-71378628D01*
X118785714Y-71378628D02*
X119166666Y-71378628D01*
X118214285Y-71569104D02*
X117738095Y-71569104D01*
X118309523Y-71854819D02*
X117976190Y-70854819D01*
X117976190Y-70854819D02*
X117642857Y-71854819D01*
X117166666Y-71283390D02*
X117261904Y-71235771D01*
X117261904Y-71235771D02*
X117309523Y-71188152D01*
X117309523Y-71188152D02*
X117357142Y-71092914D01*
X117357142Y-71092914D02*
X117357142Y-71045295D01*
X117357142Y-71045295D02*
X117309523Y-70950057D01*
X117309523Y-70950057D02*
X117261904Y-70902438D01*
X117261904Y-70902438D02*
X117166666Y-70854819D01*
X117166666Y-70854819D02*
X116976190Y-70854819D01*
X116976190Y-70854819D02*
X116880952Y-70902438D01*
X116880952Y-70902438D02*
X116833333Y-70950057D01*
X116833333Y-70950057D02*
X116785714Y-71045295D01*
X116785714Y-71045295D02*
X116785714Y-71092914D01*
X116785714Y-71092914D02*
X116833333Y-71188152D01*
X116833333Y-71188152D02*
X116880952Y-71235771D01*
X116880952Y-71235771D02*
X116976190Y-71283390D01*
X116976190Y-71283390D02*
X117166666Y-71283390D01*
X117166666Y-71283390D02*
X117261904Y-71331009D01*
X117261904Y-71331009D02*
X117309523Y-71378628D01*
X117309523Y-71378628D02*
X117357142Y-71473866D01*
X117357142Y-71473866D02*
X117357142Y-71664342D01*
X117357142Y-71664342D02*
X117309523Y-71759580D01*
X117309523Y-71759580D02*
X117261904Y-71807200D01*
X117261904Y-71807200D02*
X117166666Y-71854819D01*
X117166666Y-71854819D02*
X116976190Y-71854819D01*
X116976190Y-71854819D02*
X116880952Y-71807200D01*
X116880952Y-71807200D02*
X116833333Y-71759580D01*
X116833333Y-71759580D02*
X116785714Y-71664342D01*
X116785714Y-71664342D02*
X116785714Y-71473866D01*
X116785714Y-71473866D02*
X116833333Y-71378628D01*
X116833333Y-71378628D02*
X116880952Y-71331009D01*
X116880952Y-71331009D02*
X116976190Y-71283390D01*
X119114285Y-77054819D02*
X119114285Y-76054819D01*
X119114285Y-76054819D02*
X118733333Y-76054819D01*
X118733333Y-76054819D02*
X118638095Y-76102438D01*
X118638095Y-76102438D02*
X118590476Y-76150057D01*
X118590476Y-76150057D02*
X118542857Y-76245295D01*
X118542857Y-76245295D02*
X118542857Y-76388152D01*
X118542857Y-76388152D02*
X118590476Y-76483390D01*
X118590476Y-76483390D02*
X118638095Y-76531009D01*
X118638095Y-76531009D02*
X118733333Y-76578628D01*
X118733333Y-76578628D02*
X119114285Y-76578628D01*
X117780952Y-76531009D02*
X117638095Y-76578628D01*
X117638095Y-76578628D02*
X117590476Y-76626247D01*
X117590476Y-76626247D02*
X117542857Y-76721485D01*
X117542857Y-76721485D02*
X117542857Y-76864342D01*
X117542857Y-76864342D02*
X117590476Y-76959580D01*
X117590476Y-76959580D02*
X117638095Y-77007200D01*
X117638095Y-77007200D02*
X117733333Y-77054819D01*
X117733333Y-77054819D02*
X118114285Y-77054819D01*
X118114285Y-77054819D02*
X118114285Y-76054819D01*
X118114285Y-76054819D02*
X117780952Y-76054819D01*
X117780952Y-76054819D02*
X117685714Y-76102438D01*
X117685714Y-76102438D02*
X117638095Y-76150057D01*
X117638095Y-76150057D02*
X117590476Y-76245295D01*
X117590476Y-76245295D02*
X117590476Y-76340533D01*
X117590476Y-76340533D02*
X117638095Y-76435771D01*
X117638095Y-76435771D02*
X117685714Y-76483390D01*
X117685714Y-76483390D02*
X117780952Y-76531009D01*
X117780952Y-76531009D02*
X118114285Y-76531009D01*
X116590476Y-77054819D02*
X117161904Y-77054819D01*
X116876190Y-77054819D02*
X116876190Y-76054819D01*
X116876190Y-76054819D02*
X116971428Y-76197676D01*
X116971428Y-76197676D02*
X117066666Y-76292914D01*
X117066666Y-76292914D02*
X117161904Y-76340533D01*
X115733333Y-76388152D02*
X115733333Y-77054819D01*
X115971428Y-76007200D02*
X116209523Y-76721485D01*
X116209523Y-76721485D02*
X115590476Y-76721485D01*
X119038094Y-94654819D02*
X119038094Y-93654819D01*
X119038094Y-93654819D02*
X118657142Y-93654819D01*
X118657142Y-93654819D02*
X118561904Y-93702438D01*
X118561904Y-93702438D02*
X118514285Y-93750057D01*
X118514285Y-93750057D02*
X118466666Y-93845295D01*
X118466666Y-93845295D02*
X118466666Y-93988152D01*
X118466666Y-93988152D02*
X118514285Y-94083390D01*
X118514285Y-94083390D02*
X118561904Y-94131009D01*
X118561904Y-94131009D02*
X118657142Y-94178628D01*
X118657142Y-94178628D02*
X119038094Y-94178628D01*
X117704761Y-94131009D02*
X117561904Y-94178628D01*
X117561904Y-94178628D02*
X117514285Y-94226247D01*
X117514285Y-94226247D02*
X117466666Y-94321485D01*
X117466666Y-94321485D02*
X117466666Y-94464342D01*
X117466666Y-94464342D02*
X117514285Y-94559580D01*
X117514285Y-94559580D02*
X117561904Y-94607200D01*
X117561904Y-94607200D02*
X117657142Y-94654819D01*
X117657142Y-94654819D02*
X118038094Y-94654819D01*
X118038094Y-94654819D02*
X118038094Y-93654819D01*
X118038094Y-93654819D02*
X117704761Y-93654819D01*
X117704761Y-93654819D02*
X117609523Y-93702438D01*
X117609523Y-93702438D02*
X117561904Y-93750057D01*
X117561904Y-93750057D02*
X117514285Y-93845295D01*
X117514285Y-93845295D02*
X117514285Y-93940533D01*
X117514285Y-93940533D02*
X117561904Y-94035771D01*
X117561904Y-94035771D02*
X117609523Y-94083390D01*
X117609523Y-94083390D02*
X117704761Y-94131009D01*
X117704761Y-94131009D02*
X118038094Y-94131009D01*
X116847618Y-93654819D02*
X116752380Y-93654819D01*
X116752380Y-93654819D02*
X116657142Y-93702438D01*
X116657142Y-93702438D02*
X116609523Y-93750057D01*
X116609523Y-93750057D02*
X116561904Y-93845295D01*
X116561904Y-93845295D02*
X116514285Y-94035771D01*
X116514285Y-94035771D02*
X116514285Y-94273866D01*
X116514285Y-94273866D02*
X116561904Y-94464342D01*
X116561904Y-94464342D02*
X116609523Y-94559580D01*
X116609523Y-94559580D02*
X116657142Y-94607200D01*
X116657142Y-94607200D02*
X116752380Y-94654819D01*
X116752380Y-94654819D02*
X116847618Y-94654819D01*
X116847618Y-94654819D02*
X116942856Y-94607200D01*
X116942856Y-94607200D02*
X116990475Y-94559580D01*
X116990475Y-94559580D02*
X117038094Y-94464342D01*
X117038094Y-94464342D02*
X117085713Y-94273866D01*
X117085713Y-94273866D02*
X117085713Y-94035771D01*
X117085713Y-94035771D02*
X117038094Y-93845295D01*
X117038094Y-93845295D02*
X116990475Y-93750057D01*
X116990475Y-93750057D02*
X116942856Y-93702438D01*
X116942856Y-93702438D02*
X116847618Y-93654819D01*
X91038094Y-71854819D02*
X91038094Y-70854819D01*
X91038094Y-70854819D02*
X90657142Y-70854819D01*
X90657142Y-70854819D02*
X90561904Y-70902438D01*
X90561904Y-70902438D02*
X90514285Y-70950057D01*
X90514285Y-70950057D02*
X90466666Y-71045295D01*
X90466666Y-71045295D02*
X90466666Y-71188152D01*
X90466666Y-71188152D02*
X90514285Y-71283390D01*
X90514285Y-71283390D02*
X90561904Y-71331009D01*
X90561904Y-71331009D02*
X90657142Y-71378628D01*
X90657142Y-71378628D02*
X91038094Y-71378628D01*
X89704761Y-71331009D02*
X89561904Y-71378628D01*
X89561904Y-71378628D02*
X89514285Y-71426247D01*
X89514285Y-71426247D02*
X89466666Y-71521485D01*
X89466666Y-71521485D02*
X89466666Y-71664342D01*
X89466666Y-71664342D02*
X89514285Y-71759580D01*
X89514285Y-71759580D02*
X89561904Y-71807200D01*
X89561904Y-71807200D02*
X89657142Y-71854819D01*
X89657142Y-71854819D02*
X90038094Y-71854819D01*
X90038094Y-71854819D02*
X90038094Y-70854819D01*
X90038094Y-70854819D02*
X89704761Y-70854819D01*
X89704761Y-70854819D02*
X89609523Y-70902438D01*
X89609523Y-70902438D02*
X89561904Y-70950057D01*
X89561904Y-70950057D02*
X89514285Y-71045295D01*
X89514285Y-71045295D02*
X89514285Y-71140533D01*
X89514285Y-71140533D02*
X89561904Y-71235771D01*
X89561904Y-71235771D02*
X89609523Y-71283390D01*
X89609523Y-71283390D02*
X89704761Y-71331009D01*
X89704761Y-71331009D02*
X90038094Y-71331009D01*
X88990475Y-71854819D02*
X88799999Y-71854819D01*
X88799999Y-71854819D02*
X88704761Y-71807200D01*
X88704761Y-71807200D02*
X88657142Y-71759580D01*
X88657142Y-71759580D02*
X88561904Y-71616723D01*
X88561904Y-71616723D02*
X88514285Y-71426247D01*
X88514285Y-71426247D02*
X88514285Y-71045295D01*
X88514285Y-71045295D02*
X88561904Y-70950057D01*
X88561904Y-70950057D02*
X88609523Y-70902438D01*
X88609523Y-70902438D02*
X88704761Y-70854819D01*
X88704761Y-70854819D02*
X88895237Y-70854819D01*
X88895237Y-70854819D02*
X88990475Y-70902438D01*
X88990475Y-70902438D02*
X89038094Y-70950057D01*
X89038094Y-70950057D02*
X89085713Y-71045295D01*
X89085713Y-71045295D02*
X89085713Y-71283390D01*
X89085713Y-71283390D02*
X89038094Y-71378628D01*
X89038094Y-71378628D02*
X88990475Y-71426247D01*
X88990475Y-71426247D02*
X88895237Y-71473866D01*
X88895237Y-71473866D02*
X88704761Y-71473866D01*
X88704761Y-71473866D02*
X88609523Y-71426247D01*
X88609523Y-71426247D02*
X88561904Y-71378628D01*
X88561904Y-71378628D02*
X88514285Y-71283390D01*
X92114285Y-74454819D02*
X92114285Y-73454819D01*
X92114285Y-73454819D02*
X91733333Y-73454819D01*
X91733333Y-73454819D02*
X91638095Y-73502438D01*
X91638095Y-73502438D02*
X91590476Y-73550057D01*
X91590476Y-73550057D02*
X91542857Y-73645295D01*
X91542857Y-73645295D02*
X91542857Y-73788152D01*
X91542857Y-73788152D02*
X91590476Y-73883390D01*
X91590476Y-73883390D02*
X91638095Y-73931009D01*
X91638095Y-73931009D02*
X91733333Y-73978628D01*
X91733333Y-73978628D02*
X92114285Y-73978628D01*
X90542857Y-74359580D02*
X90590476Y-74407200D01*
X90590476Y-74407200D02*
X90733333Y-74454819D01*
X90733333Y-74454819D02*
X90828571Y-74454819D01*
X90828571Y-74454819D02*
X90971428Y-74407200D01*
X90971428Y-74407200D02*
X91066666Y-74311961D01*
X91066666Y-74311961D02*
X91114285Y-74216723D01*
X91114285Y-74216723D02*
X91161904Y-74026247D01*
X91161904Y-74026247D02*
X91161904Y-73883390D01*
X91161904Y-73883390D02*
X91114285Y-73692914D01*
X91114285Y-73692914D02*
X91066666Y-73597676D01*
X91066666Y-73597676D02*
X90971428Y-73502438D01*
X90971428Y-73502438D02*
X90828571Y-73454819D01*
X90828571Y-73454819D02*
X90733333Y-73454819D01*
X90733333Y-73454819D02*
X90590476Y-73502438D01*
X90590476Y-73502438D02*
X90542857Y-73550057D01*
X89590476Y-74454819D02*
X90161904Y-74454819D01*
X89876190Y-74454819D02*
X89876190Y-73454819D01*
X89876190Y-73454819D02*
X89971428Y-73597676D01*
X89971428Y-73597676D02*
X90066666Y-73692914D01*
X90066666Y-73692914D02*
X90161904Y-73740533D01*
X89257142Y-73454819D02*
X88638095Y-73454819D01*
X88638095Y-73454819D02*
X88971428Y-73835771D01*
X88971428Y-73835771D02*
X88828571Y-73835771D01*
X88828571Y-73835771D02*
X88733333Y-73883390D01*
X88733333Y-73883390D02*
X88685714Y-73931009D01*
X88685714Y-73931009D02*
X88638095Y-74026247D01*
X88638095Y-74026247D02*
X88638095Y-74264342D01*
X88638095Y-74264342D02*
X88685714Y-74359580D01*
X88685714Y-74359580D02*
X88733333Y-74407200D01*
X88733333Y-74407200D02*
X88828571Y-74454819D01*
X88828571Y-74454819D02*
X89114285Y-74454819D01*
X89114285Y-74454819D02*
X89209523Y-74407200D01*
X89209523Y-74407200D02*
X89257142Y-74359580D01*
X91038094Y-69254819D02*
X91038094Y-68254819D01*
X91038094Y-68254819D02*
X90657142Y-68254819D01*
X90657142Y-68254819D02*
X90561904Y-68302438D01*
X90561904Y-68302438D02*
X90514285Y-68350057D01*
X90514285Y-68350057D02*
X90466666Y-68445295D01*
X90466666Y-68445295D02*
X90466666Y-68588152D01*
X90466666Y-68588152D02*
X90514285Y-68683390D01*
X90514285Y-68683390D02*
X90561904Y-68731009D01*
X90561904Y-68731009D02*
X90657142Y-68778628D01*
X90657142Y-68778628D02*
X91038094Y-68778628D01*
X89704761Y-68731009D02*
X89561904Y-68778628D01*
X89561904Y-68778628D02*
X89514285Y-68826247D01*
X89514285Y-68826247D02*
X89466666Y-68921485D01*
X89466666Y-68921485D02*
X89466666Y-69064342D01*
X89466666Y-69064342D02*
X89514285Y-69159580D01*
X89514285Y-69159580D02*
X89561904Y-69207200D01*
X89561904Y-69207200D02*
X89657142Y-69254819D01*
X89657142Y-69254819D02*
X90038094Y-69254819D01*
X90038094Y-69254819D02*
X90038094Y-68254819D01*
X90038094Y-68254819D02*
X89704761Y-68254819D01*
X89704761Y-68254819D02*
X89609523Y-68302438D01*
X89609523Y-68302438D02*
X89561904Y-68350057D01*
X89561904Y-68350057D02*
X89514285Y-68445295D01*
X89514285Y-68445295D02*
X89514285Y-68540533D01*
X89514285Y-68540533D02*
X89561904Y-68635771D01*
X89561904Y-68635771D02*
X89609523Y-68683390D01*
X89609523Y-68683390D02*
X89704761Y-68731009D01*
X89704761Y-68731009D02*
X90038094Y-68731009D01*
X88895237Y-68683390D02*
X88990475Y-68635771D01*
X88990475Y-68635771D02*
X89038094Y-68588152D01*
X89038094Y-68588152D02*
X89085713Y-68492914D01*
X89085713Y-68492914D02*
X89085713Y-68445295D01*
X89085713Y-68445295D02*
X89038094Y-68350057D01*
X89038094Y-68350057D02*
X88990475Y-68302438D01*
X88990475Y-68302438D02*
X88895237Y-68254819D01*
X88895237Y-68254819D02*
X88704761Y-68254819D01*
X88704761Y-68254819D02*
X88609523Y-68302438D01*
X88609523Y-68302438D02*
X88561904Y-68350057D01*
X88561904Y-68350057D02*
X88514285Y-68445295D01*
X88514285Y-68445295D02*
X88514285Y-68492914D01*
X88514285Y-68492914D02*
X88561904Y-68588152D01*
X88561904Y-68588152D02*
X88609523Y-68635771D01*
X88609523Y-68635771D02*
X88704761Y-68683390D01*
X88704761Y-68683390D02*
X88895237Y-68683390D01*
X88895237Y-68683390D02*
X88990475Y-68731009D01*
X88990475Y-68731009D02*
X89038094Y-68778628D01*
X89038094Y-68778628D02*
X89085713Y-68873866D01*
X89085713Y-68873866D02*
X89085713Y-69064342D01*
X89085713Y-69064342D02*
X89038094Y-69159580D01*
X89038094Y-69159580D02*
X88990475Y-69207200D01*
X88990475Y-69207200D02*
X88895237Y-69254819D01*
X88895237Y-69254819D02*
X88704761Y-69254819D01*
X88704761Y-69254819D02*
X88609523Y-69207200D01*
X88609523Y-69207200D02*
X88561904Y-69159580D01*
X88561904Y-69159580D02*
X88514285Y-69064342D01*
X88514285Y-69064342D02*
X88514285Y-68873866D01*
X88514285Y-68873866D02*
X88561904Y-68778628D01*
X88561904Y-68778628D02*
X88609523Y-68731009D01*
X88609523Y-68731009D02*
X88704761Y-68683390D01*
X119114285Y-87054819D02*
X119114285Y-86054819D01*
X119114285Y-86054819D02*
X118733333Y-86054819D01*
X118733333Y-86054819D02*
X118638095Y-86102438D01*
X118638095Y-86102438D02*
X118590476Y-86150057D01*
X118590476Y-86150057D02*
X118542857Y-86245295D01*
X118542857Y-86245295D02*
X118542857Y-86388152D01*
X118542857Y-86388152D02*
X118590476Y-86483390D01*
X118590476Y-86483390D02*
X118638095Y-86531009D01*
X118638095Y-86531009D02*
X118733333Y-86578628D01*
X118733333Y-86578628D02*
X119114285Y-86578628D01*
X117780952Y-86531009D02*
X117638095Y-86578628D01*
X117638095Y-86578628D02*
X117590476Y-86626247D01*
X117590476Y-86626247D02*
X117542857Y-86721485D01*
X117542857Y-86721485D02*
X117542857Y-86864342D01*
X117542857Y-86864342D02*
X117590476Y-86959580D01*
X117590476Y-86959580D02*
X117638095Y-87007200D01*
X117638095Y-87007200D02*
X117733333Y-87054819D01*
X117733333Y-87054819D02*
X118114285Y-87054819D01*
X118114285Y-87054819D02*
X118114285Y-86054819D01*
X118114285Y-86054819D02*
X117780952Y-86054819D01*
X117780952Y-86054819D02*
X117685714Y-86102438D01*
X117685714Y-86102438D02*
X117638095Y-86150057D01*
X117638095Y-86150057D02*
X117590476Y-86245295D01*
X117590476Y-86245295D02*
X117590476Y-86340533D01*
X117590476Y-86340533D02*
X117638095Y-86435771D01*
X117638095Y-86435771D02*
X117685714Y-86483390D01*
X117685714Y-86483390D02*
X117780952Y-86531009D01*
X117780952Y-86531009D02*
X118114285Y-86531009D01*
X116590476Y-87054819D02*
X117161904Y-87054819D01*
X116876190Y-87054819D02*
X116876190Y-86054819D01*
X116876190Y-86054819D02*
X116971428Y-86197676D01*
X116971428Y-86197676D02*
X117066666Y-86292914D01*
X117066666Y-86292914D02*
X117161904Y-86340533D01*
X115971428Y-86054819D02*
X115876190Y-86054819D01*
X115876190Y-86054819D02*
X115780952Y-86102438D01*
X115780952Y-86102438D02*
X115733333Y-86150057D01*
X115733333Y-86150057D02*
X115685714Y-86245295D01*
X115685714Y-86245295D02*
X115638095Y-86435771D01*
X115638095Y-86435771D02*
X115638095Y-86673866D01*
X115638095Y-86673866D02*
X115685714Y-86864342D01*
X115685714Y-86864342D02*
X115733333Y-86959580D01*
X115733333Y-86959580D02*
X115780952Y-87007200D01*
X115780952Y-87007200D02*
X115876190Y-87054819D01*
X115876190Y-87054819D02*
X115971428Y-87054819D01*
X115971428Y-87054819D02*
X116066666Y-87007200D01*
X116066666Y-87007200D02*
X116114285Y-86959580D01*
X116114285Y-86959580D02*
X116161904Y-86864342D01*
X116161904Y-86864342D02*
X116209523Y-86673866D01*
X116209523Y-86673866D02*
X116209523Y-86435771D01*
X116209523Y-86435771D02*
X116161904Y-86245295D01*
X116161904Y-86245295D02*
X116114285Y-86150057D01*
X116114285Y-86150057D02*
X116066666Y-86102438D01*
X116066666Y-86102438D02*
X115971428Y-86054819D01*
X90966666Y-82054819D02*
X90966666Y-81054819D01*
X90966666Y-81054819D02*
X90585714Y-81054819D01*
X90585714Y-81054819D02*
X90490476Y-81102438D01*
X90490476Y-81102438D02*
X90442857Y-81150057D01*
X90442857Y-81150057D02*
X90395238Y-81245295D01*
X90395238Y-81245295D02*
X90395238Y-81388152D01*
X90395238Y-81388152D02*
X90442857Y-81483390D01*
X90442857Y-81483390D02*
X90490476Y-81531009D01*
X90490476Y-81531009D02*
X90585714Y-81578628D01*
X90585714Y-81578628D02*
X90966666Y-81578628D01*
X89633333Y-81531009D02*
X89966666Y-81531009D01*
X89966666Y-82054819D02*
X89966666Y-81054819D01*
X89966666Y-81054819D02*
X89490476Y-81054819D01*
X88919047Y-81054819D02*
X88823809Y-81054819D01*
X88823809Y-81054819D02*
X88728571Y-81102438D01*
X88728571Y-81102438D02*
X88680952Y-81150057D01*
X88680952Y-81150057D02*
X88633333Y-81245295D01*
X88633333Y-81245295D02*
X88585714Y-81435771D01*
X88585714Y-81435771D02*
X88585714Y-81673866D01*
X88585714Y-81673866D02*
X88633333Y-81864342D01*
X88633333Y-81864342D02*
X88680952Y-81959580D01*
X88680952Y-81959580D02*
X88728571Y-82007200D01*
X88728571Y-82007200D02*
X88823809Y-82054819D01*
X88823809Y-82054819D02*
X88919047Y-82054819D01*
X88919047Y-82054819D02*
X89014285Y-82007200D01*
X89014285Y-82007200D02*
X89061904Y-81959580D01*
X89061904Y-81959580D02*
X89109523Y-81864342D01*
X89109523Y-81864342D02*
X89157142Y-81673866D01*
X89157142Y-81673866D02*
X89157142Y-81435771D01*
X89157142Y-81435771D02*
X89109523Y-81245295D01*
X89109523Y-81245295D02*
X89061904Y-81150057D01*
X89061904Y-81150057D02*
X89014285Y-81102438D01*
X89014285Y-81102438D02*
X88919047Y-81054819D01*
X119114285Y-84454819D02*
X119114285Y-83454819D01*
X119114285Y-83454819D02*
X118733333Y-83454819D01*
X118733333Y-83454819D02*
X118638095Y-83502438D01*
X118638095Y-83502438D02*
X118590476Y-83550057D01*
X118590476Y-83550057D02*
X118542857Y-83645295D01*
X118542857Y-83645295D02*
X118542857Y-83788152D01*
X118542857Y-83788152D02*
X118590476Y-83883390D01*
X118590476Y-83883390D02*
X118638095Y-83931009D01*
X118638095Y-83931009D02*
X118733333Y-83978628D01*
X118733333Y-83978628D02*
X119114285Y-83978628D01*
X117780952Y-83931009D02*
X117638095Y-83978628D01*
X117638095Y-83978628D02*
X117590476Y-84026247D01*
X117590476Y-84026247D02*
X117542857Y-84121485D01*
X117542857Y-84121485D02*
X117542857Y-84264342D01*
X117542857Y-84264342D02*
X117590476Y-84359580D01*
X117590476Y-84359580D02*
X117638095Y-84407200D01*
X117638095Y-84407200D02*
X117733333Y-84454819D01*
X117733333Y-84454819D02*
X118114285Y-84454819D01*
X118114285Y-84454819D02*
X118114285Y-83454819D01*
X118114285Y-83454819D02*
X117780952Y-83454819D01*
X117780952Y-83454819D02*
X117685714Y-83502438D01*
X117685714Y-83502438D02*
X117638095Y-83550057D01*
X117638095Y-83550057D02*
X117590476Y-83645295D01*
X117590476Y-83645295D02*
X117590476Y-83740533D01*
X117590476Y-83740533D02*
X117638095Y-83835771D01*
X117638095Y-83835771D02*
X117685714Y-83883390D01*
X117685714Y-83883390D02*
X117780952Y-83931009D01*
X117780952Y-83931009D02*
X118114285Y-83931009D01*
X116590476Y-84454819D02*
X117161904Y-84454819D01*
X116876190Y-84454819D02*
X116876190Y-83454819D01*
X116876190Y-83454819D02*
X116971428Y-83597676D01*
X116971428Y-83597676D02*
X117066666Y-83692914D01*
X117066666Y-83692914D02*
X117161904Y-83740533D01*
X115638095Y-84454819D02*
X116209523Y-84454819D01*
X115923809Y-84454819D02*
X115923809Y-83454819D01*
X115923809Y-83454819D02*
X116019047Y-83597676D01*
X116019047Y-83597676D02*
X116114285Y-83692914D01*
X116114285Y-83692914D02*
X116209523Y-83740533D01*
X90966666Y-84454819D02*
X90966666Y-83454819D01*
X90966666Y-83454819D02*
X90585714Y-83454819D01*
X90585714Y-83454819D02*
X90490476Y-83502438D01*
X90490476Y-83502438D02*
X90442857Y-83550057D01*
X90442857Y-83550057D02*
X90395238Y-83645295D01*
X90395238Y-83645295D02*
X90395238Y-83788152D01*
X90395238Y-83788152D02*
X90442857Y-83883390D01*
X90442857Y-83883390D02*
X90490476Y-83931009D01*
X90490476Y-83931009D02*
X90585714Y-83978628D01*
X90585714Y-83978628D02*
X90966666Y-83978628D01*
X90014285Y-84169104D02*
X89538095Y-84169104D01*
X90109523Y-84454819D02*
X89776190Y-83454819D01*
X89776190Y-83454819D02*
X89442857Y-84454819D01*
X88919047Y-83454819D02*
X88823809Y-83454819D01*
X88823809Y-83454819D02*
X88728571Y-83502438D01*
X88728571Y-83502438D02*
X88680952Y-83550057D01*
X88680952Y-83550057D02*
X88633333Y-83645295D01*
X88633333Y-83645295D02*
X88585714Y-83835771D01*
X88585714Y-83835771D02*
X88585714Y-84073866D01*
X88585714Y-84073866D02*
X88633333Y-84264342D01*
X88633333Y-84264342D02*
X88680952Y-84359580D01*
X88680952Y-84359580D02*
X88728571Y-84407200D01*
X88728571Y-84407200D02*
X88823809Y-84454819D01*
X88823809Y-84454819D02*
X88919047Y-84454819D01*
X88919047Y-84454819D02*
X89014285Y-84407200D01*
X89014285Y-84407200D02*
X89061904Y-84359580D01*
X89061904Y-84359580D02*
X89109523Y-84264342D01*
X89109523Y-84264342D02*
X89157142Y-84073866D01*
X89157142Y-84073866D02*
X89157142Y-83835771D01*
X89157142Y-83835771D02*
X89109523Y-83645295D01*
X89109523Y-83645295D02*
X89061904Y-83550057D01*
X89061904Y-83550057D02*
X89014285Y-83502438D01*
X89014285Y-83502438D02*
X88919047Y-83454819D01*
X119114285Y-74454819D02*
X119114285Y-73454819D01*
X119114285Y-73454819D02*
X118733333Y-73454819D01*
X118733333Y-73454819D02*
X118638095Y-73502438D01*
X118638095Y-73502438D02*
X118590476Y-73550057D01*
X118590476Y-73550057D02*
X118542857Y-73645295D01*
X118542857Y-73645295D02*
X118542857Y-73788152D01*
X118542857Y-73788152D02*
X118590476Y-73883390D01*
X118590476Y-73883390D02*
X118638095Y-73931009D01*
X118638095Y-73931009D02*
X118733333Y-73978628D01*
X118733333Y-73978628D02*
X119114285Y-73978628D01*
X117780952Y-73931009D02*
X117638095Y-73978628D01*
X117638095Y-73978628D02*
X117590476Y-74026247D01*
X117590476Y-74026247D02*
X117542857Y-74121485D01*
X117542857Y-74121485D02*
X117542857Y-74264342D01*
X117542857Y-74264342D02*
X117590476Y-74359580D01*
X117590476Y-74359580D02*
X117638095Y-74407200D01*
X117638095Y-74407200D02*
X117733333Y-74454819D01*
X117733333Y-74454819D02*
X118114285Y-74454819D01*
X118114285Y-74454819D02*
X118114285Y-73454819D01*
X118114285Y-73454819D02*
X117780952Y-73454819D01*
X117780952Y-73454819D02*
X117685714Y-73502438D01*
X117685714Y-73502438D02*
X117638095Y-73550057D01*
X117638095Y-73550057D02*
X117590476Y-73645295D01*
X117590476Y-73645295D02*
X117590476Y-73740533D01*
X117590476Y-73740533D02*
X117638095Y-73835771D01*
X117638095Y-73835771D02*
X117685714Y-73883390D01*
X117685714Y-73883390D02*
X117780952Y-73931009D01*
X117780952Y-73931009D02*
X118114285Y-73931009D01*
X116590476Y-74454819D02*
X117161904Y-74454819D01*
X116876190Y-74454819D02*
X116876190Y-73454819D01*
X116876190Y-73454819D02*
X116971428Y-73597676D01*
X116971428Y-73597676D02*
X117066666Y-73692914D01*
X117066666Y-73692914D02*
X117161904Y-73740533D01*
X115685714Y-73454819D02*
X116161904Y-73454819D01*
X116161904Y-73454819D02*
X116209523Y-73931009D01*
X116209523Y-73931009D02*
X116161904Y-73883390D01*
X116161904Y-73883390D02*
X116066666Y-73835771D01*
X116066666Y-73835771D02*
X115828571Y-73835771D01*
X115828571Y-73835771D02*
X115733333Y-73883390D01*
X115733333Y-73883390D02*
X115685714Y-73931009D01*
X115685714Y-73931009D02*
X115638095Y-74026247D01*
X115638095Y-74026247D02*
X115638095Y-74264342D01*
X115638095Y-74264342D02*
X115685714Y-74359580D01*
X115685714Y-74359580D02*
X115733333Y-74407200D01*
X115733333Y-74407200D02*
X115828571Y-74454819D01*
X115828571Y-74454819D02*
X116066666Y-74454819D01*
X116066666Y-74454819D02*
X116161904Y-74407200D01*
X116161904Y-74407200D02*
X116209523Y-74359580D01*
X119038094Y-92054819D02*
X119038094Y-91054819D01*
X119038094Y-91054819D02*
X118657142Y-91054819D01*
X118657142Y-91054819D02*
X118561904Y-91102438D01*
X118561904Y-91102438D02*
X118514285Y-91150057D01*
X118514285Y-91150057D02*
X118466666Y-91245295D01*
X118466666Y-91245295D02*
X118466666Y-91388152D01*
X118466666Y-91388152D02*
X118514285Y-91483390D01*
X118514285Y-91483390D02*
X118561904Y-91531009D01*
X118561904Y-91531009D02*
X118657142Y-91578628D01*
X118657142Y-91578628D02*
X119038094Y-91578628D01*
X117704761Y-91531009D02*
X117561904Y-91578628D01*
X117561904Y-91578628D02*
X117514285Y-91626247D01*
X117514285Y-91626247D02*
X117466666Y-91721485D01*
X117466666Y-91721485D02*
X117466666Y-91864342D01*
X117466666Y-91864342D02*
X117514285Y-91959580D01*
X117514285Y-91959580D02*
X117561904Y-92007200D01*
X117561904Y-92007200D02*
X117657142Y-92054819D01*
X117657142Y-92054819D02*
X118038094Y-92054819D01*
X118038094Y-92054819D02*
X118038094Y-91054819D01*
X118038094Y-91054819D02*
X117704761Y-91054819D01*
X117704761Y-91054819D02*
X117609523Y-91102438D01*
X117609523Y-91102438D02*
X117561904Y-91150057D01*
X117561904Y-91150057D02*
X117514285Y-91245295D01*
X117514285Y-91245295D02*
X117514285Y-91340533D01*
X117514285Y-91340533D02*
X117561904Y-91435771D01*
X117561904Y-91435771D02*
X117609523Y-91483390D01*
X117609523Y-91483390D02*
X117704761Y-91531009D01*
X117704761Y-91531009D02*
X118038094Y-91531009D01*
X116514285Y-92054819D02*
X117085713Y-92054819D01*
X116799999Y-92054819D02*
X116799999Y-91054819D01*
X116799999Y-91054819D02*
X116895237Y-91197676D01*
X116895237Y-91197676D02*
X116990475Y-91292914D01*
X116990475Y-91292914D02*
X117085713Y-91340533D01*
X119114285Y-79454819D02*
X119114285Y-78454819D01*
X119114285Y-78454819D02*
X118733333Y-78454819D01*
X118733333Y-78454819D02*
X118638095Y-78502438D01*
X118638095Y-78502438D02*
X118590476Y-78550057D01*
X118590476Y-78550057D02*
X118542857Y-78645295D01*
X118542857Y-78645295D02*
X118542857Y-78788152D01*
X118542857Y-78788152D02*
X118590476Y-78883390D01*
X118590476Y-78883390D02*
X118638095Y-78931009D01*
X118638095Y-78931009D02*
X118733333Y-78978628D01*
X118733333Y-78978628D02*
X119114285Y-78978628D01*
X117780952Y-78931009D02*
X117638095Y-78978628D01*
X117638095Y-78978628D02*
X117590476Y-79026247D01*
X117590476Y-79026247D02*
X117542857Y-79121485D01*
X117542857Y-79121485D02*
X117542857Y-79264342D01*
X117542857Y-79264342D02*
X117590476Y-79359580D01*
X117590476Y-79359580D02*
X117638095Y-79407200D01*
X117638095Y-79407200D02*
X117733333Y-79454819D01*
X117733333Y-79454819D02*
X118114285Y-79454819D01*
X118114285Y-79454819D02*
X118114285Y-78454819D01*
X118114285Y-78454819D02*
X117780952Y-78454819D01*
X117780952Y-78454819D02*
X117685714Y-78502438D01*
X117685714Y-78502438D02*
X117638095Y-78550057D01*
X117638095Y-78550057D02*
X117590476Y-78645295D01*
X117590476Y-78645295D02*
X117590476Y-78740533D01*
X117590476Y-78740533D02*
X117638095Y-78835771D01*
X117638095Y-78835771D02*
X117685714Y-78883390D01*
X117685714Y-78883390D02*
X117780952Y-78931009D01*
X117780952Y-78931009D02*
X118114285Y-78931009D01*
X116590476Y-79454819D02*
X117161904Y-79454819D01*
X116876190Y-79454819D02*
X116876190Y-78454819D01*
X116876190Y-78454819D02*
X116971428Y-78597676D01*
X116971428Y-78597676D02*
X117066666Y-78692914D01*
X117066666Y-78692914D02*
X117161904Y-78740533D01*
X116257142Y-78454819D02*
X115638095Y-78454819D01*
X115638095Y-78454819D02*
X115971428Y-78835771D01*
X115971428Y-78835771D02*
X115828571Y-78835771D01*
X115828571Y-78835771D02*
X115733333Y-78883390D01*
X115733333Y-78883390D02*
X115685714Y-78931009D01*
X115685714Y-78931009D02*
X115638095Y-79026247D01*
X115638095Y-79026247D02*
X115638095Y-79264342D01*
X115638095Y-79264342D02*
X115685714Y-79359580D01*
X115685714Y-79359580D02*
X115733333Y-79407200D01*
X115733333Y-79407200D02*
X115828571Y-79454819D01*
X115828571Y-79454819D02*
X116114285Y-79454819D01*
X116114285Y-79454819D02*
X116209523Y-79407200D01*
X116209523Y-79407200D02*
X116257142Y-79359580D01*
X118966666Y-99854819D02*
X118966666Y-98854819D01*
X118966666Y-98854819D02*
X118585714Y-98854819D01*
X118585714Y-98854819D02*
X118490476Y-98902438D01*
X118490476Y-98902438D02*
X118442857Y-98950057D01*
X118442857Y-98950057D02*
X118395238Y-99045295D01*
X118395238Y-99045295D02*
X118395238Y-99188152D01*
X118395238Y-99188152D02*
X118442857Y-99283390D01*
X118442857Y-99283390D02*
X118490476Y-99331009D01*
X118490476Y-99331009D02*
X118585714Y-99378628D01*
X118585714Y-99378628D02*
X118966666Y-99378628D01*
X118014285Y-99569104D02*
X117538095Y-99569104D01*
X118109523Y-99854819D02*
X117776190Y-98854819D01*
X117776190Y-98854819D02*
X117442857Y-99854819D01*
X117204761Y-98854819D02*
X116538095Y-98854819D01*
X116538095Y-98854819D02*
X116966666Y-99854819D01*
X92114285Y-76854819D02*
X92114285Y-75854819D01*
X92114285Y-75854819D02*
X91733333Y-75854819D01*
X91733333Y-75854819D02*
X91638095Y-75902438D01*
X91638095Y-75902438D02*
X91590476Y-75950057D01*
X91590476Y-75950057D02*
X91542857Y-76045295D01*
X91542857Y-76045295D02*
X91542857Y-76188152D01*
X91542857Y-76188152D02*
X91590476Y-76283390D01*
X91590476Y-76283390D02*
X91638095Y-76331009D01*
X91638095Y-76331009D02*
X91733333Y-76378628D01*
X91733333Y-76378628D02*
X92114285Y-76378628D01*
X90542857Y-76759580D02*
X90590476Y-76807200D01*
X90590476Y-76807200D02*
X90733333Y-76854819D01*
X90733333Y-76854819D02*
X90828571Y-76854819D01*
X90828571Y-76854819D02*
X90971428Y-76807200D01*
X90971428Y-76807200D02*
X91066666Y-76711961D01*
X91066666Y-76711961D02*
X91114285Y-76616723D01*
X91114285Y-76616723D02*
X91161904Y-76426247D01*
X91161904Y-76426247D02*
X91161904Y-76283390D01*
X91161904Y-76283390D02*
X91114285Y-76092914D01*
X91114285Y-76092914D02*
X91066666Y-75997676D01*
X91066666Y-75997676D02*
X90971428Y-75902438D01*
X90971428Y-75902438D02*
X90828571Y-75854819D01*
X90828571Y-75854819D02*
X90733333Y-75854819D01*
X90733333Y-75854819D02*
X90590476Y-75902438D01*
X90590476Y-75902438D02*
X90542857Y-75950057D01*
X89590476Y-76854819D02*
X90161904Y-76854819D01*
X89876190Y-76854819D02*
X89876190Y-75854819D01*
X89876190Y-75854819D02*
X89971428Y-75997676D01*
X89971428Y-75997676D02*
X90066666Y-76092914D01*
X90066666Y-76092914D02*
X90161904Y-76140533D01*
X88733333Y-76188152D02*
X88733333Y-76854819D01*
X88971428Y-75807200D02*
X89209523Y-76521485D01*
X89209523Y-76521485D02*
X88590476Y-76521485D01*
X119114285Y-82054819D02*
X119114285Y-81054819D01*
X119114285Y-81054819D02*
X118733333Y-81054819D01*
X118733333Y-81054819D02*
X118638095Y-81102438D01*
X118638095Y-81102438D02*
X118590476Y-81150057D01*
X118590476Y-81150057D02*
X118542857Y-81245295D01*
X118542857Y-81245295D02*
X118542857Y-81388152D01*
X118542857Y-81388152D02*
X118590476Y-81483390D01*
X118590476Y-81483390D02*
X118638095Y-81531009D01*
X118638095Y-81531009D02*
X118733333Y-81578628D01*
X118733333Y-81578628D02*
X119114285Y-81578628D01*
X117780952Y-81531009D02*
X117638095Y-81578628D01*
X117638095Y-81578628D02*
X117590476Y-81626247D01*
X117590476Y-81626247D02*
X117542857Y-81721485D01*
X117542857Y-81721485D02*
X117542857Y-81864342D01*
X117542857Y-81864342D02*
X117590476Y-81959580D01*
X117590476Y-81959580D02*
X117638095Y-82007200D01*
X117638095Y-82007200D02*
X117733333Y-82054819D01*
X117733333Y-82054819D02*
X118114285Y-82054819D01*
X118114285Y-82054819D02*
X118114285Y-81054819D01*
X118114285Y-81054819D02*
X117780952Y-81054819D01*
X117780952Y-81054819D02*
X117685714Y-81102438D01*
X117685714Y-81102438D02*
X117638095Y-81150057D01*
X117638095Y-81150057D02*
X117590476Y-81245295D01*
X117590476Y-81245295D02*
X117590476Y-81340533D01*
X117590476Y-81340533D02*
X117638095Y-81435771D01*
X117638095Y-81435771D02*
X117685714Y-81483390D01*
X117685714Y-81483390D02*
X117780952Y-81531009D01*
X117780952Y-81531009D02*
X118114285Y-81531009D01*
X116590476Y-82054819D02*
X117161904Y-82054819D01*
X116876190Y-82054819D02*
X116876190Y-81054819D01*
X116876190Y-81054819D02*
X116971428Y-81197676D01*
X116971428Y-81197676D02*
X117066666Y-81292914D01*
X117066666Y-81292914D02*
X117161904Y-81340533D01*
X116209523Y-81150057D02*
X116161904Y-81102438D01*
X116161904Y-81102438D02*
X116066666Y-81054819D01*
X116066666Y-81054819D02*
X115828571Y-81054819D01*
X115828571Y-81054819D02*
X115733333Y-81102438D01*
X115733333Y-81102438D02*
X115685714Y-81150057D01*
X115685714Y-81150057D02*
X115638095Y-81245295D01*
X115638095Y-81245295D02*
X115638095Y-81340533D01*
X115638095Y-81340533D02*
X115685714Y-81483390D01*
X115685714Y-81483390D02*
X116257142Y-82054819D01*
X116257142Y-82054819D02*
X115638095Y-82054819D01*
M02*
