%TF.GenerationSoftware,KiCad,Pcbnew,8.0.8*%
%TF.CreationDate,2025-02-15T23:34:00-05:00*%
%TF.ProjectId,SensorModuleBreakout,53656e73-6f72-44d6-9f64-756c65427265,rev?*%
%TF.SameCoordinates,Original*%
%TF.FileFunction,Paste,Top*%
%TF.FilePolarity,Positive*%
%FSLAX46Y46*%
G04 Gerber Fmt 4.6, Leading zero omitted, Abs format (unit mm)*
G04 Created by KiCad (PCBNEW 8.0.8) date 2025-02-15 23:34:00*
%MOMM*%
%LPD*%
G01*
G04 APERTURE LIST*
G04 Aperture macros list*
%AMRoundRect*
0 Rectangle with rounded corners*
0 $1 Rounding radius*
0 $2 $3 $4 $5 $6 $7 $8 $9 X,Y pos of 4 corners*
0 Add a 4 corners polygon primitive as box body*
4,1,4,$2,$3,$4,$5,$6,$7,$8,$9,$2,$3,0*
0 Add four circle primitives for the rounded corners*
1,1,$1+$1,$2,$3*
1,1,$1+$1,$4,$5*
1,1,$1+$1,$6,$7*
1,1,$1+$1,$8,$9*
0 Add four rect primitives between the rounded corners*
20,1,$1+$1,$2,$3,$4,$5,0*
20,1,$1+$1,$4,$5,$6,$7,0*
20,1,$1+$1,$6,$7,$8,$9,0*
20,1,$1+$1,$8,$9,$2,$3,0*%
G04 Aperture macros list end*
%ADD10RoundRect,0.075000X-0.662500X-0.075000X0.662500X-0.075000X0.662500X0.075000X-0.662500X0.075000X0*%
%ADD11RoundRect,0.075000X-0.075000X-0.662500X0.075000X-0.662500X0.075000X0.662500X-0.075000X0.662500X0*%
%ADD12RoundRect,0.147500X-0.147500X-0.172500X0.147500X-0.172500X0.147500X0.172500X-0.147500X0.172500X0*%
%ADD13RoundRect,0.140000X-0.140000X-0.170000X0.140000X-0.170000X0.140000X0.170000X-0.140000X0.170000X0*%
%ADD14RoundRect,0.140000X-0.170000X0.140000X-0.170000X-0.140000X0.170000X-0.140000X0.170000X0.140000X0*%
%ADD15R,0.500000X0.200000*%
%ADD16R,0.200000X0.500000*%
%ADD17R,1.690000X2.050000*%
%ADD18R,1.690000X1.190000*%
%ADD19RoundRect,0.140000X0.170000X-0.140000X0.170000X0.140000X-0.170000X0.140000X-0.170000X-0.140000X0*%
%ADD20RoundRect,0.218750X0.256250X-0.218750X0.256250X0.218750X-0.256250X0.218750X-0.256250X-0.218750X0*%
%ADD21RoundRect,0.135000X-0.135000X-0.185000X0.135000X-0.185000X0.135000X0.185000X-0.135000X0.185000X0*%
%ADD22RoundRect,0.140000X0.140000X0.170000X-0.140000X0.170000X-0.140000X-0.170000X0.140000X-0.170000X0*%
%ADD23RoundRect,0.225000X-0.225000X-0.250000X0.225000X-0.250000X0.225000X0.250000X-0.225000X0.250000X0*%
%ADD24RoundRect,0.135000X0.135000X0.185000X-0.135000X0.185000X-0.135000X-0.185000X0.135000X-0.185000X0*%
%ADD25R,0.740000X2.400000*%
G04 APERTURE END LIST*
D10*
%TO.C,U1*%
X99337500Y-80590000D03*
X99337500Y-81090000D03*
X99337500Y-81590000D03*
X99337500Y-82090000D03*
X99337500Y-82590000D03*
X99337500Y-83090000D03*
X99337500Y-83590000D03*
X99337500Y-84090000D03*
X99337500Y-84590000D03*
X99337500Y-85090000D03*
X99337500Y-85590000D03*
X99337500Y-86090000D03*
D11*
X100750000Y-87502500D03*
X101250000Y-87502500D03*
X101750000Y-87502500D03*
X102250000Y-87502500D03*
X102750000Y-87502500D03*
X103250000Y-87502500D03*
X103750000Y-87502500D03*
X104250000Y-87502500D03*
X104750000Y-87502500D03*
X105250000Y-87502500D03*
X105750000Y-87502500D03*
X106250000Y-87502500D03*
D10*
X107662500Y-86090000D03*
X107662500Y-85590000D03*
X107662500Y-85090000D03*
X107662500Y-84590000D03*
X107662500Y-84090000D03*
X107662500Y-83590000D03*
X107662500Y-83090000D03*
X107662500Y-82590000D03*
X107662500Y-82090000D03*
X107662500Y-81590000D03*
X107662500Y-81090000D03*
X107662500Y-80590000D03*
D11*
X106250000Y-79177500D03*
X105750000Y-79177500D03*
X105250000Y-79177500D03*
X104750000Y-79177500D03*
X104250000Y-79177500D03*
X103750000Y-79177500D03*
X103250000Y-79177500D03*
X102750000Y-79177500D03*
X102250000Y-79177500D03*
X101750000Y-79177500D03*
X101250000Y-79177500D03*
X100750000Y-79177500D03*
%TD*%
D12*
%TO.C,D1*%
X91632500Y-90550000D03*
X92602500Y-90550000D03*
%TD*%
D13*
%TO.C,C2*%
X100020000Y-77500000D03*
X100980000Y-77500000D03*
%TD*%
D14*
%TO.C,C3*%
X109300000Y-80020000D03*
X109300000Y-80980000D03*
%TD*%
D15*
%TO.C,S1*%
X113700000Y-77250000D03*
X113700000Y-76750000D03*
X113700000Y-76250000D03*
X113700000Y-75750000D03*
X113700000Y-75250000D03*
X113700000Y-74750000D03*
X113700000Y-74250000D03*
X113700000Y-73750000D03*
X113700000Y-73250000D03*
D16*
X113055000Y-72625000D03*
X112555000Y-72625000D03*
X112055000Y-72625000D03*
X111555000Y-72625000D03*
X111055000Y-72625000D03*
D15*
X110410000Y-73250000D03*
X110410000Y-73750000D03*
X110410000Y-74250000D03*
X110410000Y-74750000D03*
X110410000Y-75250000D03*
X110410000Y-75750000D03*
X110410000Y-76250000D03*
X110410000Y-76750000D03*
X110410000Y-77250000D03*
D16*
X111055000Y-77875000D03*
X111555000Y-77875000D03*
X112055000Y-77875000D03*
X112555000Y-77875000D03*
X113055000Y-77875000D03*
D17*
X112055000Y-76050000D03*
D18*
X112055000Y-74020000D03*
%TD*%
D19*
%TO.C,C5*%
X97700000Y-84530000D03*
X97700000Y-83570000D03*
%TD*%
D20*
%TO.C,FB1*%
X96050000Y-84837500D03*
X96050000Y-83262500D03*
%TD*%
D21*
%TO.C,R3*%
X93940000Y-90600000D03*
X94960000Y-90600000D03*
%TD*%
D22*
%TO.C,C7*%
X94730000Y-83450000D03*
X93770000Y-83450000D03*
%TD*%
D19*
%TO.C,C11*%
X116205000Y-76205000D03*
X116205000Y-75245000D03*
%TD*%
%TO.C,C8*%
X97750000Y-80230000D03*
X97750000Y-79270000D03*
%TD*%
D21*
%TO.C,R1*%
X113290000Y-81050000D03*
X114310000Y-81050000D03*
%TD*%
D23*
%TO.C,C1*%
X99125000Y-76000000D03*
X100675000Y-76000000D03*
%TD*%
D24*
%TO.C,R2*%
X112370000Y-81050000D03*
X111350000Y-81050000D03*
%TD*%
D22*
%TO.C,C6*%
X94730000Y-84800000D03*
X93770000Y-84800000D03*
%TD*%
D25*
%TO.C,J2*%
X108810000Y-64850000D03*
X108810000Y-68750000D03*
X107540000Y-64850000D03*
X107540000Y-68750000D03*
X106270000Y-64850000D03*
X106270000Y-68750000D03*
X105000000Y-64850000D03*
X105000000Y-68750000D03*
X103730000Y-64850000D03*
X103730000Y-68750000D03*
X102460000Y-64850000D03*
X102460000Y-68750000D03*
X101190000Y-64850000D03*
X101190000Y-68750000D03*
%TD*%
D22*
%TO.C,C4*%
X106880000Y-89100000D03*
X105920000Y-89100000D03*
%TD*%
M02*
