%TF.GenerationSoftware,KiCad,Pcbnew,8.0.8*%
%TF.CreationDate,2025-02-15T23:34:01-05:00*%
%TF.ProjectId,SensorModuleBreakout,53656e73-6f72-44d6-9f64-756c65427265,rev?*%
%TF.SameCoordinates,Original*%
%TF.FileFunction,Legend,Top*%
%TF.FilePolarity,Positive*%
%FSLAX46Y46*%
G04 Gerber Fmt 4.6, Leading zero omitted, Abs format (unit mm)*
G04 Created by KiCad (PCBNEW 8.0.8) date 2025-02-15 23:34:01*
%MOMM*%
%LPD*%
G01*
G04 APERTURE LIST*
%ADD10C,0.150000*%
%ADD11C,0.254000*%
%ADD12C,0.120000*%
%ADD13C,0.100000*%
%ADD14C,0.200000*%
G04 APERTURE END LIST*
D10*
X86085714Y-89118318D02*
X86352381Y-89918318D01*
X86352381Y-89918318D02*
X86619047Y-89118318D01*
X87152380Y-89499270D02*
X87266666Y-89537365D01*
X87266666Y-89537365D02*
X87304761Y-89575461D01*
X87304761Y-89575461D02*
X87342857Y-89651651D01*
X87342857Y-89651651D02*
X87342857Y-89765937D01*
X87342857Y-89765937D02*
X87304761Y-89842127D01*
X87304761Y-89842127D02*
X87266666Y-89880223D01*
X87266666Y-89880223D02*
X87190476Y-89918318D01*
X87190476Y-89918318D02*
X86885714Y-89918318D01*
X86885714Y-89918318D02*
X86885714Y-89118318D01*
X86885714Y-89118318D02*
X87152380Y-89118318D01*
X87152380Y-89118318D02*
X87228571Y-89156413D01*
X87228571Y-89156413D02*
X87266666Y-89194508D01*
X87266666Y-89194508D02*
X87304761Y-89270699D01*
X87304761Y-89270699D02*
X87304761Y-89346889D01*
X87304761Y-89346889D02*
X87266666Y-89423080D01*
X87266666Y-89423080D02*
X87228571Y-89461175D01*
X87228571Y-89461175D02*
X87152380Y-89499270D01*
X87152380Y-89499270D02*
X86885714Y-89499270D01*
X87647618Y-89689746D02*
X88028571Y-89689746D01*
X87571428Y-89918318D02*
X87838095Y-89118318D01*
X87838095Y-89118318D02*
X88104761Y-89918318D01*
X88257142Y-89118318D02*
X88714285Y-89118318D01*
X88485713Y-89918318D02*
X88485713Y-89118318D01*
X85971427Y-91168178D02*
X86085713Y-91206273D01*
X86085713Y-91206273D02*
X86276189Y-91206273D01*
X86276189Y-91206273D02*
X86352380Y-91168178D01*
X86352380Y-91168178D02*
X86390475Y-91130082D01*
X86390475Y-91130082D02*
X86428570Y-91053892D01*
X86428570Y-91053892D02*
X86428570Y-90977701D01*
X86428570Y-90977701D02*
X86390475Y-90901511D01*
X86390475Y-90901511D02*
X86352380Y-90863416D01*
X86352380Y-90863416D02*
X86276189Y-90825320D01*
X86276189Y-90825320D02*
X86123808Y-90787225D01*
X86123808Y-90787225D02*
X86047618Y-90749130D01*
X86047618Y-90749130D02*
X86009523Y-90711035D01*
X86009523Y-90711035D02*
X85971427Y-90634844D01*
X85971427Y-90634844D02*
X85971427Y-90558654D01*
X85971427Y-90558654D02*
X86009523Y-90482463D01*
X86009523Y-90482463D02*
X86047618Y-90444368D01*
X86047618Y-90444368D02*
X86123808Y-90406273D01*
X86123808Y-90406273D02*
X86314285Y-90406273D01*
X86314285Y-90406273D02*
X86428570Y-90444368D01*
X86771428Y-91206273D02*
X86771428Y-90406273D01*
X87114285Y-91206273D02*
X87114285Y-90787225D01*
X87114285Y-90787225D02*
X87076190Y-90711035D01*
X87076190Y-90711035D02*
X86999999Y-90672939D01*
X86999999Y-90672939D02*
X86885713Y-90672939D01*
X86885713Y-90672939D02*
X86809523Y-90711035D01*
X86809523Y-90711035D02*
X86771428Y-90749130D01*
X87609523Y-91206273D02*
X87533333Y-91168178D01*
X87533333Y-91168178D02*
X87495238Y-91130082D01*
X87495238Y-91130082D02*
X87457142Y-91053892D01*
X87457142Y-91053892D02*
X87457142Y-90825320D01*
X87457142Y-90825320D02*
X87495238Y-90749130D01*
X87495238Y-90749130D02*
X87533333Y-90711035D01*
X87533333Y-90711035D02*
X87609523Y-90672939D01*
X87609523Y-90672939D02*
X87723809Y-90672939D01*
X87723809Y-90672939D02*
X87800000Y-90711035D01*
X87800000Y-90711035D02*
X87838095Y-90749130D01*
X87838095Y-90749130D02*
X87876190Y-90825320D01*
X87876190Y-90825320D02*
X87876190Y-91053892D01*
X87876190Y-91053892D02*
X87838095Y-91130082D01*
X87838095Y-91130082D02*
X87800000Y-91168178D01*
X87800000Y-91168178D02*
X87723809Y-91206273D01*
X87723809Y-91206273D02*
X87609523Y-91206273D01*
X88219048Y-91206273D02*
X88219048Y-90672939D01*
X88219048Y-90825320D02*
X88257143Y-90749130D01*
X88257143Y-90749130D02*
X88295238Y-90711035D01*
X88295238Y-90711035D02*
X88371429Y-90672939D01*
X88371429Y-90672939D02*
X88447619Y-90672939D01*
X88600000Y-90672939D02*
X88904762Y-90672939D01*
X88714286Y-90406273D02*
X88714286Y-91091987D01*
X88714286Y-91091987D02*
X88752381Y-91168178D01*
X88752381Y-91168178D02*
X88828571Y-91206273D01*
X88828571Y-91206273D02*
X88904762Y-91206273D01*
X106754762Y-102362295D02*
X106488095Y-101981342D01*
X106297619Y-102362295D02*
X106297619Y-101562295D01*
X106297619Y-101562295D02*
X106602381Y-101562295D01*
X106602381Y-101562295D02*
X106678571Y-101600390D01*
X106678571Y-101600390D02*
X106716666Y-101638485D01*
X106716666Y-101638485D02*
X106754762Y-101714676D01*
X106754762Y-101714676D02*
X106754762Y-101828961D01*
X106754762Y-101828961D02*
X106716666Y-101905152D01*
X106716666Y-101905152D02*
X106678571Y-101943247D01*
X106678571Y-101943247D02*
X106602381Y-101981342D01*
X106602381Y-101981342D02*
X106297619Y-101981342D01*
X107097619Y-102362295D02*
X107097619Y-101562295D01*
X107097619Y-101562295D02*
X107288095Y-101562295D01*
X107288095Y-101562295D02*
X107402381Y-101600390D01*
X107402381Y-101600390D02*
X107478571Y-101676580D01*
X107478571Y-101676580D02*
X107516666Y-101752771D01*
X107516666Y-101752771D02*
X107554762Y-101905152D01*
X107554762Y-101905152D02*
X107554762Y-102019438D01*
X107554762Y-102019438D02*
X107516666Y-102171819D01*
X107516666Y-102171819D02*
X107478571Y-102248009D01*
X107478571Y-102248009D02*
X107402381Y-102324200D01*
X107402381Y-102324200D02*
X107288095Y-102362295D01*
X107288095Y-102362295D02*
X107097619Y-102362295D01*
X108050000Y-101981342D02*
X108050000Y-102362295D01*
X107783333Y-101562295D02*
X108050000Y-101981342D01*
X108050000Y-101981342D02*
X108316666Y-101562295D01*
X89640476Y-101600390D02*
X89564286Y-101562295D01*
X89564286Y-101562295D02*
X89450000Y-101562295D01*
X89450000Y-101562295D02*
X89335714Y-101600390D01*
X89335714Y-101600390D02*
X89259524Y-101676580D01*
X89259524Y-101676580D02*
X89221429Y-101752771D01*
X89221429Y-101752771D02*
X89183333Y-101905152D01*
X89183333Y-101905152D02*
X89183333Y-102019438D01*
X89183333Y-102019438D02*
X89221429Y-102171819D01*
X89221429Y-102171819D02*
X89259524Y-102248009D01*
X89259524Y-102248009D02*
X89335714Y-102324200D01*
X89335714Y-102324200D02*
X89450000Y-102362295D01*
X89450000Y-102362295D02*
X89526191Y-102362295D01*
X89526191Y-102362295D02*
X89640476Y-102324200D01*
X89640476Y-102324200D02*
X89678572Y-102286104D01*
X89678572Y-102286104D02*
X89678572Y-102019438D01*
X89678572Y-102019438D02*
X89526191Y-102019438D01*
X90021429Y-102362295D02*
X90021429Y-101562295D01*
X90021429Y-101562295D02*
X90478572Y-102362295D01*
X90478572Y-102362295D02*
X90478572Y-101562295D01*
X90859524Y-102362295D02*
X90859524Y-101562295D01*
X90859524Y-101562295D02*
X91050000Y-101562295D01*
X91050000Y-101562295D02*
X91164286Y-101600390D01*
X91164286Y-101600390D02*
X91240476Y-101676580D01*
X91240476Y-101676580D02*
X91278571Y-101752771D01*
X91278571Y-101752771D02*
X91316667Y-101905152D01*
X91316667Y-101905152D02*
X91316667Y-102019438D01*
X91316667Y-102019438D02*
X91278571Y-102171819D01*
X91278571Y-102171819D02*
X91240476Y-102248009D01*
X91240476Y-102248009D02*
X91164286Y-102324200D01*
X91164286Y-102324200D02*
X91050000Y-102362295D01*
X91050000Y-102362295D02*
X90859524Y-102362295D01*
X98640476Y-101562295D02*
X99097619Y-101562295D01*
X98869047Y-102362295D02*
X98869047Y-101562295D01*
X99288095Y-101562295D02*
X99821429Y-102362295D01*
X99821429Y-101562295D02*
X99288095Y-102362295D01*
X118095238Y-66257533D02*
X118704762Y-66257533D01*
X89657142Y-72607200D02*
X89799999Y-72654819D01*
X89799999Y-72654819D02*
X90038094Y-72654819D01*
X90038094Y-72654819D02*
X90133332Y-72607200D01*
X90133332Y-72607200D02*
X90180951Y-72559580D01*
X90180951Y-72559580D02*
X90228570Y-72464342D01*
X90228570Y-72464342D02*
X90228570Y-72369104D01*
X90228570Y-72369104D02*
X90180951Y-72273866D01*
X90180951Y-72273866D02*
X90133332Y-72226247D01*
X90133332Y-72226247D02*
X90038094Y-72178628D01*
X90038094Y-72178628D02*
X89847618Y-72131009D01*
X89847618Y-72131009D02*
X89752380Y-72083390D01*
X89752380Y-72083390D02*
X89704761Y-72035771D01*
X89704761Y-72035771D02*
X89657142Y-71940533D01*
X89657142Y-71940533D02*
X89657142Y-71845295D01*
X89657142Y-71845295D02*
X89704761Y-71750057D01*
X89704761Y-71750057D02*
X89752380Y-71702438D01*
X89752380Y-71702438D02*
X89847618Y-71654819D01*
X89847618Y-71654819D02*
X90085713Y-71654819D01*
X90085713Y-71654819D02*
X90228570Y-71702438D01*
X90514285Y-71654819D02*
X91085713Y-71654819D01*
X90799999Y-72654819D02*
X90799999Y-71654819D01*
X91419047Y-72654819D02*
X91419047Y-71654819D01*
X91419047Y-71654819D02*
X91752380Y-72369104D01*
X91752380Y-72369104D02*
X92085713Y-71654819D01*
X92085713Y-71654819D02*
X92085713Y-72654819D01*
X92561904Y-71654819D02*
X92561904Y-72464342D01*
X92561904Y-72464342D02*
X92609523Y-72559580D01*
X92609523Y-72559580D02*
X92657142Y-72607200D01*
X92657142Y-72607200D02*
X92752380Y-72654819D01*
X92752380Y-72654819D02*
X92942856Y-72654819D01*
X92942856Y-72654819D02*
X93038094Y-72607200D01*
X93038094Y-72607200D02*
X93085713Y-72559580D01*
X93085713Y-72559580D02*
X93133332Y-72464342D01*
X93133332Y-72464342D02*
X93133332Y-71654819D01*
X93799999Y-71654819D02*
X93895237Y-71654819D01*
X93895237Y-71654819D02*
X93990475Y-71702438D01*
X93990475Y-71702438D02*
X94038094Y-71750057D01*
X94038094Y-71750057D02*
X94085713Y-71845295D01*
X94085713Y-71845295D02*
X94133332Y-72035771D01*
X94133332Y-72035771D02*
X94133332Y-72273866D01*
X94133332Y-72273866D02*
X94085713Y-72464342D01*
X94085713Y-72464342D02*
X94038094Y-72559580D01*
X94038094Y-72559580D02*
X93990475Y-72607200D01*
X93990475Y-72607200D02*
X93895237Y-72654819D01*
X93895237Y-72654819D02*
X93799999Y-72654819D01*
X93799999Y-72654819D02*
X93704761Y-72607200D01*
X93704761Y-72607200D02*
X93657142Y-72559580D01*
X93657142Y-72559580D02*
X93609523Y-72464342D01*
X93609523Y-72464342D02*
X93561904Y-72273866D01*
X93561904Y-72273866D02*
X93561904Y-72035771D01*
X93561904Y-72035771D02*
X93609523Y-71845295D01*
X93609523Y-71845295D02*
X93657142Y-71750057D01*
X93657142Y-71750057D02*
X93704761Y-71702438D01*
X93704761Y-71702438D02*
X93799999Y-71654819D01*
X95276190Y-72607200D02*
X95419047Y-72654819D01*
X95419047Y-72654819D02*
X95657142Y-72654819D01*
X95657142Y-72654819D02*
X95752380Y-72607200D01*
X95752380Y-72607200D02*
X95799999Y-72559580D01*
X95799999Y-72559580D02*
X95847618Y-72464342D01*
X95847618Y-72464342D02*
X95847618Y-72369104D01*
X95847618Y-72369104D02*
X95799999Y-72273866D01*
X95799999Y-72273866D02*
X95752380Y-72226247D01*
X95752380Y-72226247D02*
X95657142Y-72178628D01*
X95657142Y-72178628D02*
X95466666Y-72131009D01*
X95466666Y-72131009D02*
X95371428Y-72083390D01*
X95371428Y-72083390D02*
X95323809Y-72035771D01*
X95323809Y-72035771D02*
X95276190Y-71940533D01*
X95276190Y-71940533D02*
X95276190Y-71845295D01*
X95276190Y-71845295D02*
X95323809Y-71750057D01*
X95323809Y-71750057D02*
X95371428Y-71702438D01*
X95371428Y-71702438D02*
X95466666Y-71654819D01*
X95466666Y-71654819D02*
X95704761Y-71654819D01*
X95704761Y-71654819D02*
X95847618Y-71702438D01*
X96657142Y-72607200D02*
X96561904Y-72654819D01*
X96561904Y-72654819D02*
X96371428Y-72654819D01*
X96371428Y-72654819D02*
X96276190Y-72607200D01*
X96276190Y-72607200D02*
X96228571Y-72511961D01*
X96228571Y-72511961D02*
X96228571Y-72131009D01*
X96228571Y-72131009D02*
X96276190Y-72035771D01*
X96276190Y-72035771D02*
X96371428Y-71988152D01*
X96371428Y-71988152D02*
X96561904Y-71988152D01*
X96561904Y-71988152D02*
X96657142Y-72035771D01*
X96657142Y-72035771D02*
X96704761Y-72131009D01*
X96704761Y-72131009D02*
X96704761Y-72226247D01*
X96704761Y-72226247D02*
X96228571Y-72321485D01*
X97133333Y-71988152D02*
X97133333Y-72654819D01*
X97133333Y-72083390D02*
X97180952Y-72035771D01*
X97180952Y-72035771D02*
X97276190Y-71988152D01*
X97276190Y-71988152D02*
X97419047Y-71988152D01*
X97419047Y-71988152D02*
X97514285Y-72035771D01*
X97514285Y-72035771D02*
X97561904Y-72131009D01*
X97561904Y-72131009D02*
X97561904Y-72654819D01*
X97990476Y-72607200D02*
X98085714Y-72654819D01*
X98085714Y-72654819D02*
X98276190Y-72654819D01*
X98276190Y-72654819D02*
X98371428Y-72607200D01*
X98371428Y-72607200D02*
X98419047Y-72511961D01*
X98419047Y-72511961D02*
X98419047Y-72464342D01*
X98419047Y-72464342D02*
X98371428Y-72369104D01*
X98371428Y-72369104D02*
X98276190Y-72321485D01*
X98276190Y-72321485D02*
X98133333Y-72321485D01*
X98133333Y-72321485D02*
X98038095Y-72273866D01*
X98038095Y-72273866D02*
X97990476Y-72178628D01*
X97990476Y-72178628D02*
X97990476Y-72131009D01*
X97990476Y-72131009D02*
X98038095Y-72035771D01*
X98038095Y-72035771D02*
X98133333Y-71988152D01*
X98133333Y-71988152D02*
X98276190Y-71988152D01*
X98276190Y-71988152D02*
X98371428Y-72035771D01*
X98990476Y-72654819D02*
X98895238Y-72607200D01*
X98895238Y-72607200D02*
X98847619Y-72559580D01*
X98847619Y-72559580D02*
X98800000Y-72464342D01*
X98800000Y-72464342D02*
X98800000Y-72178628D01*
X98800000Y-72178628D02*
X98847619Y-72083390D01*
X98847619Y-72083390D02*
X98895238Y-72035771D01*
X98895238Y-72035771D02*
X98990476Y-71988152D01*
X98990476Y-71988152D02*
X99133333Y-71988152D01*
X99133333Y-71988152D02*
X99228571Y-72035771D01*
X99228571Y-72035771D02*
X99276190Y-72083390D01*
X99276190Y-72083390D02*
X99323809Y-72178628D01*
X99323809Y-72178628D02*
X99323809Y-72464342D01*
X99323809Y-72464342D02*
X99276190Y-72559580D01*
X99276190Y-72559580D02*
X99228571Y-72607200D01*
X99228571Y-72607200D02*
X99133333Y-72654819D01*
X99133333Y-72654819D02*
X98990476Y-72654819D01*
X99752381Y-72654819D02*
X99752381Y-71988152D01*
X99752381Y-72178628D02*
X99800000Y-72083390D01*
X99800000Y-72083390D02*
X99847619Y-72035771D01*
X99847619Y-72035771D02*
X99942857Y-71988152D01*
X99942857Y-71988152D02*
X100038095Y-71988152D01*
X101133334Y-72654819D02*
X101133334Y-71654819D01*
X101133334Y-71654819D02*
X101466667Y-72369104D01*
X101466667Y-72369104D02*
X101800000Y-71654819D01*
X101800000Y-71654819D02*
X101800000Y-72654819D01*
X102419048Y-72654819D02*
X102323810Y-72607200D01*
X102323810Y-72607200D02*
X102276191Y-72559580D01*
X102276191Y-72559580D02*
X102228572Y-72464342D01*
X102228572Y-72464342D02*
X102228572Y-72178628D01*
X102228572Y-72178628D02*
X102276191Y-72083390D01*
X102276191Y-72083390D02*
X102323810Y-72035771D01*
X102323810Y-72035771D02*
X102419048Y-71988152D01*
X102419048Y-71988152D02*
X102561905Y-71988152D01*
X102561905Y-71988152D02*
X102657143Y-72035771D01*
X102657143Y-72035771D02*
X102704762Y-72083390D01*
X102704762Y-72083390D02*
X102752381Y-72178628D01*
X102752381Y-72178628D02*
X102752381Y-72464342D01*
X102752381Y-72464342D02*
X102704762Y-72559580D01*
X102704762Y-72559580D02*
X102657143Y-72607200D01*
X102657143Y-72607200D02*
X102561905Y-72654819D01*
X102561905Y-72654819D02*
X102419048Y-72654819D01*
X103609524Y-72654819D02*
X103609524Y-71654819D01*
X103609524Y-72607200D02*
X103514286Y-72654819D01*
X103514286Y-72654819D02*
X103323810Y-72654819D01*
X103323810Y-72654819D02*
X103228572Y-72607200D01*
X103228572Y-72607200D02*
X103180953Y-72559580D01*
X103180953Y-72559580D02*
X103133334Y-72464342D01*
X103133334Y-72464342D02*
X103133334Y-72178628D01*
X103133334Y-72178628D02*
X103180953Y-72083390D01*
X103180953Y-72083390D02*
X103228572Y-72035771D01*
X103228572Y-72035771D02*
X103323810Y-71988152D01*
X103323810Y-71988152D02*
X103514286Y-71988152D01*
X103514286Y-71988152D02*
X103609524Y-72035771D01*
X104514286Y-71988152D02*
X104514286Y-72654819D01*
X104085715Y-71988152D02*
X104085715Y-72511961D01*
X104085715Y-72511961D02*
X104133334Y-72607200D01*
X104133334Y-72607200D02*
X104228572Y-72654819D01*
X104228572Y-72654819D02*
X104371429Y-72654819D01*
X104371429Y-72654819D02*
X104466667Y-72607200D01*
X104466667Y-72607200D02*
X104514286Y-72559580D01*
X105133334Y-72654819D02*
X105038096Y-72607200D01*
X105038096Y-72607200D02*
X104990477Y-72511961D01*
X104990477Y-72511961D02*
X104990477Y-71654819D01*
X105895239Y-72607200D02*
X105800001Y-72654819D01*
X105800001Y-72654819D02*
X105609525Y-72654819D01*
X105609525Y-72654819D02*
X105514287Y-72607200D01*
X105514287Y-72607200D02*
X105466668Y-72511961D01*
X105466668Y-72511961D02*
X105466668Y-72131009D01*
X105466668Y-72131009D02*
X105514287Y-72035771D01*
X105514287Y-72035771D02*
X105609525Y-71988152D01*
X105609525Y-71988152D02*
X105800001Y-71988152D01*
X105800001Y-71988152D02*
X105895239Y-72035771D01*
X105895239Y-72035771D02*
X105942858Y-72131009D01*
X105942858Y-72131009D02*
X105942858Y-72226247D01*
X105942858Y-72226247D02*
X105466668Y-72321485D01*
X92509523Y-101562295D02*
X93004761Y-101562295D01*
X93004761Y-101562295D02*
X92738095Y-101867057D01*
X92738095Y-101867057D02*
X92852380Y-101867057D01*
X92852380Y-101867057D02*
X92928571Y-101905152D01*
X92928571Y-101905152D02*
X92966666Y-101943247D01*
X92966666Y-101943247D02*
X93004761Y-102019438D01*
X93004761Y-102019438D02*
X93004761Y-102209914D01*
X93004761Y-102209914D02*
X92966666Y-102286104D01*
X92966666Y-102286104D02*
X92928571Y-102324200D01*
X92928571Y-102324200D02*
X92852380Y-102362295D01*
X92852380Y-102362295D02*
X92623809Y-102362295D01*
X92623809Y-102362295D02*
X92547618Y-102324200D01*
X92547618Y-102324200D02*
X92509523Y-102286104D01*
X93233333Y-101562295D02*
X93500000Y-102362295D01*
X93500000Y-102362295D02*
X93766666Y-101562295D01*
X93957142Y-101562295D02*
X94452380Y-101562295D01*
X94452380Y-101562295D02*
X94185714Y-101867057D01*
X94185714Y-101867057D02*
X94299999Y-101867057D01*
X94299999Y-101867057D02*
X94376190Y-101905152D01*
X94376190Y-101905152D02*
X94414285Y-101943247D01*
X94414285Y-101943247D02*
X94452380Y-102019438D01*
X94452380Y-102019438D02*
X94452380Y-102209914D01*
X94452380Y-102209914D02*
X94414285Y-102286104D01*
X94414285Y-102286104D02*
X94376190Y-102324200D01*
X94376190Y-102324200D02*
X94299999Y-102362295D01*
X94299999Y-102362295D02*
X94071428Y-102362295D01*
X94071428Y-102362295D02*
X93995237Y-102324200D01*
X93995237Y-102324200D02*
X93957142Y-102286104D01*
X85435714Y-101562295D02*
X85702381Y-102362295D01*
X85702381Y-102362295D02*
X85969047Y-101562295D01*
X86502380Y-101943247D02*
X86616666Y-101981342D01*
X86616666Y-101981342D02*
X86654761Y-102019438D01*
X86654761Y-102019438D02*
X86692857Y-102095628D01*
X86692857Y-102095628D02*
X86692857Y-102209914D01*
X86692857Y-102209914D02*
X86654761Y-102286104D01*
X86654761Y-102286104D02*
X86616666Y-102324200D01*
X86616666Y-102324200D02*
X86540476Y-102362295D01*
X86540476Y-102362295D02*
X86235714Y-102362295D01*
X86235714Y-102362295D02*
X86235714Y-101562295D01*
X86235714Y-101562295D02*
X86502380Y-101562295D01*
X86502380Y-101562295D02*
X86578571Y-101600390D01*
X86578571Y-101600390D02*
X86616666Y-101638485D01*
X86616666Y-101638485D02*
X86654761Y-101714676D01*
X86654761Y-101714676D02*
X86654761Y-101790866D01*
X86654761Y-101790866D02*
X86616666Y-101867057D01*
X86616666Y-101867057D02*
X86578571Y-101905152D01*
X86578571Y-101905152D02*
X86502380Y-101943247D01*
X86502380Y-101943247D02*
X86235714Y-101943247D01*
X86997618Y-102133723D02*
X87378571Y-102133723D01*
X86921428Y-102362295D02*
X87188095Y-101562295D01*
X87188095Y-101562295D02*
X87454761Y-102362295D01*
X87607142Y-101562295D02*
X88064285Y-101562295D01*
X87835713Y-102362295D02*
X87835713Y-101562295D01*
X103145237Y-101562295D02*
X103335713Y-102362295D01*
X103335713Y-102362295D02*
X103488094Y-101790866D01*
X103488094Y-101790866D02*
X103640475Y-102362295D01*
X103640475Y-102362295D02*
X103830952Y-101562295D01*
X104135714Y-102362295D02*
X104135714Y-101562295D01*
X104592857Y-102362295D02*
X104249999Y-101905152D01*
X104592857Y-101562295D02*
X104135714Y-102019438D01*
X104935714Y-101943247D02*
X105202380Y-101943247D01*
X105316666Y-102362295D02*
X104935714Y-102362295D01*
X104935714Y-102362295D02*
X104935714Y-101562295D01*
X104935714Y-101562295D02*
X105316666Y-101562295D01*
X88945238Y-63657533D02*
X89554762Y-63657533D01*
X89250000Y-63962295D02*
X89250000Y-63352771D01*
X88945238Y-66257533D02*
X89554762Y-66257533D01*
X95933333Y-92118318D02*
X95933333Y-91318318D01*
X95933333Y-91318318D02*
X96238095Y-91318318D01*
X96238095Y-91318318D02*
X96314285Y-91356413D01*
X96314285Y-91356413D02*
X96352380Y-91394508D01*
X96352380Y-91394508D02*
X96390476Y-91470699D01*
X96390476Y-91470699D02*
X96390476Y-91584984D01*
X96390476Y-91584984D02*
X96352380Y-91661175D01*
X96352380Y-91661175D02*
X96314285Y-91699270D01*
X96314285Y-91699270D02*
X96238095Y-91737365D01*
X96238095Y-91737365D02*
X95933333Y-91737365D01*
X96657142Y-91318318D02*
X96847618Y-92118318D01*
X96847618Y-92118318D02*
X96999999Y-91546889D01*
X96999999Y-91546889D02*
X97152380Y-92118318D01*
X97152380Y-92118318D02*
X97342857Y-91318318D01*
X98104762Y-92118318D02*
X97838095Y-91737365D01*
X97647619Y-92118318D02*
X97647619Y-91318318D01*
X97647619Y-91318318D02*
X97952381Y-91318318D01*
X97952381Y-91318318D02*
X98028571Y-91356413D01*
X98028571Y-91356413D02*
X98066666Y-91394508D01*
X98066666Y-91394508D02*
X98104762Y-91470699D01*
X98104762Y-91470699D02*
X98104762Y-91584984D01*
X98104762Y-91584984D02*
X98066666Y-91661175D01*
X98066666Y-91661175D02*
X98028571Y-91699270D01*
X98028571Y-91699270D02*
X97952381Y-91737365D01*
X97952381Y-91737365D02*
X97647619Y-91737365D01*
X96485714Y-93406273D02*
X96104762Y-93406273D01*
X96104762Y-93406273D02*
X96104762Y-92606273D01*
X96752381Y-92987225D02*
X97019047Y-92987225D01*
X97133333Y-93406273D02*
X96752381Y-93406273D01*
X96752381Y-93406273D02*
X96752381Y-92606273D01*
X96752381Y-92606273D02*
X97133333Y-92606273D01*
X97476191Y-93406273D02*
X97476191Y-92606273D01*
X97476191Y-92606273D02*
X97666667Y-92606273D01*
X97666667Y-92606273D02*
X97780953Y-92644368D01*
X97780953Y-92644368D02*
X97857143Y-92720558D01*
X97857143Y-92720558D02*
X97895238Y-92796749D01*
X97895238Y-92796749D02*
X97933334Y-92949130D01*
X97933334Y-92949130D02*
X97933334Y-93063416D01*
X97933334Y-93063416D02*
X97895238Y-93215797D01*
X97895238Y-93215797D02*
X97857143Y-93291987D01*
X97857143Y-93291987D02*
X97780953Y-93368178D01*
X97780953Y-93368178D02*
X97666667Y-93406273D01*
X97666667Y-93406273D02*
X97476191Y-93406273D01*
X118095238Y-63857533D02*
X118704762Y-63857533D01*
X118400000Y-64162295D02*
X118400000Y-63552771D01*
X101366667Y-102362295D02*
X101100000Y-101981342D01*
X100909524Y-102362295D02*
X100909524Y-101562295D01*
X100909524Y-101562295D02*
X101214286Y-101562295D01*
X101214286Y-101562295D02*
X101290476Y-101600390D01*
X101290476Y-101600390D02*
X101328571Y-101638485D01*
X101328571Y-101638485D02*
X101366667Y-101714676D01*
X101366667Y-101714676D02*
X101366667Y-101828961D01*
X101366667Y-101828961D02*
X101328571Y-101905152D01*
X101328571Y-101905152D02*
X101290476Y-101943247D01*
X101290476Y-101943247D02*
X101214286Y-101981342D01*
X101214286Y-101981342D02*
X100909524Y-101981342D01*
X101633333Y-101562295D02*
X102166667Y-102362295D01*
X102166667Y-101562295D02*
X101633333Y-102362295D01*
X105738095Y-76944819D02*
X105738095Y-77754342D01*
X105738095Y-77754342D02*
X105785714Y-77849580D01*
X105785714Y-77849580D02*
X105833333Y-77897200D01*
X105833333Y-77897200D02*
X105928571Y-77944819D01*
X105928571Y-77944819D02*
X106119047Y-77944819D01*
X106119047Y-77944819D02*
X106214285Y-77897200D01*
X106214285Y-77897200D02*
X106261904Y-77849580D01*
X106261904Y-77849580D02*
X106309523Y-77754342D01*
X106309523Y-77754342D02*
X106309523Y-76944819D01*
X107309523Y-77944819D02*
X106738095Y-77944819D01*
X107023809Y-77944819D02*
X107023809Y-76944819D01*
X107023809Y-76944819D02*
X106928571Y-77087676D01*
X106928571Y-77087676D02*
X106833333Y-77182914D01*
X106833333Y-77182914D02*
X106738095Y-77230533D01*
X92161905Y-89754819D02*
X92161905Y-88754819D01*
X92161905Y-88754819D02*
X92400000Y-88754819D01*
X92400000Y-88754819D02*
X92542857Y-88802438D01*
X92542857Y-88802438D02*
X92638095Y-88897676D01*
X92638095Y-88897676D02*
X92685714Y-88992914D01*
X92685714Y-88992914D02*
X92733333Y-89183390D01*
X92733333Y-89183390D02*
X92733333Y-89326247D01*
X92733333Y-89326247D02*
X92685714Y-89516723D01*
X92685714Y-89516723D02*
X92638095Y-89611961D01*
X92638095Y-89611961D02*
X92542857Y-89707200D01*
X92542857Y-89707200D02*
X92400000Y-89754819D01*
X92400000Y-89754819D02*
X92161905Y-89754819D01*
X93685714Y-89754819D02*
X93114286Y-89754819D01*
X93400000Y-89754819D02*
X93400000Y-88754819D01*
X93400000Y-88754819D02*
X93304762Y-88897676D01*
X93304762Y-88897676D02*
X93209524Y-88992914D01*
X93209524Y-88992914D02*
X93114286Y-89040533D01*
X98333333Y-77859580D02*
X98285714Y-77907200D01*
X98285714Y-77907200D02*
X98142857Y-77954819D01*
X98142857Y-77954819D02*
X98047619Y-77954819D01*
X98047619Y-77954819D02*
X97904762Y-77907200D01*
X97904762Y-77907200D02*
X97809524Y-77811961D01*
X97809524Y-77811961D02*
X97761905Y-77716723D01*
X97761905Y-77716723D02*
X97714286Y-77526247D01*
X97714286Y-77526247D02*
X97714286Y-77383390D01*
X97714286Y-77383390D02*
X97761905Y-77192914D01*
X97761905Y-77192914D02*
X97809524Y-77097676D01*
X97809524Y-77097676D02*
X97904762Y-77002438D01*
X97904762Y-77002438D02*
X98047619Y-76954819D01*
X98047619Y-76954819D02*
X98142857Y-76954819D01*
X98142857Y-76954819D02*
X98285714Y-77002438D01*
X98285714Y-77002438D02*
X98333333Y-77050057D01*
X98714286Y-77050057D02*
X98761905Y-77002438D01*
X98761905Y-77002438D02*
X98857143Y-76954819D01*
X98857143Y-76954819D02*
X99095238Y-76954819D01*
X99095238Y-76954819D02*
X99190476Y-77002438D01*
X99190476Y-77002438D02*
X99238095Y-77050057D01*
X99238095Y-77050057D02*
X99285714Y-77145295D01*
X99285714Y-77145295D02*
X99285714Y-77240533D01*
X99285714Y-77240533D02*
X99238095Y-77383390D01*
X99238095Y-77383390D02*
X98666667Y-77954819D01*
X98666667Y-77954819D02*
X99285714Y-77954819D01*
X109583333Y-82609580D02*
X109535714Y-82657200D01*
X109535714Y-82657200D02*
X109392857Y-82704819D01*
X109392857Y-82704819D02*
X109297619Y-82704819D01*
X109297619Y-82704819D02*
X109154762Y-82657200D01*
X109154762Y-82657200D02*
X109059524Y-82561961D01*
X109059524Y-82561961D02*
X109011905Y-82466723D01*
X109011905Y-82466723D02*
X108964286Y-82276247D01*
X108964286Y-82276247D02*
X108964286Y-82133390D01*
X108964286Y-82133390D02*
X109011905Y-81942914D01*
X109011905Y-81942914D02*
X109059524Y-81847676D01*
X109059524Y-81847676D02*
X109154762Y-81752438D01*
X109154762Y-81752438D02*
X109297619Y-81704819D01*
X109297619Y-81704819D02*
X109392857Y-81704819D01*
X109392857Y-81704819D02*
X109535714Y-81752438D01*
X109535714Y-81752438D02*
X109583333Y-81800057D01*
X109916667Y-81704819D02*
X110535714Y-81704819D01*
X110535714Y-81704819D02*
X110202381Y-82085771D01*
X110202381Y-82085771D02*
X110345238Y-82085771D01*
X110345238Y-82085771D02*
X110440476Y-82133390D01*
X110440476Y-82133390D02*
X110488095Y-82181009D01*
X110488095Y-82181009D02*
X110535714Y-82276247D01*
X110535714Y-82276247D02*
X110535714Y-82514342D01*
X110535714Y-82514342D02*
X110488095Y-82609580D01*
X110488095Y-82609580D02*
X110440476Y-82657200D01*
X110440476Y-82657200D02*
X110345238Y-82704819D01*
X110345238Y-82704819D02*
X110059524Y-82704819D01*
X110059524Y-82704819D02*
X109964286Y-82657200D01*
X109964286Y-82657200D02*
X109916667Y-82609580D01*
D11*
X111032380Y-71713842D02*
X111213809Y-71774318D01*
X111213809Y-71774318D02*
X111516190Y-71774318D01*
X111516190Y-71774318D02*
X111637142Y-71713842D01*
X111637142Y-71713842D02*
X111697618Y-71653365D01*
X111697618Y-71653365D02*
X111758095Y-71532413D01*
X111758095Y-71532413D02*
X111758095Y-71411461D01*
X111758095Y-71411461D02*
X111697618Y-71290508D01*
X111697618Y-71290508D02*
X111637142Y-71230032D01*
X111637142Y-71230032D02*
X111516190Y-71169556D01*
X111516190Y-71169556D02*
X111274285Y-71109080D01*
X111274285Y-71109080D02*
X111153333Y-71048603D01*
X111153333Y-71048603D02*
X111092856Y-70988127D01*
X111092856Y-70988127D02*
X111032380Y-70867175D01*
X111032380Y-70867175D02*
X111032380Y-70746222D01*
X111032380Y-70746222D02*
X111092856Y-70625270D01*
X111092856Y-70625270D02*
X111153333Y-70564794D01*
X111153333Y-70564794D02*
X111274285Y-70504318D01*
X111274285Y-70504318D02*
X111576666Y-70504318D01*
X111576666Y-70504318D02*
X111758095Y-70564794D01*
X112967619Y-71774318D02*
X112241904Y-71774318D01*
X112604761Y-71774318D02*
X112604761Y-70504318D01*
X112604761Y-70504318D02*
X112483809Y-70685746D01*
X112483809Y-70685746D02*
X112362857Y-70806699D01*
X112362857Y-70806699D02*
X112241904Y-70867175D01*
D10*
X97533333Y-82909580D02*
X97485714Y-82957200D01*
X97485714Y-82957200D02*
X97342857Y-83004819D01*
X97342857Y-83004819D02*
X97247619Y-83004819D01*
X97247619Y-83004819D02*
X97104762Y-82957200D01*
X97104762Y-82957200D02*
X97009524Y-82861961D01*
X97009524Y-82861961D02*
X96961905Y-82766723D01*
X96961905Y-82766723D02*
X96914286Y-82576247D01*
X96914286Y-82576247D02*
X96914286Y-82433390D01*
X96914286Y-82433390D02*
X96961905Y-82242914D01*
X96961905Y-82242914D02*
X97009524Y-82147676D01*
X97009524Y-82147676D02*
X97104762Y-82052438D01*
X97104762Y-82052438D02*
X97247619Y-82004819D01*
X97247619Y-82004819D02*
X97342857Y-82004819D01*
X97342857Y-82004819D02*
X97485714Y-82052438D01*
X97485714Y-82052438D02*
X97533333Y-82100057D01*
X98438095Y-82004819D02*
X97961905Y-82004819D01*
X97961905Y-82004819D02*
X97914286Y-82481009D01*
X97914286Y-82481009D02*
X97961905Y-82433390D01*
X97961905Y-82433390D02*
X98057143Y-82385771D01*
X98057143Y-82385771D02*
X98295238Y-82385771D01*
X98295238Y-82385771D02*
X98390476Y-82433390D01*
X98390476Y-82433390D02*
X98438095Y-82481009D01*
X98438095Y-82481009D02*
X98485714Y-82576247D01*
X98485714Y-82576247D02*
X98485714Y-82814342D01*
X98485714Y-82814342D02*
X98438095Y-82909580D01*
X98438095Y-82909580D02*
X98390476Y-82957200D01*
X98390476Y-82957200D02*
X98295238Y-83004819D01*
X98295238Y-83004819D02*
X98057143Y-83004819D01*
X98057143Y-83004819D02*
X97961905Y-82957200D01*
X97961905Y-82957200D02*
X97914286Y-82909580D01*
X94666666Y-81481009D02*
X94333333Y-81481009D01*
X94333333Y-82004819D02*
X94333333Y-81004819D01*
X94333333Y-81004819D02*
X94809523Y-81004819D01*
X95523809Y-81481009D02*
X95666666Y-81528628D01*
X95666666Y-81528628D02*
X95714285Y-81576247D01*
X95714285Y-81576247D02*
X95761904Y-81671485D01*
X95761904Y-81671485D02*
X95761904Y-81814342D01*
X95761904Y-81814342D02*
X95714285Y-81909580D01*
X95714285Y-81909580D02*
X95666666Y-81957200D01*
X95666666Y-81957200D02*
X95571428Y-82004819D01*
X95571428Y-82004819D02*
X95190476Y-82004819D01*
X95190476Y-82004819D02*
X95190476Y-81004819D01*
X95190476Y-81004819D02*
X95523809Y-81004819D01*
X95523809Y-81004819D02*
X95619047Y-81052438D01*
X95619047Y-81052438D02*
X95666666Y-81100057D01*
X95666666Y-81100057D02*
X95714285Y-81195295D01*
X95714285Y-81195295D02*
X95714285Y-81290533D01*
X95714285Y-81290533D02*
X95666666Y-81385771D01*
X95666666Y-81385771D02*
X95619047Y-81433390D01*
X95619047Y-81433390D02*
X95523809Y-81481009D01*
X95523809Y-81481009D02*
X95190476Y-81481009D01*
X96714285Y-82004819D02*
X96142857Y-82004819D01*
X96428571Y-82004819D02*
X96428571Y-81004819D01*
X96428571Y-81004819D02*
X96333333Y-81147676D01*
X96333333Y-81147676D02*
X96238095Y-81242914D01*
X96238095Y-81242914D02*
X96142857Y-81290533D01*
X95283333Y-89854819D02*
X94950000Y-89378628D01*
X94711905Y-89854819D02*
X94711905Y-88854819D01*
X94711905Y-88854819D02*
X95092857Y-88854819D01*
X95092857Y-88854819D02*
X95188095Y-88902438D01*
X95188095Y-88902438D02*
X95235714Y-88950057D01*
X95235714Y-88950057D02*
X95283333Y-89045295D01*
X95283333Y-89045295D02*
X95283333Y-89188152D01*
X95283333Y-89188152D02*
X95235714Y-89283390D01*
X95235714Y-89283390D02*
X95188095Y-89331009D01*
X95188095Y-89331009D02*
X95092857Y-89378628D01*
X95092857Y-89378628D02*
X94711905Y-89378628D01*
X95616667Y-88854819D02*
X96235714Y-88854819D01*
X96235714Y-88854819D02*
X95902381Y-89235771D01*
X95902381Y-89235771D02*
X96045238Y-89235771D01*
X96045238Y-89235771D02*
X96140476Y-89283390D01*
X96140476Y-89283390D02*
X96188095Y-89331009D01*
X96188095Y-89331009D02*
X96235714Y-89426247D01*
X96235714Y-89426247D02*
X96235714Y-89664342D01*
X96235714Y-89664342D02*
X96188095Y-89759580D01*
X96188095Y-89759580D02*
X96140476Y-89807200D01*
X96140476Y-89807200D02*
X96045238Y-89854819D01*
X96045238Y-89854819D02*
X95759524Y-89854819D01*
X95759524Y-89854819D02*
X95664286Y-89807200D01*
X95664286Y-89807200D02*
X95616667Y-89759580D01*
X91533333Y-83809580D02*
X91485714Y-83857200D01*
X91485714Y-83857200D02*
X91342857Y-83904819D01*
X91342857Y-83904819D02*
X91247619Y-83904819D01*
X91247619Y-83904819D02*
X91104762Y-83857200D01*
X91104762Y-83857200D02*
X91009524Y-83761961D01*
X91009524Y-83761961D02*
X90961905Y-83666723D01*
X90961905Y-83666723D02*
X90914286Y-83476247D01*
X90914286Y-83476247D02*
X90914286Y-83333390D01*
X90914286Y-83333390D02*
X90961905Y-83142914D01*
X90961905Y-83142914D02*
X91009524Y-83047676D01*
X91009524Y-83047676D02*
X91104762Y-82952438D01*
X91104762Y-82952438D02*
X91247619Y-82904819D01*
X91247619Y-82904819D02*
X91342857Y-82904819D01*
X91342857Y-82904819D02*
X91485714Y-82952438D01*
X91485714Y-82952438D02*
X91533333Y-83000057D01*
X91866667Y-82904819D02*
X92533333Y-82904819D01*
X92533333Y-82904819D02*
X92104762Y-83904819D01*
X116562142Y-74359580D02*
X116514523Y-74407200D01*
X116514523Y-74407200D02*
X116371666Y-74454819D01*
X116371666Y-74454819D02*
X116276428Y-74454819D01*
X116276428Y-74454819D02*
X116133571Y-74407200D01*
X116133571Y-74407200D02*
X116038333Y-74311961D01*
X116038333Y-74311961D02*
X115990714Y-74216723D01*
X115990714Y-74216723D02*
X115943095Y-74026247D01*
X115943095Y-74026247D02*
X115943095Y-73883390D01*
X115943095Y-73883390D02*
X115990714Y-73692914D01*
X115990714Y-73692914D02*
X116038333Y-73597676D01*
X116038333Y-73597676D02*
X116133571Y-73502438D01*
X116133571Y-73502438D02*
X116276428Y-73454819D01*
X116276428Y-73454819D02*
X116371666Y-73454819D01*
X116371666Y-73454819D02*
X116514523Y-73502438D01*
X116514523Y-73502438D02*
X116562142Y-73550057D01*
X117514523Y-74454819D02*
X116943095Y-74454819D01*
X117228809Y-74454819D02*
X117228809Y-73454819D01*
X117228809Y-73454819D02*
X117133571Y-73597676D01*
X117133571Y-73597676D02*
X117038333Y-73692914D01*
X117038333Y-73692914D02*
X116943095Y-73740533D01*
X118466904Y-74454819D02*
X117895476Y-74454819D01*
X118181190Y-74454819D02*
X118181190Y-73454819D01*
X118181190Y-73454819D02*
X118085952Y-73597676D01*
X118085952Y-73597676D02*
X117990714Y-73692914D01*
X117990714Y-73692914D02*
X117895476Y-73740533D01*
X104666666Y-92854819D02*
X104666666Y-93569104D01*
X104666666Y-93569104D02*
X104619047Y-93711961D01*
X104619047Y-93711961D02*
X104523809Y-93807200D01*
X104523809Y-93807200D02*
X104380952Y-93854819D01*
X104380952Y-93854819D02*
X104285714Y-93854819D01*
X105666666Y-93854819D02*
X105095238Y-93854819D01*
X105380952Y-93854819D02*
X105380952Y-92854819D01*
X105380952Y-92854819D02*
X105285714Y-92997676D01*
X105285714Y-92997676D02*
X105190476Y-93092914D01*
X105190476Y-93092914D02*
X105095238Y-93140533D01*
X96083333Y-78609580D02*
X96035714Y-78657200D01*
X96035714Y-78657200D02*
X95892857Y-78704819D01*
X95892857Y-78704819D02*
X95797619Y-78704819D01*
X95797619Y-78704819D02*
X95654762Y-78657200D01*
X95654762Y-78657200D02*
X95559524Y-78561961D01*
X95559524Y-78561961D02*
X95511905Y-78466723D01*
X95511905Y-78466723D02*
X95464286Y-78276247D01*
X95464286Y-78276247D02*
X95464286Y-78133390D01*
X95464286Y-78133390D02*
X95511905Y-77942914D01*
X95511905Y-77942914D02*
X95559524Y-77847676D01*
X95559524Y-77847676D02*
X95654762Y-77752438D01*
X95654762Y-77752438D02*
X95797619Y-77704819D01*
X95797619Y-77704819D02*
X95892857Y-77704819D01*
X95892857Y-77704819D02*
X96035714Y-77752438D01*
X96035714Y-77752438D02*
X96083333Y-77800057D01*
X96654762Y-78133390D02*
X96559524Y-78085771D01*
X96559524Y-78085771D02*
X96511905Y-78038152D01*
X96511905Y-78038152D02*
X96464286Y-77942914D01*
X96464286Y-77942914D02*
X96464286Y-77895295D01*
X96464286Y-77895295D02*
X96511905Y-77800057D01*
X96511905Y-77800057D02*
X96559524Y-77752438D01*
X96559524Y-77752438D02*
X96654762Y-77704819D01*
X96654762Y-77704819D02*
X96845238Y-77704819D01*
X96845238Y-77704819D02*
X96940476Y-77752438D01*
X96940476Y-77752438D02*
X96988095Y-77800057D01*
X96988095Y-77800057D02*
X97035714Y-77895295D01*
X97035714Y-77895295D02*
X97035714Y-77942914D01*
X97035714Y-77942914D02*
X96988095Y-78038152D01*
X96988095Y-78038152D02*
X96940476Y-78085771D01*
X96940476Y-78085771D02*
X96845238Y-78133390D01*
X96845238Y-78133390D02*
X96654762Y-78133390D01*
X96654762Y-78133390D02*
X96559524Y-78181009D01*
X96559524Y-78181009D02*
X96511905Y-78228628D01*
X96511905Y-78228628D02*
X96464286Y-78323866D01*
X96464286Y-78323866D02*
X96464286Y-78514342D01*
X96464286Y-78514342D02*
X96511905Y-78609580D01*
X96511905Y-78609580D02*
X96559524Y-78657200D01*
X96559524Y-78657200D02*
X96654762Y-78704819D01*
X96654762Y-78704819D02*
X96845238Y-78704819D01*
X96845238Y-78704819D02*
X96940476Y-78657200D01*
X96940476Y-78657200D02*
X96988095Y-78609580D01*
X96988095Y-78609580D02*
X97035714Y-78514342D01*
X97035714Y-78514342D02*
X97035714Y-78323866D01*
X97035714Y-78323866D02*
X96988095Y-78228628D01*
X96988095Y-78228628D02*
X96940476Y-78181009D01*
X96940476Y-78181009D02*
X96845238Y-78133390D01*
X114083333Y-82704819D02*
X113750000Y-82228628D01*
X113511905Y-82704819D02*
X113511905Y-81704819D01*
X113511905Y-81704819D02*
X113892857Y-81704819D01*
X113892857Y-81704819D02*
X113988095Y-81752438D01*
X113988095Y-81752438D02*
X114035714Y-81800057D01*
X114035714Y-81800057D02*
X114083333Y-81895295D01*
X114083333Y-81895295D02*
X114083333Y-82038152D01*
X114083333Y-82038152D02*
X114035714Y-82133390D01*
X114035714Y-82133390D02*
X113988095Y-82181009D01*
X113988095Y-82181009D02*
X113892857Y-82228628D01*
X113892857Y-82228628D02*
X113511905Y-82228628D01*
X115035714Y-82704819D02*
X114464286Y-82704819D01*
X114750000Y-82704819D02*
X114750000Y-81704819D01*
X114750000Y-81704819D02*
X114654762Y-81847676D01*
X114654762Y-81847676D02*
X114559524Y-81942914D01*
X114559524Y-81942914D02*
X114464286Y-81990533D01*
X98833333Y-74859580D02*
X98785714Y-74907200D01*
X98785714Y-74907200D02*
X98642857Y-74954819D01*
X98642857Y-74954819D02*
X98547619Y-74954819D01*
X98547619Y-74954819D02*
X98404762Y-74907200D01*
X98404762Y-74907200D02*
X98309524Y-74811961D01*
X98309524Y-74811961D02*
X98261905Y-74716723D01*
X98261905Y-74716723D02*
X98214286Y-74526247D01*
X98214286Y-74526247D02*
X98214286Y-74383390D01*
X98214286Y-74383390D02*
X98261905Y-74192914D01*
X98261905Y-74192914D02*
X98309524Y-74097676D01*
X98309524Y-74097676D02*
X98404762Y-74002438D01*
X98404762Y-74002438D02*
X98547619Y-73954819D01*
X98547619Y-73954819D02*
X98642857Y-73954819D01*
X98642857Y-73954819D02*
X98785714Y-74002438D01*
X98785714Y-74002438D02*
X98833333Y-74050057D01*
X99785714Y-74954819D02*
X99214286Y-74954819D01*
X99500000Y-74954819D02*
X99500000Y-73954819D01*
X99500000Y-73954819D02*
X99404762Y-74097676D01*
X99404762Y-74097676D02*
X99309524Y-74192914D01*
X99309524Y-74192914D02*
X99214286Y-74240533D01*
X111693333Y-82674819D02*
X111360000Y-82198628D01*
X111121905Y-82674819D02*
X111121905Y-81674819D01*
X111121905Y-81674819D02*
X111502857Y-81674819D01*
X111502857Y-81674819D02*
X111598095Y-81722438D01*
X111598095Y-81722438D02*
X111645714Y-81770057D01*
X111645714Y-81770057D02*
X111693333Y-81865295D01*
X111693333Y-81865295D02*
X111693333Y-82008152D01*
X111693333Y-82008152D02*
X111645714Y-82103390D01*
X111645714Y-82103390D02*
X111598095Y-82151009D01*
X111598095Y-82151009D02*
X111502857Y-82198628D01*
X111502857Y-82198628D02*
X111121905Y-82198628D01*
X112074286Y-81770057D02*
X112121905Y-81722438D01*
X112121905Y-81722438D02*
X112217143Y-81674819D01*
X112217143Y-81674819D02*
X112455238Y-81674819D01*
X112455238Y-81674819D02*
X112550476Y-81722438D01*
X112550476Y-81722438D02*
X112598095Y-81770057D01*
X112598095Y-81770057D02*
X112645714Y-81865295D01*
X112645714Y-81865295D02*
X112645714Y-81960533D01*
X112645714Y-81960533D02*
X112598095Y-82103390D01*
X112598095Y-82103390D02*
X112026667Y-82674819D01*
X112026667Y-82674819D02*
X112645714Y-82674819D01*
X91483333Y-85159580D02*
X91435714Y-85207200D01*
X91435714Y-85207200D02*
X91292857Y-85254819D01*
X91292857Y-85254819D02*
X91197619Y-85254819D01*
X91197619Y-85254819D02*
X91054762Y-85207200D01*
X91054762Y-85207200D02*
X90959524Y-85111961D01*
X90959524Y-85111961D02*
X90911905Y-85016723D01*
X90911905Y-85016723D02*
X90864286Y-84826247D01*
X90864286Y-84826247D02*
X90864286Y-84683390D01*
X90864286Y-84683390D02*
X90911905Y-84492914D01*
X90911905Y-84492914D02*
X90959524Y-84397676D01*
X90959524Y-84397676D02*
X91054762Y-84302438D01*
X91054762Y-84302438D02*
X91197619Y-84254819D01*
X91197619Y-84254819D02*
X91292857Y-84254819D01*
X91292857Y-84254819D02*
X91435714Y-84302438D01*
X91435714Y-84302438D02*
X91483333Y-84350057D01*
X92340476Y-84254819D02*
X92150000Y-84254819D01*
X92150000Y-84254819D02*
X92054762Y-84302438D01*
X92054762Y-84302438D02*
X92007143Y-84350057D01*
X92007143Y-84350057D02*
X91911905Y-84492914D01*
X91911905Y-84492914D02*
X91864286Y-84683390D01*
X91864286Y-84683390D02*
X91864286Y-85064342D01*
X91864286Y-85064342D02*
X91911905Y-85159580D01*
X91911905Y-85159580D02*
X91959524Y-85207200D01*
X91959524Y-85207200D02*
X92054762Y-85254819D01*
X92054762Y-85254819D02*
X92245238Y-85254819D01*
X92245238Y-85254819D02*
X92340476Y-85207200D01*
X92340476Y-85207200D02*
X92388095Y-85159580D01*
X92388095Y-85159580D02*
X92435714Y-85064342D01*
X92435714Y-85064342D02*
X92435714Y-84826247D01*
X92435714Y-84826247D02*
X92388095Y-84731009D01*
X92388095Y-84731009D02*
X92340476Y-84683390D01*
X92340476Y-84683390D02*
X92245238Y-84635771D01*
X92245238Y-84635771D02*
X92054762Y-84635771D01*
X92054762Y-84635771D02*
X91959524Y-84683390D01*
X91959524Y-84683390D02*
X91911905Y-84731009D01*
X91911905Y-84731009D02*
X91864286Y-84826247D01*
X98654819Y-67133333D02*
X99369104Y-67133333D01*
X99369104Y-67133333D02*
X99511961Y-67180952D01*
X99511961Y-67180952D02*
X99607200Y-67276190D01*
X99607200Y-67276190D02*
X99654819Y-67419047D01*
X99654819Y-67419047D02*
X99654819Y-67514285D01*
X98750057Y-66704761D02*
X98702438Y-66657142D01*
X98702438Y-66657142D02*
X98654819Y-66561904D01*
X98654819Y-66561904D02*
X98654819Y-66323809D01*
X98654819Y-66323809D02*
X98702438Y-66228571D01*
X98702438Y-66228571D02*
X98750057Y-66180952D01*
X98750057Y-66180952D02*
X98845295Y-66133333D01*
X98845295Y-66133333D02*
X98940533Y-66133333D01*
X98940533Y-66133333D02*
X99083390Y-66180952D01*
X99083390Y-66180952D02*
X99654819Y-66752380D01*
X99654819Y-66752380D02*
X99654819Y-66133333D01*
X107333333Y-90609580D02*
X107285714Y-90657200D01*
X107285714Y-90657200D02*
X107142857Y-90704819D01*
X107142857Y-90704819D02*
X107047619Y-90704819D01*
X107047619Y-90704819D02*
X106904762Y-90657200D01*
X106904762Y-90657200D02*
X106809524Y-90561961D01*
X106809524Y-90561961D02*
X106761905Y-90466723D01*
X106761905Y-90466723D02*
X106714286Y-90276247D01*
X106714286Y-90276247D02*
X106714286Y-90133390D01*
X106714286Y-90133390D02*
X106761905Y-89942914D01*
X106761905Y-89942914D02*
X106809524Y-89847676D01*
X106809524Y-89847676D02*
X106904762Y-89752438D01*
X106904762Y-89752438D02*
X107047619Y-89704819D01*
X107047619Y-89704819D02*
X107142857Y-89704819D01*
X107142857Y-89704819D02*
X107285714Y-89752438D01*
X107285714Y-89752438D02*
X107333333Y-89800057D01*
X108190476Y-90038152D02*
X108190476Y-90704819D01*
X107952381Y-89657200D02*
X107714286Y-90371485D01*
X107714286Y-90371485D02*
X108333333Y-90371485D01*
D12*
%TO.C,J5*%
X119520000Y-62380000D02*
X120850000Y-62380000D01*
X119520000Y-63710000D02*
X119520000Y-62380000D01*
X119520000Y-64980000D02*
X119520000Y-100600000D01*
X119520000Y-64980000D02*
X122180000Y-64980000D01*
X119520000Y-100600000D02*
X122180000Y-100600000D01*
X122180000Y-64980000D02*
X122180000Y-100600000D01*
%TO.C,U1*%
X99890000Y-79730000D02*
X99890000Y-80180000D01*
X99890000Y-86950000D02*
X99890000Y-86500000D01*
X100340000Y-79730000D02*
X99890000Y-79730000D01*
X100340000Y-86950000D02*
X99890000Y-86950000D01*
X106660000Y-79730000D02*
X107110000Y-79730000D01*
X106660000Y-86950000D02*
X107110000Y-86950000D01*
X107110000Y-79730000D02*
X107110000Y-80180000D01*
X107110000Y-86950000D02*
X107110000Y-86500000D01*
X99300000Y-80180000D02*
X98960000Y-79710000D01*
X99640000Y-79710000D01*
X99300000Y-80180000D01*
G36*
X99300000Y-80180000D02*
G01*
X98960000Y-79710000D01*
X99640000Y-79710000D01*
X99300000Y-80180000D01*
G37*
D13*
%TO.C,D1*%
X91077500Y-90550000D02*
G75*
G02*
X90977500Y-90550000I-50000J0D01*
G01*
X90977500Y-90550000D02*
G75*
G02*
X91077500Y-90550000I50000J0D01*
G01*
D12*
%TO.C,C2*%
X100392164Y-77140000D02*
X100607836Y-77140000D01*
X100392164Y-77860000D02*
X100607836Y-77860000D01*
%TO.C,C3*%
X108940000Y-80392164D02*
X108940000Y-80607836D01*
X109660000Y-80392164D02*
X109660000Y-80607836D01*
D13*
%TO.C,S1*%
X110205000Y-72425000D02*
X110205000Y-72425000D01*
X110205000Y-72425000D02*
X110205000Y-72425000D01*
X110205000Y-72425000D02*
X110205000Y-72750000D01*
X110205000Y-72425000D02*
X110555000Y-72425000D01*
X110205000Y-72750000D02*
X110205000Y-72425000D01*
X110205000Y-72750000D02*
X110205000Y-72750000D01*
X110205000Y-77750000D02*
X110205000Y-77750000D01*
X110205000Y-77750000D02*
X110205000Y-78075000D01*
X110205000Y-78075000D02*
X110205000Y-77750000D01*
X110205000Y-78075000D02*
X110205000Y-78075000D01*
X110205000Y-78075000D02*
X110205000Y-78075000D01*
X110205000Y-78075000D02*
X110555000Y-78075000D01*
X110555000Y-72425000D02*
X110205000Y-72425000D01*
X110555000Y-72425000D02*
X110555000Y-72425000D01*
X110555000Y-78075000D02*
X110205000Y-78075000D01*
X110555000Y-78075000D02*
X110555000Y-78075000D01*
X113555000Y-72425000D02*
X113555000Y-72425000D01*
X113555000Y-72425000D02*
X113905000Y-72425000D01*
X113555000Y-78075000D02*
X113555000Y-78075000D01*
X113555000Y-78075000D02*
X113905000Y-78075000D01*
X113905000Y-72425000D02*
X113555000Y-72425000D01*
X113905000Y-72425000D02*
X113905000Y-72425000D01*
X113905000Y-72425000D02*
X113905000Y-72425000D01*
X113905000Y-72425000D02*
X113905000Y-72750000D01*
X113905000Y-72750000D02*
X113905000Y-72425000D01*
X113905000Y-72750000D02*
X113905000Y-72750000D01*
X113905000Y-77750000D02*
X113905000Y-77750000D01*
X113905000Y-77750000D02*
X113905000Y-78075000D01*
X113905000Y-78075000D02*
X113555000Y-78075000D01*
X113905000Y-78075000D02*
X113905000Y-77750000D01*
X113905000Y-78075000D02*
X113905000Y-78075000D01*
X113905000Y-78075000D02*
X113905000Y-78075000D01*
D14*
X114555000Y-77250000D02*
X114555000Y-77250000D01*
X114555000Y-77350000D02*
X114555000Y-77350000D01*
X114555000Y-77350000D02*
X114555000Y-77350000D01*
X114555000Y-77250000D02*
G75*
G02*
X114555000Y-77350000I0J-50000D01*
G01*
X114555000Y-77250000D02*
G75*
G02*
X114555000Y-77350000I0J-50000D01*
G01*
X114555000Y-77350000D02*
G75*
G02*
X114555000Y-77250000I0J50000D01*
G01*
D12*
%TO.C,C5*%
X97340000Y-84157836D02*
X97340000Y-83942164D01*
X98060000Y-84157836D02*
X98060000Y-83942164D01*
%TO.C,FB1*%
X95540000Y-84212779D02*
X95540000Y-83887221D01*
X96560000Y-84212779D02*
X96560000Y-83887221D01*
%TO.C,R3*%
X94296359Y-90220000D02*
X94603641Y-90220000D01*
X94296359Y-90980000D02*
X94603641Y-90980000D01*
%TO.C,C7*%
X94357836Y-83090000D02*
X94142164Y-83090000D01*
X94357836Y-83810000D02*
X94142164Y-83810000D01*
%TO.C,J3*%
X84900000Y-94500000D02*
X84900000Y-95750000D01*
X85190000Y-94790000D02*
X85190000Y-100760000D01*
X85190000Y-100760000D02*
X95310000Y-100760000D01*
X85200000Y-94800000D02*
X85200000Y-95550000D01*
X85200000Y-95550000D02*
X87000000Y-95550000D01*
X85200000Y-97050000D02*
X85950000Y-97050000D01*
X85950000Y-97050000D02*
X85950000Y-100000000D01*
X85950000Y-100000000D02*
X90250000Y-100000000D01*
X86150000Y-94500000D02*
X84900000Y-94500000D01*
X87000000Y-94800000D02*
X85200000Y-94800000D01*
X87000000Y-95550000D02*
X87000000Y-94800000D01*
X88500000Y-94800000D02*
X88500000Y-95550000D01*
X88500000Y-95550000D02*
X92000000Y-95550000D01*
X92000000Y-94800000D02*
X88500000Y-94800000D01*
X92000000Y-95550000D02*
X92000000Y-94800000D01*
X93500000Y-94800000D02*
X93500000Y-95550000D01*
X93500000Y-95550000D02*
X95300000Y-95550000D01*
X94550000Y-97050000D02*
X94550000Y-100000000D01*
X94550000Y-100000000D02*
X90250000Y-100000000D01*
X95300000Y-94800000D02*
X93500000Y-94800000D01*
X95300000Y-95550000D02*
X95300000Y-94800000D01*
X95300000Y-97050000D02*
X94550000Y-97050000D01*
X95310000Y-94790000D02*
X85190000Y-94790000D01*
X95310000Y-100760000D02*
X95310000Y-94790000D01*
%TO.C,J4*%
X85470000Y-62345000D02*
X86800000Y-62345000D01*
X85470000Y-63675000D02*
X85470000Y-62345000D01*
X85470000Y-64945000D02*
X85470000Y-87865000D01*
X85470000Y-64945000D02*
X88130000Y-64945000D01*
X85470000Y-87865000D02*
X88130000Y-87865000D01*
X88130000Y-64945000D02*
X88130000Y-87865000D01*
%TO.C,C11*%
X115845000Y-75832836D02*
X115845000Y-75617164D01*
X116565000Y-75832836D02*
X116565000Y-75617164D01*
%TO.C,J1*%
X96400000Y-94500000D02*
X96400000Y-95750000D01*
X96690000Y-94790000D02*
X96690000Y-100760000D01*
X96690000Y-100760000D02*
X109310000Y-100760000D01*
X96700000Y-94800000D02*
X96700000Y-95550000D01*
X96700000Y-95550000D02*
X98500000Y-95550000D01*
X96700000Y-97050000D02*
X97450000Y-97050000D01*
X97450000Y-97050000D02*
X97450000Y-100000000D01*
X97450000Y-100000000D02*
X103000000Y-100000000D01*
X97650000Y-94500000D02*
X96400000Y-94500000D01*
X98500000Y-94800000D02*
X96700000Y-94800000D01*
X98500000Y-95550000D02*
X98500000Y-94800000D01*
X100000000Y-94800000D02*
X100000000Y-95550000D01*
X100000000Y-95550000D02*
X106000000Y-95550000D01*
X106000000Y-94800000D02*
X100000000Y-94800000D01*
X106000000Y-95550000D02*
X106000000Y-94800000D01*
X107500000Y-94800000D02*
X107500000Y-95550000D01*
X107500000Y-95550000D02*
X109300000Y-95550000D01*
X108550000Y-97050000D02*
X108550000Y-100000000D01*
X108550000Y-100000000D02*
X103000000Y-100000000D01*
X109300000Y-94800000D02*
X107500000Y-94800000D01*
X109300000Y-95550000D02*
X109300000Y-94800000D01*
X109300000Y-97050000D02*
X108550000Y-97050000D01*
X109310000Y-94790000D02*
X96690000Y-94790000D01*
X109310000Y-100760000D02*
X109310000Y-94790000D01*
%TO.C,C8*%
X97390000Y-79857836D02*
X97390000Y-79642164D01*
X98110000Y-79857836D02*
X98110000Y-79642164D01*
%TO.C,R1*%
X113646359Y-80670000D02*
X113953641Y-80670000D01*
X113646359Y-81430000D02*
X113953641Y-81430000D01*
%TO.C,C1*%
X99759420Y-75490000D02*
X100040580Y-75490000D01*
X99759420Y-76510000D02*
X100040580Y-76510000D01*
D10*
%TO.C,JP2*%
X85180000Y-92100000D02*
X85680000Y-91600000D01*
X85180000Y-92900000D02*
X85180000Y-92100000D01*
X85680000Y-91600000D02*
X89280000Y-91600000D01*
X85680000Y-93400000D02*
X85180000Y-92900000D01*
X89280000Y-91600000D02*
X89780000Y-92100000D01*
X89280000Y-93400000D02*
X85680000Y-93400000D01*
X89780000Y-92100000D02*
X89780000Y-92900000D01*
X89780000Y-92900000D02*
X89280000Y-93400000D01*
%TO.C,JP1*%
X90880000Y-92100000D02*
X91380000Y-91600000D01*
X90880000Y-92900000D02*
X90880000Y-92100000D01*
X91380000Y-91600000D02*
X94980000Y-91600000D01*
X91380000Y-93400000D02*
X90880000Y-92900000D01*
X94980000Y-91600000D02*
X95480000Y-92100000D01*
X94980000Y-93400000D02*
X91380000Y-93400000D01*
X95480000Y-92100000D02*
X95480000Y-92900000D01*
X95480000Y-92900000D02*
X94980000Y-93400000D01*
D12*
%TO.C,R2*%
X112013641Y-80670000D02*
X111706359Y-80670000D01*
X112013641Y-81430000D02*
X111706359Y-81430000D01*
%TO.C,C6*%
X94357836Y-84440000D02*
X94142164Y-84440000D01*
X94357836Y-85160000D02*
X94142164Y-85160000D01*
%TO.C,J2*%
X100495000Y-65035000D02*
X100495000Y-68565000D01*
X100560000Y-65035000D02*
X100495000Y-65035000D01*
X100560000Y-68565000D02*
X100495000Y-68565000D01*
X109440000Y-63710000D02*
X109440000Y-65035000D01*
X109505000Y-65035000D02*
X109440000Y-65035000D01*
X109505000Y-65035000D02*
X109505000Y-68565000D01*
X109505000Y-68565000D02*
X109440000Y-68565000D01*
%TO.C,C4*%
X106507836Y-88740000D02*
X106292164Y-88740000D01*
X106507836Y-89460000D02*
X106292164Y-89460000D01*
%TD*%
M02*
