M48
; DRILL file {KiCad 8.0.8} date 2025-02-15T23:33:58-0500
; FORMAT={-:-/ absolute / metric / decimal}
; #@! TF.CreationDate,2025-02-15T23:33:58-05:00
; #@! TF.GenerationSoftware,Kicad,Pcbnew,8.0.8
; #@! TF.FileFunction,MixedPlating,1,2
FMAT,2
METRIC
; #@! TA.AperFunction,Plated,PTH,ViaDrill
T1C0.300
; #@! TA.AperFunction,Plated,PTH,ComponentDrill
T2C0.800
; #@! TA.AperFunction,Plated,PTH,ComponentDrill
T3C0.950
; #@! TA.AperFunction,Plated,PTH,ComponentDrill
T4C1.000
%
G90
G05
T1
X85.4Y-82.05
X85.4Y-83.45
X88.3Y-66.25
X90.1Y-95.6
X91.65Y-89.6
X92.9Y-83.5
X93.75Y-85.75
X96.85Y-79.25
X100.585Y-84.29
X101.4Y-80.5
X102.45Y-63.1
X105.0Y-63.25
X105.313Y-86.215
X106.05Y-81.2
X106.3Y-63.2
X109.65Y-74.15
X109.65Y-75.25
X112.05Y-74.0
X112.05Y-76.05
X113.42Y-80.28
X113.85Y-78.55
X114.5Y-74.05
X115.01Y-80.3
X117.1Y-67.5
X117.1Y-75.05
X118.9Y-67.5
X118.9Y-85.4
X119.4Y-66.3
X121.439Y-85.3
T2
X86.21Y-92.5
X88.75Y-92.5
X91.91Y-92.5
X94.45Y-92.5
T3
X87.75Y-97.25
X90.25Y-97.25
X92.75Y-97.25
X99.25Y-97.25
X101.75Y-97.25
X104.25Y-97.25
X106.75Y-97.25
T4
X86.8Y-63.675
X86.8Y-66.215
X86.8Y-68.755
X86.8Y-71.295
X86.8Y-73.835
X86.8Y-76.375
X86.8Y-78.915
X86.8Y-81.455
X86.8Y-83.995
X86.8Y-86.535
X120.85Y-63.71
X120.85Y-66.25
X120.85Y-68.79
X120.85Y-71.33
X120.85Y-73.87
X120.85Y-76.41
X120.85Y-78.95
X120.85Y-81.49
X120.85Y-84.03
X120.85Y-86.57
X120.85Y-89.11
X120.85Y-91.65
X120.85Y-94.19
X120.85Y-96.73
X120.85Y-99.27
M30
