%TF.GenerationSoftware,KiCad,Pcbnew,8.0.8*%
%TF.CreationDate,2025-02-15T23:34:00-05:00*%
%TF.ProjectId,SensorModuleBreakout,53656e73-6f72-44d6-9f64-756c65427265,rev?*%
%TF.SameCoordinates,Original*%
%TF.FileFunction,Copper,L2,Bot*%
%TF.FilePolarity,Positive*%
%FSLAX46Y46*%
G04 Gerber Fmt 4.6, Leading zero omitted, Abs format (unit mm)*
G04 Created by KiCad (PCBNEW 8.0.8) date 2025-02-15 23:34:00*
%MOMM*%
%LPD*%
G01*
G04 APERTURE LIST*
G04 Aperture macros list*
%AMRoundRect*
0 Rectangle with rounded corners*
0 $1 Rounding radius*
0 $2 $3 $4 $5 $6 $7 $8 $9 X,Y pos of 4 corners*
0 Add a 4 corners polygon primitive as box body*
4,1,4,$2,$3,$4,$5,$6,$7,$8,$9,$2,$3,0*
0 Add four circle primitives for the rounded corners*
1,1,$1+$1,$2,$3*
1,1,$1+$1,$4,$5*
1,1,$1+$1,$6,$7*
1,1,$1+$1,$8,$9*
0 Add four rect primitives between the rounded corners*
20,1,$1+$1,$2,$3,$4,$5,0*
20,1,$1+$1,$4,$5,$6,$7,0*
20,1,$1+$1,$6,$7,$8,$9,0*
20,1,$1+$1,$8,$9,$2,$3,0*%
G04 Aperture macros list end*
%TA.AperFunction,ComponentPad*%
%ADD10R,1.700000X1.700000*%
%TD*%
%TA.AperFunction,ComponentPad*%
%ADD11O,1.700000X1.700000*%
%TD*%
%TA.AperFunction,ComponentPad*%
%ADD12RoundRect,0.250000X-0.600000X-0.725000X0.600000X-0.725000X0.600000X0.725000X-0.600000X0.725000X0*%
%TD*%
%TA.AperFunction,ComponentPad*%
%ADD13O,1.700000X1.950000*%
%TD*%
%TA.AperFunction,ComponentPad*%
%ADD14C,1.400000*%
%TD*%
%TA.AperFunction,ViaPad*%
%ADD15C,0.700000*%
%TD*%
%TA.AperFunction,Conductor*%
%ADD16C,0.700000*%
%TD*%
%TA.AperFunction,Conductor*%
%ADD17C,0.300000*%
%TD*%
G04 APERTURE END LIST*
D10*
%TO.P,J5,1,Pin_1*%
%TO.N,+3V3*%
X120850000Y-63710000D03*
D11*
%TO.P,J5,2,Pin_2*%
%TO.N,GND*%
X120850000Y-66250000D03*
%TO.P,J5,3,Pin_3*%
%TO.N,unconnected-(J5-Pin_3-Pad3)*%
X120850000Y-68790000D03*
%TO.P,J5,4,Pin_4*%
%TO.N,PA8*%
X120850000Y-71330000D03*
%TO.P,J5,5,Pin_5*%
%TO.N,PB15*%
X120850000Y-73870000D03*
%TO.P,J5,6,Pin_6*%
%TO.N,PB14*%
X120850000Y-76410000D03*
%TO.P,J5,7,Pin_7*%
%TO.N,PB13*%
X120850000Y-78950000D03*
%TO.P,J5,8,Pin_8*%
%TO.N,PB12*%
X120850000Y-81490000D03*
%TO.P,J5,9,Pin_9*%
%TO.N,PB11*%
X120850000Y-84030000D03*
%TO.P,J5,10,Pin_10*%
%TO.N,PB10*%
X120850000Y-86570000D03*
%TO.P,J5,11,Pin_11*%
%TO.N,PB2*%
X120850000Y-89110000D03*
%TO.P,J5,12,Pin_12*%
%TO.N,PB1*%
X120850000Y-91650000D03*
%TO.P,J5,13,Pin_13*%
%TO.N,PB0*%
X120850000Y-94190000D03*
%TO.P,J5,14,Pin_14*%
%TO.N,PA7*%
X120850000Y-96730000D03*
%TO.P,J5,15,Pin_15*%
%TO.N,PA6*%
X120850000Y-99270000D03*
%TD*%
D12*
%TO.P,J3,1,Pin_1*%
%TO.N,VBAT*%
X87750000Y-97250000D03*
D13*
%TO.P,J3,2,Pin_2*%
%TO.N,GND*%
X90250000Y-97250000D03*
%TO.P,J3,3,Pin_3*%
%TO.N,+3V3*%
X92750000Y-97250000D03*
%TD*%
D10*
%TO.P,J4,1,Pin_1*%
%TO.N,+3V3*%
X86800000Y-63675000D03*
D11*
%TO.P,J4,2,Pin_2*%
%TO.N,GND*%
X86800000Y-66215000D03*
%TO.P,J4,3,Pin_3*%
%TO.N,PB8*%
X86800000Y-68755000D03*
%TO.P,J4,4,Pin_4*%
%TO.N,PB9*%
X86800000Y-71295000D03*
%TO.P,J4,5,Pin_5*%
%TO.N,PC13*%
X86800000Y-73835000D03*
%TO.P,J4,6,Pin_6*%
%TO.N,PC14*%
X86800000Y-76375000D03*
%TO.P,J4,7,Pin_7*%
%TO.N,PC15*%
X86800000Y-78915000D03*
%TO.P,J4,8,Pin_8*%
%TO.N,PF0*%
X86800000Y-81455000D03*
%TO.P,J4,9,Pin_9*%
%TO.N,PA0*%
X86800000Y-83995000D03*
%TO.P,J4,10,Pin_10*%
%TO.N,PA1*%
X86800000Y-86535000D03*
%TD*%
D12*
%TO.P,J1,1,Pin_1*%
%TO.N,TX*%
X99250000Y-97250000D03*
D13*
%TO.P,J1,2,Pin_2*%
%TO.N,RX*%
X101750000Y-97250000D03*
%TO.P,J1,3,Pin_3*%
%TO.N,WKE*%
X104250000Y-97250000D03*
%TO.P,J1,4,Pin_4*%
%TO.N,RDY*%
X106750000Y-97250000D03*
%TD*%
D14*
%TO.P,JP2,1,A*%
%TO.N,+3V3*%
X88750000Y-92500000D03*
%TO.P,JP2,2,B*%
%TO.N,VBAT*%
X86210000Y-92500000D03*
%TD*%
%TO.P,JP1,1,A*%
%TO.N,Net-(JP1-A)*%
X94450000Y-92500000D03*
%TO.P,JP1,2,B*%
%TO.N,+3V3*%
X91910000Y-92500000D03*
%TD*%
D15*
%TO.N,+3V3*%
X113420025Y-80279975D03*
X115010000Y-80300000D03*
X121439154Y-85300002D03*
X118900000Y-85400000D03*
%TO.N,GND*%
X109650000Y-74150000D03*
X105313171Y-86215000D03*
X90100000Y-95600000D03*
X105000000Y-63250000D03*
X102450000Y-63100000D03*
X112050000Y-76050000D03*
X113850000Y-78550000D03*
X88300000Y-66250000D03*
X96850000Y-79250000D03*
X112050000Y-74000000D03*
X93750000Y-85750000D03*
X117100000Y-75050000D03*
X109650000Y-75250000D03*
X100584639Y-84289999D03*
X91650000Y-89600000D03*
X92900000Y-83500000D03*
X106300000Y-63200000D03*
X114500000Y-74050000D03*
X119400000Y-66300000D03*
X106050000Y-81200000D03*
X101400000Y-80500000D03*
%TO.N,VBAT*%
X85400000Y-83450000D03*
X85400000Y-82050000D03*
%TO.N,NRST*%
X117100000Y-67500000D03*
X118900000Y-67500000D03*
%TD*%
D16*
%TO.N,+3V3*%
X114989975Y-80279975D02*
X115010000Y-80300000D01*
X113420025Y-80279975D02*
X114989975Y-80279975D01*
D17*
X118999998Y-85300002D02*
X121439154Y-85300002D01*
X118900000Y-85400000D02*
X118999998Y-85300002D01*
%TO.N,VBAT*%
X85400000Y-82050000D02*
X85400000Y-83450000D01*
%TO.N,NRST*%
X118900000Y-67500000D02*
X117100000Y-67500000D01*
%TD*%
%TA.AperFunction,Conductor*%
%TO.N,GND*%
G36*
X122654853Y-60650881D02*
G01*
X122827919Y-60664502D01*
X122847128Y-60667545D01*
X123011183Y-60706931D01*
X123029675Y-60712940D01*
X123155347Y-60764994D01*
X123185547Y-60777504D01*
X123202884Y-60786338D01*
X123346725Y-60874484D01*
X123362466Y-60885920D01*
X123490753Y-60995486D01*
X123504513Y-61009246D01*
X123614079Y-61137533D01*
X123625515Y-61153274D01*
X123713661Y-61297115D01*
X123722495Y-61314452D01*
X123787057Y-61470317D01*
X123793070Y-61488823D01*
X123832453Y-61652866D01*
X123835497Y-61672084D01*
X123849118Y-61845146D01*
X123849500Y-61854875D01*
X123849500Y-101145124D01*
X123849118Y-101154853D01*
X123835497Y-101327915D01*
X123832453Y-101347133D01*
X123793070Y-101511176D01*
X123787057Y-101529682D01*
X123722495Y-101685547D01*
X123713661Y-101702884D01*
X123625515Y-101846725D01*
X123614079Y-101862466D01*
X123504513Y-101990753D01*
X123490753Y-102004513D01*
X123362466Y-102114079D01*
X123346725Y-102125515D01*
X123202884Y-102213661D01*
X123185547Y-102222495D01*
X123029682Y-102287057D01*
X123011176Y-102293070D01*
X122847133Y-102332453D01*
X122827915Y-102335497D01*
X122654854Y-102349118D01*
X122645125Y-102349500D01*
X85004875Y-102349500D01*
X84995146Y-102349118D01*
X84822084Y-102335497D01*
X84802866Y-102332453D01*
X84638823Y-102293070D01*
X84620317Y-102287057D01*
X84464452Y-102222495D01*
X84447115Y-102213661D01*
X84303274Y-102125515D01*
X84287533Y-102114079D01*
X84159246Y-102004513D01*
X84145486Y-101990753D01*
X84035920Y-101862466D01*
X84024484Y-101846725D01*
X83936338Y-101702884D01*
X83927504Y-101685547D01*
X83914994Y-101655347D01*
X83862940Y-101529675D01*
X83856931Y-101511183D01*
X83817545Y-101347128D01*
X83814502Y-101327915D01*
X83800882Y-101154853D01*
X83800500Y-101145124D01*
X83800500Y-96481898D01*
X86599500Y-96481898D01*
X86599500Y-98018102D01*
X86602118Y-98039900D01*
X86610122Y-98106561D01*
X86610122Y-98106563D01*
X86610123Y-98106564D01*
X86627722Y-98151192D01*
X86665639Y-98247343D01*
X86757077Y-98367922D01*
X86877656Y-98459360D01*
X86877657Y-98459360D01*
X86877658Y-98459361D01*
X87018436Y-98514877D01*
X87106898Y-98525500D01*
X87106903Y-98525500D01*
X88393097Y-98525500D01*
X88393102Y-98525500D01*
X88481564Y-98514877D01*
X88622342Y-98459361D01*
X88742922Y-98367922D01*
X88834361Y-98247342D01*
X88885433Y-98117832D01*
X88928338Y-98062690D01*
X88994246Y-98039497D01*
X89062230Y-98055617D01*
X89101105Y-98090439D01*
X89220272Y-98254459D01*
X89220276Y-98254464D01*
X89370535Y-98404723D01*
X89370540Y-98404727D01*
X89542442Y-98529620D01*
X89731782Y-98626095D01*
X89933871Y-98691757D01*
X90000000Y-98702231D01*
X90000000Y-97654145D01*
X90066657Y-97692630D01*
X90187465Y-97725000D01*
X90312535Y-97725000D01*
X90433343Y-97692630D01*
X90500000Y-97654145D01*
X90500000Y-98702230D01*
X90566126Y-98691757D01*
X90566129Y-98691757D01*
X90768217Y-98626095D01*
X90957557Y-98529620D01*
X91129459Y-98404727D01*
X91129464Y-98404723D01*
X91279723Y-98254464D01*
X91279727Y-98254459D01*
X91404620Y-98082558D01*
X91501466Y-97892488D01*
X91549440Y-97841692D01*
X91617261Y-97824897D01*
X91683396Y-97847434D01*
X91722435Y-97892488D01*
X91766002Y-97977992D01*
X91766003Y-97977993D01*
X91872441Y-98124494D01*
X91872445Y-98124499D01*
X92000500Y-98252554D01*
X92000505Y-98252558D01*
X92128287Y-98345396D01*
X92147006Y-98358996D01*
X92236750Y-98404723D01*
X92308360Y-98441211D01*
X92308363Y-98441212D01*
X92394476Y-98469191D01*
X92480591Y-98497171D01*
X92563429Y-98510291D01*
X92659449Y-98525500D01*
X92659454Y-98525500D01*
X92840551Y-98525500D01*
X92927259Y-98511765D01*
X93019409Y-98497171D01*
X93191639Y-98441211D01*
X93352994Y-98358996D01*
X93499501Y-98252553D01*
X93627553Y-98124501D01*
X93733996Y-97977994D01*
X93816211Y-97816639D01*
X93872171Y-97644409D01*
X93893712Y-97508406D01*
X93900500Y-97465551D01*
X93900500Y-97034448D01*
X93878495Y-96895522D01*
X93872171Y-96855591D01*
X93831365Y-96730000D01*
X93816212Y-96683363D01*
X93816211Y-96683360D01*
X93777563Y-96607511D01*
X93733996Y-96522006D01*
X93704856Y-96481898D01*
X98099500Y-96481898D01*
X98099500Y-98018102D01*
X98102118Y-98039900D01*
X98110122Y-98106561D01*
X98110122Y-98106563D01*
X98110123Y-98106564D01*
X98127722Y-98151192D01*
X98165639Y-98247343D01*
X98257077Y-98367922D01*
X98377656Y-98459360D01*
X98377657Y-98459360D01*
X98377658Y-98459361D01*
X98518436Y-98514877D01*
X98606898Y-98525500D01*
X98606903Y-98525500D01*
X99893097Y-98525500D01*
X99893102Y-98525500D01*
X99981564Y-98514877D01*
X100122342Y-98459361D01*
X100242922Y-98367922D01*
X100334361Y-98247342D01*
X100389877Y-98106564D01*
X100400500Y-98018102D01*
X100400500Y-97727669D01*
X100420185Y-97660630D01*
X100472989Y-97614875D01*
X100542147Y-97604931D01*
X100605703Y-97633956D01*
X100642431Y-97689351D01*
X100683787Y-97816636D01*
X100683788Y-97816639D01*
X100739664Y-97926300D01*
X100766003Y-97977993D01*
X100766006Y-97977997D01*
X100872441Y-98124494D01*
X100872445Y-98124499D01*
X101000500Y-98252554D01*
X101000505Y-98252558D01*
X101128287Y-98345396D01*
X101147006Y-98358996D01*
X101236750Y-98404723D01*
X101308360Y-98441211D01*
X101308363Y-98441212D01*
X101394476Y-98469191D01*
X101480591Y-98497171D01*
X101563429Y-98510291D01*
X101659449Y-98525500D01*
X101659454Y-98525500D01*
X101840551Y-98525500D01*
X101927259Y-98511765D01*
X102019409Y-98497171D01*
X102191639Y-98441211D01*
X102352994Y-98358996D01*
X102499501Y-98252553D01*
X102627553Y-98124501D01*
X102733996Y-97977994D01*
X102816211Y-97816639D01*
X102872171Y-97644409D01*
X102877527Y-97610594D01*
X102907456Y-97547459D01*
X102966768Y-97510528D01*
X103036630Y-97511526D01*
X103094863Y-97550136D01*
X103122473Y-97610594D01*
X103127829Y-97644410D01*
X103183787Y-97816636D01*
X103183788Y-97816639D01*
X103239664Y-97926300D01*
X103266003Y-97977993D01*
X103266006Y-97977997D01*
X103372441Y-98124494D01*
X103372445Y-98124499D01*
X103500500Y-98252554D01*
X103500505Y-98252558D01*
X103628287Y-98345396D01*
X103647006Y-98358996D01*
X103736750Y-98404723D01*
X103808360Y-98441211D01*
X103808363Y-98441212D01*
X103894476Y-98469191D01*
X103980591Y-98497171D01*
X104063429Y-98510291D01*
X104159449Y-98525500D01*
X104159454Y-98525500D01*
X104340551Y-98525500D01*
X104427259Y-98511765D01*
X104519409Y-98497171D01*
X104691639Y-98441211D01*
X104852994Y-98358996D01*
X104999501Y-98252553D01*
X105127553Y-98124501D01*
X105233996Y-97977994D01*
X105316211Y-97816639D01*
X105372171Y-97644409D01*
X105377527Y-97610594D01*
X105407456Y-97547459D01*
X105466768Y-97510528D01*
X105536630Y-97511526D01*
X105594863Y-97550136D01*
X105622473Y-97610594D01*
X105627829Y-97644410D01*
X105683787Y-97816636D01*
X105683788Y-97816639D01*
X105739664Y-97926300D01*
X105766003Y-97977993D01*
X105766006Y-97977997D01*
X105872441Y-98124494D01*
X105872445Y-98124499D01*
X106000500Y-98252554D01*
X106000505Y-98252558D01*
X106128287Y-98345396D01*
X106147006Y-98358996D01*
X106236750Y-98404723D01*
X106308360Y-98441211D01*
X106308363Y-98441212D01*
X106394476Y-98469191D01*
X106480591Y-98497171D01*
X106563429Y-98510291D01*
X106659449Y-98525500D01*
X106659454Y-98525500D01*
X106840551Y-98525500D01*
X106927259Y-98511765D01*
X107019409Y-98497171D01*
X107191639Y-98441211D01*
X107352994Y-98358996D01*
X107499501Y-98252553D01*
X107627553Y-98124501D01*
X107733996Y-97977994D01*
X107816211Y-97816639D01*
X107872171Y-97644409D01*
X107893712Y-97508406D01*
X107900500Y-97465551D01*
X107900500Y-97034448D01*
X107878495Y-96895522D01*
X107872171Y-96855591D01*
X107831365Y-96730000D01*
X107816212Y-96683363D01*
X107816211Y-96683360D01*
X107777563Y-96607511D01*
X107733996Y-96522006D01*
X107663953Y-96425599D01*
X107627558Y-96375505D01*
X107627554Y-96375500D01*
X107499499Y-96247445D01*
X107499494Y-96247441D01*
X107352997Y-96141006D01*
X107352996Y-96141005D01*
X107352994Y-96141004D01*
X107301300Y-96114664D01*
X107191639Y-96058788D01*
X107191636Y-96058787D01*
X107019410Y-96002829D01*
X106840551Y-95974500D01*
X106840546Y-95974500D01*
X106659454Y-95974500D01*
X106659449Y-95974500D01*
X106480589Y-96002829D01*
X106308363Y-96058787D01*
X106308360Y-96058788D01*
X106147002Y-96141006D01*
X106000505Y-96247441D01*
X106000500Y-96247445D01*
X105872445Y-96375500D01*
X105872441Y-96375505D01*
X105766006Y-96522002D01*
X105683788Y-96683360D01*
X105683787Y-96683363D01*
X105627829Y-96855589D01*
X105622473Y-96889406D01*
X105592543Y-96952540D01*
X105533232Y-96989471D01*
X105463369Y-96988473D01*
X105405137Y-96949863D01*
X105377527Y-96889406D01*
X105374438Y-96869905D01*
X105372171Y-96855591D01*
X105331365Y-96730000D01*
X105316212Y-96683363D01*
X105316211Y-96683360D01*
X105277563Y-96607511D01*
X105233996Y-96522006D01*
X105163953Y-96425599D01*
X105127558Y-96375505D01*
X105127554Y-96375500D01*
X104999499Y-96247445D01*
X104999494Y-96247441D01*
X104852997Y-96141006D01*
X104852996Y-96141005D01*
X104852994Y-96141004D01*
X104801300Y-96114664D01*
X104691639Y-96058788D01*
X104691636Y-96058787D01*
X104519410Y-96002829D01*
X104340551Y-95974500D01*
X104340546Y-95974500D01*
X104159454Y-95974500D01*
X104159449Y-95974500D01*
X103980589Y-96002829D01*
X103808363Y-96058787D01*
X103808360Y-96058788D01*
X103647002Y-96141006D01*
X103500505Y-96247441D01*
X103500500Y-96247445D01*
X103372445Y-96375500D01*
X103372441Y-96375505D01*
X103266006Y-96522002D01*
X103183788Y-96683360D01*
X103183787Y-96683363D01*
X103127829Y-96855589D01*
X103122473Y-96889406D01*
X103092543Y-96952540D01*
X103033232Y-96989471D01*
X102963369Y-96988473D01*
X102905137Y-96949863D01*
X102877527Y-96889406D01*
X102874438Y-96869905D01*
X102872171Y-96855591D01*
X102831365Y-96730000D01*
X102816212Y-96683363D01*
X102816211Y-96683360D01*
X102777563Y-96607511D01*
X102733996Y-96522006D01*
X102663953Y-96425599D01*
X102627558Y-96375505D01*
X102627554Y-96375500D01*
X102499499Y-96247445D01*
X102499494Y-96247441D01*
X102352997Y-96141006D01*
X102352996Y-96141005D01*
X102352994Y-96141004D01*
X102301300Y-96114664D01*
X102191639Y-96058788D01*
X102191636Y-96058787D01*
X102019410Y-96002829D01*
X101840551Y-95974500D01*
X101840546Y-95974500D01*
X101659454Y-95974500D01*
X101659449Y-95974500D01*
X101480589Y-96002829D01*
X101308363Y-96058787D01*
X101308360Y-96058788D01*
X101147002Y-96141006D01*
X101000505Y-96247441D01*
X101000500Y-96247445D01*
X100872445Y-96375500D01*
X100872441Y-96375505D01*
X100766006Y-96522002D01*
X100683788Y-96683360D01*
X100683787Y-96683363D01*
X100642431Y-96810648D01*
X100602994Y-96868323D01*
X100538635Y-96895522D01*
X100469789Y-96883608D01*
X100418313Y-96836364D01*
X100400500Y-96772330D01*
X100400500Y-96481903D01*
X100400500Y-96481898D01*
X100389877Y-96393436D01*
X100334361Y-96252658D01*
X100334360Y-96252657D01*
X100334360Y-96252656D01*
X100242922Y-96132077D01*
X100122343Y-96040639D01*
X99981561Y-95985122D01*
X99935926Y-95979642D01*
X99893102Y-95974500D01*
X98606898Y-95974500D01*
X98567853Y-95979188D01*
X98518438Y-95985122D01*
X98377656Y-96040639D01*
X98257077Y-96132077D01*
X98165639Y-96252656D01*
X98110122Y-96393438D01*
X98104188Y-96442853D01*
X98099500Y-96481898D01*
X93704856Y-96481898D01*
X93663953Y-96425599D01*
X93627558Y-96375505D01*
X93627554Y-96375500D01*
X93499499Y-96247445D01*
X93499494Y-96247441D01*
X93352997Y-96141006D01*
X93352996Y-96141005D01*
X93352994Y-96141004D01*
X93301300Y-96114664D01*
X93191639Y-96058788D01*
X93191636Y-96058787D01*
X93019410Y-96002829D01*
X92840551Y-95974500D01*
X92840546Y-95974500D01*
X92659454Y-95974500D01*
X92659449Y-95974500D01*
X92480589Y-96002829D01*
X92308363Y-96058787D01*
X92308360Y-96058788D01*
X92147002Y-96141006D01*
X92000505Y-96247441D01*
X92000500Y-96247445D01*
X91872445Y-96375500D01*
X91872441Y-96375505D01*
X91766004Y-96522004D01*
X91722435Y-96607512D01*
X91674460Y-96658307D01*
X91606639Y-96675102D01*
X91540504Y-96652564D01*
X91501466Y-96607511D01*
X91404620Y-96417442D01*
X91279727Y-96245540D01*
X91279723Y-96245535D01*
X91129464Y-96095276D01*
X91129459Y-96095272D01*
X90957557Y-95970379D01*
X90768215Y-95873903D01*
X90566124Y-95808241D01*
X90500000Y-95797768D01*
X90500000Y-96845854D01*
X90433343Y-96807370D01*
X90312535Y-96775000D01*
X90187465Y-96775000D01*
X90066657Y-96807370D01*
X90000000Y-96845854D01*
X90000000Y-95797768D01*
X89999999Y-95797768D01*
X89933875Y-95808241D01*
X89731784Y-95873903D01*
X89542442Y-95970379D01*
X89370540Y-96095272D01*
X89370535Y-96095276D01*
X89220276Y-96245535D01*
X89220272Y-96245540D01*
X89101105Y-96409560D01*
X89045775Y-96452226D01*
X88976162Y-96458205D01*
X88914367Y-96425599D01*
X88885433Y-96382165D01*
X88834362Y-96252660D01*
X88834361Y-96252658D01*
X88742922Y-96132077D01*
X88622343Y-96040639D01*
X88481561Y-95985122D01*
X88435926Y-95979642D01*
X88393102Y-95974500D01*
X87106898Y-95974500D01*
X87067853Y-95979188D01*
X87018438Y-95985122D01*
X86877656Y-96040639D01*
X86757077Y-96132077D01*
X86665639Y-96252656D01*
X86610122Y-96393438D01*
X86604188Y-96442853D01*
X86599500Y-96481898D01*
X83800500Y-96481898D01*
X83800500Y-92500000D01*
X85204659Y-92500000D01*
X85223975Y-92696129D01*
X85223976Y-92696132D01*
X85279782Y-92880100D01*
X85281188Y-92884733D01*
X85374086Y-93058532D01*
X85374090Y-93058539D01*
X85499116Y-93210883D01*
X85651460Y-93335909D01*
X85651467Y-93335913D01*
X85825266Y-93428811D01*
X85825269Y-93428811D01*
X85825273Y-93428814D01*
X86013868Y-93486024D01*
X86210000Y-93505341D01*
X86406132Y-93486024D01*
X86594727Y-93428814D01*
X86768538Y-93335910D01*
X86920883Y-93210883D01*
X87045910Y-93058538D01*
X87103974Y-92949908D01*
X87138811Y-92884733D01*
X87138811Y-92884732D01*
X87138814Y-92884727D01*
X87196024Y-92696132D01*
X87215341Y-92500000D01*
X87744659Y-92500000D01*
X87763975Y-92696129D01*
X87763976Y-92696132D01*
X87819782Y-92880100D01*
X87821188Y-92884733D01*
X87914086Y-93058532D01*
X87914090Y-93058539D01*
X88039116Y-93210883D01*
X88191460Y-93335909D01*
X88191467Y-93335913D01*
X88365266Y-93428811D01*
X88365269Y-93428811D01*
X88365273Y-93428814D01*
X88553868Y-93486024D01*
X88750000Y-93505341D01*
X88946132Y-93486024D01*
X89134727Y-93428814D01*
X89308538Y-93335910D01*
X89460883Y-93210883D01*
X89585910Y-93058538D01*
X89643974Y-92949908D01*
X89678811Y-92884733D01*
X89678811Y-92884732D01*
X89678814Y-92884727D01*
X89736024Y-92696132D01*
X89755341Y-92500000D01*
X90904659Y-92500000D01*
X90923975Y-92696129D01*
X90923976Y-92696132D01*
X90979782Y-92880100D01*
X90981188Y-92884733D01*
X91074086Y-93058532D01*
X91074090Y-93058539D01*
X91199116Y-93210883D01*
X91351460Y-93335909D01*
X91351467Y-93335913D01*
X91525266Y-93428811D01*
X91525269Y-93428811D01*
X91525273Y-93428814D01*
X91713868Y-93486024D01*
X91910000Y-93505341D01*
X92106132Y-93486024D01*
X92294727Y-93428814D01*
X92468538Y-93335910D01*
X92620883Y-93210883D01*
X92745910Y-93058538D01*
X92803974Y-92949908D01*
X92838811Y-92884733D01*
X92838811Y-92884732D01*
X92838814Y-92884727D01*
X92896024Y-92696132D01*
X92915341Y-92500000D01*
X93444659Y-92500000D01*
X93463975Y-92696129D01*
X93463976Y-92696132D01*
X93519782Y-92880100D01*
X93521188Y-92884733D01*
X93614086Y-93058532D01*
X93614090Y-93058539D01*
X93739116Y-93210883D01*
X93891460Y-93335909D01*
X93891467Y-93335913D01*
X94065266Y-93428811D01*
X94065269Y-93428811D01*
X94065273Y-93428814D01*
X94253868Y-93486024D01*
X94450000Y-93505341D01*
X94646132Y-93486024D01*
X94834727Y-93428814D01*
X95008538Y-93335910D01*
X95160883Y-93210883D01*
X95285910Y-93058538D01*
X95343974Y-92949908D01*
X95378811Y-92884733D01*
X95378811Y-92884732D01*
X95378814Y-92884727D01*
X95436024Y-92696132D01*
X95455341Y-92500000D01*
X95436024Y-92303868D01*
X95378814Y-92115273D01*
X95378811Y-92115269D01*
X95378811Y-92115266D01*
X95285913Y-91941467D01*
X95285909Y-91941460D01*
X95160883Y-91789116D01*
X95008539Y-91664090D01*
X95008532Y-91664086D01*
X94834733Y-91571188D01*
X94834727Y-91571186D01*
X94646132Y-91513976D01*
X94646129Y-91513975D01*
X94450000Y-91494659D01*
X94253870Y-91513975D01*
X94065266Y-91571188D01*
X93891467Y-91664086D01*
X93891460Y-91664090D01*
X93739116Y-91789116D01*
X93614090Y-91941460D01*
X93614086Y-91941467D01*
X93521188Y-92115266D01*
X93463975Y-92303870D01*
X93444659Y-92500000D01*
X92915341Y-92500000D01*
X92896024Y-92303868D01*
X92838814Y-92115273D01*
X92838811Y-92115269D01*
X92838811Y-92115266D01*
X92745913Y-91941467D01*
X92745909Y-91941460D01*
X92620883Y-91789116D01*
X92468539Y-91664090D01*
X92468532Y-91664086D01*
X92294733Y-91571188D01*
X92294727Y-91571186D01*
X92106132Y-91513976D01*
X92106129Y-91513975D01*
X91910000Y-91494659D01*
X91713870Y-91513975D01*
X91525266Y-91571188D01*
X91351467Y-91664086D01*
X91351460Y-91664090D01*
X91199116Y-91789116D01*
X91074090Y-91941460D01*
X91074086Y-91941467D01*
X90981188Y-92115266D01*
X90923975Y-92303870D01*
X90904659Y-92500000D01*
X89755341Y-92500000D01*
X89736024Y-92303868D01*
X89678814Y-92115273D01*
X89678811Y-92115269D01*
X89678811Y-92115266D01*
X89585913Y-91941467D01*
X89585909Y-91941460D01*
X89460883Y-91789116D01*
X89308539Y-91664090D01*
X89308532Y-91664086D01*
X89134733Y-91571188D01*
X89134727Y-91571186D01*
X88946132Y-91513976D01*
X88946129Y-91513975D01*
X88750000Y-91494659D01*
X88553870Y-91513975D01*
X88365266Y-91571188D01*
X88191467Y-91664086D01*
X88191460Y-91664090D01*
X88039116Y-91789116D01*
X87914090Y-91941460D01*
X87914086Y-91941467D01*
X87821188Y-92115266D01*
X87763975Y-92303870D01*
X87744659Y-92500000D01*
X87215341Y-92500000D01*
X87196024Y-92303868D01*
X87138814Y-92115273D01*
X87138811Y-92115269D01*
X87138811Y-92115266D01*
X87045913Y-91941467D01*
X87045909Y-91941460D01*
X86920883Y-91789116D01*
X86768539Y-91664090D01*
X86768532Y-91664086D01*
X86594733Y-91571188D01*
X86594727Y-91571186D01*
X86406132Y-91513976D01*
X86406129Y-91513975D01*
X86210000Y-91494659D01*
X86013870Y-91513975D01*
X85825266Y-91571188D01*
X85651467Y-91664086D01*
X85651460Y-91664090D01*
X85499116Y-91789116D01*
X85374090Y-91941460D01*
X85374086Y-91941467D01*
X85281188Y-92115266D01*
X85223975Y-92303870D01*
X85204659Y-92500000D01*
X83800500Y-92500000D01*
X83800500Y-82049999D01*
X84744722Y-82049999D01*
X84744722Y-82050000D01*
X84763762Y-82206818D01*
X84794406Y-82287617D01*
X84819780Y-82354523D01*
X84859489Y-82412052D01*
X84909518Y-82484532D01*
X84914491Y-82490145D01*
X84913044Y-82491426D01*
X84944850Y-82542120D01*
X84949500Y-82575759D01*
X84949500Y-82924240D01*
X84929815Y-82991279D01*
X84914153Y-83009556D01*
X84914491Y-83009856D01*
X84909515Y-83015472D01*
X84819781Y-83145475D01*
X84819780Y-83145476D01*
X84763762Y-83293181D01*
X84744722Y-83449999D01*
X84744722Y-83450000D01*
X84763762Y-83606818D01*
X84819780Y-83754523D01*
X84909517Y-83884530D01*
X85027760Y-83989283D01*
X85027762Y-83989284D01*
X85167634Y-84062696D01*
X85321014Y-84100500D01*
X85321015Y-84100500D01*
X85478986Y-84100500D01*
X85478986Y-84100499D01*
X85510574Y-84092714D01*
X85580375Y-84095782D01*
X85637438Y-84136100D01*
X85663644Y-84200869D01*
X85663721Y-84201666D01*
X85664244Y-84207311D01*
X85722596Y-84412392D01*
X85722596Y-84412394D01*
X85817632Y-84603253D01*
X85902877Y-84716134D01*
X85946128Y-84773407D01*
X86103698Y-84917052D01*
X86284981Y-85029298D01*
X86483802Y-85106321D01*
X86680613Y-85143111D01*
X86742893Y-85174779D01*
X86778166Y-85235092D01*
X86775232Y-85304900D01*
X86735023Y-85362040D01*
X86680613Y-85386888D01*
X86483802Y-85423679D01*
X86483799Y-85423679D01*
X86483799Y-85423680D01*
X86284982Y-85500701D01*
X86284980Y-85500702D01*
X86103699Y-85612947D01*
X85946127Y-85756593D01*
X85817632Y-85926746D01*
X85722596Y-86117605D01*
X85722596Y-86117607D01*
X85664244Y-86322689D01*
X85644571Y-86534999D01*
X85644571Y-86535000D01*
X85664244Y-86747310D01*
X85722596Y-86952392D01*
X85722596Y-86952394D01*
X85817632Y-87143253D01*
X85844065Y-87178255D01*
X85946128Y-87313407D01*
X86103698Y-87457052D01*
X86284981Y-87569298D01*
X86483802Y-87646321D01*
X86693390Y-87685500D01*
X86693392Y-87685500D01*
X86906608Y-87685500D01*
X86906610Y-87685500D01*
X87116198Y-87646321D01*
X87315019Y-87569298D01*
X87496302Y-87457052D01*
X87653872Y-87313407D01*
X87782366Y-87143255D01*
X87859976Y-86987392D01*
X87877403Y-86952394D01*
X87877403Y-86952393D01*
X87877405Y-86952389D01*
X87935756Y-86747310D01*
X87955429Y-86535000D01*
X87935756Y-86322690D01*
X87877405Y-86117611D01*
X87877403Y-86117606D01*
X87877403Y-86117605D01*
X87782367Y-85926746D01*
X87653872Y-85756593D01*
X87496302Y-85612948D01*
X87315019Y-85500702D01*
X87315017Y-85500701D01*
X87215608Y-85462190D01*
X87116198Y-85423679D01*
X86989522Y-85399999D01*
X118244722Y-85399999D01*
X118244722Y-85400000D01*
X118263762Y-85556818D01*
X118285050Y-85612948D01*
X118319780Y-85704523D01*
X118409517Y-85834530D01*
X118527760Y-85939283D01*
X118527762Y-85939284D01*
X118667634Y-86012696D01*
X118821014Y-86050500D01*
X118821015Y-86050500D01*
X118978985Y-86050500D01*
X119132365Y-86012696D01*
X119272240Y-85939283D01*
X119390483Y-85834530D01*
X119411513Y-85804061D01*
X119465795Y-85760072D01*
X119513563Y-85750502D01*
X119778132Y-85750502D01*
X119845171Y-85770187D01*
X119890926Y-85822991D01*
X119900870Y-85892149D01*
X119877085Y-85949230D01*
X119867633Y-85961745D01*
X119772596Y-86152605D01*
X119772596Y-86152607D01*
X119724203Y-86322690D01*
X119714244Y-86357690D01*
X119694571Y-86570000D01*
X119714244Y-86782310D01*
X119762636Y-86952389D01*
X119772596Y-86987392D01*
X119772596Y-86987394D01*
X119867632Y-87178253D01*
X119867634Y-87178255D01*
X119996128Y-87348407D01*
X120153698Y-87492052D01*
X120334981Y-87604298D01*
X120533802Y-87681321D01*
X120730613Y-87718111D01*
X120792893Y-87749779D01*
X120828166Y-87810092D01*
X120825232Y-87879900D01*
X120785023Y-87937040D01*
X120730613Y-87961888D01*
X120533802Y-87998679D01*
X120533799Y-87998679D01*
X120533799Y-87998680D01*
X120334982Y-88075701D01*
X120334980Y-88075702D01*
X120153699Y-88187947D01*
X119996127Y-88331593D01*
X119867632Y-88501746D01*
X119772596Y-88692605D01*
X119772596Y-88692607D01*
X119714244Y-88897689D01*
X119694571Y-89109999D01*
X119694571Y-89110000D01*
X119714244Y-89322310D01*
X119772596Y-89527392D01*
X119772596Y-89527394D01*
X119867632Y-89718253D01*
X119867634Y-89718255D01*
X119996128Y-89888407D01*
X120153698Y-90032052D01*
X120334981Y-90144298D01*
X120533802Y-90221321D01*
X120730613Y-90258111D01*
X120792893Y-90289779D01*
X120828166Y-90350092D01*
X120825232Y-90419900D01*
X120785023Y-90477040D01*
X120730613Y-90501888D01*
X120533802Y-90538679D01*
X120533799Y-90538679D01*
X120533799Y-90538680D01*
X120334982Y-90615701D01*
X120334980Y-90615702D01*
X120153699Y-90727947D01*
X119996127Y-90871593D01*
X119867632Y-91041746D01*
X119772596Y-91232605D01*
X119772596Y-91232607D01*
X119772595Y-91232611D01*
X119714244Y-91437690D01*
X119694571Y-91650000D01*
X119714244Y-91862310D01*
X119736766Y-91941467D01*
X119772596Y-92067392D01*
X119772596Y-92067394D01*
X119867632Y-92258253D01*
X119902081Y-92303870D01*
X119996128Y-92428407D01*
X120153698Y-92572052D01*
X120334981Y-92684298D01*
X120533802Y-92761321D01*
X120730613Y-92798111D01*
X120792893Y-92829779D01*
X120828166Y-92890092D01*
X120825232Y-92959900D01*
X120785023Y-93017040D01*
X120730613Y-93041888D01*
X120533802Y-93078679D01*
X120533799Y-93078679D01*
X120533799Y-93078680D01*
X120334982Y-93155701D01*
X120334980Y-93155702D01*
X120153699Y-93267947D01*
X119996127Y-93411593D01*
X119867632Y-93581746D01*
X119772596Y-93772605D01*
X119772596Y-93772607D01*
X119714244Y-93977689D01*
X119694571Y-94189999D01*
X119694571Y-94190000D01*
X119714244Y-94402310D01*
X119772596Y-94607392D01*
X119772596Y-94607394D01*
X119867632Y-94798253D01*
X119867634Y-94798255D01*
X119996128Y-94968407D01*
X120153698Y-95112052D01*
X120334981Y-95224298D01*
X120533802Y-95301321D01*
X120730613Y-95338111D01*
X120792893Y-95369779D01*
X120828166Y-95430092D01*
X120825232Y-95499900D01*
X120785023Y-95557040D01*
X120730613Y-95581888D01*
X120533802Y-95618679D01*
X120533799Y-95618679D01*
X120533799Y-95618680D01*
X120334982Y-95695701D01*
X120334980Y-95695702D01*
X120153699Y-95807947D01*
X119996127Y-95951593D01*
X119867632Y-96121746D01*
X119772596Y-96312605D01*
X119772596Y-96312607D01*
X119714244Y-96517689D01*
X119694571Y-96729999D01*
X119694571Y-96730000D01*
X119714244Y-96942310D01*
X119772596Y-97147392D01*
X119772596Y-97147394D01*
X119867632Y-97338253D01*
X119963764Y-97465551D01*
X119996128Y-97508407D01*
X120153698Y-97652052D01*
X120334981Y-97764298D01*
X120533802Y-97841321D01*
X120730613Y-97878111D01*
X120792893Y-97909779D01*
X120828166Y-97970092D01*
X120825232Y-98039900D01*
X120785023Y-98097040D01*
X120730613Y-98121888D01*
X120533802Y-98158679D01*
X120533799Y-98158679D01*
X120533799Y-98158680D01*
X120334982Y-98235701D01*
X120334980Y-98235702D01*
X120153699Y-98347947D01*
X119996127Y-98491593D01*
X119867632Y-98661746D01*
X119772596Y-98852605D01*
X119772596Y-98852607D01*
X119714244Y-99057689D01*
X119694571Y-99269999D01*
X119694571Y-99270000D01*
X119714244Y-99482310D01*
X119772596Y-99687392D01*
X119772596Y-99687394D01*
X119867632Y-99878253D01*
X119867634Y-99878255D01*
X119996128Y-100048407D01*
X120153698Y-100192052D01*
X120334981Y-100304298D01*
X120533802Y-100381321D01*
X120743390Y-100420500D01*
X120743392Y-100420500D01*
X120956608Y-100420500D01*
X120956610Y-100420500D01*
X121166198Y-100381321D01*
X121365019Y-100304298D01*
X121546302Y-100192052D01*
X121703872Y-100048407D01*
X121832366Y-99878255D01*
X121927405Y-99687389D01*
X121985756Y-99482310D01*
X122005429Y-99270000D01*
X121985756Y-99057690D01*
X121927405Y-98852611D01*
X121927403Y-98852606D01*
X121927403Y-98852605D01*
X121832367Y-98661746D01*
X121703872Y-98491593D01*
X121608585Y-98404727D01*
X121546302Y-98347948D01*
X121365019Y-98235702D01*
X121365017Y-98235701D01*
X121265608Y-98197190D01*
X121166198Y-98158679D01*
X120969385Y-98121888D01*
X120907106Y-98090221D01*
X120871833Y-98029908D01*
X120874767Y-97960100D01*
X120914976Y-97902960D01*
X120969384Y-97878111D01*
X121166198Y-97841321D01*
X121365019Y-97764298D01*
X121546302Y-97652052D01*
X121703872Y-97508407D01*
X121832366Y-97338255D01*
X121927405Y-97147389D01*
X121985756Y-96942310D01*
X122005429Y-96730000D01*
X121985756Y-96517690D01*
X121927405Y-96312611D01*
X121927403Y-96312606D01*
X121927403Y-96312605D01*
X121832367Y-96121746D01*
X121703872Y-95951593D01*
X121546302Y-95807948D01*
X121365019Y-95695702D01*
X121365017Y-95695701D01*
X121265608Y-95657190D01*
X121166198Y-95618679D01*
X120969385Y-95581888D01*
X120907106Y-95550221D01*
X120871833Y-95489908D01*
X120874767Y-95420100D01*
X120914976Y-95362960D01*
X120969384Y-95338111D01*
X121166198Y-95301321D01*
X121365019Y-95224298D01*
X121546302Y-95112052D01*
X121703872Y-94968407D01*
X121832366Y-94798255D01*
X121927405Y-94607389D01*
X121985756Y-94402310D01*
X122005429Y-94190000D01*
X121985756Y-93977690D01*
X121927405Y-93772611D01*
X121927403Y-93772606D01*
X121927403Y-93772605D01*
X121832367Y-93581746D01*
X121703872Y-93411593D01*
X121546302Y-93267948D01*
X121365019Y-93155702D01*
X121365017Y-93155701D01*
X121265608Y-93117190D01*
X121166198Y-93078679D01*
X120969385Y-93041888D01*
X120907106Y-93010221D01*
X120871833Y-92949908D01*
X120874767Y-92880100D01*
X120914976Y-92822960D01*
X120969384Y-92798111D01*
X121166198Y-92761321D01*
X121365019Y-92684298D01*
X121546302Y-92572052D01*
X121703872Y-92428407D01*
X121832366Y-92258255D01*
X121903562Y-92115273D01*
X121927403Y-92067394D01*
X121927403Y-92067393D01*
X121927405Y-92067389D01*
X121985756Y-91862310D01*
X122005429Y-91650000D01*
X121985756Y-91437690D01*
X121927405Y-91232611D01*
X121927403Y-91232606D01*
X121927403Y-91232605D01*
X121832367Y-91041746D01*
X121703872Y-90871593D01*
X121546302Y-90727948D01*
X121365019Y-90615702D01*
X121365017Y-90615701D01*
X121265608Y-90577190D01*
X121166198Y-90538679D01*
X120969385Y-90501888D01*
X120907106Y-90470221D01*
X120871833Y-90409908D01*
X120874767Y-90340100D01*
X120914976Y-90282960D01*
X120969384Y-90258111D01*
X121166198Y-90221321D01*
X121365019Y-90144298D01*
X121546302Y-90032052D01*
X121703872Y-89888407D01*
X121832366Y-89718255D01*
X121927405Y-89527389D01*
X121985756Y-89322310D01*
X122005429Y-89110000D01*
X121985756Y-88897690D01*
X121927405Y-88692611D01*
X121927403Y-88692606D01*
X121927403Y-88692605D01*
X121832367Y-88501746D01*
X121703872Y-88331593D01*
X121546302Y-88187948D01*
X121365019Y-88075702D01*
X121365017Y-88075701D01*
X121265608Y-88037190D01*
X121166198Y-87998679D01*
X120969385Y-87961888D01*
X120907106Y-87930221D01*
X120871833Y-87869908D01*
X120874767Y-87800100D01*
X120914976Y-87742960D01*
X120969384Y-87718111D01*
X121166198Y-87681321D01*
X121365019Y-87604298D01*
X121546302Y-87492052D01*
X121703872Y-87348407D01*
X121832366Y-87178255D01*
X121927405Y-86987389D01*
X121985756Y-86782310D01*
X122005429Y-86570000D01*
X121985756Y-86357690D01*
X121927405Y-86152611D01*
X121927403Y-86152606D01*
X121927403Y-86152605D01*
X121832371Y-85961755D01*
X121832370Y-85961754D01*
X121832366Y-85961745D01*
X121832359Y-85961736D01*
X121830967Y-85959487D01*
X121830626Y-85958250D01*
X121829811Y-85956613D01*
X121830131Y-85956453D01*
X121812410Y-85892126D01*
X121833217Y-85825427D01*
X121854163Y-85801394D01*
X121929637Y-85734532D01*
X122019374Y-85604525D01*
X122075391Y-85456820D01*
X122094432Y-85300002D01*
X122093814Y-85294908D01*
X122075391Y-85143183D01*
X122054146Y-85087166D01*
X122019374Y-84995479D01*
X121929637Y-84865472D01*
X121854164Y-84798609D01*
X121817039Y-84739422D01*
X121817806Y-84669556D01*
X121830965Y-84640518D01*
X121832367Y-84638253D01*
X121927403Y-84447394D01*
X121927403Y-84447393D01*
X121927405Y-84447389D01*
X121985756Y-84242310D01*
X122005429Y-84030000D01*
X121985756Y-83817690D01*
X121927405Y-83612611D01*
X121927403Y-83612606D01*
X121927403Y-83612605D01*
X121832367Y-83421746D01*
X121703872Y-83251593D01*
X121620103Y-83175227D01*
X121546302Y-83107948D01*
X121365019Y-82995702D01*
X121365017Y-82995701D01*
X121265608Y-82957190D01*
X121166198Y-82918679D01*
X120969385Y-82881888D01*
X120907106Y-82850221D01*
X120871833Y-82789908D01*
X120874767Y-82720100D01*
X120914976Y-82662960D01*
X120969384Y-82638111D01*
X121166198Y-82601321D01*
X121365019Y-82524298D01*
X121546302Y-82412052D01*
X121703872Y-82268407D01*
X121832366Y-82098255D01*
X121856394Y-82050000D01*
X121927403Y-81907394D01*
X121927403Y-81907393D01*
X121927405Y-81907389D01*
X121985756Y-81702310D01*
X122005429Y-81490000D01*
X121985756Y-81277690D01*
X121927405Y-81072611D01*
X121927403Y-81072606D01*
X121927403Y-81072605D01*
X121832367Y-80881746D01*
X121703872Y-80711593D01*
X121654207Y-80666317D01*
X121546302Y-80567948D01*
X121365019Y-80455702D01*
X121365017Y-80455701D01*
X121228454Y-80402797D01*
X121166198Y-80378679D01*
X120969385Y-80341888D01*
X120907106Y-80310221D01*
X120871833Y-80249908D01*
X120874767Y-80180100D01*
X120914976Y-80122960D01*
X120969384Y-80098111D01*
X121166198Y-80061321D01*
X121365019Y-79984298D01*
X121546302Y-79872052D01*
X121703872Y-79728407D01*
X121832366Y-79558255D01*
X121927405Y-79367389D01*
X121985756Y-79162310D01*
X122005429Y-78950000D01*
X121985756Y-78737690D01*
X121927405Y-78532611D01*
X121927403Y-78532606D01*
X121927403Y-78532605D01*
X121832367Y-78341746D01*
X121703872Y-78171593D01*
X121665479Y-78136593D01*
X121546302Y-78027948D01*
X121365019Y-77915702D01*
X121365017Y-77915701D01*
X121265608Y-77877190D01*
X121166198Y-77838679D01*
X120969385Y-77801888D01*
X120907106Y-77770221D01*
X120871833Y-77709908D01*
X120874767Y-77640100D01*
X120914976Y-77582960D01*
X120969384Y-77558111D01*
X121166198Y-77521321D01*
X121365019Y-77444298D01*
X121546302Y-77332052D01*
X121703872Y-77188407D01*
X121832366Y-77018255D01*
X121927405Y-76827389D01*
X121985756Y-76622310D01*
X122005429Y-76410000D01*
X121985756Y-76197690D01*
X121927405Y-75992611D01*
X121927403Y-75992606D01*
X121927403Y-75992605D01*
X121832367Y-75801746D01*
X121703872Y-75631593D01*
X121665479Y-75596593D01*
X121546302Y-75487948D01*
X121365019Y-75375702D01*
X121365017Y-75375701D01*
X121265608Y-75337190D01*
X121166198Y-75298679D01*
X120969385Y-75261888D01*
X120907106Y-75230221D01*
X120871833Y-75169908D01*
X120874767Y-75100100D01*
X120914976Y-75042960D01*
X120969384Y-75018111D01*
X121166198Y-74981321D01*
X121365019Y-74904298D01*
X121546302Y-74792052D01*
X121703872Y-74648407D01*
X121832366Y-74478255D01*
X121927405Y-74287389D01*
X121985756Y-74082310D01*
X122005429Y-73870000D01*
X121985756Y-73657690D01*
X121927405Y-73452611D01*
X121927403Y-73452606D01*
X121927403Y-73452605D01*
X121832367Y-73261746D01*
X121703872Y-73091593D01*
X121665479Y-73056593D01*
X121546302Y-72947948D01*
X121365019Y-72835702D01*
X121365017Y-72835701D01*
X121265608Y-72797190D01*
X121166198Y-72758679D01*
X120969385Y-72721888D01*
X120907106Y-72690221D01*
X120871833Y-72629908D01*
X120874767Y-72560100D01*
X120914976Y-72502960D01*
X120969384Y-72478111D01*
X121166198Y-72441321D01*
X121365019Y-72364298D01*
X121546302Y-72252052D01*
X121703872Y-72108407D01*
X121832366Y-71938255D01*
X121927405Y-71747389D01*
X121985756Y-71542310D01*
X122005429Y-71330000D01*
X121985756Y-71117690D01*
X121927405Y-70912611D01*
X121927403Y-70912606D01*
X121927403Y-70912605D01*
X121832367Y-70721746D01*
X121703872Y-70551593D01*
X121665479Y-70516593D01*
X121546302Y-70407948D01*
X121365019Y-70295702D01*
X121365017Y-70295701D01*
X121265608Y-70257190D01*
X121166198Y-70218679D01*
X120969385Y-70181888D01*
X120907106Y-70150221D01*
X120871833Y-70089908D01*
X120874767Y-70020100D01*
X120914976Y-69962960D01*
X120969384Y-69938111D01*
X121166198Y-69901321D01*
X121365019Y-69824298D01*
X121546302Y-69712052D01*
X121703872Y-69568407D01*
X121832366Y-69398255D01*
X121927405Y-69207389D01*
X121985756Y-69002310D01*
X122005429Y-68790000D01*
X121985756Y-68577690D01*
X121927405Y-68372611D01*
X121927403Y-68372606D01*
X121927403Y-68372605D01*
X121832367Y-68181746D01*
X121703872Y-68011593D01*
X121546302Y-67867948D01*
X121365019Y-67755702D01*
X121365014Y-67755700D01*
X121358129Y-67753032D01*
X121336037Y-67744474D01*
X121280636Y-67701903D01*
X121257045Y-67636136D01*
X121272756Y-67568056D01*
X121322779Y-67519276D01*
X121328426Y-67516466D01*
X121527578Y-67423599D01*
X121721082Y-67288105D01*
X121888105Y-67121082D01*
X122023600Y-66927578D01*
X122123429Y-66713492D01*
X122123432Y-66713486D01*
X122180636Y-66500000D01*
X121283012Y-66500000D01*
X121315925Y-66442993D01*
X121350000Y-66315826D01*
X121350000Y-66184174D01*
X121315925Y-66057007D01*
X121283012Y-66000000D01*
X122180636Y-66000000D01*
X122180635Y-65999999D01*
X122123432Y-65786513D01*
X122123429Y-65786507D01*
X122023600Y-65572422D01*
X122023599Y-65572420D01*
X121888113Y-65378926D01*
X121888108Y-65378920D01*
X121721082Y-65211894D01*
X121541394Y-65086074D01*
X121497769Y-65031496D01*
X121490577Y-64961998D01*
X121522099Y-64899643D01*
X121582329Y-64864230D01*
X121612517Y-64860499D01*
X121744864Y-64860499D01*
X121744879Y-64860497D01*
X121744882Y-64860497D01*
X121769987Y-64857586D01*
X121769988Y-64857585D01*
X121769991Y-64857585D01*
X121872765Y-64812206D01*
X121952206Y-64732765D01*
X121997585Y-64629991D01*
X122000500Y-64604865D01*
X122000499Y-62815136D01*
X122000497Y-62815117D01*
X121997586Y-62790012D01*
X121997585Y-62790010D01*
X121997585Y-62790009D01*
X121952206Y-62687235D01*
X121872765Y-62607794D01*
X121872763Y-62607793D01*
X121769992Y-62562415D01*
X121744865Y-62559500D01*
X119955143Y-62559500D01*
X119955117Y-62559502D01*
X119930012Y-62562413D01*
X119930008Y-62562415D01*
X119827235Y-62607793D01*
X119747794Y-62687234D01*
X119702415Y-62790006D01*
X119702415Y-62790008D01*
X119699500Y-62815131D01*
X119699500Y-64604856D01*
X119699502Y-64604882D01*
X119702413Y-64629987D01*
X119702415Y-64629991D01*
X119747793Y-64732764D01*
X119747794Y-64732765D01*
X119827235Y-64812206D01*
X119930009Y-64857585D01*
X119955135Y-64860500D01*
X120087483Y-64860499D01*
X120154520Y-64880183D01*
X120200275Y-64932987D01*
X120210219Y-65002145D01*
X120181195Y-65065701D01*
X120158605Y-65086074D01*
X119978922Y-65211890D01*
X119978920Y-65211891D01*
X119811891Y-65378920D01*
X119811886Y-65378926D01*
X119676400Y-65572420D01*
X119676399Y-65572422D01*
X119576570Y-65786507D01*
X119576567Y-65786513D01*
X119519364Y-65999999D01*
X119519364Y-66000000D01*
X120416988Y-66000000D01*
X120384075Y-66057007D01*
X120350000Y-66184174D01*
X120350000Y-66315826D01*
X120384075Y-66442993D01*
X120416988Y-66500000D01*
X119519364Y-66500000D01*
X119576567Y-66713486D01*
X119576570Y-66713492D01*
X119676399Y-66927578D01*
X119811894Y-67121082D01*
X119978917Y-67288105D01*
X120172421Y-67423600D01*
X120371573Y-67516466D01*
X120424012Y-67562638D01*
X120443164Y-67629832D01*
X120422948Y-67696713D01*
X120369783Y-67742048D01*
X120363968Y-67744472D01*
X120356771Y-67747260D01*
X120334982Y-67755701D01*
X120334980Y-67755702D01*
X120153699Y-67867947D01*
X119996127Y-68011593D01*
X119867632Y-68181746D01*
X119772596Y-68372605D01*
X119772596Y-68372607D01*
X119724203Y-68542690D01*
X119714244Y-68577690D01*
X119694571Y-68790000D01*
X119714244Y-69002310D01*
X119762636Y-69172389D01*
X119772596Y-69207392D01*
X119772596Y-69207394D01*
X119867632Y-69398253D01*
X119867634Y-69398255D01*
X119996128Y-69568407D01*
X120153698Y-69712052D01*
X120334981Y-69824298D01*
X120533802Y-69901321D01*
X120730613Y-69938111D01*
X120792893Y-69969779D01*
X120828166Y-70030092D01*
X120825232Y-70099900D01*
X120785023Y-70157040D01*
X120730613Y-70181888D01*
X120533802Y-70218679D01*
X120533799Y-70218679D01*
X120533799Y-70218680D01*
X120334982Y-70295701D01*
X120334980Y-70295702D01*
X120153699Y-70407947D01*
X119996127Y-70551593D01*
X119867632Y-70721746D01*
X119772596Y-70912605D01*
X119772596Y-70912607D01*
X119724203Y-71082690D01*
X119714244Y-71117690D01*
X119694571Y-71330000D01*
X119714244Y-71542310D01*
X119762636Y-71712389D01*
X119772596Y-71747392D01*
X119772596Y-71747394D01*
X119867632Y-71938253D01*
X119867634Y-71938255D01*
X119996128Y-72108407D01*
X120153698Y-72252052D01*
X120334981Y-72364298D01*
X120533802Y-72441321D01*
X120730613Y-72478111D01*
X120792893Y-72509779D01*
X120828166Y-72570092D01*
X120825232Y-72639900D01*
X120785023Y-72697040D01*
X120730613Y-72721888D01*
X120533802Y-72758679D01*
X120533799Y-72758679D01*
X120533799Y-72758680D01*
X120334982Y-72835701D01*
X120334980Y-72835702D01*
X120153699Y-72947947D01*
X119996127Y-73091593D01*
X119867632Y-73261746D01*
X119772596Y-73452605D01*
X119772596Y-73452607D01*
X119724203Y-73622690D01*
X119714244Y-73657690D01*
X119694571Y-73870000D01*
X119714244Y-74082310D01*
X119762636Y-74252389D01*
X119772596Y-74287392D01*
X119772596Y-74287394D01*
X119867632Y-74478253D01*
X119867634Y-74478255D01*
X119996128Y-74648407D01*
X120153698Y-74792052D01*
X120334981Y-74904298D01*
X120533802Y-74981321D01*
X120730613Y-75018111D01*
X120792893Y-75049779D01*
X120828166Y-75110092D01*
X120825232Y-75179900D01*
X120785023Y-75237040D01*
X120730613Y-75261888D01*
X120533802Y-75298679D01*
X120533799Y-75298679D01*
X120533799Y-75298680D01*
X120334982Y-75375701D01*
X120334980Y-75375702D01*
X120153699Y-75487947D01*
X119996127Y-75631593D01*
X119867632Y-75801746D01*
X119772596Y-75992605D01*
X119772596Y-75992607D01*
X119724203Y-76162690D01*
X119714244Y-76197690D01*
X119694571Y-76410000D01*
X119714244Y-76622310D01*
X119762636Y-76792389D01*
X119772596Y-76827392D01*
X119772596Y-76827394D01*
X119867632Y-77018253D01*
X119867634Y-77018255D01*
X119996128Y-77188407D01*
X120153698Y-77332052D01*
X120334981Y-77444298D01*
X120533802Y-77521321D01*
X120730613Y-77558111D01*
X120792893Y-77589779D01*
X120828166Y-77650092D01*
X120825232Y-77719900D01*
X120785023Y-77777040D01*
X120730613Y-77801888D01*
X120533802Y-77838679D01*
X120533799Y-77838679D01*
X120533799Y-77838680D01*
X120334982Y-77915701D01*
X120334980Y-77915702D01*
X120153699Y-78027947D01*
X119996127Y-78171593D01*
X119867632Y-78341746D01*
X119772596Y-78532605D01*
X119772596Y-78532607D01*
X119724203Y-78702690D01*
X119714244Y-78737690D01*
X119694571Y-78950000D01*
X119714244Y-79162310D01*
X119762636Y-79332389D01*
X119772596Y-79367392D01*
X119772596Y-79367394D01*
X119867632Y-79558253D01*
X119989762Y-79719977D01*
X119996128Y-79728407D01*
X120153698Y-79872052D01*
X120334981Y-79984298D01*
X120533802Y-80061321D01*
X120730613Y-80098111D01*
X120792893Y-80129779D01*
X120828166Y-80190092D01*
X120825232Y-80259900D01*
X120785023Y-80317040D01*
X120730613Y-80341888D01*
X120533802Y-80378679D01*
X120533799Y-80378679D01*
X120533799Y-80378680D01*
X120334982Y-80455701D01*
X120334980Y-80455702D01*
X120153699Y-80567947D01*
X119996127Y-80711593D01*
X119867632Y-80881746D01*
X119772596Y-81072605D01*
X119772596Y-81072607D01*
X119724203Y-81242690D01*
X119714244Y-81277690D01*
X119694571Y-81490000D01*
X119714244Y-81702310D01*
X119768552Y-81893181D01*
X119772596Y-81907392D01*
X119772596Y-81907394D01*
X119867632Y-82098253D01*
X119969696Y-82233406D01*
X119996128Y-82268407D01*
X120153698Y-82412052D01*
X120334981Y-82524298D01*
X120533802Y-82601321D01*
X120730613Y-82638111D01*
X120792893Y-82669779D01*
X120828166Y-82730092D01*
X120825232Y-82799900D01*
X120785023Y-82857040D01*
X120730613Y-82881888D01*
X120533802Y-82918679D01*
X120533799Y-82918679D01*
X120533799Y-82918680D01*
X120334982Y-82995701D01*
X120334980Y-82995702D01*
X120153699Y-83107947D01*
X119996127Y-83251593D01*
X119867632Y-83421746D01*
X119772596Y-83612605D01*
X119772596Y-83612607D01*
X119724203Y-83782690D01*
X119714244Y-83817690D01*
X119694571Y-84030000D01*
X119714244Y-84242310D01*
X119762636Y-84412389D01*
X119772596Y-84447392D01*
X119772596Y-84447394D01*
X119867633Y-84638254D01*
X119877088Y-84650774D01*
X119901781Y-84716134D01*
X119887217Y-84784469D01*
X119838020Y-84834083D01*
X119778135Y-84849502D01*
X119281435Y-84849502D01*
X119223809Y-84835298D01*
X119132363Y-84787303D01*
X118978986Y-84749500D01*
X118978985Y-84749500D01*
X118821015Y-84749500D01*
X118821014Y-84749500D01*
X118667634Y-84787303D01*
X118527762Y-84860715D01*
X118409516Y-84965471D01*
X118319781Y-85095475D01*
X118319780Y-85095476D01*
X118263762Y-85243181D01*
X118244722Y-85399999D01*
X86989522Y-85399999D01*
X86919385Y-85386888D01*
X86857106Y-85355221D01*
X86821833Y-85294908D01*
X86824767Y-85225100D01*
X86864976Y-85167960D01*
X86919384Y-85143111D01*
X87116198Y-85106321D01*
X87315019Y-85029298D01*
X87496302Y-84917052D01*
X87653872Y-84773407D01*
X87782366Y-84603255D01*
X87859976Y-84447392D01*
X87877403Y-84412394D01*
X87877403Y-84412393D01*
X87877405Y-84412389D01*
X87935756Y-84207310D01*
X87955429Y-83995000D01*
X87935756Y-83782690D01*
X87877405Y-83577611D01*
X87877403Y-83577606D01*
X87877403Y-83577605D01*
X87782367Y-83386746D01*
X87653872Y-83216593D01*
X87575862Y-83145477D01*
X87496302Y-83072948D01*
X87315019Y-82960702D01*
X87315017Y-82960701D01*
X87206544Y-82918679D01*
X87116198Y-82883679D01*
X86919385Y-82846888D01*
X86857106Y-82815221D01*
X86821833Y-82754908D01*
X86824767Y-82685100D01*
X86864976Y-82627960D01*
X86919384Y-82603111D01*
X87116198Y-82566321D01*
X87315019Y-82489298D01*
X87496302Y-82377052D01*
X87653872Y-82233407D01*
X87782366Y-82063255D01*
X87859976Y-81907392D01*
X87877403Y-81872394D01*
X87877403Y-81872393D01*
X87877405Y-81872389D01*
X87935756Y-81667310D01*
X87955429Y-81455000D01*
X87935756Y-81242690D01*
X87877405Y-81037611D01*
X87877403Y-81037606D01*
X87877403Y-81037605D01*
X87782367Y-80846746D01*
X87653872Y-80676593D01*
X87618932Y-80644741D01*
X87496302Y-80532948D01*
X87315019Y-80420702D01*
X87315017Y-80420701D01*
X87168831Y-80364069D01*
X87116198Y-80343679D01*
X86919385Y-80306888D01*
X86866456Y-80279975D01*
X112764747Y-80279975D01*
X112767725Y-80304500D01*
X112768621Y-80311879D01*
X112769525Y-80326826D01*
X112769525Y-80344046D01*
X112776314Y-80378182D01*
X112777792Y-80387420D01*
X112783788Y-80436794D01*
X112788931Y-80450356D01*
X112793872Y-80467569D01*
X112794523Y-80469716D01*
X112794524Y-80469719D01*
X112802819Y-80489745D01*
X112814550Y-80518067D01*
X112815925Y-80521535D01*
X112833528Y-80567948D01*
X112839805Y-80584497D01*
X112839805Y-80584498D01*
X112881388Y-80644741D01*
X112882440Y-80646290D01*
X112914747Y-80694641D01*
X112918303Y-80698974D01*
X112924495Y-80707193D01*
X112929543Y-80714507D01*
X112971167Y-80751382D01*
X112976606Y-80756501D01*
X112991487Y-80771382D01*
X113005355Y-80785250D01*
X113014785Y-80791551D01*
X113028120Y-80801837D01*
X113039115Y-80811577D01*
X113047785Y-80819258D01*
X113081460Y-80836932D01*
X113092694Y-80843608D01*
X113111898Y-80856440D01*
X113138646Y-80867519D01*
X113148801Y-80872275D01*
X113187660Y-80892671D01*
X113201369Y-80896050D01*
X113207459Y-80897551D01*
X113225238Y-80903387D01*
X113230279Y-80905475D01*
X113230281Y-80905476D01*
X113275937Y-80914558D01*
X113281345Y-80915762D01*
X113341040Y-80930475D01*
X113355956Y-80930475D01*
X114833048Y-80930475D01*
X114857234Y-80932857D01*
X114865863Y-80934573D01*
X114871327Y-80935788D01*
X114931015Y-80950500D01*
X114931017Y-80950500D01*
X115088983Y-80950500D01*
X115088985Y-80950500D01*
X115148692Y-80935783D01*
X115154099Y-80934580D01*
X115199744Y-80925501D01*
X115204782Y-80923413D01*
X115222564Y-80917576D01*
X115242365Y-80912696D01*
X115281224Y-80892300D01*
X115291384Y-80887542D01*
X115318127Y-80876466D01*
X115337332Y-80863632D01*
X115348582Y-80856947D01*
X115382240Y-80839283D01*
X115401901Y-80821863D01*
X115415230Y-80811583D01*
X115424670Y-80805277D01*
X115453443Y-80776502D01*
X115458884Y-80771382D01*
X115500483Y-80734530D01*
X115505527Y-80727220D01*
X115511729Y-80718990D01*
X115515261Y-80714685D01*
X115515277Y-80714670D01*
X115547670Y-80666188D01*
X115548638Y-80664764D01*
X115562459Y-80644741D01*
X115590220Y-80604523D01*
X115614100Y-80541553D01*
X115615443Y-80538166D01*
X115635501Y-80489744D01*
X115635502Y-80489737D01*
X115636196Y-80487448D01*
X115641094Y-80470377D01*
X115646237Y-80456818D01*
X115652232Y-80407440D01*
X115653706Y-80398220D01*
X115660500Y-80364069D01*
X115660500Y-80346851D01*
X115661404Y-80331904D01*
X115665278Y-80300000D01*
X115661404Y-80268094D01*
X115660500Y-80253148D01*
X115660500Y-80235930D01*
X115657576Y-80221237D01*
X115653708Y-80201792D01*
X115652231Y-80192550D01*
X115650719Y-80180100D01*
X115646237Y-80143182D01*
X115641092Y-80129616D01*
X115636193Y-80112540D01*
X115635500Y-80110254D01*
X115626265Y-80087960D01*
X115615450Y-80061850D01*
X115614095Y-80058431D01*
X115607811Y-80041861D01*
X115590220Y-79995477D01*
X115576398Y-79975453D01*
X115548657Y-79935263D01*
X115547605Y-79933714D01*
X115534195Y-79913645D01*
X115515277Y-79885331D01*
X115515272Y-79885326D01*
X115511714Y-79880990D01*
X115505524Y-79872774D01*
X115500483Y-79865470D01*
X115500481Y-79865467D01*
X115458865Y-79828599D01*
X115453410Y-79823464D01*
X115404649Y-79774702D01*
X115404648Y-79774701D01*
X115404644Y-79774698D01*
X115298102Y-79703510D01*
X115273711Y-79693407D01*
X115179719Y-79654474D01*
X115179713Y-79654472D01*
X115054046Y-79629475D01*
X115054044Y-79629475D01*
X113499010Y-79629475D01*
X113341040Y-79629475D01*
X113281379Y-79644178D01*
X113275915Y-79645394D01*
X113230284Y-79654472D01*
X113230278Y-79654474D01*
X113225219Y-79656569D01*
X113207469Y-79662395D01*
X113187662Y-79667278D01*
X113187659Y-79667279D01*
X113148801Y-79687673D01*
X113138633Y-79692435D01*
X113111897Y-79703509D01*
X113092702Y-79716335D01*
X113081443Y-79723026D01*
X113047786Y-79740691D01*
X113047779Y-79740696D01*
X113028119Y-79758113D01*
X113014793Y-79768393D01*
X113005357Y-79774698D01*
X113005349Y-79774704D01*
X112976608Y-79803444D01*
X112971160Y-79808573D01*
X112929542Y-79845444D01*
X112924490Y-79852763D01*
X112918309Y-79860966D01*
X112914755Y-79865297D01*
X112882449Y-79913645D01*
X112881399Y-79915191D01*
X112839803Y-79975453D01*
X112815936Y-80038385D01*
X112814558Y-80041861D01*
X112794522Y-80090236D01*
X112793868Y-80092391D01*
X112788933Y-80109588D01*
X112783788Y-80123154D01*
X112783787Y-80123158D01*
X112777792Y-80172530D01*
X112776314Y-80181768D01*
X112769525Y-80215903D01*
X112769525Y-80233123D01*
X112768621Y-80248069D01*
X112767094Y-80260649D01*
X112764747Y-80279975D01*
X86866456Y-80279975D01*
X86857106Y-80275221D01*
X86821833Y-80214908D01*
X86824767Y-80145100D01*
X86864976Y-80087960D01*
X86919384Y-80063111D01*
X87116198Y-80026321D01*
X87315019Y-79949298D01*
X87496302Y-79837052D01*
X87653872Y-79693407D01*
X87782366Y-79523255D01*
X87859976Y-79367392D01*
X87877403Y-79332394D01*
X87877403Y-79332393D01*
X87877405Y-79332389D01*
X87935756Y-79127310D01*
X87955429Y-78915000D01*
X87935756Y-78702690D01*
X87877405Y-78497611D01*
X87877403Y-78497606D01*
X87877403Y-78497605D01*
X87782367Y-78306746D01*
X87653872Y-78136593D01*
X87496302Y-77992948D01*
X87315019Y-77880702D01*
X87315017Y-77880701D01*
X87206544Y-77838679D01*
X87116198Y-77803679D01*
X86919385Y-77766888D01*
X86857106Y-77735221D01*
X86821833Y-77674908D01*
X86824767Y-77605100D01*
X86864976Y-77547960D01*
X86919384Y-77523111D01*
X87116198Y-77486321D01*
X87315019Y-77409298D01*
X87496302Y-77297052D01*
X87653872Y-77153407D01*
X87782366Y-76983255D01*
X87859976Y-76827392D01*
X87877403Y-76792394D01*
X87877403Y-76792393D01*
X87877405Y-76792389D01*
X87935756Y-76587310D01*
X87955429Y-76375000D01*
X87935756Y-76162690D01*
X87877405Y-75957611D01*
X87877403Y-75957606D01*
X87877403Y-75957605D01*
X87782367Y-75766746D01*
X87653872Y-75596593D01*
X87496302Y-75452948D01*
X87315019Y-75340702D01*
X87315017Y-75340701D01*
X87206544Y-75298679D01*
X87116198Y-75263679D01*
X86919385Y-75226888D01*
X86857106Y-75195221D01*
X86821833Y-75134908D01*
X86824767Y-75065100D01*
X86864976Y-75007960D01*
X86919384Y-74983111D01*
X87116198Y-74946321D01*
X87315019Y-74869298D01*
X87496302Y-74757052D01*
X87653872Y-74613407D01*
X87782366Y-74443255D01*
X87859976Y-74287392D01*
X87877403Y-74252394D01*
X87877403Y-74252393D01*
X87877405Y-74252389D01*
X87935756Y-74047310D01*
X87955429Y-73835000D01*
X87935756Y-73622690D01*
X87877405Y-73417611D01*
X87877403Y-73417606D01*
X87877403Y-73417605D01*
X87782367Y-73226746D01*
X87653872Y-73056593D01*
X87496302Y-72912948D01*
X87315019Y-72800702D01*
X87315017Y-72800701D01*
X87206544Y-72758679D01*
X87116198Y-72723679D01*
X86919385Y-72686888D01*
X86857106Y-72655221D01*
X86821833Y-72594908D01*
X86824767Y-72525100D01*
X86864976Y-72467960D01*
X86919384Y-72443111D01*
X87116198Y-72406321D01*
X87315019Y-72329298D01*
X87496302Y-72217052D01*
X87653872Y-72073407D01*
X87782366Y-71903255D01*
X87859976Y-71747392D01*
X87877403Y-71712394D01*
X87877403Y-71712393D01*
X87877405Y-71712389D01*
X87935756Y-71507310D01*
X87955429Y-71295000D01*
X87935756Y-71082690D01*
X87877405Y-70877611D01*
X87877403Y-70877606D01*
X87877403Y-70877605D01*
X87782367Y-70686746D01*
X87653872Y-70516593D01*
X87496302Y-70372948D01*
X87315019Y-70260702D01*
X87315017Y-70260701D01*
X87206544Y-70218679D01*
X87116198Y-70183679D01*
X86919385Y-70146888D01*
X86857106Y-70115221D01*
X86821833Y-70054908D01*
X86824767Y-69985100D01*
X86864976Y-69927960D01*
X86919384Y-69903111D01*
X87116198Y-69866321D01*
X87315019Y-69789298D01*
X87496302Y-69677052D01*
X87653872Y-69533407D01*
X87782366Y-69363255D01*
X87859976Y-69207392D01*
X87877403Y-69172394D01*
X87877403Y-69172393D01*
X87877405Y-69172389D01*
X87935756Y-68967310D01*
X87955429Y-68755000D01*
X87935756Y-68542690D01*
X87877405Y-68337611D01*
X87877403Y-68337606D01*
X87877403Y-68337605D01*
X87782367Y-68146746D01*
X87653872Y-67976593D01*
X87626854Y-67951963D01*
X87496302Y-67832948D01*
X87315019Y-67720702D01*
X87315014Y-67720700D01*
X87308129Y-67718032D01*
X87286037Y-67709474D01*
X87230636Y-67666903D01*
X87207045Y-67601136D01*
X87222756Y-67533056D01*
X87256655Y-67499999D01*
X116444722Y-67499999D01*
X116444722Y-67500000D01*
X116463762Y-67656818D01*
X116519780Y-67804523D01*
X116609517Y-67934530D01*
X116727760Y-68039283D01*
X116727762Y-68039284D01*
X116867634Y-68112696D01*
X117021014Y-68150500D01*
X117021015Y-68150500D01*
X117178985Y-68150500D01*
X117332365Y-68112696D01*
X117472240Y-68039283D01*
X117537256Y-67981683D01*
X117600490Y-67951963D01*
X117619483Y-67950500D01*
X118380517Y-67950500D01*
X118447556Y-67970185D01*
X118462741Y-67981682D01*
X118527760Y-68039283D01*
X118527762Y-68039284D01*
X118667634Y-68112696D01*
X118821014Y-68150500D01*
X118821015Y-68150500D01*
X118978985Y-68150500D01*
X119132365Y-68112696D01*
X119272240Y-68039283D01*
X119390483Y-67934530D01*
X119480220Y-67804523D01*
X119536237Y-67656818D01*
X119555278Y-67500000D01*
X119546002Y-67423600D01*
X119536237Y-67343181D01*
X119502075Y-67253105D01*
X119480220Y-67195477D01*
X119390483Y-67065470D01*
X119272240Y-66960717D01*
X119272238Y-66960716D01*
X119272237Y-66960715D01*
X119132365Y-66887303D01*
X118978986Y-66849500D01*
X118978985Y-66849500D01*
X118821015Y-66849500D01*
X118821014Y-66849500D01*
X118667634Y-66887303D01*
X118527762Y-66960715D01*
X118462744Y-67018316D01*
X118399510Y-67048037D01*
X118380517Y-67049500D01*
X117619483Y-67049500D01*
X117552444Y-67029815D01*
X117537256Y-67018316D01*
X117472240Y-66960717D01*
X117472238Y-66960716D01*
X117472237Y-66960715D01*
X117332365Y-66887303D01*
X117178986Y-66849500D01*
X117178985Y-66849500D01*
X117021015Y-66849500D01*
X117021014Y-66849500D01*
X116867634Y-66887303D01*
X116727762Y-66960715D01*
X116609516Y-67065471D01*
X116519781Y-67195475D01*
X116519780Y-67195476D01*
X116463762Y-67343181D01*
X116444722Y-67499999D01*
X87256655Y-67499999D01*
X87272779Y-67484276D01*
X87278426Y-67481466D01*
X87477578Y-67388599D01*
X87671082Y-67253105D01*
X87838105Y-67086082D01*
X87973600Y-66892578D01*
X88073429Y-66678492D01*
X88073432Y-66678486D01*
X88130636Y-66465000D01*
X87233012Y-66465000D01*
X87265925Y-66407993D01*
X87300000Y-66280826D01*
X87300000Y-66149174D01*
X87265925Y-66022007D01*
X87233012Y-65965000D01*
X88130636Y-65965000D01*
X88130635Y-65964999D01*
X88073432Y-65751513D01*
X88073429Y-65751507D01*
X87973600Y-65537422D01*
X87973599Y-65537420D01*
X87838113Y-65343926D01*
X87838108Y-65343920D01*
X87671082Y-65176894D01*
X87491394Y-65051074D01*
X87447769Y-64996496D01*
X87440577Y-64926998D01*
X87472099Y-64864643D01*
X87532329Y-64829230D01*
X87562517Y-64825499D01*
X87694864Y-64825499D01*
X87694879Y-64825497D01*
X87694882Y-64825497D01*
X87719987Y-64822586D01*
X87719988Y-64822585D01*
X87719991Y-64822585D01*
X87822765Y-64777206D01*
X87902206Y-64697765D01*
X87947585Y-64594991D01*
X87950500Y-64569865D01*
X87950499Y-62780136D01*
X87950497Y-62780117D01*
X87947586Y-62755012D01*
X87947585Y-62755010D01*
X87947585Y-62755009D01*
X87902206Y-62652235D01*
X87822765Y-62572794D01*
X87799254Y-62562413D01*
X87719992Y-62527415D01*
X87694865Y-62524500D01*
X85905143Y-62524500D01*
X85905117Y-62524502D01*
X85880012Y-62527413D01*
X85880008Y-62527415D01*
X85777235Y-62572793D01*
X85697794Y-62652234D01*
X85652415Y-62755006D01*
X85652415Y-62755008D01*
X85649500Y-62780131D01*
X85649500Y-64569856D01*
X85649502Y-64569882D01*
X85652413Y-64594987D01*
X85652415Y-64594991D01*
X85697793Y-64697764D01*
X85697794Y-64697765D01*
X85777235Y-64777206D01*
X85880009Y-64822585D01*
X85905135Y-64825500D01*
X86037483Y-64825499D01*
X86104520Y-64845183D01*
X86150275Y-64897987D01*
X86160219Y-64967145D01*
X86131195Y-65030701D01*
X86108605Y-65051074D01*
X85928922Y-65176890D01*
X85928920Y-65176891D01*
X85761891Y-65343920D01*
X85761886Y-65343926D01*
X85626400Y-65537420D01*
X85626399Y-65537422D01*
X85526570Y-65751507D01*
X85526567Y-65751513D01*
X85469364Y-65964999D01*
X85469364Y-65965000D01*
X86366988Y-65965000D01*
X86334075Y-66022007D01*
X86300000Y-66149174D01*
X86300000Y-66280826D01*
X86334075Y-66407993D01*
X86366988Y-66465000D01*
X85469364Y-66465000D01*
X85526567Y-66678486D01*
X85526570Y-66678492D01*
X85626399Y-66892578D01*
X85761894Y-67086082D01*
X85928917Y-67253105D01*
X86122421Y-67388600D01*
X86321573Y-67481466D01*
X86374012Y-67527638D01*
X86393164Y-67594832D01*
X86372948Y-67661713D01*
X86319783Y-67707048D01*
X86313968Y-67709472D01*
X86306771Y-67712260D01*
X86284982Y-67720701D01*
X86284980Y-67720702D01*
X86103699Y-67832947D01*
X85946127Y-67976593D01*
X85817632Y-68146746D01*
X85722596Y-68337605D01*
X85722596Y-68337607D01*
X85664244Y-68542689D01*
X85644571Y-68754999D01*
X85644571Y-68755000D01*
X85664244Y-68967310D01*
X85722596Y-69172392D01*
X85722596Y-69172394D01*
X85817632Y-69363253D01*
X85844065Y-69398255D01*
X85946128Y-69533407D01*
X86103698Y-69677052D01*
X86284981Y-69789298D01*
X86483802Y-69866321D01*
X86680613Y-69903111D01*
X86742893Y-69934779D01*
X86778166Y-69995092D01*
X86775232Y-70064900D01*
X86735023Y-70122040D01*
X86680613Y-70146888D01*
X86483802Y-70183679D01*
X86483799Y-70183679D01*
X86483799Y-70183680D01*
X86284982Y-70260701D01*
X86284980Y-70260702D01*
X86103699Y-70372947D01*
X85946127Y-70516593D01*
X85817632Y-70686746D01*
X85722596Y-70877605D01*
X85722596Y-70877607D01*
X85664244Y-71082689D01*
X85644571Y-71294999D01*
X85644571Y-71295000D01*
X85664244Y-71507310D01*
X85722596Y-71712392D01*
X85722596Y-71712394D01*
X85817632Y-71903253D01*
X85844065Y-71938255D01*
X85946128Y-72073407D01*
X86103698Y-72217052D01*
X86284981Y-72329298D01*
X86483802Y-72406321D01*
X86680613Y-72443111D01*
X86742893Y-72474779D01*
X86778166Y-72535092D01*
X86775232Y-72604900D01*
X86735023Y-72662040D01*
X86680613Y-72686888D01*
X86483802Y-72723679D01*
X86483799Y-72723679D01*
X86483799Y-72723680D01*
X86284982Y-72800701D01*
X86284980Y-72800702D01*
X86103699Y-72912947D01*
X85946127Y-73056593D01*
X85817632Y-73226746D01*
X85722596Y-73417605D01*
X85722596Y-73417607D01*
X85664244Y-73622689D01*
X85644571Y-73834999D01*
X85644571Y-73835000D01*
X85664244Y-74047310D01*
X85722596Y-74252392D01*
X85722596Y-74252394D01*
X85817632Y-74443253D01*
X85844065Y-74478255D01*
X85946128Y-74613407D01*
X86103698Y-74757052D01*
X86284981Y-74869298D01*
X86483802Y-74946321D01*
X86680613Y-74983111D01*
X86742893Y-75014779D01*
X86778166Y-75075092D01*
X86775232Y-75144900D01*
X86735023Y-75202040D01*
X86680613Y-75226888D01*
X86483802Y-75263679D01*
X86483799Y-75263679D01*
X86483799Y-75263680D01*
X86284982Y-75340701D01*
X86284980Y-75340702D01*
X86103699Y-75452947D01*
X85946127Y-75596593D01*
X85817632Y-75766746D01*
X85722596Y-75957605D01*
X85722596Y-75957607D01*
X85664244Y-76162689D01*
X85644571Y-76374999D01*
X85644571Y-76375000D01*
X85664244Y-76587310D01*
X85722596Y-76792392D01*
X85722596Y-76792394D01*
X85817632Y-76983253D01*
X85844065Y-77018255D01*
X85946128Y-77153407D01*
X86103698Y-77297052D01*
X86284981Y-77409298D01*
X86483802Y-77486321D01*
X86680613Y-77523111D01*
X86742893Y-77554779D01*
X86778166Y-77615092D01*
X86775232Y-77684900D01*
X86735023Y-77742040D01*
X86680613Y-77766888D01*
X86483802Y-77803679D01*
X86483799Y-77803679D01*
X86483799Y-77803680D01*
X86284982Y-77880701D01*
X86284980Y-77880702D01*
X86103699Y-77992947D01*
X85946127Y-78136593D01*
X85817632Y-78306746D01*
X85722596Y-78497605D01*
X85722596Y-78497607D01*
X85664244Y-78702689D01*
X85644571Y-78914999D01*
X85644571Y-78915000D01*
X85664244Y-79127310D01*
X85722596Y-79332392D01*
X85722596Y-79332394D01*
X85817632Y-79523253D01*
X85945394Y-79692435D01*
X85946128Y-79693407D01*
X86103698Y-79837052D01*
X86284981Y-79949298D01*
X86483802Y-80026321D01*
X86680613Y-80063111D01*
X86742893Y-80094779D01*
X86778166Y-80155092D01*
X86775232Y-80224900D01*
X86735023Y-80282040D01*
X86680613Y-80306888D01*
X86483802Y-80343679D01*
X86483799Y-80343679D01*
X86483799Y-80343680D01*
X86284982Y-80420701D01*
X86284980Y-80420702D01*
X86103699Y-80532947D01*
X85946127Y-80676593D01*
X85817632Y-80846746D01*
X85722596Y-81037605D01*
X85722596Y-81037607D01*
X85664244Y-81242688D01*
X85659191Y-81297215D01*
X85633404Y-81362152D01*
X85576603Y-81402839D01*
X85506822Y-81406358D01*
X85506047Y-81406169D01*
X85478988Y-81399500D01*
X85478985Y-81399500D01*
X85321015Y-81399500D01*
X85321014Y-81399500D01*
X85167634Y-81437303D01*
X85027762Y-81510715D01*
X84909516Y-81615471D01*
X84819781Y-81745475D01*
X84819780Y-81745476D01*
X84763762Y-81893181D01*
X84744722Y-82049999D01*
X83800500Y-82049999D01*
X83800500Y-61854875D01*
X83800882Y-61845146D01*
X83805686Y-61784108D01*
X83814502Y-61672078D01*
X83817544Y-61652873D01*
X83856932Y-61488812D01*
X83862938Y-61470327D01*
X83927505Y-61314449D01*
X83936338Y-61297115D01*
X83999437Y-61194148D01*
X84024485Y-61153271D01*
X84035920Y-61137533D01*
X84145492Y-61009239D01*
X84159239Y-60995492D01*
X84287535Y-60885917D01*
X84303274Y-60874484D01*
X84447118Y-60786336D01*
X84464449Y-60777505D01*
X84620327Y-60712938D01*
X84638812Y-60706932D01*
X84802873Y-60667544D01*
X84822078Y-60664502D01*
X84995146Y-60650881D01*
X85004875Y-60650500D01*
X85065892Y-60650500D01*
X122584108Y-60650500D01*
X122645125Y-60650500D01*
X122654853Y-60650881D01*
G37*
%TD.AperFunction*%
%TD*%
M02*
