M48
; DRILL file {KiCad 9.0.0} date 2025-02-22T18:12:41-0500
; FORMAT={-:-/ absolute / metric / decimal}
; #@! TF.CreationDate,2025-02-22T18:12:41-05:00
; #@! TF.GenerationSoftware,Kicad,Pcbnew,9.0.0
; #@! TF.FileFunction,Plated,1,4,PTH
FMAT,2
METRIC
; #@! TA.AperFunction,Plated,PTH,ViaDrill
T1C0.300
; #@! TA.AperFunction,Plated,PTH,ComponentDrill
T2C0.650
; #@! TA.AperFunction,Plated,PTH,ComponentDrill
T3C0.800
; #@! TA.AperFunction,Plated,PTH,ComponentDrill
T4C0.950
; #@! TA.AperFunction,Plated,PTH,ComponentDrill
T5C1.000
; #@! TA.AperFunction,Plated,PTH,ComponentDrill
T6C3.200
%
G90
G05
T1
X105.95Y-89.55
X107.8Y-92.6
X108.5Y-90.0
X109.35Y-89.25
X115.65Y-86.8
X117.3Y-95.9
X117.95Y-94.25
X122.15Y-85.3
X122.8Y-87.85
X122.8Y-90.45
X123.6Y-60.6
X124.15Y-92.1
X124.3Y-85.4
X124.4Y-87.55
X125.2Y-83.6
X125.9Y-81.3
X126.25Y-60.6
X127.65Y-62.8
X127.75Y-77.95
X127.9Y-60.55
X128.9Y-67.8
X129.05Y-86.0
X129.533Y-86.759
X129.65Y-81.3
X129.8Y-65.9
X130.0Y-59.3
X130.0Y-62.0
X130.6Y-88.05
X131.05Y-85.8
X131.3Y-65.9
X131.5Y-79.85
X132.35Y-61.15
X132.65Y-79.8
X133.491Y-87.591
X133.55Y-95.05
X133.6Y-89.75
X133.7Y-72.65
X134.8Y-58.95
X134.8Y-65.55
X134.85Y-95.05
X135.0Y-84.4
X135.95Y-94.55
X136.8Y-84.2
X136.95Y-58.9
X136.95Y-92.8
X137.65Y-86.0
X137.85Y-88.95
X138.35Y-60.65
X138.35Y-63.5
X138.513Y-88.342
X138.6Y-102.3
X138.7Y-101.2
X138.75Y-100.15
X139.7Y-89.45
X140.387Y-90.031
X140.5Y-67.65
X140.85Y-69.75
X141.221Y-90.369
X141.35Y-72.3
X141.7Y-106.5
X141.905Y-90.954
X142.15Y-74.8
X142.7Y-86.75
X143.5Y-83.05
X144.2Y-82.15
X146.8Y-106.4
T2
X140.43Y-103.88
X140.43Y-105.15
X141.7Y-103.88
X141.7Y-105.15
X142.97Y-103.88
X142.97Y-105.15
X144.24Y-103.88
X144.24Y-105.15
X145.51Y-103.88
X145.51Y-105.15
X146.78Y-103.88
X146.78Y-105.15
X148.05Y-103.88
X148.05Y-105.15
T3
X105.85Y-92.1
X105.85Y-94.64
X117.81Y-99.5
X120.35Y-99.5
T4
X113.67Y-104.0
X116.17Y-104.0
X118.67Y-104.0
X126.92Y-104.075
X129.42Y-104.075
X131.92Y-104.075
X134.42Y-104.075
T5
X106.0Y-61.92
X106.0Y-64.46
X106.0Y-67.0
X106.0Y-69.54
X106.0Y-72.08
X106.0Y-74.62
X106.0Y-77.16
X106.0Y-79.7
X106.0Y-82.24
X106.0Y-84.78
X154.0Y-61.92
X154.0Y-64.46
X154.0Y-67.0
X154.0Y-69.54
X154.0Y-72.08
X154.0Y-74.62
X154.0Y-77.16
X154.0Y-79.7
X154.0Y-82.24
X154.0Y-84.78
X154.0Y-87.32
X154.0Y-89.86
X154.0Y-92.4
X154.0Y-94.94
X154.0Y-97.48
T6
X106.0Y-56.0
X106.0Y-104.0
X154.0Y-56.0
X154.0Y-104.0
M30
