%TF.GenerationSoftware,KiCad,Pcbnew,9.0.0*%
%TF.CreationDate,2025-02-22T18:13:02-05:00*%
%TF.ProjectId,SensorModuleBreakout,53656e73-6f72-44d6-9f64-756c65427265,rev?*%
%TF.SameCoordinates,Original*%
%TF.FileFunction,Copper,L4,Bot*%
%TF.FilePolarity,Positive*%
%FSLAX46Y46*%
G04 Gerber Fmt 4.6, Leading zero omitted, Abs format (unit mm)*
G04 Created by KiCad (PCBNEW 9.0.0) date 2025-02-22 18:13:02*
%MOMM*%
%LPD*%
G01*
G04 APERTURE LIST*
G04 Aperture macros list*
%AMRoundRect*
0 Rectangle with rounded corners*
0 $1 Rounding radius*
0 $2 $3 $4 $5 $6 $7 $8 $9 X,Y pos of 4 corners*
0 Add a 4 corners polygon primitive as box body*
4,1,4,$2,$3,$4,$5,$6,$7,$8,$9,$2,$3,0*
0 Add four circle primitives for the rounded corners*
1,1,$1+$1,$2,$3*
1,1,$1+$1,$4,$5*
1,1,$1+$1,$6,$7*
1,1,$1+$1,$8,$9*
0 Add four rect primitives between the rounded corners*
20,1,$1+$1,$2,$3,$4,$5,0*
20,1,$1+$1,$4,$5,$6,$7,0*
20,1,$1+$1,$6,$7,$8,$9,0*
20,1,$1+$1,$8,$9,$2,$3,0*%
G04 Aperture macros list end*
%TA.AperFunction,ComponentPad*%
%ADD10RoundRect,0.250000X-0.600000X-0.725000X0.600000X-0.725000X0.600000X0.725000X-0.600000X0.725000X0*%
%TD*%
%TA.AperFunction,ComponentPad*%
%ADD11O,1.700000X1.950000*%
%TD*%
%TA.AperFunction,ComponentPad*%
%ADD12C,5.600000*%
%TD*%
%TA.AperFunction,ComponentPad*%
%ADD13R,1.700000X1.700000*%
%TD*%
%TA.AperFunction,ComponentPad*%
%ADD14O,1.700000X1.700000*%
%TD*%
%TA.AperFunction,ComponentPad*%
%ADD15C,1.400000*%
%TD*%
%TA.AperFunction,ComponentPad*%
%ADD16R,1.000000X1.000000*%
%TD*%
%TA.AperFunction,ComponentPad*%
%ADD17O,1.000000X1.000000*%
%TD*%
%TA.AperFunction,ViaPad*%
%ADD18C,0.700000*%
%TD*%
%TA.AperFunction,Conductor*%
%ADD19C,0.300000*%
%TD*%
G04 APERTURE END LIST*
D10*
%TO.P,J5,1,Pin_1*%
%TO.N,CC_TX*%
X126920000Y-104075000D03*
D11*
%TO.P,J5,2,Pin_2*%
%TO.N,CC_RX*%
X129420000Y-104075000D03*
%TO.P,J5,3,Pin_3*%
%TO.N,CC_WKE*%
X131920000Y-104075000D03*
%TO.P,J5,4,Pin_4*%
%TO.N,CC_RDY*%
X134420000Y-104075000D03*
%TD*%
D12*
%TO.P,H2,1,1*%
%TO.N,GND*%
X154000000Y-56000000D03*
%TD*%
%TO.P,H3,1,1*%
%TO.N,GND*%
X106000000Y-104000000D03*
%TD*%
D13*
%TO.P,J2,1,Pin_1*%
%TO.N,+3V3*%
X106000000Y-61920000D03*
D14*
%TO.P,J2,2,Pin_2*%
%TO.N,GND*%
X106000000Y-64460000D03*
%TO.P,J2,3,Pin_3*%
%TO.N,PB4*%
X106000000Y-67000000D03*
%TO.P,J2,4,Pin_4*%
%TO.N,PA15*%
X106000000Y-69540000D03*
%TO.P,J2,5,Pin_5*%
%TO.N,PA12*%
X106000000Y-72080000D03*
%TO.P,J2,6,Pin_6*%
%TO.N,PA11*%
X106000000Y-74620000D03*
%TO.P,J2,7,Pin_7*%
%TO.N,PB8*%
X106000000Y-77160000D03*
%TO.P,J2,8,Pin_8*%
%TO.N,PB9*%
X106000000Y-79700000D03*
%TO.P,J2,9,Pin_9*%
%TO.N,PA8*%
X106000000Y-82240000D03*
%TO.P,J2,10,Pin_10*%
%TO.N,PA1*%
X106000000Y-84780000D03*
%TD*%
D15*
%TO.P,JP2,1,A*%
%TO.N,Net-(JP2-A)*%
X120350000Y-99500000D03*
%TO.P,JP2,2,B*%
%TO.N,+3V3*%
X117810000Y-99500000D03*
%TD*%
D12*
%TO.P,H4,1,1*%
%TO.N,GND*%
X154000000Y-104000000D03*
%TD*%
%TO.P,H1,1,1*%
%TO.N,GND*%
X106000000Y-56000000D03*
%TD*%
D16*
%TO.P,STLink,1,NC*%
%TO.N,unconnected-(J1-NC-Pad1)*%
X140430000Y-105150000D03*
D17*
%TO.P,STLink,2,NC*%
%TO.N,unconnected-(J1-NC-Pad2)*%
X140430000Y-103880000D03*
%TO.P,STLink,3,VCC*%
%TO.N,+3V3*%
X141700000Y-105150000D03*
%TO.P,STLink,4,JTMS/SWDIO*%
%TO.N,JTMS{slash}SWDIO*%
X141700000Y-103880000D03*
%TO.P,STLink,5,GND*%
%TO.N,GND*%
X142970000Y-105150000D03*
%TO.P,STLink,6,JCLK/SWCLK*%
%TO.N,JTCK_SWCLK*%
X142970000Y-103880000D03*
%TO.P,STLink,7,GND*%
%TO.N,GND*%
X144240000Y-105150000D03*
%TO.P,STLink,8,JTDO/SWO*%
%TO.N,JTDO{slash}SWO*%
X144240000Y-103880000D03*
%TO.P,STLink,9,JRCLK/NC*%
%TO.N,unconnected-(J1-JRCLK{slash}NC-Pad9)*%
X145510000Y-105150000D03*
%TO.P,STLink,10,JTDI/NC*%
%TO.N,unconnected-(J1-JTDI{slash}NC-Pad10)*%
X145510000Y-103880000D03*
%TO.P,STLink,11,GNDDetect*%
%TO.N,GND*%
X146780000Y-105150000D03*
%TO.P,STLink,12,~{RST}*%
%TO.N,NRST*%
X146780000Y-103880000D03*
%TO.P,STLink,13,VCP_RX*%
%TO.N,VCP_RX*%
X148050000Y-105150000D03*
%TO.P,STLink,14,VCP_TX*%
%TO.N,VCP_TX*%
X148050000Y-103880000D03*
%TD*%
D13*
%TO.P,J3,1,Pin_1*%
%TO.N,SDA*%
X154000000Y-61920000D03*
D14*
%TO.P,J3,2,Pin_2*%
%TO.N,SCL*%
X154000000Y-64460000D03*
%TO.P,J3,3,Pin_3*%
%TO.N,PB15*%
X154000000Y-67000000D03*
%TO.P,J3,4,Pin_4*%
%TO.N,PB14*%
X154000000Y-69540000D03*
%TO.P,J3,5,Pin_5*%
%TO.N,PB13*%
X154000000Y-72080000D03*
%TO.P,J3,6,Pin_6*%
%TO.N,PB12*%
X154000000Y-74620000D03*
%TO.P,J3,7,Pin_7*%
%TO.N,PB11*%
X154000000Y-77160000D03*
%TO.P,J3,8,Pin_8*%
%TO.N,PB10*%
X154000000Y-79700000D03*
%TO.P,J3,9,Pin_9*%
%TO.N,PB2*%
X154000000Y-82240000D03*
%TO.P,J3,10,Pin_10*%
%TO.N,PB1*%
X154000000Y-84780000D03*
%TO.P,J3,11,Pin_11*%
%TO.N,PB0*%
X154000000Y-87320000D03*
%TO.P,J3,12,Pin_12*%
%TO.N,PA7*%
X154000000Y-89860000D03*
%TO.P,J3,13,Pin_13*%
%TO.N,PA6*%
X154000000Y-92400000D03*
%TO.P,J3,14,Pin_14*%
%TO.N,VCP_RX*%
X154000000Y-94940000D03*
%TO.P,J3,15,Pin_15*%
%TO.N,VCP_TX*%
X154000000Y-97480000D03*
%TD*%
D10*
%TO.P,J4,1,Pin_1*%
%TO.N,VBAT*%
X113670000Y-104000000D03*
D11*
%TO.P,J4,2,Pin_2*%
%TO.N,GND*%
X116170000Y-104000000D03*
%TO.P,J4,3,Pin_3*%
%TO.N,+3V3*%
X118670000Y-104000000D03*
%TD*%
D15*
%TO.P,JP1,1,A*%
%TO.N,+3V3*%
X105850000Y-92100000D03*
%TO.P,JP1,2,B*%
%TO.N,/BOOT0*%
X105850000Y-94640000D03*
%TD*%
D18*
%TO.N,GND*%
X134800000Y-58950000D03*
X136950000Y-58900000D03*
X138350000Y-60650000D03*
%TO.N,+3V3*%
X138350000Y-63500000D03*
%TO.N,SCL*%
X134800000Y-65550000D03*
X133700000Y-72650000D03*
X128900000Y-67800000D03*
%TO.N,PB4*%
X127750000Y-77950000D03*
%TO.N,+3V3*%
X126250000Y-60600000D03*
%TO.N,GND*%
X127900000Y-60550000D03*
X117300000Y-95900000D03*
%TO.N,+3V3*%
X134850000Y-95050000D03*
X136800000Y-84200000D03*
X124300000Y-85400000D03*
X131300000Y-65900000D03*
X131500000Y-79850000D03*
X141700000Y-106500000D03*
X122800000Y-90450000D03*
X125900000Y-81300000D03*
X132650000Y-79800000D03*
%TO.N,GND*%
X130000000Y-62000000D03*
X137650000Y-86000000D03*
X133550000Y-95050000D03*
X129800000Y-65900000D03*
X125200000Y-83600000D03*
X146800000Y-106400000D03*
X123600000Y-60600000D03*
X122800000Y-87850000D03*
X135950000Y-94550000D03*
X117950000Y-94250000D03*
X130000000Y-59300000D03*
X127650000Y-62800000D03*
X132350000Y-61150000D03*
X107800000Y-92600000D03*
X129650000Y-81300000D03*
%TO.N,VCP_TX*%
X137850000Y-88950000D03*
X138700000Y-101200000D03*
%TO.N,JTDO{slash}SWO*%
X144200000Y-82150000D03*
%TO.N,JTCK_SWCLK*%
X143500000Y-83050000D03*
%TO.N,JTMS{slash}SWDIO*%
X142700000Y-86750000D03*
%TO.N,NRST*%
X138600000Y-102300000D03*
X136950000Y-92800000D03*
%TO.N,VCP_RX*%
X138513440Y-88341846D03*
X138750000Y-100150000D03*
%TO.N,PA15*%
X135000000Y-84400000D03*
%TO.N,PB15*%
X140500000Y-67650000D03*
X139700000Y-89450000D03*
%TO.N,PB13*%
X141221166Y-90369362D03*
X141350000Y-72300000D03*
%TO.N,PB14*%
X140850000Y-69750000D03*
X140387049Y-90031350D03*
%TO.N,PB12*%
X141905106Y-90954367D03*
X142150000Y-74800000D03*
%TO.N,PA8*%
X133600000Y-89750000D03*
X108500000Y-90000000D03*
%TO.N,PA12*%
X122150000Y-85300000D03*
X124400000Y-87550000D03*
X133490965Y-87590965D03*
%TO.N,PB9*%
X129050000Y-86000000D03*
%TO.N,PB8*%
X115650000Y-86800000D03*
X129533189Y-86759297D03*
%TO.N,PA1*%
X124150000Y-92100000D03*
X105950000Y-89550000D03*
%TO.N,PB4*%
X131050000Y-85800000D03*
%TO.N,/BOOT0*%
X130600000Y-88050000D03*
X109350000Y-89250000D03*
%TD*%
D19*
%TO.N,SCL*%
X133700000Y-66650000D02*
X134800000Y-65550000D01*
X133700000Y-72650000D02*
X133700000Y-66650000D01*
X128900000Y-67850000D02*
X128900000Y-67800000D01*
X133700000Y-72650000D02*
X128900000Y-67850000D01*
%TO.N,PB4*%
X131050000Y-81250000D02*
X127750000Y-77950000D01*
X131050000Y-85800000D02*
X131050000Y-81250000D01*
%TO.N,VCP_TX*%
X154000000Y-97930000D02*
X154000000Y-97480000D01*
X148050000Y-103880000D02*
X154000000Y-97930000D01*
X137850000Y-88950000D02*
X137850000Y-100350000D01*
X137850000Y-100350000D02*
X138700000Y-101200000D01*
%TO.N,JTDO{slash}SWO*%
X144200000Y-82150000D02*
X144240000Y-82190000D01*
X144240000Y-82190000D02*
X144240000Y-103880000D01*
%TO.N,JTCK_SWCLK*%
X142970000Y-102780000D02*
X142970000Y-103880000D01*
X143500000Y-102250000D02*
X142970000Y-102780000D01*
X143500000Y-83050000D02*
X143500000Y-102250000D01*
%TO.N,JTMS{slash}SWDIO*%
X141700000Y-102650000D02*
X141700000Y-103880000D01*
X142700000Y-101650000D02*
X141700000Y-102650000D01*
X142700000Y-86750000D02*
X142700000Y-101650000D01*
%TO.N,NRST*%
X136950000Y-92800000D02*
X136950000Y-100650000D01*
X136950000Y-100650000D02*
X138600000Y-102300000D01*
%TO.N,VCP_RX*%
X138513440Y-88341846D02*
X138750000Y-88578406D01*
X138750000Y-88578406D02*
X138750000Y-100150000D01*
%TO.N,PA15*%
X135000000Y-80760050D02*
X123779950Y-69540000D01*
X135000000Y-84400000D02*
X135000000Y-80760050D01*
X123779950Y-69540000D02*
X106000000Y-69540000D01*
%TO.N,PB15*%
X139700000Y-68450000D02*
X140500000Y-67650000D01*
X139700000Y-89450000D02*
X139700000Y-68450000D01*
%TO.N,PB13*%
X141221166Y-90369362D02*
X141221166Y-72428834D01*
X141221166Y-72428834D02*
X141350000Y-72300000D01*
%TO.N,PB14*%
X140400000Y-90018399D02*
X140400000Y-70200000D01*
X140400000Y-70200000D02*
X140850000Y-69750000D01*
X140387049Y-90031350D02*
X140400000Y-90018399D01*
%TO.N,PB12*%
X141921166Y-90938307D02*
X141921166Y-75028834D01*
X141905106Y-90954367D02*
X141921166Y-90938307D01*
X141921166Y-75028834D02*
X142150000Y-74800000D01*
%TO.N,PA8*%
X109589950Y-90000000D02*
X108500000Y-90000000D01*
X109839950Y-89750000D02*
X109589950Y-90000000D01*
X133600000Y-89750000D02*
X109839950Y-89750000D01*
%TO.N,PA12*%
X129710050Y-87550000D02*
X124400000Y-87550000D01*
X133490965Y-87590965D02*
X133250000Y-87350000D01*
X108930000Y-72080000D02*
X106000000Y-72080000D01*
X133250000Y-87350000D02*
X129910050Y-87350000D01*
X129910050Y-87350000D02*
X129710050Y-87550000D01*
X122150000Y-85300000D02*
X108930000Y-72080000D01*
%TO.N,PB9*%
X128950000Y-86100000D02*
X112400000Y-86100000D01*
X112400000Y-86100000D02*
X106000000Y-79700000D01*
X129050000Y-86000000D02*
X128950000Y-86100000D01*
%TO.N,PB8*%
X129492486Y-86800000D02*
X129533189Y-86759297D01*
X115650000Y-86800000D02*
X129492486Y-86800000D01*
%TO.N,PA1*%
X108500000Y-92100000D02*
X105950000Y-89550000D01*
X124150000Y-92100000D02*
X108500000Y-92100000D01*
%TO.N,/BOOT0*%
X130600000Y-88050000D02*
X129400000Y-89250000D01*
X129400000Y-89250000D02*
X109350000Y-89250000D01*
%TD*%
M02*
