%TF.GenerationSoftware,KiCad,Pcbnew,9.0.0*%
%TF.CreationDate,2025-02-22T18:13:02-05:00*%
%TF.ProjectId,SensorModuleBreakout,53656e73-6f72-44d6-9f64-756c65427265,rev?*%
%TF.SameCoordinates,Original*%
%TF.FileFunction,Soldermask,Top*%
%TF.FilePolarity,Negative*%
%FSLAX46Y46*%
G04 Gerber Fmt 4.6, Leading zero omitted, Abs format (unit mm)*
G04 Created by KiCad (PCBNEW 9.0.0) date 2025-02-22 18:13:02*
%MOMM*%
%LPD*%
G01*
G04 APERTURE LIST*
G04 Aperture macros list*
%AMRoundRect*
0 Rectangle with rounded corners*
0 $1 Rounding radius*
0 $2 $3 $4 $5 $6 $7 $8 $9 X,Y pos of 4 corners*
0 Add a 4 corners polygon primitive as box body*
4,1,4,$2,$3,$4,$5,$6,$7,$8,$9,$2,$3,0*
0 Add four circle primitives for the rounded corners*
1,1,$1+$1,$2,$3*
1,1,$1+$1,$4,$5*
1,1,$1+$1,$6,$7*
1,1,$1+$1,$8,$9*
0 Add four rect primitives between the rounded corners*
20,1,$1+$1,$2,$3,$4,$5,0*
20,1,$1+$1,$4,$5,$6,$7,0*
20,1,$1+$1,$6,$7,$8,$9,0*
20,1,$1+$1,$8,$9,$2,$3,0*%
G04 Aperture macros list end*
%ADD10C,0.010000*%
%ADD11RoundRect,0.218750X-0.218750X-0.256250X0.218750X-0.256250X0.218750X0.256250X-0.218750X0.256250X0*%
%ADD12R,0.950000X0.550000*%
%ADD13RoundRect,0.250000X-0.600000X-0.725000X0.600000X-0.725000X0.600000X0.725000X-0.600000X0.725000X0*%
%ADD14O,1.700000X1.950000*%
%ADD15RoundRect,0.102000X-0.275000X-0.150000X0.275000X-0.150000X0.275000X0.150000X-0.275000X0.150000X0*%
%ADD16RoundRect,0.102000X-0.150000X-0.275000X0.150000X-0.275000X0.150000X0.275000X-0.150000X0.275000X0*%
%ADD17C,5.600000*%
%ADD18RoundRect,0.075000X-0.662500X-0.075000X0.662500X-0.075000X0.662500X0.075000X-0.662500X0.075000X0*%
%ADD19RoundRect,0.075000X-0.075000X-0.662500X0.075000X-0.662500X0.075000X0.662500X-0.075000X0.662500X0*%
%ADD20RoundRect,0.135000X-0.185000X0.135000X-0.185000X-0.135000X0.185000X-0.135000X0.185000X0.135000X0*%
%ADD21R,0.300000X0.500000*%
%ADD22RoundRect,0.225000X-0.225000X-0.250000X0.225000X-0.250000X0.225000X0.250000X-0.225000X0.250000X0*%
%ADD23RoundRect,0.140000X0.140000X0.170000X-0.140000X0.170000X-0.140000X-0.170000X0.140000X-0.170000X0*%
%ADD24RoundRect,0.135000X-0.135000X-0.185000X0.135000X-0.185000X0.135000X0.185000X-0.135000X0.185000X0*%
%ADD25C,1.448000*%
%ADD26RoundRect,0.140000X-0.170000X0.140000X-0.170000X-0.140000X0.170000X-0.140000X0.170000X0.140000X0*%
%ADD27R,1.700000X1.700000*%
%ADD28O,1.700000X1.700000*%
%ADD29C,1.400000*%
%ADD30RoundRect,0.135000X0.185000X-0.135000X0.185000X0.135000X-0.185000X0.135000X-0.185000X-0.135000X0*%
%ADD31RoundRect,0.135000X0.135000X0.185000X-0.135000X0.185000X-0.135000X-0.185000X0.135000X-0.185000X0*%
%ADD32RoundRect,0.200000X-0.275000X0.200000X-0.275000X-0.200000X0.275000X-0.200000X0.275000X0.200000X0*%
%ADD33RoundRect,0.140000X-0.140000X-0.170000X0.140000X-0.170000X0.140000X0.170000X-0.140000X0.170000X0*%
%ADD34RoundRect,0.140000X0.170000X-0.140000X0.170000X0.140000X-0.170000X0.140000X-0.170000X-0.140000X0*%
%ADD35R,1.000000X1.000000*%
%ADD36O,1.000000X1.000000*%
G04 APERTURE END LIST*
D10*
%TO.C,U3*%
X131000000Y-63250000D02*
X129000000Y-63250000D01*
X129000000Y-61108581D01*
X129358581Y-60750000D01*
X131000000Y-60750000D01*
X131000000Y-63250000D01*
G36*
X131000000Y-63250000D02*
G01*
X129000000Y-63250000D01*
X129000000Y-61108581D01*
X129358581Y-60750000D01*
X131000000Y-60750000D01*
X131000000Y-63250000D01*
G37*
%TD*%
D11*
%TO.C,D1*%
X118900000Y-97100000D03*
X117325000Y-97100000D03*
%TD*%
D12*
%TO.C,U5*%
X136950000Y-64000000D03*
X136950000Y-62750000D03*
X136950000Y-61500000D03*
X136950000Y-60250000D03*
X134800000Y-60250000D03*
X134800000Y-61500000D03*
X134800000Y-62750000D03*
X134800000Y-64000000D03*
%TD*%
D13*
%TO.C,J5*%
X126920000Y-104075000D03*
D14*
X129420000Y-104075000D03*
X131920000Y-104075000D03*
X134420000Y-104075000D03*
%TD*%
D15*
%TO.C,U3*%
X128475000Y-61200000D03*
X128475000Y-62000000D03*
X128475000Y-62800000D03*
D16*
X129200000Y-63775000D03*
X130000000Y-63775000D03*
X130800000Y-63775000D03*
D15*
X131525000Y-62800000D03*
X131525000Y-62000000D03*
X131525000Y-61200000D03*
D16*
X130800000Y-60225000D03*
X130000000Y-60225000D03*
X129200000Y-60225000D03*
%TD*%
D17*
%TO.C,H2*%
X154000000Y-56000000D03*
%TD*%
D18*
%TO.C,U1*%
X126837500Y-85750000D03*
X126837500Y-86250000D03*
X126837500Y-86750000D03*
X126837500Y-87250000D03*
X126837500Y-87750000D03*
X126837500Y-88250000D03*
X126837500Y-88750000D03*
X126837500Y-89250000D03*
X126837500Y-89750000D03*
X126837500Y-90250000D03*
X126837500Y-90750000D03*
X126837500Y-91250000D03*
D19*
X128250000Y-92662500D03*
X128750000Y-92662500D03*
X129250000Y-92662500D03*
X129750000Y-92662500D03*
X130250000Y-92662500D03*
X130750000Y-92662500D03*
X131250000Y-92662500D03*
X131750000Y-92662500D03*
X132250000Y-92662500D03*
X132750000Y-92662500D03*
X133250000Y-92662500D03*
X133750000Y-92662500D03*
D18*
X135162500Y-91250000D03*
X135162500Y-90750000D03*
X135162500Y-90250000D03*
X135162500Y-89750000D03*
X135162500Y-89250000D03*
X135162500Y-88750000D03*
X135162500Y-88250000D03*
X135162500Y-87750000D03*
X135162500Y-87250000D03*
X135162500Y-86750000D03*
X135162500Y-86250000D03*
X135162500Y-85750000D03*
D19*
X133750000Y-84337500D03*
X133250000Y-84337500D03*
X132750000Y-84337500D03*
X132250000Y-84337500D03*
X131750000Y-84337500D03*
X131250000Y-84337500D03*
X130750000Y-84337500D03*
X130250000Y-84337500D03*
X129750000Y-84337500D03*
X129250000Y-84337500D03*
X128750000Y-84337500D03*
X128250000Y-84337500D03*
%TD*%
D20*
%TO.C,R6*%
X120500000Y-96590000D03*
X120500000Y-97610000D03*
%TD*%
D21*
%TO.C,U2*%
X124525000Y-63100000D03*
X125325000Y-63100000D03*
X125325000Y-61700000D03*
X124525000Y-61700000D03*
%TD*%
D22*
%TO.C,C1*%
X127025000Y-81300000D03*
X128575000Y-81300000D03*
%TD*%
D17*
%TO.C,H3*%
X106000000Y-104000000D03*
%TD*%
D23*
%TO.C,C4*%
X134380000Y-94250000D03*
X133420000Y-94250000D03*
%TD*%
D24*
%TO.C,R2*%
X132650000Y-78900000D03*
X133670000Y-78900000D03*
%TD*%
D20*
%TO.C,R5*%
X117950000Y-92390000D03*
X117950000Y-93410000D03*
%TD*%
D25*
%TO.C,REF\u002A\u002A*%
X157150000Y-61950000D03*
%TD*%
D26*
%TO.C,C12*%
X135950000Y-92720000D03*
X135950000Y-93680000D03*
%TD*%
D27*
%TO.C,J2*%
X106000000Y-61920000D03*
D28*
X106000000Y-64460000D03*
X106000000Y-67000000D03*
X106000000Y-69540000D03*
X106000000Y-72080000D03*
X106000000Y-74620000D03*
X106000000Y-77160000D03*
X106000000Y-79700000D03*
X106000000Y-82240000D03*
X106000000Y-84780000D03*
%TD*%
D29*
%TO.C,JP2*%
X120350000Y-99500000D03*
X117810000Y-99500000D03*
%TD*%
D25*
%TO.C,REF\u002A\u002A*%
X103100000Y-61850000D03*
%TD*%
D17*
%TO.C,H4*%
X154000000Y-104000000D03*
%TD*%
D30*
%TO.C,R1*%
X107800000Y-94660000D03*
X107800000Y-93640000D03*
%TD*%
D31*
%TO.C,R3*%
X131470000Y-78900000D03*
X130450000Y-78900000D03*
%TD*%
D32*
%TO.C,R4*%
X117950000Y-89475000D03*
X117950000Y-91125000D03*
%TD*%
D17*
%TO.C,H1*%
X106000000Y-56000000D03*
%TD*%
D33*
%TO.C,C2*%
X127720000Y-82700000D03*
X128680000Y-82700000D03*
%TD*%
D34*
%TO.C,C8*%
X122800000Y-89580000D03*
X122800000Y-88620000D03*
%TD*%
D25*
%TO.C,REF\u002A\u002A*%
X156900000Y-97550000D03*
%TD*%
D23*
%TO.C,C10*%
X131005000Y-65000000D03*
X130045000Y-65000000D03*
%TD*%
D35*
%TO.C,STLink*%
X140430000Y-105150000D03*
D36*
X140430000Y-103880000D03*
X141700000Y-105150000D03*
X141700000Y-103880000D03*
X142970000Y-105150000D03*
X142970000Y-103880000D03*
X144240000Y-105150000D03*
X144240000Y-103880000D03*
X145510000Y-105150000D03*
X145510000Y-103880000D03*
X146780000Y-105150000D03*
X146780000Y-103880000D03*
X148050000Y-105150000D03*
X148050000Y-103880000D03*
%TD*%
D27*
%TO.C,J3*%
X154000000Y-61920000D03*
D28*
X154000000Y-64460000D03*
X154000000Y-67000000D03*
X154000000Y-69540000D03*
X154000000Y-72080000D03*
X154000000Y-74620000D03*
X154000000Y-77160000D03*
X154000000Y-79700000D03*
X154000000Y-82240000D03*
X154000000Y-84780000D03*
X154000000Y-87320000D03*
X154000000Y-89860000D03*
X154000000Y-92400000D03*
X154000000Y-94940000D03*
X154000000Y-97480000D03*
%TD*%
D13*
%TO.C,J4*%
X113670000Y-104000000D03*
D14*
X116170000Y-104000000D03*
X118670000Y-104000000D03*
%TD*%
D29*
%TO.C,JP1*%
X105850000Y-92100000D03*
X105850000Y-94640000D03*
%TD*%
D26*
%TO.C,C3*%
X136800000Y-85020000D03*
X136800000Y-85980000D03*
%TD*%
D34*
%TO.C,C7*%
X124000000Y-89580000D03*
X124000000Y-88620000D03*
%TD*%
%TO.C,C11*%
X138325000Y-62527500D03*
X138325000Y-61567500D03*
%TD*%
%TO.C,C6*%
X125200000Y-89580000D03*
X125200000Y-88620000D03*
%TD*%
%TO.C,C5*%
X125200000Y-85380000D03*
X125200000Y-84420000D03*
%TD*%
D23*
%TO.C,C9*%
X125405000Y-60600000D03*
X124445000Y-60600000D03*
%TD*%
M02*
