%TF.GenerationSoftware,KiCad,Pcbnew,9.0.0*%
%TF.CreationDate,2025-02-22T18:13:02-05:00*%
%TF.ProjectId,SensorModuleBreakout,53656e73-6f72-44d6-9f64-756c65427265,rev?*%
%TF.SameCoordinates,Original*%
%TF.FileFunction,Legend,Bot*%
%TF.FilePolarity,Positive*%
%FSLAX46Y46*%
G04 Gerber Fmt 4.6, Leading zero omitted, Abs format (unit mm)*
G04 Created by KiCad (PCBNEW 9.0.0) date 2025-02-22 18:13:02*
%MOMM*%
%LPD*%
G01*
G04 APERTURE LIST*
G04 Aperture macros list*
%AMRoundRect*
0 Rectangle with rounded corners*
0 $1 Rounding radius*
0 $2 $3 $4 $5 $6 $7 $8 $9 X,Y pos of 4 corners*
0 Add a 4 corners polygon primitive as box body*
4,1,4,$2,$3,$4,$5,$6,$7,$8,$9,$2,$3,0*
0 Add four circle primitives for the rounded corners*
1,1,$1+$1,$2,$3*
1,1,$1+$1,$4,$5*
1,1,$1+$1,$6,$7*
1,1,$1+$1,$8,$9*
0 Add four rect primitives between the rounded corners*
20,1,$1+$1,$2,$3,$4,$5,0*
20,1,$1+$1,$4,$5,$6,$7,0*
20,1,$1+$1,$6,$7,$8,$9,0*
20,1,$1+$1,$8,$9,$2,$3,0*%
G04 Aperture macros list end*
%ADD10RoundRect,0.250000X-0.600000X-0.725000X0.600000X-0.725000X0.600000X0.725000X-0.600000X0.725000X0*%
%ADD11O,1.700000X1.950000*%
%ADD12C,5.600000*%
%ADD13C,1.152000*%
%ADD14R,1.700000X1.700000*%
%ADD15O,1.700000X1.700000*%
%ADD16C,1.400000*%
%ADD17R,1.000000X1.000000*%
%ADD18O,1.000000X1.000000*%
G04 APERTURE END LIST*
%LPC*%
D10*
%TO.C,J5*%
X126920000Y-104075000D03*
D11*
X129420000Y-104075000D03*
X131920000Y-104075000D03*
X134420000Y-104075000D03*
%TD*%
D12*
%TO.C,H2*%
X154000000Y-56000000D03*
%TD*%
%TO.C,H3*%
X106000000Y-104000000D03*
%TD*%
D13*
%TO.C,REF\u002A\u002A*%
X157150000Y-61950000D03*
%TD*%
D14*
%TO.C,J2*%
X106000000Y-61920000D03*
D15*
X106000000Y-64460000D03*
X106000000Y-67000000D03*
X106000000Y-69540000D03*
X106000000Y-72080000D03*
X106000000Y-74620000D03*
X106000000Y-77160000D03*
X106000000Y-79700000D03*
X106000000Y-82240000D03*
X106000000Y-84780000D03*
%TD*%
D16*
%TO.C,JP2*%
X120350000Y-99500000D03*
X117810000Y-99500000D03*
%TD*%
D13*
%TO.C,REF\u002A\u002A*%
X103100000Y-61850000D03*
%TD*%
D12*
%TO.C,H4*%
X154000000Y-104000000D03*
%TD*%
%TO.C,H1*%
X106000000Y-56000000D03*
%TD*%
D13*
%TO.C,REF\u002A\u002A*%
X156900000Y-97550000D03*
%TD*%
D17*
%TO.C,STLink*%
X140430000Y-105150000D03*
D18*
X140430000Y-103880000D03*
X141700000Y-105150000D03*
X141700000Y-103880000D03*
X142970000Y-105150000D03*
X142970000Y-103880000D03*
X144240000Y-105150000D03*
X144240000Y-103880000D03*
X145510000Y-105150000D03*
X145510000Y-103880000D03*
X146780000Y-105150000D03*
X146780000Y-103880000D03*
X148050000Y-105150000D03*
X148050000Y-103880000D03*
%TD*%
D14*
%TO.C,J3*%
X154000000Y-61920000D03*
D15*
X154000000Y-64460000D03*
X154000000Y-67000000D03*
X154000000Y-69540000D03*
X154000000Y-72080000D03*
X154000000Y-74620000D03*
X154000000Y-77160000D03*
X154000000Y-79700000D03*
X154000000Y-82240000D03*
X154000000Y-84780000D03*
X154000000Y-87320000D03*
X154000000Y-89860000D03*
X154000000Y-92400000D03*
X154000000Y-94940000D03*
X154000000Y-97480000D03*
%TD*%
D10*
%TO.C,J4*%
X113670000Y-104000000D03*
D11*
X116170000Y-104000000D03*
X118670000Y-104000000D03*
%TD*%
D16*
%TO.C,JP1*%
X105850000Y-92100000D03*
X105850000Y-94640000D03*
%TD*%
%LPD*%
M02*
