M48
; DRILL file {KiCad 9.0.0} date 2025-02-22T18:13:02-0500
; FORMAT={-:-/ absolute / inch / decimal}
; #@! TF.CreationDate,2025-02-22T18:13:02-05:00
; #@! TF.GenerationSoftware,Kicad,Pcbnew,9.0.0
; #@! TF.FileFunction,Plated,1,4,PTH
FMAT,2
INCH
; #@! TA.AperFunction,Plated,PTH,ViaDrill
T1C0.0118
; #@! TA.AperFunction,Plated,PTH,ComponentDrill
T2C0.0256
; #@! TA.AperFunction,Plated,PTH,ComponentDrill
T3C0.0315
; #@! TA.AperFunction,Plated,PTH,ComponentDrill
T4C0.0374
; #@! TA.AperFunction,Plated,PTH,ComponentDrill
T5C0.0394
; #@! TA.AperFunction,Plated,PTH,ComponentDrill
T6C0.1260
%
G90
G05
T1
X4.1713Y-3.5256
X4.2441Y-3.6457
X4.2717Y-3.5433
X4.3051Y-3.5138
X4.5531Y-3.4173
X4.6181Y-3.7756
X4.6437Y-3.7106
X4.8091Y-3.3583
X4.8346Y-3.4587
X4.8346Y-3.561
X4.8661Y-2.3858
X4.8878Y-3.626
X4.8937Y-3.3622
X4.8976Y-3.4469
X4.9291Y-3.2913
X4.9567Y-3.2008
X4.9705Y-2.3858
X5.0256Y-2.4724
X5.0295Y-3.0689
X5.0354Y-2.3839
X5.0748Y-2.6693
X5.0807Y-3.3858
X5.0997Y-3.4157
X5.1043Y-3.2008
X5.1102Y-2.5945
X5.1181Y-2.3346
X5.1181Y-2.4409
X5.1417Y-3.4665
X5.1594Y-3.378
X5.1693Y-2.5945
X5.1772Y-3.1437
X5.2106Y-2.4075
X5.2224Y-3.1417
X5.2555Y-3.4485
X5.2579Y-3.7421
X5.2598Y-3.5335
X5.2638Y-2.8602
X5.3071Y-2.3209
X5.3071Y-2.5807
X5.3091Y-3.7421
X5.315Y-3.3228
X5.3524Y-3.7224
X5.3858Y-3.315
X5.3917Y-2.3189
X5.3917Y-3.6535
X5.4193Y-3.3858
X5.4272Y-3.502
X5.4469Y-2.3878
X5.4469Y-2.5
X5.4533Y-3.478
X5.4567Y-4.0276
X5.4606Y-3.9843
X5.4626Y-3.9429
X5.5Y-3.5217
X5.527Y-3.5445
X5.5315Y-2.6634
X5.5453Y-2.7461
X5.5599Y-3.5578
X5.565Y-2.8465
X5.5787Y-4.1929
X5.5868Y-3.5809
X5.5965Y-2.9449
X5.6181Y-3.4154
X5.6496Y-3.2697
X5.6772Y-3.2343
X5.7795Y-4.189
T2
X5.5287Y-4.0898
X5.5287Y-4.1398
X5.5787Y-4.0898
X5.5787Y-4.1398
X5.6287Y-4.0898
X5.6287Y-4.1398
X5.6787Y-4.0898
X5.6787Y-4.1398
X5.7287Y-4.0898
X5.7287Y-4.1398
X5.7787Y-4.0898
X5.7787Y-4.1398
X5.8287Y-4.0898
X5.8287Y-4.1398
T3
X4.1673Y-3.626
X4.1673Y-3.726
X4.6382Y-3.9173
X4.7382Y-3.9173
T4
X4.4752Y-4.0945
X4.5736Y-4.0945
X4.672Y-4.0945
X4.9969Y-4.0974
X5.0953Y-4.0974
X5.1937Y-4.0974
X5.2921Y-4.0974
T5
X4.1732Y-2.4378
X4.1732Y-2.5378
X4.1732Y-2.6378
X4.1732Y-2.7378
X4.1732Y-2.8378
X4.1732Y-2.9378
X4.1732Y-3.0378
X4.1732Y-3.1378
X4.1732Y-3.2378
X4.1732Y-3.3378
X6.063Y-2.4378
X6.063Y-2.5378
X6.063Y-2.6378
X6.063Y-2.7378
X6.063Y-2.8378
X6.063Y-2.9378
X6.063Y-3.0378
X6.063Y-3.1378
X6.063Y-3.2378
X6.063Y-3.3378
X6.063Y-3.4378
X6.063Y-3.5378
X6.063Y-3.6378
X6.063Y-3.7378
X6.063Y-3.8378
T6
X4.1732Y-2.2047
X4.1732Y-4.0945
X6.063Y-2.2047
X6.063Y-4.0945
M30
