%TF.GenerationSoftware,KiCad,Pcbnew,9.0.0*%
%TF.CreationDate,2025-02-22T18:13:02-05:00*%
%TF.ProjectId,SensorModuleBreakout,53656e73-6f72-44d6-9f64-756c65427265,rev?*%
%TF.SameCoordinates,Original*%
%TF.FileFunction,Legend,Top*%
%TF.FilePolarity,Positive*%
%FSLAX46Y46*%
G04 Gerber Fmt 4.6, Leading zero omitted, Abs format (unit mm)*
G04 Created by KiCad (PCBNEW 9.0.0) date 2025-02-22 18:13:02*
%MOMM*%
%LPD*%
G01*
G04 APERTURE LIST*
G04 Aperture macros list*
%AMRoundRect*
0 Rectangle with rounded corners*
0 $1 Rounding radius*
0 $2 $3 $4 $5 $6 $7 $8 $9 X,Y pos of 4 corners*
0 Add a 4 corners polygon primitive as box body*
4,1,4,$2,$3,$4,$5,$6,$7,$8,$9,$2,$3,0*
0 Add four circle primitives for the rounded corners*
1,1,$1+$1,$2,$3*
1,1,$1+$1,$4,$5*
1,1,$1+$1,$6,$7*
1,1,$1+$1,$8,$9*
0 Add four rect primitives between the rounded corners*
20,1,$1+$1,$2,$3,$4,$5,0*
20,1,$1+$1,$4,$5,$6,$7,0*
20,1,$1+$1,$6,$7,$8,$9,0*
20,1,$1+$1,$8,$9,$2,$3,0*%
G04 Aperture macros list end*
%ADD10C,0.100000*%
%ADD11C,0.300000*%
%ADD12C,0.150000*%
%ADD13C,0.120000*%
%ADD14C,0.127000*%
%ADD15C,0.200000*%
%ADD16C,0.010000*%
%ADD17RoundRect,0.218750X-0.218750X-0.256250X0.218750X-0.256250X0.218750X0.256250X-0.218750X0.256250X0*%
%ADD18R,0.950000X0.550000*%
%ADD19RoundRect,0.250000X-0.600000X-0.725000X0.600000X-0.725000X0.600000X0.725000X-0.600000X0.725000X0*%
%ADD20O,1.700000X1.950000*%
%ADD21RoundRect,0.102000X-0.275000X-0.150000X0.275000X-0.150000X0.275000X0.150000X-0.275000X0.150000X0*%
%ADD22RoundRect,0.102000X-0.150000X-0.275000X0.150000X-0.275000X0.150000X0.275000X-0.150000X0.275000X0*%
%ADD23C,5.600000*%
%ADD24RoundRect,0.075000X-0.662500X-0.075000X0.662500X-0.075000X0.662500X0.075000X-0.662500X0.075000X0*%
%ADD25RoundRect,0.075000X-0.075000X-0.662500X0.075000X-0.662500X0.075000X0.662500X-0.075000X0.662500X0*%
%ADD26RoundRect,0.135000X-0.185000X0.135000X-0.185000X-0.135000X0.185000X-0.135000X0.185000X0.135000X0*%
%ADD27R,0.300000X0.500000*%
%ADD28RoundRect,0.225000X-0.225000X-0.250000X0.225000X-0.250000X0.225000X0.250000X-0.225000X0.250000X0*%
%ADD29RoundRect,0.140000X0.140000X0.170000X-0.140000X0.170000X-0.140000X-0.170000X0.140000X-0.170000X0*%
%ADD30RoundRect,0.135000X-0.135000X-0.185000X0.135000X-0.185000X0.135000X0.185000X-0.135000X0.185000X0*%
%ADD31C,1.448000*%
%ADD32RoundRect,0.140000X-0.170000X0.140000X-0.170000X-0.140000X0.170000X-0.140000X0.170000X0.140000X0*%
%ADD33R,1.700000X1.700000*%
%ADD34O,1.700000X1.700000*%
%ADD35C,1.400000*%
%ADD36RoundRect,0.135000X0.185000X-0.135000X0.185000X0.135000X-0.185000X0.135000X-0.185000X-0.135000X0*%
%ADD37RoundRect,0.135000X0.135000X0.185000X-0.135000X0.185000X-0.135000X-0.185000X0.135000X-0.185000X0*%
%ADD38RoundRect,0.200000X-0.275000X0.200000X-0.275000X-0.200000X0.275000X-0.200000X0.275000X0.200000X0*%
%ADD39RoundRect,0.140000X-0.140000X-0.170000X0.140000X-0.170000X0.140000X0.170000X-0.140000X0.170000X0*%
%ADD40RoundRect,0.140000X0.170000X-0.140000X0.170000X0.140000X-0.170000X0.140000X-0.170000X-0.140000X0*%
%ADD41R,1.000000X1.000000*%
%ADD42O,1.000000X1.000000*%
G04 APERTURE END LIST*
D10*
X102501870Y-96504762D02*
X102539965Y-96390476D01*
X102539965Y-96390476D02*
X102578061Y-96352381D01*
X102578061Y-96352381D02*
X102654251Y-96314285D01*
X102654251Y-96314285D02*
X102768537Y-96314285D01*
X102768537Y-96314285D02*
X102844727Y-96352381D01*
X102844727Y-96352381D02*
X102882823Y-96390476D01*
X102882823Y-96390476D02*
X102920918Y-96466666D01*
X102920918Y-96466666D02*
X102920918Y-96771428D01*
X102920918Y-96771428D02*
X102120918Y-96771428D01*
X102120918Y-96771428D02*
X102120918Y-96504762D01*
X102120918Y-96504762D02*
X102159013Y-96428571D01*
X102159013Y-96428571D02*
X102197108Y-96390476D01*
X102197108Y-96390476D02*
X102273299Y-96352381D01*
X102273299Y-96352381D02*
X102349489Y-96352381D01*
X102349489Y-96352381D02*
X102425680Y-96390476D01*
X102425680Y-96390476D02*
X102463775Y-96428571D01*
X102463775Y-96428571D02*
X102501870Y-96504762D01*
X102501870Y-96504762D02*
X102501870Y-96771428D01*
X102120918Y-95819047D02*
X102120918Y-95666666D01*
X102120918Y-95666666D02*
X102159013Y-95590476D01*
X102159013Y-95590476D02*
X102235203Y-95514285D01*
X102235203Y-95514285D02*
X102387584Y-95476190D01*
X102387584Y-95476190D02*
X102654251Y-95476190D01*
X102654251Y-95476190D02*
X102806632Y-95514285D01*
X102806632Y-95514285D02*
X102882823Y-95590476D01*
X102882823Y-95590476D02*
X102920918Y-95666666D01*
X102920918Y-95666666D02*
X102920918Y-95819047D01*
X102920918Y-95819047D02*
X102882823Y-95895238D01*
X102882823Y-95895238D02*
X102806632Y-95971428D01*
X102806632Y-95971428D02*
X102654251Y-96009524D01*
X102654251Y-96009524D02*
X102387584Y-96009524D01*
X102387584Y-96009524D02*
X102235203Y-95971428D01*
X102235203Y-95971428D02*
X102159013Y-95895238D01*
X102159013Y-95895238D02*
X102120918Y-95819047D01*
X102120918Y-94980952D02*
X102120918Y-94828571D01*
X102120918Y-94828571D02*
X102159013Y-94752381D01*
X102159013Y-94752381D02*
X102235203Y-94676190D01*
X102235203Y-94676190D02*
X102387584Y-94638095D01*
X102387584Y-94638095D02*
X102654251Y-94638095D01*
X102654251Y-94638095D02*
X102806632Y-94676190D01*
X102806632Y-94676190D02*
X102882823Y-94752381D01*
X102882823Y-94752381D02*
X102920918Y-94828571D01*
X102920918Y-94828571D02*
X102920918Y-94980952D01*
X102920918Y-94980952D02*
X102882823Y-95057143D01*
X102882823Y-95057143D02*
X102806632Y-95133333D01*
X102806632Y-95133333D02*
X102654251Y-95171429D01*
X102654251Y-95171429D02*
X102387584Y-95171429D01*
X102387584Y-95171429D02*
X102235203Y-95133333D01*
X102235203Y-95133333D02*
X102159013Y-95057143D01*
X102159013Y-95057143D02*
X102120918Y-94980952D01*
X102120918Y-94409524D02*
X102120918Y-93952381D01*
X102920918Y-94180953D02*
X102120918Y-94180953D01*
X102120918Y-93533333D02*
X102120918Y-93457143D01*
X102120918Y-93457143D02*
X102159013Y-93380952D01*
X102159013Y-93380952D02*
X102197108Y-93342857D01*
X102197108Y-93342857D02*
X102273299Y-93304762D01*
X102273299Y-93304762D02*
X102425680Y-93266667D01*
X102425680Y-93266667D02*
X102616156Y-93266667D01*
X102616156Y-93266667D02*
X102768537Y-93304762D01*
X102768537Y-93304762D02*
X102844727Y-93342857D01*
X102844727Y-93342857D02*
X102882823Y-93380952D01*
X102882823Y-93380952D02*
X102920918Y-93457143D01*
X102920918Y-93457143D02*
X102920918Y-93533333D01*
X102920918Y-93533333D02*
X102882823Y-93609524D01*
X102882823Y-93609524D02*
X102844727Y-93647619D01*
X102844727Y-93647619D02*
X102768537Y-93685714D01*
X102768537Y-93685714D02*
X102616156Y-93723810D01*
X102616156Y-93723810D02*
X102425680Y-93723810D01*
X102425680Y-93723810D02*
X102273299Y-93685714D01*
X102273299Y-93685714D02*
X102197108Y-93647619D01*
X102197108Y-93647619D02*
X102159013Y-93609524D01*
X102159013Y-93609524D02*
X102120918Y-93533333D01*
X102920918Y-92314285D02*
X102120918Y-92314285D01*
X102501870Y-92314285D02*
X102501870Y-91857142D01*
X102920918Y-91857142D02*
X102120918Y-91857142D01*
X102920918Y-91476190D02*
X102387584Y-91476190D01*
X102120918Y-91476190D02*
X102159013Y-91514286D01*
X102159013Y-91514286D02*
X102197108Y-91476190D01*
X102197108Y-91476190D02*
X102159013Y-91438095D01*
X102159013Y-91438095D02*
X102120918Y-91476190D01*
X102120918Y-91476190D02*
X102197108Y-91476190D01*
X102387584Y-90752381D02*
X103035203Y-90752381D01*
X103035203Y-90752381D02*
X103111394Y-90790476D01*
X103111394Y-90790476D02*
X103149489Y-90828572D01*
X103149489Y-90828572D02*
X103187584Y-90904762D01*
X103187584Y-90904762D02*
X103187584Y-91019048D01*
X103187584Y-91019048D02*
X103149489Y-91095238D01*
X102882823Y-90752381D02*
X102920918Y-90828572D01*
X102920918Y-90828572D02*
X102920918Y-90980953D01*
X102920918Y-90980953D02*
X102882823Y-91057143D01*
X102882823Y-91057143D02*
X102844727Y-91095238D01*
X102844727Y-91095238D02*
X102768537Y-91133334D01*
X102768537Y-91133334D02*
X102539965Y-91133334D01*
X102539965Y-91133334D02*
X102463775Y-91095238D01*
X102463775Y-91095238D02*
X102425680Y-91057143D01*
X102425680Y-91057143D02*
X102387584Y-90980953D01*
X102387584Y-90980953D02*
X102387584Y-90828572D01*
X102387584Y-90828572D02*
X102425680Y-90752381D01*
X102920918Y-90371428D02*
X102120918Y-90371428D01*
X102920918Y-90028571D02*
X102501870Y-90028571D01*
X102501870Y-90028571D02*
X102425680Y-90066666D01*
X102425680Y-90066666D02*
X102387584Y-90142857D01*
X102387584Y-90142857D02*
X102387584Y-90257143D01*
X102387584Y-90257143D02*
X102425680Y-90333333D01*
X102425680Y-90333333D02*
X102463775Y-90371428D01*
X103408873Y-95133333D02*
X103980301Y-95133333D01*
X103980301Y-95133333D02*
X104094587Y-95171428D01*
X104094587Y-95171428D02*
X104170778Y-95247619D01*
X104170778Y-95247619D02*
X104208873Y-95361904D01*
X104208873Y-95361904D02*
X104208873Y-95438095D01*
X103675539Y-94409523D02*
X104208873Y-94409523D01*
X103675539Y-94752380D02*
X104094587Y-94752380D01*
X104094587Y-94752380D02*
X104170778Y-94714285D01*
X104170778Y-94714285D02*
X104208873Y-94638095D01*
X104208873Y-94638095D02*
X104208873Y-94523809D01*
X104208873Y-94523809D02*
X104170778Y-94447618D01*
X104170778Y-94447618D02*
X104132682Y-94409523D01*
X104208873Y-94028570D02*
X103675539Y-94028570D01*
X103751730Y-94028570D02*
X103713635Y-93990475D01*
X103713635Y-93990475D02*
X103675539Y-93914285D01*
X103675539Y-93914285D02*
X103675539Y-93799999D01*
X103675539Y-93799999D02*
X103713635Y-93723808D01*
X103713635Y-93723808D02*
X103789825Y-93685713D01*
X103789825Y-93685713D02*
X104208873Y-93685713D01*
X103789825Y-93685713D02*
X103713635Y-93647618D01*
X103713635Y-93647618D02*
X103675539Y-93571427D01*
X103675539Y-93571427D02*
X103675539Y-93457142D01*
X103675539Y-93457142D02*
X103713635Y-93380951D01*
X103713635Y-93380951D02*
X103789825Y-93342856D01*
X103789825Y-93342856D02*
X104208873Y-93342856D01*
X103675539Y-92961903D02*
X104475539Y-92961903D01*
X103713635Y-92961903D02*
X103675539Y-92885713D01*
X103675539Y-92885713D02*
X103675539Y-92733332D01*
X103675539Y-92733332D02*
X103713635Y-92657141D01*
X103713635Y-92657141D02*
X103751730Y-92619046D01*
X103751730Y-92619046D02*
X103827920Y-92580951D01*
X103827920Y-92580951D02*
X104056492Y-92580951D01*
X104056492Y-92580951D02*
X104132682Y-92619046D01*
X104132682Y-92619046D02*
X104170778Y-92657141D01*
X104170778Y-92657141D02*
X104208873Y-92733332D01*
X104208873Y-92733332D02*
X104208873Y-92885713D01*
X104208873Y-92885713D02*
X104170778Y-92961903D01*
X104170778Y-91933331D02*
X104208873Y-92009522D01*
X104208873Y-92009522D02*
X104208873Y-92161903D01*
X104208873Y-92161903D02*
X104170778Y-92238093D01*
X104170778Y-92238093D02*
X104094587Y-92276189D01*
X104094587Y-92276189D02*
X103789825Y-92276189D01*
X103789825Y-92276189D02*
X103713635Y-92238093D01*
X103713635Y-92238093D02*
X103675539Y-92161903D01*
X103675539Y-92161903D02*
X103675539Y-92009522D01*
X103675539Y-92009522D02*
X103713635Y-91933331D01*
X103713635Y-91933331D02*
X103789825Y-91895236D01*
X103789825Y-91895236D02*
X103866016Y-91895236D01*
X103866016Y-91895236D02*
X103942206Y-92276189D01*
X104208873Y-91552379D02*
X103675539Y-91552379D01*
X103827920Y-91552379D02*
X103751730Y-91514284D01*
X103751730Y-91514284D02*
X103713635Y-91476189D01*
X103713635Y-91476189D02*
X103675539Y-91399998D01*
X103675539Y-91399998D02*
X103675539Y-91323808D01*
X114770918Y-100557142D02*
X113970918Y-100557142D01*
X113970918Y-100557142D02*
X113970918Y-100252380D01*
X113970918Y-100252380D02*
X114009013Y-100176190D01*
X114009013Y-100176190D02*
X114047108Y-100138095D01*
X114047108Y-100138095D02*
X114123299Y-100099999D01*
X114123299Y-100099999D02*
X114237584Y-100099999D01*
X114237584Y-100099999D02*
X114313775Y-100138095D01*
X114313775Y-100138095D02*
X114351870Y-100176190D01*
X114351870Y-100176190D02*
X114389965Y-100252380D01*
X114389965Y-100252380D02*
X114389965Y-100557142D01*
X113970918Y-99833333D02*
X114770918Y-99642857D01*
X114770918Y-99642857D02*
X114199489Y-99490476D01*
X114199489Y-99490476D02*
X114770918Y-99338095D01*
X114770918Y-99338095D02*
X113970918Y-99147619D01*
X114770918Y-98385713D02*
X114389965Y-98652380D01*
X114770918Y-98842856D02*
X113970918Y-98842856D01*
X113970918Y-98842856D02*
X113970918Y-98538094D01*
X113970918Y-98538094D02*
X114009013Y-98461904D01*
X114009013Y-98461904D02*
X114047108Y-98423809D01*
X114047108Y-98423809D02*
X114123299Y-98385713D01*
X114123299Y-98385713D02*
X114237584Y-98385713D01*
X114237584Y-98385713D02*
X114313775Y-98423809D01*
X114313775Y-98423809D02*
X114351870Y-98461904D01*
X114351870Y-98461904D02*
X114389965Y-98538094D01*
X114389965Y-98538094D02*
X114389965Y-98842856D01*
X114770918Y-97052380D02*
X114770918Y-97433332D01*
X114770918Y-97433332D02*
X113970918Y-97433332D01*
X114351870Y-96785713D02*
X114351870Y-96519047D01*
X114770918Y-96404761D02*
X114770918Y-96785713D01*
X114770918Y-96785713D02*
X113970918Y-96785713D01*
X113970918Y-96785713D02*
X113970918Y-96404761D01*
X114770918Y-96061903D02*
X113970918Y-96061903D01*
X113970918Y-96061903D02*
X113970918Y-95871427D01*
X113970918Y-95871427D02*
X114009013Y-95757141D01*
X114009013Y-95757141D02*
X114085203Y-95680951D01*
X114085203Y-95680951D02*
X114161394Y-95642856D01*
X114161394Y-95642856D02*
X114313775Y-95604760D01*
X114313775Y-95604760D02*
X114428061Y-95604760D01*
X114428061Y-95604760D02*
X114580442Y-95642856D01*
X114580442Y-95642856D02*
X114656632Y-95680951D01*
X114656632Y-95680951D02*
X114732823Y-95757141D01*
X114732823Y-95757141D02*
X114770918Y-95871427D01*
X114770918Y-95871427D02*
X114770918Y-96061903D01*
X115258873Y-99833333D02*
X115830301Y-99833333D01*
X115830301Y-99833333D02*
X115944587Y-99871428D01*
X115944587Y-99871428D02*
X116020778Y-99947619D01*
X116020778Y-99947619D02*
X116058873Y-100061904D01*
X116058873Y-100061904D02*
X116058873Y-100138095D01*
X115525539Y-99109523D02*
X116058873Y-99109523D01*
X115525539Y-99452380D02*
X115944587Y-99452380D01*
X115944587Y-99452380D02*
X116020778Y-99414285D01*
X116020778Y-99414285D02*
X116058873Y-99338095D01*
X116058873Y-99338095D02*
X116058873Y-99223809D01*
X116058873Y-99223809D02*
X116020778Y-99147618D01*
X116020778Y-99147618D02*
X115982682Y-99109523D01*
X116058873Y-98728570D02*
X115525539Y-98728570D01*
X115601730Y-98728570D02*
X115563635Y-98690475D01*
X115563635Y-98690475D02*
X115525539Y-98614285D01*
X115525539Y-98614285D02*
X115525539Y-98499999D01*
X115525539Y-98499999D02*
X115563635Y-98423808D01*
X115563635Y-98423808D02*
X115639825Y-98385713D01*
X115639825Y-98385713D02*
X116058873Y-98385713D01*
X115639825Y-98385713D02*
X115563635Y-98347618D01*
X115563635Y-98347618D02*
X115525539Y-98271427D01*
X115525539Y-98271427D02*
X115525539Y-98157142D01*
X115525539Y-98157142D02*
X115563635Y-98080951D01*
X115563635Y-98080951D02*
X115639825Y-98042856D01*
X115639825Y-98042856D02*
X116058873Y-98042856D01*
X115525539Y-97661903D02*
X116325539Y-97661903D01*
X115563635Y-97661903D02*
X115525539Y-97585713D01*
X115525539Y-97585713D02*
X115525539Y-97433332D01*
X115525539Y-97433332D02*
X115563635Y-97357141D01*
X115563635Y-97357141D02*
X115601730Y-97319046D01*
X115601730Y-97319046D02*
X115677920Y-97280951D01*
X115677920Y-97280951D02*
X115906492Y-97280951D01*
X115906492Y-97280951D02*
X115982682Y-97319046D01*
X115982682Y-97319046D02*
X116020778Y-97357141D01*
X116020778Y-97357141D02*
X116058873Y-97433332D01*
X116058873Y-97433332D02*
X116058873Y-97585713D01*
X116058873Y-97585713D02*
X116020778Y-97661903D01*
X116020778Y-96633331D02*
X116058873Y-96709522D01*
X116058873Y-96709522D02*
X116058873Y-96861903D01*
X116058873Y-96861903D02*
X116020778Y-96938093D01*
X116020778Y-96938093D02*
X115944587Y-96976189D01*
X115944587Y-96976189D02*
X115639825Y-96976189D01*
X115639825Y-96976189D02*
X115563635Y-96938093D01*
X115563635Y-96938093D02*
X115525539Y-96861903D01*
X115525539Y-96861903D02*
X115525539Y-96709522D01*
X115525539Y-96709522D02*
X115563635Y-96633331D01*
X115563635Y-96633331D02*
X115639825Y-96595236D01*
X115639825Y-96595236D02*
X115716016Y-96595236D01*
X115716016Y-96595236D02*
X115792206Y-96976189D01*
X116058873Y-96252379D02*
X115525539Y-96252379D01*
X115677920Y-96252379D02*
X115601730Y-96214284D01*
X115601730Y-96214284D02*
X115563635Y-96176189D01*
X115563635Y-96176189D02*
X115525539Y-96099998D01*
X115525539Y-96099998D02*
X115525539Y-96023808D01*
D11*
X146502632Y-72778328D02*
X146502632Y-71278328D01*
X146502632Y-71278328D02*
X147074061Y-71278328D01*
X147074061Y-71278328D02*
X147216918Y-71349757D01*
X147216918Y-71349757D02*
X147288347Y-71421185D01*
X147288347Y-71421185D02*
X147359775Y-71564042D01*
X147359775Y-71564042D02*
X147359775Y-71778328D01*
X147359775Y-71778328D02*
X147288347Y-71921185D01*
X147288347Y-71921185D02*
X147216918Y-71992614D01*
X147216918Y-71992614D02*
X147074061Y-72064042D01*
X147074061Y-72064042D02*
X146502632Y-72064042D01*
X148502632Y-71992614D02*
X148716918Y-72064042D01*
X148716918Y-72064042D02*
X148788347Y-72135471D01*
X148788347Y-72135471D02*
X148859775Y-72278328D01*
X148859775Y-72278328D02*
X148859775Y-72492614D01*
X148859775Y-72492614D02*
X148788347Y-72635471D01*
X148788347Y-72635471D02*
X148716918Y-72706900D01*
X148716918Y-72706900D02*
X148574061Y-72778328D01*
X148574061Y-72778328D02*
X148002632Y-72778328D01*
X148002632Y-72778328D02*
X148002632Y-71278328D01*
X148002632Y-71278328D02*
X148502632Y-71278328D01*
X148502632Y-71278328D02*
X148645490Y-71349757D01*
X148645490Y-71349757D02*
X148716918Y-71421185D01*
X148716918Y-71421185D02*
X148788347Y-71564042D01*
X148788347Y-71564042D02*
X148788347Y-71706900D01*
X148788347Y-71706900D02*
X148716918Y-71849757D01*
X148716918Y-71849757D02*
X148645490Y-71921185D01*
X148645490Y-71921185D02*
X148502632Y-71992614D01*
X148502632Y-71992614D02*
X148002632Y-71992614D01*
X150288347Y-72778328D02*
X149431204Y-72778328D01*
X149859775Y-72778328D02*
X149859775Y-71278328D01*
X149859775Y-71278328D02*
X149716918Y-71492614D01*
X149716918Y-71492614D02*
X149574061Y-71635471D01*
X149574061Y-71635471D02*
X149431204Y-71706900D01*
X150788346Y-71278328D02*
X151716918Y-71278328D01*
X151716918Y-71278328D02*
X151216918Y-71849757D01*
X151216918Y-71849757D02*
X151431203Y-71849757D01*
X151431203Y-71849757D02*
X151574061Y-71921185D01*
X151574061Y-71921185D02*
X151645489Y-71992614D01*
X151645489Y-71992614D02*
X151716918Y-72135471D01*
X151716918Y-72135471D02*
X151716918Y-72492614D01*
X151716918Y-72492614D02*
X151645489Y-72635471D01*
X151645489Y-72635471D02*
X151574061Y-72706900D01*
X151574061Y-72706900D02*
X151431203Y-72778328D01*
X151431203Y-72778328D02*
X151002632Y-72778328D01*
X151002632Y-72778328D02*
X150859775Y-72706900D01*
X150859775Y-72706900D02*
X150788346Y-72635471D01*
X146502632Y-70278328D02*
X146502632Y-68778328D01*
X146502632Y-68778328D02*
X147074061Y-68778328D01*
X147074061Y-68778328D02*
X147216918Y-68849757D01*
X147216918Y-68849757D02*
X147288347Y-68921185D01*
X147288347Y-68921185D02*
X147359775Y-69064042D01*
X147359775Y-69064042D02*
X147359775Y-69278328D01*
X147359775Y-69278328D02*
X147288347Y-69421185D01*
X147288347Y-69421185D02*
X147216918Y-69492614D01*
X147216918Y-69492614D02*
X147074061Y-69564042D01*
X147074061Y-69564042D02*
X146502632Y-69564042D01*
X148502632Y-69492614D02*
X148716918Y-69564042D01*
X148716918Y-69564042D02*
X148788347Y-69635471D01*
X148788347Y-69635471D02*
X148859775Y-69778328D01*
X148859775Y-69778328D02*
X148859775Y-69992614D01*
X148859775Y-69992614D02*
X148788347Y-70135471D01*
X148788347Y-70135471D02*
X148716918Y-70206900D01*
X148716918Y-70206900D02*
X148574061Y-70278328D01*
X148574061Y-70278328D02*
X148002632Y-70278328D01*
X148002632Y-70278328D02*
X148002632Y-68778328D01*
X148002632Y-68778328D02*
X148502632Y-68778328D01*
X148502632Y-68778328D02*
X148645490Y-68849757D01*
X148645490Y-68849757D02*
X148716918Y-68921185D01*
X148716918Y-68921185D02*
X148788347Y-69064042D01*
X148788347Y-69064042D02*
X148788347Y-69206900D01*
X148788347Y-69206900D02*
X148716918Y-69349757D01*
X148716918Y-69349757D02*
X148645490Y-69421185D01*
X148645490Y-69421185D02*
X148502632Y-69492614D01*
X148502632Y-69492614D02*
X148002632Y-69492614D01*
X150288347Y-70278328D02*
X149431204Y-70278328D01*
X149859775Y-70278328D02*
X149859775Y-68778328D01*
X149859775Y-68778328D02*
X149716918Y-68992614D01*
X149716918Y-68992614D02*
X149574061Y-69135471D01*
X149574061Y-69135471D02*
X149431204Y-69206900D01*
X151574061Y-69278328D02*
X151574061Y-70278328D01*
X151216918Y-68706900D02*
X150859775Y-69778328D01*
X150859775Y-69778328D02*
X151788346Y-69778328D01*
D12*
X124788095Y-108239819D02*
X125359523Y-108239819D01*
X125073809Y-109239819D02*
X125073809Y-108239819D01*
X125597619Y-108239819D02*
X126264285Y-109239819D01*
X126264285Y-108239819D02*
X125597619Y-109239819D01*
X126742856Y-100659580D02*
X126695237Y-100707200D01*
X126695237Y-100707200D02*
X126552380Y-100754819D01*
X126552380Y-100754819D02*
X126457142Y-100754819D01*
X126457142Y-100754819D02*
X126314285Y-100707200D01*
X126314285Y-100707200D02*
X126219047Y-100611961D01*
X126219047Y-100611961D02*
X126171428Y-100516723D01*
X126171428Y-100516723D02*
X126123809Y-100326247D01*
X126123809Y-100326247D02*
X126123809Y-100183390D01*
X126123809Y-100183390D02*
X126171428Y-99992914D01*
X126171428Y-99992914D02*
X126219047Y-99897676D01*
X126219047Y-99897676D02*
X126314285Y-99802438D01*
X126314285Y-99802438D02*
X126457142Y-99754819D01*
X126457142Y-99754819D02*
X126552380Y-99754819D01*
X126552380Y-99754819D02*
X126695237Y-99802438D01*
X126695237Y-99802438D02*
X126742856Y-99850057D01*
X127314285Y-100754819D02*
X127219047Y-100707200D01*
X127219047Y-100707200D02*
X127171428Y-100659580D01*
X127171428Y-100659580D02*
X127123809Y-100564342D01*
X127123809Y-100564342D02*
X127123809Y-100278628D01*
X127123809Y-100278628D02*
X127171428Y-100183390D01*
X127171428Y-100183390D02*
X127219047Y-100135771D01*
X127219047Y-100135771D02*
X127314285Y-100088152D01*
X127314285Y-100088152D02*
X127457142Y-100088152D01*
X127457142Y-100088152D02*
X127552380Y-100135771D01*
X127552380Y-100135771D02*
X127599999Y-100183390D01*
X127599999Y-100183390D02*
X127647618Y-100278628D01*
X127647618Y-100278628D02*
X127647618Y-100564342D01*
X127647618Y-100564342D02*
X127599999Y-100659580D01*
X127599999Y-100659580D02*
X127552380Y-100707200D01*
X127552380Y-100707200D02*
X127457142Y-100754819D01*
X127457142Y-100754819D02*
X127314285Y-100754819D01*
X127933333Y-100088152D02*
X128314285Y-100088152D01*
X128076190Y-99754819D02*
X128076190Y-100611961D01*
X128076190Y-100611961D02*
X128123809Y-100707200D01*
X128123809Y-100707200D02*
X128219047Y-100754819D01*
X128219047Y-100754819D02*
X128314285Y-100754819D01*
X128504762Y-100088152D02*
X128885714Y-100088152D01*
X128647619Y-99754819D02*
X128647619Y-100611961D01*
X128647619Y-100611961D02*
X128695238Y-100707200D01*
X128695238Y-100707200D02*
X128790476Y-100754819D01*
X128790476Y-100754819D02*
X128885714Y-100754819D01*
X129361905Y-100754819D02*
X129266667Y-100707200D01*
X129266667Y-100707200D02*
X129219048Y-100659580D01*
X129219048Y-100659580D02*
X129171429Y-100564342D01*
X129171429Y-100564342D02*
X129171429Y-100278628D01*
X129171429Y-100278628D02*
X129219048Y-100183390D01*
X129219048Y-100183390D02*
X129266667Y-100135771D01*
X129266667Y-100135771D02*
X129361905Y-100088152D01*
X129361905Y-100088152D02*
X129504762Y-100088152D01*
X129504762Y-100088152D02*
X129600000Y-100135771D01*
X129600000Y-100135771D02*
X129647619Y-100183390D01*
X129647619Y-100183390D02*
X129695238Y-100278628D01*
X129695238Y-100278628D02*
X129695238Y-100564342D01*
X129695238Y-100564342D02*
X129647619Y-100659580D01*
X129647619Y-100659580D02*
X129600000Y-100707200D01*
X129600000Y-100707200D02*
X129504762Y-100754819D01*
X129504762Y-100754819D02*
X129361905Y-100754819D01*
X130123810Y-100088152D02*
X130123810Y-100754819D01*
X130123810Y-100183390D02*
X130171429Y-100135771D01*
X130171429Y-100135771D02*
X130266667Y-100088152D01*
X130266667Y-100088152D02*
X130409524Y-100088152D01*
X130409524Y-100088152D02*
X130504762Y-100135771D01*
X130504762Y-100135771D02*
X130552381Y-100231009D01*
X130552381Y-100231009D02*
X130552381Y-100754819D01*
X131600000Y-100659580D02*
X131552381Y-100707200D01*
X131552381Y-100707200D02*
X131409524Y-100754819D01*
X131409524Y-100754819D02*
X131314286Y-100754819D01*
X131314286Y-100754819D02*
X131171429Y-100707200D01*
X131171429Y-100707200D02*
X131076191Y-100611961D01*
X131076191Y-100611961D02*
X131028572Y-100516723D01*
X131028572Y-100516723D02*
X130980953Y-100326247D01*
X130980953Y-100326247D02*
X130980953Y-100183390D01*
X130980953Y-100183390D02*
X131028572Y-99992914D01*
X131028572Y-99992914D02*
X131076191Y-99897676D01*
X131076191Y-99897676D02*
X131171429Y-99802438D01*
X131171429Y-99802438D02*
X131314286Y-99754819D01*
X131314286Y-99754819D02*
X131409524Y-99754819D01*
X131409524Y-99754819D02*
X131552381Y-99802438D01*
X131552381Y-99802438D02*
X131600000Y-99850057D01*
X132457143Y-100754819D02*
X132457143Y-100231009D01*
X132457143Y-100231009D02*
X132409524Y-100135771D01*
X132409524Y-100135771D02*
X132314286Y-100088152D01*
X132314286Y-100088152D02*
X132123810Y-100088152D01*
X132123810Y-100088152D02*
X132028572Y-100135771D01*
X132457143Y-100707200D02*
X132361905Y-100754819D01*
X132361905Y-100754819D02*
X132123810Y-100754819D01*
X132123810Y-100754819D02*
X132028572Y-100707200D01*
X132028572Y-100707200D02*
X131980953Y-100611961D01*
X131980953Y-100611961D02*
X131980953Y-100516723D01*
X131980953Y-100516723D02*
X132028572Y-100421485D01*
X132028572Y-100421485D02*
X132123810Y-100373866D01*
X132123810Y-100373866D02*
X132361905Y-100373866D01*
X132361905Y-100373866D02*
X132457143Y-100326247D01*
X132933334Y-100088152D02*
X132933334Y-100754819D01*
X132933334Y-100183390D02*
X132980953Y-100135771D01*
X132980953Y-100135771D02*
X133076191Y-100088152D01*
X133076191Y-100088152D02*
X133219048Y-100088152D01*
X133219048Y-100088152D02*
X133314286Y-100135771D01*
X133314286Y-100135771D02*
X133361905Y-100231009D01*
X133361905Y-100231009D02*
X133361905Y-100754819D01*
X134266667Y-100754819D02*
X134266667Y-99754819D01*
X134266667Y-100707200D02*
X134171429Y-100754819D01*
X134171429Y-100754819D02*
X133980953Y-100754819D01*
X133980953Y-100754819D02*
X133885715Y-100707200D01*
X133885715Y-100707200D02*
X133838096Y-100659580D01*
X133838096Y-100659580D02*
X133790477Y-100564342D01*
X133790477Y-100564342D02*
X133790477Y-100278628D01*
X133790477Y-100278628D02*
X133838096Y-100183390D01*
X133838096Y-100183390D02*
X133885715Y-100135771D01*
X133885715Y-100135771D02*
X133980953Y-100088152D01*
X133980953Y-100088152D02*
X134171429Y-100088152D01*
X134171429Y-100088152D02*
X134266667Y-100135771D01*
X134647620Y-100088152D02*
X134885715Y-100754819D01*
X135123810Y-100088152D02*
X134885715Y-100754819D01*
X134885715Y-100754819D02*
X134790477Y-100992914D01*
X134790477Y-100992914D02*
X134742858Y-101040533D01*
X134742858Y-101040533D02*
X134647620Y-101088152D01*
D11*
X108354510Y-80428328D02*
X108354510Y-78928328D01*
X108354510Y-78928328D02*
X108925939Y-78928328D01*
X108925939Y-78928328D02*
X109068796Y-78999757D01*
X109068796Y-78999757D02*
X109140225Y-79071185D01*
X109140225Y-79071185D02*
X109211653Y-79214042D01*
X109211653Y-79214042D02*
X109211653Y-79428328D01*
X109211653Y-79428328D02*
X109140225Y-79571185D01*
X109140225Y-79571185D02*
X109068796Y-79642614D01*
X109068796Y-79642614D02*
X108925939Y-79714042D01*
X108925939Y-79714042D02*
X108354510Y-79714042D01*
X110354510Y-79642614D02*
X110568796Y-79714042D01*
X110568796Y-79714042D02*
X110640225Y-79785471D01*
X110640225Y-79785471D02*
X110711653Y-79928328D01*
X110711653Y-79928328D02*
X110711653Y-80142614D01*
X110711653Y-80142614D02*
X110640225Y-80285471D01*
X110640225Y-80285471D02*
X110568796Y-80356900D01*
X110568796Y-80356900D02*
X110425939Y-80428328D01*
X110425939Y-80428328D02*
X109854510Y-80428328D01*
X109854510Y-80428328D02*
X109854510Y-78928328D01*
X109854510Y-78928328D02*
X110354510Y-78928328D01*
X110354510Y-78928328D02*
X110497368Y-78999757D01*
X110497368Y-78999757D02*
X110568796Y-79071185D01*
X110568796Y-79071185D02*
X110640225Y-79214042D01*
X110640225Y-79214042D02*
X110640225Y-79356900D01*
X110640225Y-79356900D02*
X110568796Y-79499757D01*
X110568796Y-79499757D02*
X110497368Y-79571185D01*
X110497368Y-79571185D02*
X110354510Y-79642614D01*
X110354510Y-79642614D02*
X109854510Y-79642614D01*
X111425939Y-80428328D02*
X111711653Y-80428328D01*
X111711653Y-80428328D02*
X111854510Y-80356900D01*
X111854510Y-80356900D02*
X111925939Y-80285471D01*
X111925939Y-80285471D02*
X112068796Y-80071185D01*
X112068796Y-80071185D02*
X112140225Y-79785471D01*
X112140225Y-79785471D02*
X112140225Y-79214042D01*
X112140225Y-79214042D02*
X112068796Y-79071185D01*
X112068796Y-79071185D02*
X111997368Y-78999757D01*
X111997368Y-78999757D02*
X111854510Y-78928328D01*
X111854510Y-78928328D02*
X111568796Y-78928328D01*
X111568796Y-78928328D02*
X111425939Y-78999757D01*
X111425939Y-78999757D02*
X111354510Y-79071185D01*
X111354510Y-79071185D02*
X111283082Y-79214042D01*
X111283082Y-79214042D02*
X111283082Y-79571185D01*
X111283082Y-79571185D02*
X111354510Y-79714042D01*
X111354510Y-79714042D02*
X111425939Y-79785471D01*
X111425939Y-79785471D02*
X111568796Y-79856900D01*
X111568796Y-79856900D02*
X111854510Y-79856900D01*
X111854510Y-79856900D02*
X111997368Y-79785471D01*
X111997368Y-79785471D02*
X112068796Y-79714042D01*
X112068796Y-79714042D02*
X112140225Y-79571185D01*
D12*
X115460588Y-108217438D02*
X115365350Y-108169819D01*
X115365350Y-108169819D02*
X115222493Y-108169819D01*
X115222493Y-108169819D02*
X115079636Y-108217438D01*
X115079636Y-108217438D02*
X114984398Y-108312676D01*
X114984398Y-108312676D02*
X114936779Y-108407914D01*
X114936779Y-108407914D02*
X114889160Y-108598390D01*
X114889160Y-108598390D02*
X114889160Y-108741247D01*
X114889160Y-108741247D02*
X114936779Y-108931723D01*
X114936779Y-108931723D02*
X114984398Y-109026961D01*
X114984398Y-109026961D02*
X115079636Y-109122200D01*
X115079636Y-109122200D02*
X115222493Y-109169819D01*
X115222493Y-109169819D02*
X115317731Y-109169819D01*
X115317731Y-109169819D02*
X115460588Y-109122200D01*
X115460588Y-109122200D02*
X115508207Y-109074580D01*
X115508207Y-109074580D02*
X115508207Y-108741247D01*
X115508207Y-108741247D02*
X115317731Y-108741247D01*
X115936779Y-109169819D02*
X115936779Y-108169819D01*
X115936779Y-108169819D02*
X116508207Y-109169819D01*
X116508207Y-109169819D02*
X116508207Y-108169819D01*
X116984398Y-109169819D02*
X116984398Y-108169819D01*
X116984398Y-108169819D02*
X117222493Y-108169819D01*
X117222493Y-108169819D02*
X117365350Y-108217438D01*
X117365350Y-108217438D02*
X117460588Y-108312676D01*
X117460588Y-108312676D02*
X117508207Y-108407914D01*
X117508207Y-108407914D02*
X117555826Y-108598390D01*
X117555826Y-108598390D02*
X117555826Y-108741247D01*
X117555826Y-108741247D02*
X117508207Y-108931723D01*
X117508207Y-108931723D02*
X117460588Y-109026961D01*
X117460588Y-109026961D02*
X117365350Y-109122200D01*
X117365350Y-109122200D02*
X117222493Y-109169819D01*
X117222493Y-109169819D02*
X116984398Y-109169819D01*
D11*
X146502632Y-75328328D02*
X146502632Y-73828328D01*
X146502632Y-73828328D02*
X147074061Y-73828328D01*
X147074061Y-73828328D02*
X147216918Y-73899757D01*
X147216918Y-73899757D02*
X147288347Y-73971185D01*
X147288347Y-73971185D02*
X147359775Y-74114042D01*
X147359775Y-74114042D02*
X147359775Y-74328328D01*
X147359775Y-74328328D02*
X147288347Y-74471185D01*
X147288347Y-74471185D02*
X147216918Y-74542614D01*
X147216918Y-74542614D02*
X147074061Y-74614042D01*
X147074061Y-74614042D02*
X146502632Y-74614042D01*
X148502632Y-74542614D02*
X148716918Y-74614042D01*
X148716918Y-74614042D02*
X148788347Y-74685471D01*
X148788347Y-74685471D02*
X148859775Y-74828328D01*
X148859775Y-74828328D02*
X148859775Y-75042614D01*
X148859775Y-75042614D02*
X148788347Y-75185471D01*
X148788347Y-75185471D02*
X148716918Y-75256900D01*
X148716918Y-75256900D02*
X148574061Y-75328328D01*
X148574061Y-75328328D02*
X148002632Y-75328328D01*
X148002632Y-75328328D02*
X148002632Y-73828328D01*
X148002632Y-73828328D02*
X148502632Y-73828328D01*
X148502632Y-73828328D02*
X148645490Y-73899757D01*
X148645490Y-73899757D02*
X148716918Y-73971185D01*
X148716918Y-73971185D02*
X148788347Y-74114042D01*
X148788347Y-74114042D02*
X148788347Y-74256900D01*
X148788347Y-74256900D02*
X148716918Y-74399757D01*
X148716918Y-74399757D02*
X148645490Y-74471185D01*
X148645490Y-74471185D02*
X148502632Y-74542614D01*
X148502632Y-74542614D02*
X148002632Y-74542614D01*
X150288347Y-75328328D02*
X149431204Y-75328328D01*
X149859775Y-75328328D02*
X149859775Y-73828328D01*
X149859775Y-73828328D02*
X149716918Y-74042614D01*
X149716918Y-74042614D02*
X149574061Y-74185471D01*
X149574061Y-74185471D02*
X149431204Y-74256900D01*
X150859775Y-73971185D02*
X150931203Y-73899757D01*
X150931203Y-73899757D02*
X151074061Y-73828328D01*
X151074061Y-73828328D02*
X151431203Y-73828328D01*
X151431203Y-73828328D02*
X151574061Y-73899757D01*
X151574061Y-73899757D02*
X151645489Y-73971185D01*
X151645489Y-73971185D02*
X151716918Y-74114042D01*
X151716918Y-74114042D02*
X151716918Y-74256900D01*
X151716918Y-74256900D02*
X151645489Y-74471185D01*
X151645489Y-74471185D02*
X150788346Y-75328328D01*
X150788346Y-75328328D02*
X151716918Y-75328328D01*
X148145489Y-93128328D02*
X148145489Y-91628328D01*
X148145489Y-91628328D02*
X148716918Y-91628328D01*
X148716918Y-91628328D02*
X148859775Y-91699757D01*
X148859775Y-91699757D02*
X148931204Y-91771185D01*
X148931204Y-91771185D02*
X149002632Y-91914042D01*
X149002632Y-91914042D02*
X149002632Y-92128328D01*
X149002632Y-92128328D02*
X148931204Y-92271185D01*
X148931204Y-92271185D02*
X148859775Y-92342614D01*
X148859775Y-92342614D02*
X148716918Y-92414042D01*
X148716918Y-92414042D02*
X148145489Y-92414042D01*
X149574061Y-92699757D02*
X150288347Y-92699757D01*
X149431204Y-93128328D02*
X149931204Y-91628328D01*
X149931204Y-91628328D02*
X150431204Y-93128328D01*
X151574061Y-91628328D02*
X151288346Y-91628328D01*
X151288346Y-91628328D02*
X151145489Y-91699757D01*
X151145489Y-91699757D02*
X151074061Y-91771185D01*
X151074061Y-91771185D02*
X150931203Y-91985471D01*
X150931203Y-91985471D02*
X150859775Y-92271185D01*
X150859775Y-92271185D02*
X150859775Y-92842614D01*
X150859775Y-92842614D02*
X150931203Y-92985471D01*
X150931203Y-92985471D02*
X151002632Y-93056900D01*
X151002632Y-93056900D02*
X151145489Y-93128328D01*
X151145489Y-93128328D02*
X151431203Y-93128328D01*
X151431203Y-93128328D02*
X151574061Y-93056900D01*
X151574061Y-93056900D02*
X151645489Y-92985471D01*
X151645489Y-92985471D02*
X151716918Y-92842614D01*
X151716918Y-92842614D02*
X151716918Y-92485471D01*
X151716918Y-92485471D02*
X151645489Y-92342614D01*
X151645489Y-92342614D02*
X151574061Y-92271185D01*
X151574061Y-92271185D02*
X151431203Y-92199757D01*
X151431203Y-92199757D02*
X151145489Y-92199757D01*
X151145489Y-92199757D02*
X151002632Y-92271185D01*
X151002632Y-92271185D02*
X150931203Y-92342614D01*
X150931203Y-92342614D02*
X150859775Y-92485471D01*
X141359775Y-94178328D02*
X141359775Y-95392614D01*
X141359775Y-95392614D02*
X141431204Y-95535471D01*
X141431204Y-95535471D02*
X141502633Y-95606900D01*
X141502633Y-95606900D02*
X141645490Y-95678328D01*
X141645490Y-95678328D02*
X141931204Y-95678328D01*
X141931204Y-95678328D02*
X142074061Y-95606900D01*
X142074061Y-95606900D02*
X142145490Y-95535471D01*
X142145490Y-95535471D02*
X142216918Y-95392614D01*
X142216918Y-95392614D02*
X142216918Y-94178328D01*
X142859776Y-95249757D02*
X143574062Y-95249757D01*
X142716919Y-95678328D02*
X143216919Y-94178328D01*
X143216919Y-94178328D02*
X143716919Y-95678328D01*
X145074061Y-95678328D02*
X144574061Y-94964042D01*
X144216918Y-95678328D02*
X144216918Y-94178328D01*
X144216918Y-94178328D02*
X144788347Y-94178328D01*
X144788347Y-94178328D02*
X144931204Y-94249757D01*
X144931204Y-94249757D02*
X145002633Y-94321185D01*
X145002633Y-94321185D02*
X145074061Y-94464042D01*
X145074061Y-94464042D02*
X145074061Y-94678328D01*
X145074061Y-94678328D02*
X145002633Y-94821185D01*
X145002633Y-94821185D02*
X144931204Y-94892614D01*
X144931204Y-94892614D02*
X144788347Y-94964042D01*
X144788347Y-94964042D02*
X144216918Y-94964042D01*
X145502633Y-94178328D02*
X146359776Y-94178328D01*
X145931204Y-95678328D02*
X145931204Y-94178328D01*
X147645490Y-95678328D02*
X146788347Y-95678328D01*
X147216918Y-95678328D02*
X147216918Y-94178328D01*
X147216918Y-94178328D02*
X147074061Y-94392614D01*
X147074061Y-94392614D02*
X146931204Y-94535471D01*
X146931204Y-94535471D02*
X146788347Y-94606900D01*
X147931204Y-95821185D02*
X149074061Y-95821185D01*
X150288346Y-95678328D02*
X149788346Y-94964042D01*
X149431203Y-95678328D02*
X149431203Y-94178328D01*
X149431203Y-94178328D02*
X150002632Y-94178328D01*
X150002632Y-94178328D02*
X150145489Y-94249757D01*
X150145489Y-94249757D02*
X150216918Y-94321185D01*
X150216918Y-94321185D02*
X150288346Y-94464042D01*
X150288346Y-94464042D02*
X150288346Y-94678328D01*
X150288346Y-94678328D02*
X150216918Y-94821185D01*
X150216918Y-94821185D02*
X150145489Y-94892614D01*
X150145489Y-94892614D02*
X150002632Y-94964042D01*
X150002632Y-94964042D02*
X149431203Y-94964042D01*
X150788346Y-94178328D02*
X151788346Y-95678328D01*
X151788346Y-94178328D02*
X150788346Y-95678328D01*
D12*
X134830952Y-109189819D02*
X134497619Y-108713628D01*
X134259524Y-109189819D02*
X134259524Y-108189819D01*
X134259524Y-108189819D02*
X134640476Y-108189819D01*
X134640476Y-108189819D02*
X134735714Y-108237438D01*
X134735714Y-108237438D02*
X134783333Y-108285057D01*
X134783333Y-108285057D02*
X134830952Y-108380295D01*
X134830952Y-108380295D02*
X134830952Y-108523152D01*
X134830952Y-108523152D02*
X134783333Y-108618390D01*
X134783333Y-108618390D02*
X134735714Y-108666009D01*
X134735714Y-108666009D02*
X134640476Y-108713628D01*
X134640476Y-108713628D02*
X134259524Y-108713628D01*
X135259524Y-109189819D02*
X135259524Y-108189819D01*
X135259524Y-108189819D02*
X135497619Y-108189819D01*
X135497619Y-108189819D02*
X135640476Y-108237438D01*
X135640476Y-108237438D02*
X135735714Y-108332676D01*
X135735714Y-108332676D02*
X135783333Y-108427914D01*
X135783333Y-108427914D02*
X135830952Y-108618390D01*
X135830952Y-108618390D02*
X135830952Y-108761247D01*
X135830952Y-108761247D02*
X135783333Y-108951723D01*
X135783333Y-108951723D02*
X135735714Y-109046961D01*
X135735714Y-109046961D02*
X135640476Y-109142200D01*
X135640476Y-109142200D02*
X135497619Y-109189819D01*
X135497619Y-109189819D02*
X135259524Y-109189819D01*
X136450000Y-108713628D02*
X136450000Y-109189819D01*
X136116667Y-108189819D02*
X136450000Y-108713628D01*
X136450000Y-108713628D02*
X136783333Y-108189819D01*
D11*
X108354510Y-70228328D02*
X108354510Y-68728328D01*
X108354510Y-68728328D02*
X108925939Y-68728328D01*
X108925939Y-68728328D02*
X109068796Y-68799757D01*
X109068796Y-68799757D02*
X109140225Y-68871185D01*
X109140225Y-68871185D02*
X109211653Y-69014042D01*
X109211653Y-69014042D02*
X109211653Y-69228328D01*
X109211653Y-69228328D02*
X109140225Y-69371185D01*
X109140225Y-69371185D02*
X109068796Y-69442614D01*
X109068796Y-69442614D02*
X108925939Y-69514042D01*
X108925939Y-69514042D02*
X108354510Y-69514042D01*
X109783082Y-69799757D02*
X110497368Y-69799757D01*
X109640225Y-70228328D02*
X110140225Y-68728328D01*
X110140225Y-68728328D02*
X110640225Y-70228328D01*
X111925939Y-70228328D02*
X111068796Y-70228328D01*
X111497367Y-70228328D02*
X111497367Y-68728328D01*
X111497367Y-68728328D02*
X111354510Y-68942614D01*
X111354510Y-68942614D02*
X111211653Y-69085471D01*
X111211653Y-69085471D02*
X111068796Y-69156900D01*
X113283081Y-68728328D02*
X112568795Y-68728328D01*
X112568795Y-68728328D02*
X112497367Y-69442614D01*
X112497367Y-69442614D02*
X112568795Y-69371185D01*
X112568795Y-69371185D02*
X112711653Y-69299757D01*
X112711653Y-69299757D02*
X113068795Y-69299757D01*
X113068795Y-69299757D02*
X113211653Y-69371185D01*
X113211653Y-69371185D02*
X113283081Y-69442614D01*
X113283081Y-69442614D02*
X113354510Y-69585471D01*
X113354510Y-69585471D02*
X113354510Y-69942614D01*
X113354510Y-69942614D02*
X113283081Y-70085471D01*
X113283081Y-70085471D02*
X113211653Y-70156900D01*
X113211653Y-70156900D02*
X113068795Y-70228328D01*
X113068795Y-70228328D02*
X112711653Y-70228328D01*
X112711653Y-70228328D02*
X112568795Y-70156900D01*
X112568795Y-70156900D02*
X112497367Y-70085471D01*
X147931203Y-85478328D02*
X147931203Y-83978328D01*
X147931203Y-83978328D02*
X148502632Y-83978328D01*
X148502632Y-83978328D02*
X148645489Y-84049757D01*
X148645489Y-84049757D02*
X148716918Y-84121185D01*
X148716918Y-84121185D02*
X148788346Y-84264042D01*
X148788346Y-84264042D02*
X148788346Y-84478328D01*
X148788346Y-84478328D02*
X148716918Y-84621185D01*
X148716918Y-84621185D02*
X148645489Y-84692614D01*
X148645489Y-84692614D02*
X148502632Y-84764042D01*
X148502632Y-84764042D02*
X147931203Y-84764042D01*
X149931203Y-84692614D02*
X150145489Y-84764042D01*
X150145489Y-84764042D02*
X150216918Y-84835471D01*
X150216918Y-84835471D02*
X150288346Y-84978328D01*
X150288346Y-84978328D02*
X150288346Y-85192614D01*
X150288346Y-85192614D02*
X150216918Y-85335471D01*
X150216918Y-85335471D02*
X150145489Y-85406900D01*
X150145489Y-85406900D02*
X150002632Y-85478328D01*
X150002632Y-85478328D02*
X149431203Y-85478328D01*
X149431203Y-85478328D02*
X149431203Y-83978328D01*
X149431203Y-83978328D02*
X149931203Y-83978328D01*
X149931203Y-83978328D02*
X150074061Y-84049757D01*
X150074061Y-84049757D02*
X150145489Y-84121185D01*
X150145489Y-84121185D02*
X150216918Y-84264042D01*
X150216918Y-84264042D02*
X150216918Y-84406900D01*
X150216918Y-84406900D02*
X150145489Y-84549757D01*
X150145489Y-84549757D02*
X150074061Y-84621185D01*
X150074061Y-84621185D02*
X149931203Y-84692614D01*
X149931203Y-84692614D02*
X149431203Y-84692614D01*
X151716918Y-85478328D02*
X150859775Y-85478328D01*
X151288346Y-85478328D02*
X151288346Y-83978328D01*
X151288346Y-83978328D02*
X151145489Y-84192614D01*
X151145489Y-84192614D02*
X151002632Y-84335471D01*
X151002632Y-84335471D02*
X150859775Y-84406900D01*
X108354510Y-85628328D02*
X108354510Y-84128328D01*
X108354510Y-84128328D02*
X108925939Y-84128328D01*
X108925939Y-84128328D02*
X109068796Y-84199757D01*
X109068796Y-84199757D02*
X109140225Y-84271185D01*
X109140225Y-84271185D02*
X109211653Y-84414042D01*
X109211653Y-84414042D02*
X109211653Y-84628328D01*
X109211653Y-84628328D02*
X109140225Y-84771185D01*
X109140225Y-84771185D02*
X109068796Y-84842614D01*
X109068796Y-84842614D02*
X108925939Y-84914042D01*
X108925939Y-84914042D02*
X108354510Y-84914042D01*
X109783082Y-85199757D02*
X110497368Y-85199757D01*
X109640225Y-85628328D02*
X110140225Y-84128328D01*
X110140225Y-84128328D02*
X110640225Y-85628328D01*
X111925939Y-85628328D02*
X111068796Y-85628328D01*
X111497367Y-85628328D02*
X111497367Y-84128328D01*
X111497367Y-84128328D02*
X111354510Y-84342614D01*
X111354510Y-84342614D02*
X111211653Y-84485471D01*
X111211653Y-84485471D02*
X111068796Y-84556900D01*
X109140225Y-63749757D02*
X108997368Y-63678328D01*
X108997368Y-63678328D02*
X108783082Y-63678328D01*
X108783082Y-63678328D02*
X108568796Y-63749757D01*
X108568796Y-63749757D02*
X108425939Y-63892614D01*
X108425939Y-63892614D02*
X108354510Y-64035471D01*
X108354510Y-64035471D02*
X108283082Y-64321185D01*
X108283082Y-64321185D02*
X108283082Y-64535471D01*
X108283082Y-64535471D02*
X108354510Y-64821185D01*
X108354510Y-64821185D02*
X108425939Y-64964042D01*
X108425939Y-64964042D02*
X108568796Y-65106900D01*
X108568796Y-65106900D02*
X108783082Y-65178328D01*
X108783082Y-65178328D02*
X108925939Y-65178328D01*
X108925939Y-65178328D02*
X109140225Y-65106900D01*
X109140225Y-65106900D02*
X109211653Y-65035471D01*
X109211653Y-65035471D02*
X109211653Y-64535471D01*
X109211653Y-64535471D02*
X108925939Y-64535471D01*
X109854510Y-65178328D02*
X109854510Y-63678328D01*
X109854510Y-63678328D02*
X110711653Y-65178328D01*
X110711653Y-65178328D02*
X110711653Y-63678328D01*
X111425939Y-65178328D02*
X111425939Y-63678328D01*
X111425939Y-63678328D02*
X111783082Y-63678328D01*
X111783082Y-63678328D02*
X111997368Y-63749757D01*
X111997368Y-63749757D02*
X112140225Y-63892614D01*
X112140225Y-63892614D02*
X112211654Y-64035471D01*
X112211654Y-64035471D02*
X112283082Y-64321185D01*
X112283082Y-64321185D02*
X112283082Y-64535471D01*
X112283082Y-64535471D02*
X112211654Y-64821185D01*
X112211654Y-64821185D02*
X112140225Y-64964042D01*
X112140225Y-64964042D02*
X111997368Y-65106900D01*
X111997368Y-65106900D02*
X111783082Y-65178328D01*
X111783082Y-65178328D02*
X111425939Y-65178328D01*
X108354510Y-75328328D02*
X108354510Y-73828328D01*
X108354510Y-73828328D02*
X108925939Y-73828328D01*
X108925939Y-73828328D02*
X109068796Y-73899757D01*
X109068796Y-73899757D02*
X109140225Y-73971185D01*
X109140225Y-73971185D02*
X109211653Y-74114042D01*
X109211653Y-74114042D02*
X109211653Y-74328328D01*
X109211653Y-74328328D02*
X109140225Y-74471185D01*
X109140225Y-74471185D02*
X109068796Y-74542614D01*
X109068796Y-74542614D02*
X108925939Y-74614042D01*
X108925939Y-74614042D02*
X108354510Y-74614042D01*
X109783082Y-74899757D02*
X110497368Y-74899757D01*
X109640225Y-75328328D02*
X110140225Y-73828328D01*
X110140225Y-73828328D02*
X110640225Y-75328328D01*
X111925939Y-75328328D02*
X111068796Y-75328328D01*
X111497367Y-75328328D02*
X111497367Y-73828328D01*
X111497367Y-73828328D02*
X111354510Y-74042614D01*
X111354510Y-74042614D02*
X111211653Y-74185471D01*
X111211653Y-74185471D02*
X111068796Y-74256900D01*
X113354510Y-75328328D02*
X112497367Y-75328328D01*
X112925938Y-75328328D02*
X112925938Y-73828328D01*
X112925938Y-73828328D02*
X112783081Y-74042614D01*
X112783081Y-74042614D02*
X112640224Y-74185471D01*
X112640224Y-74185471D02*
X112497367Y-74256900D01*
D12*
X118941541Y-108169819D02*
X119560588Y-108169819D01*
X119560588Y-108169819D02*
X119227255Y-108550771D01*
X119227255Y-108550771D02*
X119370112Y-108550771D01*
X119370112Y-108550771D02*
X119465350Y-108598390D01*
X119465350Y-108598390D02*
X119512969Y-108646009D01*
X119512969Y-108646009D02*
X119560588Y-108741247D01*
X119560588Y-108741247D02*
X119560588Y-108979342D01*
X119560588Y-108979342D02*
X119512969Y-109074580D01*
X119512969Y-109074580D02*
X119465350Y-109122200D01*
X119465350Y-109122200D02*
X119370112Y-109169819D01*
X119370112Y-109169819D02*
X119084398Y-109169819D01*
X119084398Y-109169819D02*
X118989160Y-109122200D01*
X118989160Y-109122200D02*
X118941541Y-109074580D01*
X119846303Y-108169819D02*
X120179636Y-109169819D01*
X120179636Y-109169819D02*
X120512969Y-108169819D01*
X120751065Y-108169819D02*
X121370112Y-108169819D01*
X121370112Y-108169819D02*
X121036779Y-108550771D01*
X121036779Y-108550771D02*
X121179636Y-108550771D01*
X121179636Y-108550771D02*
X121274874Y-108598390D01*
X121274874Y-108598390D02*
X121322493Y-108646009D01*
X121322493Y-108646009D02*
X121370112Y-108741247D01*
X121370112Y-108741247D02*
X121370112Y-108979342D01*
X121370112Y-108979342D02*
X121322493Y-109074580D01*
X121322493Y-109074580D02*
X121274874Y-109122200D01*
X121274874Y-109122200D02*
X121179636Y-109169819D01*
X121179636Y-109169819D02*
X120893922Y-109169819D01*
X120893922Y-109169819D02*
X120798684Y-109122200D01*
X120798684Y-109122200D02*
X120751065Y-109074580D01*
D11*
X108354510Y-67728328D02*
X108354510Y-66228328D01*
X108354510Y-66228328D02*
X108925939Y-66228328D01*
X108925939Y-66228328D02*
X109068796Y-66299757D01*
X109068796Y-66299757D02*
X109140225Y-66371185D01*
X109140225Y-66371185D02*
X109211653Y-66514042D01*
X109211653Y-66514042D02*
X109211653Y-66728328D01*
X109211653Y-66728328D02*
X109140225Y-66871185D01*
X109140225Y-66871185D02*
X109068796Y-66942614D01*
X109068796Y-66942614D02*
X108925939Y-67014042D01*
X108925939Y-67014042D02*
X108354510Y-67014042D01*
X110354510Y-66942614D02*
X110568796Y-67014042D01*
X110568796Y-67014042D02*
X110640225Y-67085471D01*
X110640225Y-67085471D02*
X110711653Y-67228328D01*
X110711653Y-67228328D02*
X110711653Y-67442614D01*
X110711653Y-67442614D02*
X110640225Y-67585471D01*
X110640225Y-67585471D02*
X110568796Y-67656900D01*
X110568796Y-67656900D02*
X110425939Y-67728328D01*
X110425939Y-67728328D02*
X109854510Y-67728328D01*
X109854510Y-67728328D02*
X109854510Y-66228328D01*
X109854510Y-66228328D02*
X110354510Y-66228328D01*
X110354510Y-66228328D02*
X110497368Y-66299757D01*
X110497368Y-66299757D02*
X110568796Y-66371185D01*
X110568796Y-66371185D02*
X110640225Y-66514042D01*
X110640225Y-66514042D02*
X110640225Y-66656900D01*
X110640225Y-66656900D02*
X110568796Y-66799757D01*
X110568796Y-66799757D02*
X110497368Y-66871185D01*
X110497368Y-66871185D02*
X110354510Y-66942614D01*
X110354510Y-66942614D02*
X109854510Y-66942614D01*
X111997368Y-66728328D02*
X111997368Y-67728328D01*
X111640225Y-66156900D02*
X111283082Y-67228328D01*
X111283082Y-67228328D02*
X112211653Y-67228328D01*
X108211653Y-61098328D02*
X109140225Y-61098328D01*
X109140225Y-61098328D02*
X108640225Y-61669757D01*
X108640225Y-61669757D02*
X108854510Y-61669757D01*
X108854510Y-61669757D02*
X108997368Y-61741185D01*
X108997368Y-61741185D02*
X109068796Y-61812614D01*
X109068796Y-61812614D02*
X109140225Y-61955471D01*
X109140225Y-61955471D02*
X109140225Y-62312614D01*
X109140225Y-62312614D02*
X109068796Y-62455471D01*
X109068796Y-62455471D02*
X108997368Y-62526900D01*
X108997368Y-62526900D02*
X108854510Y-62598328D01*
X108854510Y-62598328D02*
X108425939Y-62598328D01*
X108425939Y-62598328D02*
X108283082Y-62526900D01*
X108283082Y-62526900D02*
X108211653Y-62455471D01*
X109568796Y-61098328D02*
X110068796Y-62598328D01*
X110068796Y-62598328D02*
X110568796Y-61098328D01*
X110925938Y-61098328D02*
X111854510Y-61098328D01*
X111854510Y-61098328D02*
X111354510Y-61669757D01*
X111354510Y-61669757D02*
X111568795Y-61669757D01*
X111568795Y-61669757D02*
X111711653Y-61741185D01*
X111711653Y-61741185D02*
X111783081Y-61812614D01*
X111783081Y-61812614D02*
X111854510Y-61955471D01*
X111854510Y-61955471D02*
X111854510Y-62312614D01*
X111854510Y-62312614D02*
X111783081Y-62455471D01*
X111783081Y-62455471D02*
X111711653Y-62526900D01*
X111711653Y-62526900D02*
X111568795Y-62598328D01*
X111568795Y-62598328D02*
X111140224Y-62598328D01*
X111140224Y-62598328D02*
X110997367Y-62526900D01*
X110997367Y-62526900D02*
X110925938Y-62455471D01*
D12*
X128133333Y-109189819D02*
X127800000Y-108713628D01*
X127561905Y-109189819D02*
X127561905Y-108189819D01*
X127561905Y-108189819D02*
X127942857Y-108189819D01*
X127942857Y-108189819D02*
X128038095Y-108237438D01*
X128038095Y-108237438D02*
X128085714Y-108285057D01*
X128085714Y-108285057D02*
X128133333Y-108380295D01*
X128133333Y-108380295D02*
X128133333Y-108523152D01*
X128133333Y-108523152D02*
X128085714Y-108618390D01*
X128085714Y-108618390D02*
X128038095Y-108666009D01*
X128038095Y-108666009D02*
X127942857Y-108713628D01*
X127942857Y-108713628D02*
X127561905Y-108713628D01*
X128466667Y-108189819D02*
X129133333Y-109189819D01*
X129133333Y-108189819D02*
X128466667Y-109189819D01*
X130219048Y-108189819D02*
X130457143Y-109189819D01*
X130457143Y-109189819D02*
X130647619Y-108475533D01*
X130647619Y-108475533D02*
X130838095Y-109189819D01*
X130838095Y-109189819D02*
X131076191Y-108189819D01*
X131457143Y-109189819D02*
X131457143Y-108189819D01*
X132028571Y-109189819D02*
X131600000Y-108618390D01*
X132028571Y-108189819D02*
X131457143Y-108761247D01*
X132457143Y-108666009D02*
X132790476Y-108666009D01*
X132933333Y-109189819D02*
X132457143Y-109189819D01*
X132457143Y-109189819D02*
X132457143Y-108189819D01*
X132457143Y-108189819D02*
X132933333Y-108189819D01*
D11*
X108354510Y-82978328D02*
X108354510Y-81478328D01*
X108354510Y-81478328D02*
X108925939Y-81478328D01*
X108925939Y-81478328D02*
X109068796Y-81549757D01*
X109068796Y-81549757D02*
X109140225Y-81621185D01*
X109140225Y-81621185D02*
X109211653Y-81764042D01*
X109211653Y-81764042D02*
X109211653Y-81978328D01*
X109211653Y-81978328D02*
X109140225Y-82121185D01*
X109140225Y-82121185D02*
X109068796Y-82192614D01*
X109068796Y-82192614D02*
X108925939Y-82264042D01*
X108925939Y-82264042D02*
X108354510Y-82264042D01*
X109783082Y-82549757D02*
X110497368Y-82549757D01*
X109640225Y-82978328D02*
X110140225Y-81478328D01*
X110140225Y-81478328D02*
X110640225Y-82978328D01*
X111354510Y-82121185D02*
X111211653Y-82049757D01*
X111211653Y-82049757D02*
X111140224Y-81978328D01*
X111140224Y-81978328D02*
X111068796Y-81835471D01*
X111068796Y-81835471D02*
X111068796Y-81764042D01*
X111068796Y-81764042D02*
X111140224Y-81621185D01*
X111140224Y-81621185D02*
X111211653Y-81549757D01*
X111211653Y-81549757D02*
X111354510Y-81478328D01*
X111354510Y-81478328D02*
X111640224Y-81478328D01*
X111640224Y-81478328D02*
X111783082Y-81549757D01*
X111783082Y-81549757D02*
X111854510Y-81621185D01*
X111854510Y-81621185D02*
X111925939Y-81764042D01*
X111925939Y-81764042D02*
X111925939Y-81835471D01*
X111925939Y-81835471D02*
X111854510Y-81978328D01*
X111854510Y-81978328D02*
X111783082Y-82049757D01*
X111783082Y-82049757D02*
X111640224Y-82121185D01*
X111640224Y-82121185D02*
X111354510Y-82121185D01*
X111354510Y-82121185D02*
X111211653Y-82192614D01*
X111211653Y-82192614D02*
X111140224Y-82264042D01*
X111140224Y-82264042D02*
X111068796Y-82406900D01*
X111068796Y-82406900D02*
X111068796Y-82692614D01*
X111068796Y-82692614D02*
X111140224Y-82835471D01*
X111140224Y-82835471D02*
X111211653Y-82906900D01*
X111211653Y-82906900D02*
X111354510Y-82978328D01*
X111354510Y-82978328D02*
X111640224Y-82978328D01*
X111640224Y-82978328D02*
X111783082Y-82906900D01*
X111783082Y-82906900D02*
X111854510Y-82835471D01*
X111854510Y-82835471D02*
X111925939Y-82692614D01*
X111925939Y-82692614D02*
X111925939Y-82406900D01*
X111925939Y-82406900D02*
X111854510Y-82264042D01*
X111854510Y-82264042D02*
X111783082Y-82192614D01*
X111783082Y-82192614D02*
X111640224Y-82121185D01*
X112250000Y-53420870D02*
X113107143Y-53420870D01*
X112678571Y-54920870D02*
X112678571Y-53420870D01*
X114178571Y-54849442D02*
X114035714Y-54920870D01*
X114035714Y-54920870D02*
X113750000Y-54920870D01*
X113750000Y-54920870D02*
X113607142Y-54849442D01*
X113607142Y-54849442D02*
X113535714Y-54706584D01*
X113535714Y-54706584D02*
X113535714Y-54135156D01*
X113535714Y-54135156D02*
X113607142Y-53992299D01*
X113607142Y-53992299D02*
X113750000Y-53920870D01*
X113750000Y-53920870D02*
X114035714Y-53920870D01*
X114035714Y-53920870D02*
X114178571Y-53992299D01*
X114178571Y-53992299D02*
X114250000Y-54135156D01*
X114250000Y-54135156D02*
X114250000Y-54278013D01*
X114250000Y-54278013D02*
X113535714Y-54420870D01*
X114892856Y-54920870D02*
X114892856Y-53920870D01*
X114892856Y-54063727D02*
X114964285Y-53992299D01*
X114964285Y-53992299D02*
X115107142Y-53920870D01*
X115107142Y-53920870D02*
X115321428Y-53920870D01*
X115321428Y-53920870D02*
X115464285Y-53992299D01*
X115464285Y-53992299D02*
X115535714Y-54135156D01*
X115535714Y-54135156D02*
X115535714Y-54920870D01*
X115535714Y-54135156D02*
X115607142Y-53992299D01*
X115607142Y-53992299D02*
X115749999Y-53920870D01*
X115749999Y-53920870D02*
X115964285Y-53920870D01*
X115964285Y-53920870D02*
X116107142Y-53992299D01*
X116107142Y-53992299D02*
X116178571Y-54135156D01*
X116178571Y-54135156D02*
X116178571Y-54920870D01*
X116892856Y-53920870D02*
X116892856Y-55420870D01*
X116892856Y-53992299D02*
X117035714Y-53920870D01*
X117035714Y-53920870D02*
X117321428Y-53920870D01*
X117321428Y-53920870D02*
X117464285Y-53992299D01*
X117464285Y-53992299D02*
X117535714Y-54063727D01*
X117535714Y-54063727D02*
X117607142Y-54206584D01*
X117607142Y-54206584D02*
X117607142Y-54635156D01*
X117607142Y-54635156D02*
X117535714Y-54778013D01*
X117535714Y-54778013D02*
X117464285Y-54849442D01*
X117464285Y-54849442D02*
X117321428Y-54920870D01*
X117321428Y-54920870D02*
X117035714Y-54920870D01*
X117035714Y-54920870D02*
X116892856Y-54849442D01*
X118321428Y-54849442D02*
X118321428Y-54920870D01*
X118321428Y-54920870D02*
X118249999Y-55063727D01*
X118249999Y-55063727D02*
X118178571Y-55135156D01*
X120107142Y-54920870D02*
X120107142Y-53420870D01*
X120107142Y-54135156D02*
X120964285Y-54135156D01*
X120964285Y-54920870D02*
X120964285Y-53420870D01*
X122321429Y-53920870D02*
X122321429Y-54920870D01*
X121678571Y-53920870D02*
X121678571Y-54706584D01*
X121678571Y-54706584D02*
X121750000Y-54849442D01*
X121750000Y-54849442D02*
X121892857Y-54920870D01*
X121892857Y-54920870D02*
X122107143Y-54920870D01*
X122107143Y-54920870D02*
X122250000Y-54849442D01*
X122250000Y-54849442D02*
X122321429Y-54778013D01*
X123035714Y-54920870D02*
X123035714Y-53920870D01*
X123035714Y-54063727D02*
X123107143Y-53992299D01*
X123107143Y-53992299D02*
X123250000Y-53920870D01*
X123250000Y-53920870D02*
X123464286Y-53920870D01*
X123464286Y-53920870D02*
X123607143Y-53992299D01*
X123607143Y-53992299D02*
X123678572Y-54135156D01*
X123678572Y-54135156D02*
X123678572Y-54920870D01*
X123678572Y-54135156D02*
X123750000Y-53992299D01*
X123750000Y-53992299D02*
X123892857Y-53920870D01*
X123892857Y-53920870D02*
X124107143Y-53920870D01*
X124107143Y-53920870D02*
X124250000Y-53992299D01*
X124250000Y-53992299D02*
X124321429Y-54135156D01*
X124321429Y-54135156D02*
X124321429Y-54920870D01*
X125035714Y-54920870D02*
X125035714Y-53920870D01*
X125035714Y-53420870D02*
X124964286Y-53492299D01*
X124964286Y-53492299D02*
X125035714Y-53563727D01*
X125035714Y-53563727D02*
X125107143Y-53492299D01*
X125107143Y-53492299D02*
X125035714Y-53420870D01*
X125035714Y-53420870D02*
X125035714Y-53563727D01*
X126392858Y-54920870D02*
X126392858Y-53420870D01*
X126392858Y-54849442D02*
X126250000Y-54920870D01*
X126250000Y-54920870D02*
X125964286Y-54920870D01*
X125964286Y-54920870D02*
X125821429Y-54849442D01*
X125821429Y-54849442D02*
X125750000Y-54778013D01*
X125750000Y-54778013D02*
X125678572Y-54635156D01*
X125678572Y-54635156D02*
X125678572Y-54206584D01*
X125678572Y-54206584D02*
X125750000Y-54063727D01*
X125750000Y-54063727D02*
X125821429Y-53992299D01*
X125821429Y-53992299D02*
X125964286Y-53920870D01*
X125964286Y-53920870D02*
X126250000Y-53920870D01*
X126250000Y-53920870D02*
X126392858Y-53992299D01*
X127107143Y-54920870D02*
X127107143Y-53920870D01*
X127107143Y-53420870D02*
X127035715Y-53492299D01*
X127035715Y-53492299D02*
X127107143Y-53563727D01*
X127107143Y-53563727D02*
X127178572Y-53492299D01*
X127178572Y-53492299D02*
X127107143Y-53420870D01*
X127107143Y-53420870D02*
X127107143Y-53563727D01*
X127607144Y-53920870D02*
X128178572Y-53920870D01*
X127821429Y-53420870D02*
X127821429Y-54706584D01*
X127821429Y-54706584D02*
X127892858Y-54849442D01*
X127892858Y-54849442D02*
X128035715Y-54920870D01*
X128035715Y-54920870D02*
X128178572Y-54920870D01*
X128535715Y-53920870D02*
X128892858Y-54920870D01*
X129250001Y-53920870D02*
X128892858Y-54920870D01*
X128892858Y-54920870D02*
X128750001Y-55278013D01*
X128750001Y-55278013D02*
X128678572Y-55349442D01*
X128678572Y-55349442D02*
X128535715Y-55420870D01*
X129892858Y-54849442D02*
X129892858Y-54920870D01*
X129892858Y-54920870D02*
X129821429Y-55063727D01*
X129821429Y-55063727D02*
X129750001Y-55135156D01*
X131678572Y-54920870D02*
X131678572Y-53420870D01*
X131678572Y-53420870D02*
X132250001Y-53420870D01*
X132250001Y-53420870D02*
X132392858Y-53492299D01*
X132392858Y-53492299D02*
X132464287Y-53563727D01*
X132464287Y-53563727D02*
X132535715Y-53706584D01*
X132535715Y-53706584D02*
X132535715Y-53920870D01*
X132535715Y-53920870D02*
X132464287Y-54063727D01*
X132464287Y-54063727D02*
X132392858Y-54135156D01*
X132392858Y-54135156D02*
X132250001Y-54206584D01*
X132250001Y-54206584D02*
X131678572Y-54206584D01*
X133178572Y-54920870D02*
X133178572Y-53920870D01*
X133178572Y-54206584D02*
X133250001Y-54063727D01*
X133250001Y-54063727D02*
X133321430Y-53992299D01*
X133321430Y-53992299D02*
X133464287Y-53920870D01*
X133464287Y-53920870D02*
X133607144Y-53920870D01*
X134678572Y-54849442D02*
X134535715Y-54920870D01*
X134535715Y-54920870D02*
X134250001Y-54920870D01*
X134250001Y-54920870D02*
X134107143Y-54849442D01*
X134107143Y-54849442D02*
X134035715Y-54706584D01*
X134035715Y-54706584D02*
X134035715Y-54135156D01*
X134035715Y-54135156D02*
X134107143Y-53992299D01*
X134107143Y-53992299D02*
X134250001Y-53920870D01*
X134250001Y-53920870D02*
X134535715Y-53920870D01*
X134535715Y-53920870D02*
X134678572Y-53992299D01*
X134678572Y-53992299D02*
X134750001Y-54135156D01*
X134750001Y-54135156D02*
X134750001Y-54278013D01*
X134750001Y-54278013D02*
X134035715Y-54420870D01*
X135321429Y-54849442D02*
X135464286Y-54920870D01*
X135464286Y-54920870D02*
X135750000Y-54920870D01*
X135750000Y-54920870D02*
X135892857Y-54849442D01*
X135892857Y-54849442D02*
X135964286Y-54706584D01*
X135964286Y-54706584D02*
X135964286Y-54635156D01*
X135964286Y-54635156D02*
X135892857Y-54492299D01*
X135892857Y-54492299D02*
X135750000Y-54420870D01*
X135750000Y-54420870D02*
X135535715Y-54420870D01*
X135535715Y-54420870D02*
X135392857Y-54349442D01*
X135392857Y-54349442D02*
X135321429Y-54206584D01*
X135321429Y-54206584D02*
X135321429Y-54135156D01*
X135321429Y-54135156D02*
X135392857Y-53992299D01*
X135392857Y-53992299D02*
X135535715Y-53920870D01*
X135535715Y-53920870D02*
X135750000Y-53920870D01*
X135750000Y-53920870D02*
X135892857Y-53992299D01*
X136535715Y-54849442D02*
X136678572Y-54920870D01*
X136678572Y-54920870D02*
X136964286Y-54920870D01*
X136964286Y-54920870D02*
X137107143Y-54849442D01*
X137107143Y-54849442D02*
X137178572Y-54706584D01*
X137178572Y-54706584D02*
X137178572Y-54635156D01*
X137178572Y-54635156D02*
X137107143Y-54492299D01*
X137107143Y-54492299D02*
X136964286Y-54420870D01*
X136964286Y-54420870D02*
X136750001Y-54420870D01*
X136750001Y-54420870D02*
X136607143Y-54349442D01*
X136607143Y-54349442D02*
X136535715Y-54206584D01*
X136535715Y-54206584D02*
X136535715Y-54135156D01*
X136535715Y-54135156D02*
X136607143Y-53992299D01*
X136607143Y-53992299D02*
X136750001Y-53920870D01*
X136750001Y-53920870D02*
X136964286Y-53920870D01*
X136964286Y-53920870D02*
X137107143Y-53992299D01*
X138464287Y-53920870D02*
X138464287Y-54920870D01*
X137821429Y-53920870D02*
X137821429Y-54706584D01*
X137821429Y-54706584D02*
X137892858Y-54849442D01*
X137892858Y-54849442D02*
X138035715Y-54920870D01*
X138035715Y-54920870D02*
X138250001Y-54920870D01*
X138250001Y-54920870D02*
X138392858Y-54849442D01*
X138392858Y-54849442D02*
X138464287Y-54778013D01*
X139178572Y-54920870D02*
X139178572Y-53920870D01*
X139178572Y-54206584D02*
X139250001Y-54063727D01*
X139250001Y-54063727D02*
X139321430Y-53992299D01*
X139321430Y-53992299D02*
X139464287Y-53920870D01*
X139464287Y-53920870D02*
X139607144Y-53920870D01*
X140678572Y-54849442D02*
X140535715Y-54920870D01*
X140535715Y-54920870D02*
X140250001Y-54920870D01*
X140250001Y-54920870D02*
X140107143Y-54849442D01*
X140107143Y-54849442D02*
X140035715Y-54706584D01*
X140035715Y-54706584D02*
X140035715Y-54135156D01*
X140035715Y-54135156D02*
X140107143Y-53992299D01*
X140107143Y-53992299D02*
X140250001Y-53920870D01*
X140250001Y-53920870D02*
X140535715Y-53920870D01*
X140535715Y-53920870D02*
X140678572Y-53992299D01*
X140678572Y-53992299D02*
X140750001Y-54135156D01*
X140750001Y-54135156D02*
X140750001Y-54278013D01*
X140750001Y-54278013D02*
X140035715Y-54420870D01*
X141464286Y-54849442D02*
X141464286Y-54920870D01*
X141464286Y-54920870D02*
X141392857Y-55063727D01*
X141392857Y-55063727D02*
X141321429Y-55135156D01*
X144107143Y-54778013D02*
X144035715Y-54849442D01*
X144035715Y-54849442D02*
X143821429Y-54920870D01*
X143821429Y-54920870D02*
X143678572Y-54920870D01*
X143678572Y-54920870D02*
X143464286Y-54849442D01*
X143464286Y-54849442D02*
X143321429Y-54706584D01*
X143321429Y-54706584D02*
X143250000Y-54563727D01*
X143250000Y-54563727D02*
X143178572Y-54278013D01*
X143178572Y-54278013D02*
X143178572Y-54063727D01*
X143178572Y-54063727D02*
X143250000Y-53778013D01*
X143250000Y-53778013D02*
X143321429Y-53635156D01*
X143321429Y-53635156D02*
X143464286Y-53492299D01*
X143464286Y-53492299D02*
X143678572Y-53420870D01*
X143678572Y-53420870D02*
X143821429Y-53420870D01*
X143821429Y-53420870D02*
X144035715Y-53492299D01*
X144035715Y-53492299D02*
X144107143Y-53563727D01*
X145035715Y-53420870D02*
X145321429Y-53420870D01*
X145321429Y-53420870D02*
X145464286Y-53492299D01*
X145464286Y-53492299D02*
X145607143Y-53635156D01*
X145607143Y-53635156D02*
X145678572Y-53920870D01*
X145678572Y-53920870D02*
X145678572Y-54420870D01*
X145678572Y-54420870D02*
X145607143Y-54706584D01*
X145607143Y-54706584D02*
X145464286Y-54849442D01*
X145464286Y-54849442D02*
X145321429Y-54920870D01*
X145321429Y-54920870D02*
X145035715Y-54920870D01*
X145035715Y-54920870D02*
X144892858Y-54849442D01*
X144892858Y-54849442D02*
X144750000Y-54706584D01*
X144750000Y-54706584D02*
X144678572Y-54420870D01*
X144678572Y-54420870D02*
X144678572Y-53920870D01*
X144678572Y-53920870D02*
X144750000Y-53635156D01*
X144750000Y-53635156D02*
X144892858Y-53492299D01*
X144892858Y-53492299D02*
X145035715Y-53420870D01*
X146250001Y-53563727D02*
X146321429Y-53492299D01*
X146321429Y-53492299D02*
X146464287Y-53420870D01*
X146464287Y-53420870D02*
X146821429Y-53420870D01*
X146821429Y-53420870D02*
X146964287Y-53492299D01*
X146964287Y-53492299D02*
X147035715Y-53563727D01*
X147035715Y-53563727D02*
X147107144Y-53706584D01*
X147107144Y-53706584D02*
X147107144Y-53849442D01*
X147107144Y-53849442D02*
X147035715Y-54063727D01*
X147035715Y-54063727D02*
X146178572Y-54920870D01*
X146178572Y-54920870D02*
X147107144Y-54920870D01*
X121750000Y-57264358D02*
X121964286Y-57335786D01*
X121964286Y-57335786D02*
X122321428Y-57335786D01*
X122321428Y-57335786D02*
X122464286Y-57264358D01*
X122464286Y-57264358D02*
X122535714Y-57192929D01*
X122535714Y-57192929D02*
X122607143Y-57050072D01*
X122607143Y-57050072D02*
X122607143Y-56907215D01*
X122607143Y-56907215D02*
X122535714Y-56764358D01*
X122535714Y-56764358D02*
X122464286Y-56692929D01*
X122464286Y-56692929D02*
X122321428Y-56621500D01*
X122321428Y-56621500D02*
X122035714Y-56550072D01*
X122035714Y-56550072D02*
X121892857Y-56478643D01*
X121892857Y-56478643D02*
X121821428Y-56407215D01*
X121821428Y-56407215D02*
X121750000Y-56264358D01*
X121750000Y-56264358D02*
X121750000Y-56121500D01*
X121750000Y-56121500D02*
X121821428Y-55978643D01*
X121821428Y-55978643D02*
X121892857Y-55907215D01*
X121892857Y-55907215D02*
X122035714Y-55835786D01*
X122035714Y-55835786D02*
X122392857Y-55835786D01*
X122392857Y-55835786D02*
X122607143Y-55907215D01*
X123821428Y-57264358D02*
X123678571Y-57335786D01*
X123678571Y-57335786D02*
X123392857Y-57335786D01*
X123392857Y-57335786D02*
X123249999Y-57264358D01*
X123249999Y-57264358D02*
X123178571Y-57121500D01*
X123178571Y-57121500D02*
X123178571Y-56550072D01*
X123178571Y-56550072D02*
X123249999Y-56407215D01*
X123249999Y-56407215D02*
X123392857Y-56335786D01*
X123392857Y-56335786D02*
X123678571Y-56335786D01*
X123678571Y-56335786D02*
X123821428Y-56407215D01*
X123821428Y-56407215D02*
X123892857Y-56550072D01*
X123892857Y-56550072D02*
X123892857Y-56692929D01*
X123892857Y-56692929D02*
X123178571Y-56835786D01*
X124535713Y-56335786D02*
X124535713Y-57335786D01*
X124535713Y-56478643D02*
X124607142Y-56407215D01*
X124607142Y-56407215D02*
X124749999Y-56335786D01*
X124749999Y-56335786D02*
X124964285Y-56335786D01*
X124964285Y-56335786D02*
X125107142Y-56407215D01*
X125107142Y-56407215D02*
X125178571Y-56550072D01*
X125178571Y-56550072D02*
X125178571Y-57335786D01*
X125821428Y-57264358D02*
X125964285Y-57335786D01*
X125964285Y-57335786D02*
X126249999Y-57335786D01*
X126249999Y-57335786D02*
X126392856Y-57264358D01*
X126392856Y-57264358D02*
X126464285Y-57121500D01*
X126464285Y-57121500D02*
X126464285Y-57050072D01*
X126464285Y-57050072D02*
X126392856Y-56907215D01*
X126392856Y-56907215D02*
X126249999Y-56835786D01*
X126249999Y-56835786D02*
X126035714Y-56835786D01*
X126035714Y-56835786D02*
X125892856Y-56764358D01*
X125892856Y-56764358D02*
X125821428Y-56621500D01*
X125821428Y-56621500D02*
X125821428Y-56550072D01*
X125821428Y-56550072D02*
X125892856Y-56407215D01*
X125892856Y-56407215D02*
X126035714Y-56335786D01*
X126035714Y-56335786D02*
X126249999Y-56335786D01*
X126249999Y-56335786D02*
X126392856Y-56407215D01*
X127321428Y-57335786D02*
X127178571Y-57264358D01*
X127178571Y-57264358D02*
X127107142Y-57192929D01*
X127107142Y-57192929D02*
X127035714Y-57050072D01*
X127035714Y-57050072D02*
X127035714Y-56621500D01*
X127035714Y-56621500D02*
X127107142Y-56478643D01*
X127107142Y-56478643D02*
X127178571Y-56407215D01*
X127178571Y-56407215D02*
X127321428Y-56335786D01*
X127321428Y-56335786D02*
X127535714Y-56335786D01*
X127535714Y-56335786D02*
X127678571Y-56407215D01*
X127678571Y-56407215D02*
X127750000Y-56478643D01*
X127750000Y-56478643D02*
X127821428Y-56621500D01*
X127821428Y-56621500D02*
X127821428Y-57050072D01*
X127821428Y-57050072D02*
X127750000Y-57192929D01*
X127750000Y-57192929D02*
X127678571Y-57264358D01*
X127678571Y-57264358D02*
X127535714Y-57335786D01*
X127535714Y-57335786D02*
X127321428Y-57335786D01*
X128464285Y-57335786D02*
X128464285Y-56335786D01*
X128464285Y-56621500D02*
X128535714Y-56478643D01*
X128535714Y-56478643D02*
X128607143Y-56407215D01*
X128607143Y-56407215D02*
X128750000Y-56335786D01*
X128750000Y-56335786D02*
X128892857Y-56335786D01*
X130535713Y-57335786D02*
X130535713Y-55835786D01*
X130535713Y-55835786D02*
X131035713Y-56907215D01*
X131035713Y-56907215D02*
X131535713Y-55835786D01*
X131535713Y-55835786D02*
X131535713Y-57335786D01*
X132464285Y-57335786D02*
X132321428Y-57264358D01*
X132321428Y-57264358D02*
X132249999Y-57192929D01*
X132249999Y-57192929D02*
X132178571Y-57050072D01*
X132178571Y-57050072D02*
X132178571Y-56621500D01*
X132178571Y-56621500D02*
X132249999Y-56478643D01*
X132249999Y-56478643D02*
X132321428Y-56407215D01*
X132321428Y-56407215D02*
X132464285Y-56335786D01*
X132464285Y-56335786D02*
X132678571Y-56335786D01*
X132678571Y-56335786D02*
X132821428Y-56407215D01*
X132821428Y-56407215D02*
X132892857Y-56478643D01*
X132892857Y-56478643D02*
X132964285Y-56621500D01*
X132964285Y-56621500D02*
X132964285Y-57050072D01*
X132964285Y-57050072D02*
X132892857Y-57192929D01*
X132892857Y-57192929D02*
X132821428Y-57264358D01*
X132821428Y-57264358D02*
X132678571Y-57335786D01*
X132678571Y-57335786D02*
X132464285Y-57335786D01*
X134250000Y-57335786D02*
X134250000Y-55835786D01*
X134250000Y-57264358D02*
X134107142Y-57335786D01*
X134107142Y-57335786D02*
X133821428Y-57335786D01*
X133821428Y-57335786D02*
X133678571Y-57264358D01*
X133678571Y-57264358D02*
X133607142Y-57192929D01*
X133607142Y-57192929D02*
X133535714Y-57050072D01*
X133535714Y-57050072D02*
X133535714Y-56621500D01*
X133535714Y-56621500D02*
X133607142Y-56478643D01*
X133607142Y-56478643D02*
X133678571Y-56407215D01*
X133678571Y-56407215D02*
X133821428Y-56335786D01*
X133821428Y-56335786D02*
X134107142Y-56335786D01*
X134107142Y-56335786D02*
X134250000Y-56407215D01*
X135607143Y-56335786D02*
X135607143Y-57335786D01*
X134964285Y-56335786D02*
X134964285Y-57121500D01*
X134964285Y-57121500D02*
X135035714Y-57264358D01*
X135035714Y-57264358D02*
X135178571Y-57335786D01*
X135178571Y-57335786D02*
X135392857Y-57335786D01*
X135392857Y-57335786D02*
X135535714Y-57264358D01*
X135535714Y-57264358D02*
X135607143Y-57192929D01*
X136535714Y-57335786D02*
X136392857Y-57264358D01*
X136392857Y-57264358D02*
X136321428Y-57121500D01*
X136321428Y-57121500D02*
X136321428Y-55835786D01*
X137678571Y-57264358D02*
X137535714Y-57335786D01*
X137535714Y-57335786D02*
X137250000Y-57335786D01*
X137250000Y-57335786D02*
X137107142Y-57264358D01*
X137107142Y-57264358D02*
X137035714Y-57121500D01*
X137035714Y-57121500D02*
X137035714Y-56550072D01*
X137035714Y-56550072D02*
X137107142Y-56407215D01*
X137107142Y-56407215D02*
X137250000Y-56335786D01*
X137250000Y-56335786D02*
X137535714Y-56335786D01*
X137535714Y-56335786D02*
X137678571Y-56407215D01*
X137678571Y-56407215D02*
X137750000Y-56550072D01*
X137750000Y-56550072D02*
X137750000Y-56692929D01*
X137750000Y-56692929D02*
X137035714Y-56835786D01*
X148024061Y-62506900D02*
X148238347Y-62578328D01*
X148238347Y-62578328D02*
X148595489Y-62578328D01*
X148595489Y-62578328D02*
X148738347Y-62506900D01*
X148738347Y-62506900D02*
X148809775Y-62435471D01*
X148809775Y-62435471D02*
X148881204Y-62292614D01*
X148881204Y-62292614D02*
X148881204Y-62149757D01*
X148881204Y-62149757D02*
X148809775Y-62006900D01*
X148809775Y-62006900D02*
X148738347Y-61935471D01*
X148738347Y-61935471D02*
X148595489Y-61864042D01*
X148595489Y-61864042D02*
X148309775Y-61792614D01*
X148309775Y-61792614D02*
X148166918Y-61721185D01*
X148166918Y-61721185D02*
X148095489Y-61649757D01*
X148095489Y-61649757D02*
X148024061Y-61506900D01*
X148024061Y-61506900D02*
X148024061Y-61364042D01*
X148024061Y-61364042D02*
X148095489Y-61221185D01*
X148095489Y-61221185D02*
X148166918Y-61149757D01*
X148166918Y-61149757D02*
X148309775Y-61078328D01*
X148309775Y-61078328D02*
X148666918Y-61078328D01*
X148666918Y-61078328D02*
X148881204Y-61149757D01*
X149524060Y-62578328D02*
X149524060Y-61078328D01*
X149524060Y-61078328D02*
X149881203Y-61078328D01*
X149881203Y-61078328D02*
X150095489Y-61149757D01*
X150095489Y-61149757D02*
X150238346Y-61292614D01*
X150238346Y-61292614D02*
X150309775Y-61435471D01*
X150309775Y-61435471D02*
X150381203Y-61721185D01*
X150381203Y-61721185D02*
X150381203Y-61935471D01*
X150381203Y-61935471D02*
X150309775Y-62221185D01*
X150309775Y-62221185D02*
X150238346Y-62364042D01*
X150238346Y-62364042D02*
X150095489Y-62506900D01*
X150095489Y-62506900D02*
X149881203Y-62578328D01*
X149881203Y-62578328D02*
X149524060Y-62578328D01*
X150952632Y-62149757D02*
X151666918Y-62149757D01*
X150809775Y-62578328D02*
X151309775Y-61078328D01*
X151309775Y-61078328D02*
X151809775Y-62578328D01*
X141716918Y-96678328D02*
X141716918Y-97892614D01*
X141716918Y-97892614D02*
X141788347Y-98035471D01*
X141788347Y-98035471D02*
X141859776Y-98106900D01*
X141859776Y-98106900D02*
X142002633Y-98178328D01*
X142002633Y-98178328D02*
X142288347Y-98178328D01*
X142288347Y-98178328D02*
X142431204Y-98106900D01*
X142431204Y-98106900D02*
X142502633Y-98035471D01*
X142502633Y-98035471D02*
X142574061Y-97892614D01*
X142574061Y-97892614D02*
X142574061Y-96678328D01*
X143216919Y-97749757D02*
X143931205Y-97749757D01*
X143074062Y-98178328D02*
X143574062Y-96678328D01*
X143574062Y-96678328D02*
X144074062Y-98178328D01*
X145431204Y-98178328D02*
X144931204Y-97464042D01*
X144574061Y-98178328D02*
X144574061Y-96678328D01*
X144574061Y-96678328D02*
X145145490Y-96678328D01*
X145145490Y-96678328D02*
X145288347Y-96749757D01*
X145288347Y-96749757D02*
X145359776Y-96821185D01*
X145359776Y-96821185D02*
X145431204Y-96964042D01*
X145431204Y-96964042D02*
X145431204Y-97178328D01*
X145431204Y-97178328D02*
X145359776Y-97321185D01*
X145359776Y-97321185D02*
X145288347Y-97392614D01*
X145288347Y-97392614D02*
X145145490Y-97464042D01*
X145145490Y-97464042D02*
X144574061Y-97464042D01*
X145859776Y-96678328D02*
X146716919Y-96678328D01*
X146288347Y-98178328D02*
X146288347Y-96678328D01*
X148002633Y-98178328D02*
X147145490Y-98178328D01*
X147574061Y-98178328D02*
X147574061Y-96678328D01*
X147574061Y-96678328D02*
X147431204Y-96892614D01*
X147431204Y-96892614D02*
X147288347Y-97035471D01*
X147288347Y-97035471D02*
X147145490Y-97106900D01*
X148288347Y-98321185D02*
X149431204Y-98321185D01*
X149574061Y-96678328D02*
X150431204Y-96678328D01*
X150002632Y-98178328D02*
X150002632Y-96678328D01*
X150788346Y-96678328D02*
X151788346Y-98178328D01*
X151788346Y-96678328D02*
X150788346Y-98178328D01*
X147931203Y-82978328D02*
X147931203Y-81478328D01*
X147931203Y-81478328D02*
X148502632Y-81478328D01*
X148502632Y-81478328D02*
X148645489Y-81549757D01*
X148645489Y-81549757D02*
X148716918Y-81621185D01*
X148716918Y-81621185D02*
X148788346Y-81764042D01*
X148788346Y-81764042D02*
X148788346Y-81978328D01*
X148788346Y-81978328D02*
X148716918Y-82121185D01*
X148716918Y-82121185D02*
X148645489Y-82192614D01*
X148645489Y-82192614D02*
X148502632Y-82264042D01*
X148502632Y-82264042D02*
X147931203Y-82264042D01*
X149931203Y-82192614D02*
X150145489Y-82264042D01*
X150145489Y-82264042D02*
X150216918Y-82335471D01*
X150216918Y-82335471D02*
X150288346Y-82478328D01*
X150288346Y-82478328D02*
X150288346Y-82692614D01*
X150288346Y-82692614D02*
X150216918Y-82835471D01*
X150216918Y-82835471D02*
X150145489Y-82906900D01*
X150145489Y-82906900D02*
X150002632Y-82978328D01*
X150002632Y-82978328D02*
X149431203Y-82978328D01*
X149431203Y-82978328D02*
X149431203Y-81478328D01*
X149431203Y-81478328D02*
X149931203Y-81478328D01*
X149931203Y-81478328D02*
X150074061Y-81549757D01*
X150074061Y-81549757D02*
X150145489Y-81621185D01*
X150145489Y-81621185D02*
X150216918Y-81764042D01*
X150216918Y-81764042D02*
X150216918Y-81906900D01*
X150216918Y-81906900D02*
X150145489Y-82049757D01*
X150145489Y-82049757D02*
X150074061Y-82121185D01*
X150074061Y-82121185D02*
X149931203Y-82192614D01*
X149931203Y-82192614D02*
X149431203Y-82192614D01*
X150859775Y-81621185D02*
X150931203Y-81549757D01*
X150931203Y-81549757D02*
X151074061Y-81478328D01*
X151074061Y-81478328D02*
X151431203Y-81478328D01*
X151431203Y-81478328D02*
X151574061Y-81549757D01*
X151574061Y-81549757D02*
X151645489Y-81621185D01*
X151645489Y-81621185D02*
X151716918Y-81764042D01*
X151716918Y-81764042D02*
X151716918Y-81906900D01*
X151716918Y-81906900D02*
X151645489Y-82121185D01*
X151645489Y-82121185D02*
X150788346Y-82978328D01*
X150788346Y-82978328D02*
X151716918Y-82978328D01*
D12*
X110293922Y-108169819D02*
X110627255Y-109169819D01*
X110627255Y-109169819D02*
X110960588Y-108169819D01*
X111627255Y-108646009D02*
X111770112Y-108693628D01*
X111770112Y-108693628D02*
X111817731Y-108741247D01*
X111817731Y-108741247D02*
X111865350Y-108836485D01*
X111865350Y-108836485D02*
X111865350Y-108979342D01*
X111865350Y-108979342D02*
X111817731Y-109074580D01*
X111817731Y-109074580D02*
X111770112Y-109122200D01*
X111770112Y-109122200D02*
X111674874Y-109169819D01*
X111674874Y-109169819D02*
X111293922Y-109169819D01*
X111293922Y-109169819D02*
X111293922Y-108169819D01*
X111293922Y-108169819D02*
X111627255Y-108169819D01*
X111627255Y-108169819D02*
X111722493Y-108217438D01*
X111722493Y-108217438D02*
X111770112Y-108265057D01*
X111770112Y-108265057D02*
X111817731Y-108360295D01*
X111817731Y-108360295D02*
X111817731Y-108455533D01*
X111817731Y-108455533D02*
X111770112Y-108550771D01*
X111770112Y-108550771D02*
X111722493Y-108598390D01*
X111722493Y-108598390D02*
X111627255Y-108646009D01*
X111627255Y-108646009D02*
X111293922Y-108646009D01*
X112246303Y-108884104D02*
X112722493Y-108884104D01*
X112151065Y-109169819D02*
X112484398Y-108169819D01*
X112484398Y-108169819D02*
X112817731Y-109169819D01*
X113008208Y-108169819D02*
X113579636Y-108169819D01*
X113293922Y-109169819D02*
X113293922Y-108169819D01*
D11*
X108354510Y-72778328D02*
X108354510Y-71278328D01*
X108354510Y-71278328D02*
X108925939Y-71278328D01*
X108925939Y-71278328D02*
X109068796Y-71349757D01*
X109068796Y-71349757D02*
X109140225Y-71421185D01*
X109140225Y-71421185D02*
X109211653Y-71564042D01*
X109211653Y-71564042D02*
X109211653Y-71778328D01*
X109211653Y-71778328D02*
X109140225Y-71921185D01*
X109140225Y-71921185D02*
X109068796Y-71992614D01*
X109068796Y-71992614D02*
X108925939Y-72064042D01*
X108925939Y-72064042D02*
X108354510Y-72064042D01*
X109783082Y-72349757D02*
X110497368Y-72349757D01*
X109640225Y-72778328D02*
X110140225Y-71278328D01*
X110140225Y-71278328D02*
X110640225Y-72778328D01*
X111925939Y-72778328D02*
X111068796Y-72778328D01*
X111497367Y-72778328D02*
X111497367Y-71278328D01*
X111497367Y-71278328D02*
X111354510Y-71492614D01*
X111354510Y-71492614D02*
X111211653Y-71635471D01*
X111211653Y-71635471D02*
X111068796Y-71706900D01*
X112497367Y-71421185D02*
X112568795Y-71349757D01*
X112568795Y-71349757D02*
X112711653Y-71278328D01*
X112711653Y-71278328D02*
X113068795Y-71278328D01*
X113068795Y-71278328D02*
X113211653Y-71349757D01*
X113211653Y-71349757D02*
X113283081Y-71421185D01*
X113283081Y-71421185D02*
X113354510Y-71564042D01*
X113354510Y-71564042D02*
X113354510Y-71706900D01*
X113354510Y-71706900D02*
X113283081Y-71921185D01*
X113283081Y-71921185D02*
X112425938Y-72778328D01*
X112425938Y-72778328D02*
X113354510Y-72778328D01*
X108354510Y-77878328D02*
X108354510Y-76378328D01*
X108354510Y-76378328D02*
X108925939Y-76378328D01*
X108925939Y-76378328D02*
X109068796Y-76449757D01*
X109068796Y-76449757D02*
X109140225Y-76521185D01*
X109140225Y-76521185D02*
X109211653Y-76664042D01*
X109211653Y-76664042D02*
X109211653Y-76878328D01*
X109211653Y-76878328D02*
X109140225Y-77021185D01*
X109140225Y-77021185D02*
X109068796Y-77092614D01*
X109068796Y-77092614D02*
X108925939Y-77164042D01*
X108925939Y-77164042D02*
X108354510Y-77164042D01*
X110354510Y-77092614D02*
X110568796Y-77164042D01*
X110568796Y-77164042D02*
X110640225Y-77235471D01*
X110640225Y-77235471D02*
X110711653Y-77378328D01*
X110711653Y-77378328D02*
X110711653Y-77592614D01*
X110711653Y-77592614D02*
X110640225Y-77735471D01*
X110640225Y-77735471D02*
X110568796Y-77806900D01*
X110568796Y-77806900D02*
X110425939Y-77878328D01*
X110425939Y-77878328D02*
X109854510Y-77878328D01*
X109854510Y-77878328D02*
X109854510Y-76378328D01*
X109854510Y-76378328D02*
X110354510Y-76378328D01*
X110354510Y-76378328D02*
X110497368Y-76449757D01*
X110497368Y-76449757D02*
X110568796Y-76521185D01*
X110568796Y-76521185D02*
X110640225Y-76664042D01*
X110640225Y-76664042D02*
X110640225Y-76806900D01*
X110640225Y-76806900D02*
X110568796Y-76949757D01*
X110568796Y-76949757D02*
X110497368Y-77021185D01*
X110497368Y-77021185D02*
X110354510Y-77092614D01*
X110354510Y-77092614D02*
X109854510Y-77092614D01*
X111568796Y-77021185D02*
X111425939Y-76949757D01*
X111425939Y-76949757D02*
X111354510Y-76878328D01*
X111354510Y-76878328D02*
X111283082Y-76735471D01*
X111283082Y-76735471D02*
X111283082Y-76664042D01*
X111283082Y-76664042D02*
X111354510Y-76521185D01*
X111354510Y-76521185D02*
X111425939Y-76449757D01*
X111425939Y-76449757D02*
X111568796Y-76378328D01*
X111568796Y-76378328D02*
X111854510Y-76378328D01*
X111854510Y-76378328D02*
X111997368Y-76449757D01*
X111997368Y-76449757D02*
X112068796Y-76521185D01*
X112068796Y-76521185D02*
X112140225Y-76664042D01*
X112140225Y-76664042D02*
X112140225Y-76735471D01*
X112140225Y-76735471D02*
X112068796Y-76878328D01*
X112068796Y-76878328D02*
X111997368Y-76949757D01*
X111997368Y-76949757D02*
X111854510Y-77021185D01*
X111854510Y-77021185D02*
X111568796Y-77021185D01*
X111568796Y-77021185D02*
X111425939Y-77092614D01*
X111425939Y-77092614D02*
X111354510Y-77164042D01*
X111354510Y-77164042D02*
X111283082Y-77306900D01*
X111283082Y-77306900D02*
X111283082Y-77592614D01*
X111283082Y-77592614D02*
X111354510Y-77735471D01*
X111354510Y-77735471D02*
X111425939Y-77806900D01*
X111425939Y-77806900D02*
X111568796Y-77878328D01*
X111568796Y-77878328D02*
X111854510Y-77878328D01*
X111854510Y-77878328D02*
X111997368Y-77806900D01*
X111997368Y-77806900D02*
X112068796Y-77735471D01*
X112068796Y-77735471D02*
X112140225Y-77592614D01*
X112140225Y-77592614D02*
X112140225Y-77306900D01*
X112140225Y-77306900D02*
X112068796Y-77164042D01*
X112068796Y-77164042D02*
X111997368Y-77092614D01*
X111997368Y-77092614D02*
X111854510Y-77021185D01*
X148145489Y-90578328D02*
X148145489Y-89078328D01*
X148145489Y-89078328D02*
X148716918Y-89078328D01*
X148716918Y-89078328D02*
X148859775Y-89149757D01*
X148859775Y-89149757D02*
X148931204Y-89221185D01*
X148931204Y-89221185D02*
X149002632Y-89364042D01*
X149002632Y-89364042D02*
X149002632Y-89578328D01*
X149002632Y-89578328D02*
X148931204Y-89721185D01*
X148931204Y-89721185D02*
X148859775Y-89792614D01*
X148859775Y-89792614D02*
X148716918Y-89864042D01*
X148716918Y-89864042D02*
X148145489Y-89864042D01*
X149574061Y-90149757D02*
X150288347Y-90149757D01*
X149431204Y-90578328D02*
X149931204Y-89078328D01*
X149931204Y-89078328D02*
X150431204Y-90578328D01*
X150788346Y-89078328D02*
X151788346Y-89078328D01*
X151788346Y-89078328D02*
X151145489Y-90578328D01*
X146502632Y-67678328D02*
X146502632Y-66178328D01*
X146502632Y-66178328D02*
X147074061Y-66178328D01*
X147074061Y-66178328D02*
X147216918Y-66249757D01*
X147216918Y-66249757D02*
X147288347Y-66321185D01*
X147288347Y-66321185D02*
X147359775Y-66464042D01*
X147359775Y-66464042D02*
X147359775Y-66678328D01*
X147359775Y-66678328D02*
X147288347Y-66821185D01*
X147288347Y-66821185D02*
X147216918Y-66892614D01*
X147216918Y-66892614D02*
X147074061Y-66964042D01*
X147074061Y-66964042D02*
X146502632Y-66964042D01*
X148502632Y-66892614D02*
X148716918Y-66964042D01*
X148716918Y-66964042D02*
X148788347Y-67035471D01*
X148788347Y-67035471D02*
X148859775Y-67178328D01*
X148859775Y-67178328D02*
X148859775Y-67392614D01*
X148859775Y-67392614D02*
X148788347Y-67535471D01*
X148788347Y-67535471D02*
X148716918Y-67606900D01*
X148716918Y-67606900D02*
X148574061Y-67678328D01*
X148574061Y-67678328D02*
X148002632Y-67678328D01*
X148002632Y-67678328D02*
X148002632Y-66178328D01*
X148002632Y-66178328D02*
X148502632Y-66178328D01*
X148502632Y-66178328D02*
X148645490Y-66249757D01*
X148645490Y-66249757D02*
X148716918Y-66321185D01*
X148716918Y-66321185D02*
X148788347Y-66464042D01*
X148788347Y-66464042D02*
X148788347Y-66606900D01*
X148788347Y-66606900D02*
X148716918Y-66749757D01*
X148716918Y-66749757D02*
X148645490Y-66821185D01*
X148645490Y-66821185D02*
X148502632Y-66892614D01*
X148502632Y-66892614D02*
X148002632Y-66892614D01*
X150288347Y-67678328D02*
X149431204Y-67678328D01*
X149859775Y-67678328D02*
X149859775Y-66178328D01*
X149859775Y-66178328D02*
X149716918Y-66392614D01*
X149716918Y-66392614D02*
X149574061Y-66535471D01*
X149574061Y-66535471D02*
X149431204Y-66606900D01*
X151645489Y-66178328D02*
X150931203Y-66178328D01*
X150931203Y-66178328D02*
X150859775Y-66892614D01*
X150859775Y-66892614D02*
X150931203Y-66821185D01*
X150931203Y-66821185D02*
X151074061Y-66749757D01*
X151074061Y-66749757D02*
X151431203Y-66749757D01*
X151431203Y-66749757D02*
X151574061Y-66821185D01*
X151574061Y-66821185D02*
X151645489Y-66892614D01*
X151645489Y-66892614D02*
X151716918Y-67035471D01*
X151716918Y-67035471D02*
X151716918Y-67392614D01*
X151716918Y-67392614D02*
X151645489Y-67535471D01*
X151645489Y-67535471D02*
X151574061Y-67606900D01*
X151574061Y-67606900D02*
X151431203Y-67678328D01*
X151431203Y-67678328D02*
X151074061Y-67678328D01*
X151074061Y-67678328D02*
X150931203Y-67606900D01*
X150931203Y-67606900D02*
X150859775Y-67535471D01*
X146502632Y-77878328D02*
X146502632Y-76378328D01*
X146502632Y-76378328D02*
X147074061Y-76378328D01*
X147074061Y-76378328D02*
X147216918Y-76449757D01*
X147216918Y-76449757D02*
X147288347Y-76521185D01*
X147288347Y-76521185D02*
X147359775Y-76664042D01*
X147359775Y-76664042D02*
X147359775Y-76878328D01*
X147359775Y-76878328D02*
X147288347Y-77021185D01*
X147288347Y-77021185D02*
X147216918Y-77092614D01*
X147216918Y-77092614D02*
X147074061Y-77164042D01*
X147074061Y-77164042D02*
X146502632Y-77164042D01*
X148502632Y-77092614D02*
X148716918Y-77164042D01*
X148716918Y-77164042D02*
X148788347Y-77235471D01*
X148788347Y-77235471D02*
X148859775Y-77378328D01*
X148859775Y-77378328D02*
X148859775Y-77592614D01*
X148859775Y-77592614D02*
X148788347Y-77735471D01*
X148788347Y-77735471D02*
X148716918Y-77806900D01*
X148716918Y-77806900D02*
X148574061Y-77878328D01*
X148574061Y-77878328D02*
X148002632Y-77878328D01*
X148002632Y-77878328D02*
X148002632Y-76378328D01*
X148002632Y-76378328D02*
X148502632Y-76378328D01*
X148502632Y-76378328D02*
X148645490Y-76449757D01*
X148645490Y-76449757D02*
X148716918Y-76521185D01*
X148716918Y-76521185D02*
X148788347Y-76664042D01*
X148788347Y-76664042D02*
X148788347Y-76806900D01*
X148788347Y-76806900D02*
X148716918Y-76949757D01*
X148716918Y-76949757D02*
X148645490Y-77021185D01*
X148645490Y-77021185D02*
X148502632Y-77092614D01*
X148502632Y-77092614D02*
X148002632Y-77092614D01*
X150288347Y-77878328D02*
X149431204Y-77878328D01*
X149859775Y-77878328D02*
X149859775Y-76378328D01*
X149859775Y-76378328D02*
X149716918Y-76592614D01*
X149716918Y-76592614D02*
X149574061Y-76735471D01*
X149574061Y-76735471D02*
X149431204Y-76806900D01*
X151716918Y-77878328D02*
X150859775Y-77878328D01*
X151288346Y-77878328D02*
X151288346Y-76378328D01*
X151288346Y-76378328D02*
X151145489Y-76592614D01*
X151145489Y-76592614D02*
X151002632Y-76735471D01*
X151002632Y-76735471D02*
X150859775Y-76806900D01*
X147931203Y-88028328D02*
X147931203Y-86528328D01*
X147931203Y-86528328D02*
X148502632Y-86528328D01*
X148502632Y-86528328D02*
X148645489Y-86599757D01*
X148645489Y-86599757D02*
X148716918Y-86671185D01*
X148716918Y-86671185D02*
X148788346Y-86814042D01*
X148788346Y-86814042D02*
X148788346Y-87028328D01*
X148788346Y-87028328D02*
X148716918Y-87171185D01*
X148716918Y-87171185D02*
X148645489Y-87242614D01*
X148645489Y-87242614D02*
X148502632Y-87314042D01*
X148502632Y-87314042D02*
X147931203Y-87314042D01*
X149931203Y-87242614D02*
X150145489Y-87314042D01*
X150145489Y-87314042D02*
X150216918Y-87385471D01*
X150216918Y-87385471D02*
X150288346Y-87528328D01*
X150288346Y-87528328D02*
X150288346Y-87742614D01*
X150288346Y-87742614D02*
X150216918Y-87885471D01*
X150216918Y-87885471D02*
X150145489Y-87956900D01*
X150145489Y-87956900D02*
X150002632Y-88028328D01*
X150002632Y-88028328D02*
X149431203Y-88028328D01*
X149431203Y-88028328D02*
X149431203Y-86528328D01*
X149431203Y-86528328D02*
X149931203Y-86528328D01*
X149931203Y-86528328D02*
X150074061Y-86599757D01*
X150074061Y-86599757D02*
X150145489Y-86671185D01*
X150145489Y-86671185D02*
X150216918Y-86814042D01*
X150216918Y-86814042D02*
X150216918Y-86956900D01*
X150216918Y-86956900D02*
X150145489Y-87099757D01*
X150145489Y-87099757D02*
X150074061Y-87171185D01*
X150074061Y-87171185D02*
X149931203Y-87242614D01*
X149931203Y-87242614D02*
X149431203Y-87242614D01*
X151216918Y-86528328D02*
X151359775Y-86528328D01*
X151359775Y-86528328D02*
X151502632Y-86599757D01*
X151502632Y-86599757D02*
X151574061Y-86671185D01*
X151574061Y-86671185D02*
X151645489Y-86814042D01*
X151645489Y-86814042D02*
X151716918Y-87099757D01*
X151716918Y-87099757D02*
X151716918Y-87456900D01*
X151716918Y-87456900D02*
X151645489Y-87742614D01*
X151645489Y-87742614D02*
X151574061Y-87885471D01*
X151574061Y-87885471D02*
X151502632Y-87956900D01*
X151502632Y-87956900D02*
X151359775Y-88028328D01*
X151359775Y-88028328D02*
X151216918Y-88028328D01*
X151216918Y-88028328D02*
X151074061Y-87956900D01*
X151074061Y-87956900D02*
X151002632Y-87885471D01*
X151002632Y-87885471D02*
X150931203Y-87742614D01*
X150931203Y-87742614D02*
X150859775Y-87456900D01*
X150859775Y-87456900D02*
X150859775Y-87099757D01*
X150859775Y-87099757D02*
X150931203Y-86814042D01*
X150931203Y-86814042D02*
X151002632Y-86671185D01*
X151002632Y-86671185D02*
X151074061Y-86599757D01*
X151074061Y-86599757D02*
X151216918Y-86528328D01*
X148145489Y-65056900D02*
X148359775Y-65128328D01*
X148359775Y-65128328D02*
X148716917Y-65128328D01*
X148716917Y-65128328D02*
X148859775Y-65056900D01*
X148859775Y-65056900D02*
X148931203Y-64985471D01*
X148931203Y-64985471D02*
X149002632Y-64842614D01*
X149002632Y-64842614D02*
X149002632Y-64699757D01*
X149002632Y-64699757D02*
X148931203Y-64556900D01*
X148931203Y-64556900D02*
X148859775Y-64485471D01*
X148859775Y-64485471D02*
X148716917Y-64414042D01*
X148716917Y-64414042D02*
X148431203Y-64342614D01*
X148431203Y-64342614D02*
X148288346Y-64271185D01*
X148288346Y-64271185D02*
X148216917Y-64199757D01*
X148216917Y-64199757D02*
X148145489Y-64056900D01*
X148145489Y-64056900D02*
X148145489Y-63914042D01*
X148145489Y-63914042D02*
X148216917Y-63771185D01*
X148216917Y-63771185D02*
X148288346Y-63699757D01*
X148288346Y-63699757D02*
X148431203Y-63628328D01*
X148431203Y-63628328D02*
X148788346Y-63628328D01*
X148788346Y-63628328D02*
X149002632Y-63699757D01*
X150502631Y-64985471D02*
X150431203Y-65056900D01*
X150431203Y-65056900D02*
X150216917Y-65128328D01*
X150216917Y-65128328D02*
X150074060Y-65128328D01*
X150074060Y-65128328D02*
X149859774Y-65056900D01*
X149859774Y-65056900D02*
X149716917Y-64914042D01*
X149716917Y-64914042D02*
X149645488Y-64771185D01*
X149645488Y-64771185D02*
X149574060Y-64485471D01*
X149574060Y-64485471D02*
X149574060Y-64271185D01*
X149574060Y-64271185D02*
X149645488Y-63985471D01*
X149645488Y-63985471D02*
X149716917Y-63842614D01*
X149716917Y-63842614D02*
X149859774Y-63699757D01*
X149859774Y-63699757D02*
X150074060Y-63628328D01*
X150074060Y-63628328D02*
X150216917Y-63628328D01*
X150216917Y-63628328D02*
X150431203Y-63699757D01*
X150431203Y-63699757D02*
X150502631Y-63771185D01*
X151859774Y-65128328D02*
X151145488Y-65128328D01*
X151145488Y-65128328D02*
X151145488Y-63628328D01*
X146502632Y-80378328D02*
X146502632Y-78878328D01*
X146502632Y-78878328D02*
X147074061Y-78878328D01*
X147074061Y-78878328D02*
X147216918Y-78949757D01*
X147216918Y-78949757D02*
X147288347Y-79021185D01*
X147288347Y-79021185D02*
X147359775Y-79164042D01*
X147359775Y-79164042D02*
X147359775Y-79378328D01*
X147359775Y-79378328D02*
X147288347Y-79521185D01*
X147288347Y-79521185D02*
X147216918Y-79592614D01*
X147216918Y-79592614D02*
X147074061Y-79664042D01*
X147074061Y-79664042D02*
X146502632Y-79664042D01*
X148502632Y-79592614D02*
X148716918Y-79664042D01*
X148716918Y-79664042D02*
X148788347Y-79735471D01*
X148788347Y-79735471D02*
X148859775Y-79878328D01*
X148859775Y-79878328D02*
X148859775Y-80092614D01*
X148859775Y-80092614D02*
X148788347Y-80235471D01*
X148788347Y-80235471D02*
X148716918Y-80306900D01*
X148716918Y-80306900D02*
X148574061Y-80378328D01*
X148574061Y-80378328D02*
X148002632Y-80378328D01*
X148002632Y-80378328D02*
X148002632Y-78878328D01*
X148002632Y-78878328D02*
X148502632Y-78878328D01*
X148502632Y-78878328D02*
X148645490Y-78949757D01*
X148645490Y-78949757D02*
X148716918Y-79021185D01*
X148716918Y-79021185D02*
X148788347Y-79164042D01*
X148788347Y-79164042D02*
X148788347Y-79306900D01*
X148788347Y-79306900D02*
X148716918Y-79449757D01*
X148716918Y-79449757D02*
X148645490Y-79521185D01*
X148645490Y-79521185D02*
X148502632Y-79592614D01*
X148502632Y-79592614D02*
X148002632Y-79592614D01*
X150288347Y-80378328D02*
X149431204Y-80378328D01*
X149859775Y-80378328D02*
X149859775Y-78878328D01*
X149859775Y-78878328D02*
X149716918Y-79092614D01*
X149716918Y-79092614D02*
X149574061Y-79235471D01*
X149574061Y-79235471D02*
X149431204Y-79306900D01*
X151216918Y-78878328D02*
X151359775Y-78878328D01*
X151359775Y-78878328D02*
X151502632Y-78949757D01*
X151502632Y-78949757D02*
X151574061Y-79021185D01*
X151574061Y-79021185D02*
X151645489Y-79164042D01*
X151645489Y-79164042D02*
X151716918Y-79449757D01*
X151716918Y-79449757D02*
X151716918Y-79806900D01*
X151716918Y-79806900D02*
X151645489Y-80092614D01*
X151645489Y-80092614D02*
X151574061Y-80235471D01*
X151574061Y-80235471D02*
X151502632Y-80306900D01*
X151502632Y-80306900D02*
X151359775Y-80378328D01*
X151359775Y-80378328D02*
X151216918Y-80378328D01*
X151216918Y-80378328D02*
X151074061Y-80306900D01*
X151074061Y-80306900D02*
X151002632Y-80235471D01*
X151002632Y-80235471D02*
X150931203Y-80092614D01*
X150931203Y-80092614D02*
X150859775Y-79806900D01*
X150859775Y-79806900D02*
X150859775Y-79449757D01*
X150859775Y-79449757D02*
X150931203Y-79164042D01*
X150931203Y-79164042D02*
X151002632Y-79021185D01*
X151002632Y-79021185D02*
X151074061Y-78949757D01*
X151074061Y-78949757D02*
X151216918Y-78878328D01*
D12*
X142133333Y-108057200D02*
X142276190Y-108104819D01*
X142276190Y-108104819D02*
X142514285Y-108104819D01*
X142514285Y-108104819D02*
X142609523Y-108057200D01*
X142609523Y-108057200D02*
X142657142Y-108009580D01*
X142657142Y-108009580D02*
X142704761Y-107914342D01*
X142704761Y-107914342D02*
X142704761Y-107819104D01*
X142704761Y-107819104D02*
X142657142Y-107723866D01*
X142657142Y-107723866D02*
X142609523Y-107676247D01*
X142609523Y-107676247D02*
X142514285Y-107628628D01*
X142514285Y-107628628D02*
X142323809Y-107581009D01*
X142323809Y-107581009D02*
X142228571Y-107533390D01*
X142228571Y-107533390D02*
X142180952Y-107485771D01*
X142180952Y-107485771D02*
X142133333Y-107390533D01*
X142133333Y-107390533D02*
X142133333Y-107295295D01*
X142133333Y-107295295D02*
X142180952Y-107200057D01*
X142180952Y-107200057D02*
X142228571Y-107152438D01*
X142228571Y-107152438D02*
X142323809Y-107104819D01*
X142323809Y-107104819D02*
X142561904Y-107104819D01*
X142561904Y-107104819D02*
X142704761Y-107152438D01*
X142990476Y-107104819D02*
X143561904Y-107104819D01*
X143276190Y-108104819D02*
X143276190Y-107104819D01*
X144371428Y-108104819D02*
X143895238Y-108104819D01*
X143895238Y-108104819D02*
X143895238Y-107104819D01*
X144704762Y-108104819D02*
X144704762Y-107438152D01*
X144704762Y-107104819D02*
X144657143Y-107152438D01*
X144657143Y-107152438D02*
X144704762Y-107200057D01*
X144704762Y-107200057D02*
X144752381Y-107152438D01*
X144752381Y-107152438D02*
X144704762Y-107104819D01*
X144704762Y-107104819D02*
X144704762Y-107200057D01*
X145180952Y-107438152D02*
X145180952Y-108104819D01*
X145180952Y-107533390D02*
X145228571Y-107485771D01*
X145228571Y-107485771D02*
X145323809Y-107438152D01*
X145323809Y-107438152D02*
X145466666Y-107438152D01*
X145466666Y-107438152D02*
X145561904Y-107485771D01*
X145561904Y-107485771D02*
X145609523Y-107581009D01*
X145609523Y-107581009D02*
X145609523Y-108104819D01*
X146085714Y-108104819D02*
X146085714Y-107104819D01*
X146180952Y-107723866D02*
X146466666Y-108104819D01*
X146466666Y-107438152D02*
X146085714Y-107819104D01*
D13*
%TO.C,D1*%
X118912500Y-96365000D02*
X116627500Y-96365000D01*
X116627500Y-97835000D02*
X118912500Y-97835000D01*
X116627500Y-96365000D02*
X116627500Y-97835000D01*
%TO.C,U5*%
X137525000Y-59525000D02*
X137525000Y-60025000D01*
X137225000Y-64725000D02*
X136475000Y-64725000D01*
X137025000Y-59525000D02*
X137525000Y-59525000D01*
X134725000Y-64725000D02*
X134225000Y-64725000D01*
X134225000Y-64725000D02*
X134225000Y-64225000D01*
X134225000Y-60025000D02*
X134225000Y-59525000D01*
X134225000Y-59525000D02*
X134725000Y-59525000D01*
X137425000Y-65085000D02*
X137425000Y-64725000D01*
X137785000Y-64725000D01*
X137425000Y-65085000D01*
G36*
X137425000Y-65085000D02*
G01*
X137425000Y-64725000D01*
X137785000Y-64725000D01*
X137425000Y-65085000D01*
G37*
%TO.C,J5*%
X124070000Y-101325000D02*
X124070000Y-102575000D01*
X124360000Y-101615000D02*
X124360000Y-107585000D01*
X124360000Y-107585000D02*
X136980000Y-107585000D01*
X124370000Y-101625000D02*
X124370000Y-102375000D01*
X124370000Y-102375000D02*
X126170000Y-102375000D01*
X124370000Y-103875000D02*
X125120000Y-103875000D01*
X125120000Y-103875000D02*
X125120000Y-106825000D01*
X125120000Y-106825000D02*
X130670000Y-106825000D01*
X125320000Y-101325000D02*
X124070000Y-101325000D01*
X126170000Y-101625000D02*
X124370000Y-101625000D01*
X126170000Y-102375000D02*
X126170000Y-101625000D01*
X127670000Y-101625000D02*
X127670000Y-102375000D01*
X127670000Y-102375000D02*
X133670000Y-102375000D01*
X133670000Y-101625000D02*
X127670000Y-101625000D01*
X133670000Y-102375000D02*
X133670000Y-101625000D01*
X135170000Y-101625000D02*
X135170000Y-102375000D01*
X135170000Y-102375000D02*
X136970000Y-102375000D01*
X136220000Y-103875000D02*
X136220000Y-106825000D01*
X136220000Y-106825000D02*
X130670000Y-106825000D01*
X136970000Y-101625000D02*
X135170000Y-101625000D01*
X136970000Y-102375000D02*
X136970000Y-101625000D01*
X136970000Y-103875000D02*
X136220000Y-103875000D01*
X136980000Y-101615000D02*
X124360000Y-101615000D01*
X136980000Y-107585000D02*
X136980000Y-101615000D01*
D14*
%TO.C,U3*%
X128500000Y-60250000D02*
X128500000Y-60730000D01*
X128500000Y-60250000D02*
X128730000Y-60250000D01*
X128500000Y-63750000D02*
X128500000Y-63270000D01*
X128500000Y-63750000D02*
X128730000Y-63750000D01*
X131500000Y-60250000D02*
X131270000Y-60250000D01*
X131500000Y-60250000D02*
X131500000Y-60730000D01*
X131500000Y-63750000D02*
X131270000Y-63750000D01*
X131500000Y-63750000D02*
X131500000Y-63270000D01*
D15*
X127750000Y-61200000D02*
G75*
G02*
X127550000Y-61200000I-100000J0D01*
G01*
X127550000Y-61200000D02*
G75*
G02*
X127750000Y-61200000I100000J0D01*
G01*
D13*
%TO.C,U1*%
X127390000Y-84890000D02*
X127390000Y-85340000D01*
X127390000Y-92110000D02*
X127390000Y-91660000D01*
X127840000Y-84890000D02*
X127390000Y-84890000D01*
X127840000Y-92110000D02*
X127390000Y-92110000D01*
X134160000Y-84890000D02*
X134610000Y-84890000D01*
X134160000Y-92110000D02*
X134610000Y-92110000D01*
X134610000Y-84890000D02*
X134610000Y-85340000D01*
X134610000Y-92110000D02*
X134610000Y-91660000D01*
X126800000Y-85340000D02*
X126460000Y-84870000D01*
X127140000Y-84870000D01*
X126800000Y-85340000D01*
G36*
X126800000Y-85340000D02*
G01*
X126460000Y-84870000D01*
X127140000Y-84870000D01*
X126800000Y-85340000D01*
G37*
%TO.C,R6*%
X120120000Y-96946359D02*
X120120000Y-97253641D01*
X120880000Y-96946359D02*
X120880000Y-97253641D01*
%TO.C,U2*%
X124065000Y-63150000D02*
X124065000Y-61650000D01*
X125785000Y-63150000D02*
X125785000Y-61650000D01*
X124325000Y-63880000D02*
X124045000Y-63600000D01*
X124325000Y-63600000D01*
X124325000Y-63880000D01*
G36*
X124325000Y-63880000D02*
G01*
X124045000Y-63600000D01*
X124325000Y-63600000D01*
X124325000Y-63880000D01*
G37*
%TO.C,C1*%
X127659420Y-80790000D02*
X127940580Y-80790000D01*
X127659420Y-81810000D02*
X127940580Y-81810000D01*
%TO.C,C4*%
X134007836Y-93890000D02*
X133792164Y-93890000D01*
X134007836Y-94610000D02*
X133792164Y-94610000D01*
%TO.C,R2*%
X133006359Y-78520000D02*
X133313641Y-78520000D01*
X133006359Y-79280000D02*
X133313641Y-79280000D01*
%TO.C,R5*%
X117570000Y-92746359D02*
X117570000Y-93053641D01*
X118330000Y-92746359D02*
X118330000Y-93053641D01*
%TO.C,C12*%
X135590000Y-93092164D02*
X135590000Y-93307836D01*
X136310000Y-93092164D02*
X136310000Y-93307836D01*
%TO.C,J2*%
X104670000Y-60590000D02*
X106000000Y-60590000D01*
X104670000Y-61920000D02*
X104670000Y-60590000D01*
X104670000Y-63190000D02*
X104670000Y-86110000D01*
X104670000Y-63190000D02*
X107330000Y-63190000D01*
X104670000Y-86110000D02*
X107330000Y-86110000D01*
X107330000Y-63190000D02*
X107330000Y-86110000D01*
D12*
%TO.C,JP2*%
X116780000Y-99100000D02*
X117280000Y-98600000D01*
X116780000Y-99900000D02*
X116780000Y-99100000D01*
X117280000Y-98600000D02*
X120880000Y-98600000D01*
X117280000Y-100400000D02*
X116780000Y-99900000D01*
X120880000Y-98600000D02*
X121380000Y-99100000D01*
X120880000Y-100400000D02*
X117280000Y-100400000D01*
X121380000Y-99100000D02*
X121380000Y-99900000D01*
X121380000Y-99900000D02*
X120880000Y-100400000D01*
D13*
%TO.C,R1*%
X107420000Y-94303641D02*
X107420000Y-93996359D01*
X108180000Y-94303641D02*
X108180000Y-93996359D01*
%TO.C,R3*%
X131113641Y-78520000D02*
X130806359Y-78520000D01*
X131113641Y-79280000D02*
X130806359Y-79280000D01*
%TO.C,R4*%
X117427500Y-90062742D02*
X117427500Y-90537258D01*
X118472500Y-90062742D02*
X118472500Y-90537258D01*
%TO.C,C2*%
X128092164Y-82340000D02*
X128307836Y-82340000D01*
X128092164Y-83060000D02*
X128307836Y-83060000D01*
%TO.C,C8*%
X122440000Y-89207836D02*
X122440000Y-88992164D01*
X123160000Y-89207836D02*
X123160000Y-88992164D01*
%TO.C,C10*%
X130632836Y-64640000D02*
X130417164Y-64640000D01*
X130632836Y-65360000D02*
X130417164Y-65360000D01*
%TO.C,STLink*%
X139670000Y-106280000D02*
X139670000Y-105150000D01*
X139735000Y-102750000D02*
X148745000Y-102750000D01*
X139735000Y-103572470D02*
X139735000Y-102750000D01*
X139735000Y-104390000D02*
X139735000Y-104187530D01*
X139866529Y-104390000D02*
X139735000Y-104390000D01*
X140430000Y-106280000D02*
X139670000Y-106280000D01*
X141136529Y-104390000D02*
X140993471Y-104390000D01*
X141190000Y-104586529D02*
X141190000Y-104443471D01*
X141190000Y-106280000D02*
X141190000Y-105713471D01*
X141190000Y-106280000D02*
X148745000Y-106280000D01*
X148745000Y-103572470D02*
X148745000Y-102750000D01*
X148745000Y-104842470D02*
X148745000Y-104187530D01*
X148745000Y-106280000D02*
X148745000Y-105457530D01*
%TO.C,J3*%
X152670000Y-60590000D02*
X154000000Y-60590000D01*
X152670000Y-61920000D02*
X152670000Y-60590000D01*
X152670000Y-63190000D02*
X152670000Y-98810000D01*
X152670000Y-63190000D02*
X155330000Y-63190000D01*
X152670000Y-98810000D02*
X155330000Y-98810000D01*
X155330000Y-63190000D02*
X155330000Y-98810000D01*
%TO.C,J4*%
X110820000Y-101250000D02*
X110820000Y-102500000D01*
X111110000Y-101540000D02*
X111110000Y-107510000D01*
X111110000Y-107510000D02*
X121230000Y-107510000D01*
X111120000Y-101550000D02*
X111120000Y-102300000D01*
X111120000Y-102300000D02*
X112920000Y-102300000D01*
X111120000Y-103800000D02*
X111870000Y-103800000D01*
X111870000Y-103800000D02*
X111870000Y-106750000D01*
X111870000Y-106750000D02*
X116170000Y-106750000D01*
X112070000Y-101250000D02*
X110820000Y-101250000D01*
X112920000Y-101550000D02*
X111120000Y-101550000D01*
X112920000Y-102300000D02*
X112920000Y-101550000D01*
X114420000Y-101550000D02*
X114420000Y-102300000D01*
X114420000Y-102300000D02*
X117920000Y-102300000D01*
X117920000Y-101550000D02*
X114420000Y-101550000D01*
X117920000Y-102300000D02*
X117920000Y-101550000D01*
X119420000Y-101550000D02*
X119420000Y-102300000D01*
X119420000Y-102300000D02*
X121220000Y-102300000D01*
X120470000Y-103800000D02*
X120470000Y-106750000D01*
X120470000Y-106750000D02*
X116170000Y-106750000D01*
X121220000Y-101550000D02*
X119420000Y-101550000D01*
X121220000Y-102300000D02*
X121220000Y-101550000D01*
X121220000Y-103800000D02*
X120470000Y-103800000D01*
X121230000Y-101540000D02*
X111110000Y-101540000D01*
X121230000Y-107510000D02*
X121230000Y-101540000D01*
D12*
%TO.C,JP1*%
X104950000Y-91570000D02*
X105450000Y-91070000D01*
X104950000Y-95170000D02*
X104950000Y-91570000D01*
X105450000Y-91070000D02*
X106250000Y-91070000D01*
X105450000Y-95670000D02*
X104950000Y-95170000D01*
X106250000Y-91070000D02*
X106750000Y-91570000D01*
X106250000Y-95670000D02*
X105450000Y-95670000D01*
X106750000Y-91570000D02*
X106750000Y-95170000D01*
X106750000Y-95170000D02*
X106250000Y-95670000D01*
D13*
%TO.C,C3*%
X136440000Y-85392164D02*
X136440000Y-85607836D01*
X137160000Y-85392164D02*
X137160000Y-85607836D01*
%TO.C,C7*%
X123640000Y-89207836D02*
X123640000Y-88992164D01*
X124360000Y-89207836D02*
X124360000Y-88992164D01*
%TO.C,C11*%
X137965000Y-62155336D02*
X137965000Y-61939664D01*
X138685000Y-62155336D02*
X138685000Y-61939664D01*
%TO.C,C6*%
X124840000Y-89207836D02*
X124840000Y-88992164D01*
X125560000Y-89207836D02*
X125560000Y-88992164D01*
%TO.C,C5*%
X124840000Y-85007836D02*
X124840000Y-84792164D01*
X125560000Y-85007836D02*
X125560000Y-84792164D01*
%TO.C,C9*%
X125032836Y-60240000D02*
X124817164Y-60240000D01*
X125032836Y-60960000D02*
X124817164Y-60960000D01*
%TD*%
%LPC*%
D16*
%TO.C,U3*%
X131000000Y-63250000D02*
X129000000Y-63250000D01*
X129000000Y-61108581D01*
X129358581Y-60750000D01*
X131000000Y-60750000D01*
X131000000Y-63250000D01*
G36*
X131000000Y-63250000D02*
G01*
X129000000Y-63250000D01*
X129000000Y-61108581D01*
X129358581Y-60750000D01*
X131000000Y-60750000D01*
X131000000Y-63250000D01*
G37*
%TD*%
D17*
%TO.C,D1*%
X118900000Y-97100000D03*
X117325000Y-97100000D03*
%TD*%
D18*
%TO.C,U5*%
X136950000Y-64000000D03*
X136950000Y-62750000D03*
X136950000Y-61500000D03*
X136950000Y-60250000D03*
X134800000Y-60250000D03*
X134800000Y-61500000D03*
X134800000Y-62750000D03*
X134800000Y-64000000D03*
%TD*%
D19*
%TO.C,J5*%
X126920000Y-104075000D03*
D20*
X129420000Y-104075000D03*
X131920000Y-104075000D03*
X134420000Y-104075000D03*
%TD*%
D21*
%TO.C,U3*%
X128475000Y-61200000D03*
X128475000Y-62000000D03*
X128475000Y-62800000D03*
D22*
X129200000Y-63775000D03*
X130000000Y-63775000D03*
X130800000Y-63775000D03*
D21*
X131525000Y-62800000D03*
X131525000Y-62000000D03*
X131525000Y-61200000D03*
D22*
X130800000Y-60225000D03*
X130000000Y-60225000D03*
X129200000Y-60225000D03*
%TD*%
D23*
%TO.C,H2*%
X154000000Y-56000000D03*
%TD*%
D24*
%TO.C,U1*%
X126837500Y-85750000D03*
X126837500Y-86250000D03*
X126837500Y-86750000D03*
X126837500Y-87250000D03*
X126837500Y-87750000D03*
X126837500Y-88250000D03*
X126837500Y-88750000D03*
X126837500Y-89250000D03*
X126837500Y-89750000D03*
X126837500Y-90250000D03*
X126837500Y-90750000D03*
X126837500Y-91250000D03*
D25*
X128250000Y-92662500D03*
X128750000Y-92662500D03*
X129250000Y-92662500D03*
X129750000Y-92662500D03*
X130250000Y-92662500D03*
X130750000Y-92662500D03*
X131250000Y-92662500D03*
X131750000Y-92662500D03*
X132250000Y-92662500D03*
X132750000Y-92662500D03*
X133250000Y-92662500D03*
X133750000Y-92662500D03*
D24*
X135162500Y-91250000D03*
X135162500Y-90750000D03*
X135162500Y-90250000D03*
X135162500Y-89750000D03*
X135162500Y-89250000D03*
X135162500Y-88750000D03*
X135162500Y-88250000D03*
X135162500Y-87750000D03*
X135162500Y-87250000D03*
X135162500Y-86750000D03*
X135162500Y-86250000D03*
X135162500Y-85750000D03*
D25*
X133750000Y-84337500D03*
X133250000Y-84337500D03*
X132750000Y-84337500D03*
X132250000Y-84337500D03*
X131750000Y-84337500D03*
X131250000Y-84337500D03*
X130750000Y-84337500D03*
X130250000Y-84337500D03*
X129750000Y-84337500D03*
X129250000Y-84337500D03*
X128750000Y-84337500D03*
X128250000Y-84337500D03*
%TD*%
D26*
%TO.C,R6*%
X120500000Y-96590000D03*
X120500000Y-97610000D03*
%TD*%
D27*
%TO.C,U2*%
X124525000Y-63100000D03*
X125325000Y-63100000D03*
X125325000Y-61700000D03*
X124525000Y-61700000D03*
%TD*%
D28*
%TO.C,C1*%
X127025000Y-81300000D03*
X128575000Y-81300000D03*
%TD*%
D23*
%TO.C,H3*%
X106000000Y-104000000D03*
%TD*%
D29*
%TO.C,C4*%
X134380000Y-94250000D03*
X133420000Y-94250000D03*
%TD*%
D30*
%TO.C,R2*%
X132650000Y-78900000D03*
X133670000Y-78900000D03*
%TD*%
D26*
%TO.C,R5*%
X117950000Y-92390000D03*
X117950000Y-93410000D03*
%TD*%
D31*
%TO.C,REF\u002A\u002A*%
X157150000Y-61950000D03*
%TD*%
D32*
%TO.C,C12*%
X135950000Y-92720000D03*
X135950000Y-93680000D03*
%TD*%
D33*
%TO.C,J2*%
X106000000Y-61920000D03*
D34*
X106000000Y-64460000D03*
X106000000Y-67000000D03*
X106000000Y-69540000D03*
X106000000Y-72080000D03*
X106000000Y-74620000D03*
X106000000Y-77160000D03*
X106000000Y-79700000D03*
X106000000Y-82240000D03*
X106000000Y-84780000D03*
%TD*%
D35*
%TO.C,JP2*%
X120350000Y-99500000D03*
X117810000Y-99500000D03*
%TD*%
D31*
%TO.C,REF\u002A\u002A*%
X103100000Y-61850000D03*
%TD*%
D23*
%TO.C,H4*%
X154000000Y-104000000D03*
%TD*%
D36*
%TO.C,R1*%
X107800000Y-94660000D03*
X107800000Y-93640000D03*
%TD*%
D37*
%TO.C,R3*%
X131470000Y-78900000D03*
X130450000Y-78900000D03*
%TD*%
D38*
%TO.C,R4*%
X117950000Y-89475000D03*
X117950000Y-91125000D03*
%TD*%
D23*
%TO.C,H1*%
X106000000Y-56000000D03*
%TD*%
D39*
%TO.C,C2*%
X127720000Y-82700000D03*
X128680000Y-82700000D03*
%TD*%
D40*
%TO.C,C8*%
X122800000Y-89580000D03*
X122800000Y-88620000D03*
%TD*%
D31*
%TO.C,REF\u002A\u002A*%
X156900000Y-97550000D03*
%TD*%
D29*
%TO.C,C10*%
X131005000Y-65000000D03*
X130045000Y-65000000D03*
%TD*%
D41*
%TO.C,STLink*%
X140430000Y-105150000D03*
D42*
X140430000Y-103880000D03*
X141700000Y-105150000D03*
X141700000Y-103880000D03*
X142970000Y-105150000D03*
X142970000Y-103880000D03*
X144240000Y-105150000D03*
X144240000Y-103880000D03*
X145510000Y-105150000D03*
X145510000Y-103880000D03*
X146780000Y-105150000D03*
X146780000Y-103880000D03*
X148050000Y-105150000D03*
X148050000Y-103880000D03*
%TD*%
D33*
%TO.C,J3*%
X154000000Y-61920000D03*
D34*
X154000000Y-64460000D03*
X154000000Y-67000000D03*
X154000000Y-69540000D03*
X154000000Y-72080000D03*
X154000000Y-74620000D03*
X154000000Y-77160000D03*
X154000000Y-79700000D03*
X154000000Y-82240000D03*
X154000000Y-84780000D03*
X154000000Y-87320000D03*
X154000000Y-89860000D03*
X154000000Y-92400000D03*
X154000000Y-94940000D03*
X154000000Y-97480000D03*
%TD*%
D19*
%TO.C,J4*%
X113670000Y-104000000D03*
D20*
X116170000Y-104000000D03*
X118670000Y-104000000D03*
%TD*%
D35*
%TO.C,JP1*%
X105850000Y-92100000D03*
X105850000Y-94640000D03*
%TD*%
D32*
%TO.C,C3*%
X136800000Y-85020000D03*
X136800000Y-85980000D03*
%TD*%
D40*
%TO.C,C7*%
X124000000Y-89580000D03*
X124000000Y-88620000D03*
%TD*%
%TO.C,C11*%
X138325000Y-62527500D03*
X138325000Y-61567500D03*
%TD*%
%TO.C,C6*%
X125200000Y-89580000D03*
X125200000Y-88620000D03*
%TD*%
%TO.C,C5*%
X125200000Y-85380000D03*
X125200000Y-84420000D03*
%TD*%
D29*
%TO.C,C9*%
X125405000Y-60600000D03*
X124445000Y-60600000D03*
%TD*%
%LPD*%
M02*
